<?xml version="1.0" encoding="UTF-8"?>
<svg width="1656px" height="300px" viewBox="0 0 1656 300" version="1.1" xmlns="http://www.w3.org/2000/svg" xmlns:xlink="http://www.w3.org/1999/xlink">
    <!-- Generator: Sketch 52.4 (67378) - http://www.bohemiancoding.com/sketch -->
    <title>5</title>
    <desc>Created with Sketch.</desc>
    <g id="Page-1" stroke="none" stroke-width="1" fill="none" fill-rule="evenodd">
        <g id="5">
            <path d="M362.037943,145 L543.5,145 L543.5,126.221159 C543.5,124.442162 544.942162,123 546.721159,123 C547.221228,123 547.71443,123.116429 548.161705,123.340067 L595.718681,147.118555 C597.309865,147.914146 597.954819,149.84901 597.159228,151.440193 C596.847536,152.063576 596.342064,152.569048 595.718681,152.88074 L548.161705,176.659228 C546.570522,177.454819 544.635659,176.809865 543.840067,175.218681 C543.616429,174.771406 543.5,174.278204 543.5,173.778135 L543.5,155 L362.037943,155 C359.69313,167.522838 348.70332,177 335.5,177 C320.588312,177 308.5,164.911688 308.5,150 C308.5,135.088312 320.588312,123 335.5,123 C348.70332,123 359.69313,132.477162 362.037943,145 Z M318.5,150 C318.5,159.388841 326.111159,167 335.5,167 C344.888841,167 352.5,159.388841 352.5,150 C352.5,140.611159 344.888841,133 335.5,133 C326.111159,133 318.5,140.611159 318.5,150 Z" id="Line" fill="#000000" fill-rule="nonzero"></path>
            <path d="M1092.53794,145 L1274,145 L1274,126.221159 C1274,124.442162 1275.44216,123 1277.22116,123 C1277.72123,123 1278.21443,123.116429 1278.66171,123.340067 L1326.21868,147.118555 C1327.80986,147.914146 1328.45482,149.84901 1327.65923,151.440193 C1327.34754,152.063576 1326.84206,152.569048 1326.21868,152.88074 L1278.66171,176.659228 C1277.07052,177.454819 1275.13566,176.809865 1274.34007,175.218681 C1274.11643,174.771406 1274,174.278204 1274,173.778135 L1274,155 L1092.53794,155 C1090.19313,167.522838 1079.20332,177 1066,177 C1051.08831,177 1039,164.911688 1039,150 C1039,135.088312 1051.08831,123 1066,123 C1079.20332,123 1090.19313,132.477162 1092.53794,145 Z M1049,150 C1049,159.388841 1056.61116,167 1066,167 C1075.38884,167 1083,159.388841 1083,150 C1083,140.611159 1075.38884,133 1066,133 C1056.61116,133 1049,140.611159 1049,150 Z" id="Line" fill="#000000" fill-rule="nonzero" transform="translate(1183.500000, 150.000000) scale(-1, 1) translate(-1183.500000, -150.000000) "></path>
            <g id="User">
                <circle id="Oval" fill="#FFFFFF" cx="150" cy="150" r="143.877551"></circle>
                <path d="M150,300 C67.1572875,300 1.11022302e-14,232.842712 0,150 C-1.11022302e-14,67.1572875 67.1572875,2.22044605e-14 150,0 C232.842712,-2.22044605e-14 300,67.1572875 300,150 C300,189.782473 284.196474,227.93556 256.066017,256.066017 C227.93556,284.196474 189.782473,300 150,300 Z M150,12.5 C74.0608469,12.5 12.5,74.0608469 12.5,150 C12.5,225.939153 74.0608469,287.5 150,287.5 C225.939153,287.5 287.5,225.939153 287.5,150 C287.5,74.0608469 225.939153,12.5 150,12.5 Z" id="Shape" fill="#000000" fill-rule="nonzero"></path>
                <circle id="Oval" fill="#EC5F67" cx="150" cy="150" r="119.387755"></circle>
                <circle id="Oval" fill="#FFFFFF" cx="151.020408" cy="100" r="40.8163265"></circle>
                <path d="M80.5052967,183.311689 C89.6791053,152.006314 118.493531,130.52242 151.185969,130.612527 C184.77802,130.612527 217.121296,156.401479 221.991519,183.810026 C226.861742,211.218574 192.145793,216.326531 151.185969,216.326531 C110.226145,216.326531 73.262401,212.589001 80.5052967,183.311689 Z" id="Path" fill="#FFFFFF"></path>
            </g>
            <g id="Browser" transform="translate(640.000000, 1.000000)">
                <rect id="Rectangle" fill="#FFFFFF" x="7.8" y="8.3" width="345" height="270"></rect>
                <path d="M352.8,285.8 L7.8,285.8 C3.65786438,285.8 0.3,282.442136 0.3,278.3 L0.3,8.3 C0.3,4.15786438 3.65786438,0.8 7.8,0.8 L352.8,0.8 C356.942136,0.8 360.3,4.15786438 360.3,8.3 L360.3,278.3 C360.3,282.442136 356.942136,285.8 352.8,285.8 Z M15.3,270.8 L345.3,270.8 L345.3,15.8 L15.3,15.8 L15.3,270.8 Z" id="Shape" fill="#000000" fill-rule="nonzero"></path>
                <path d="M352.8,60.8 L7.8,60.8 C3.65786438,60.8 0.3,57.4421356 0.3,53.3 C0.3,49.1578644 3.65786438,45.8 7.8,45.8 L352.8,45.8 C356.942136,45.8 360.3,49.1578644 360.3,53.3 C360.3,57.4421356 356.942136,60.8 352.8,60.8 Z" id="Path" fill="#000000"></path>
                <circle id="Oval" fill="#000000" cx="30.3" cy="30.8" r="7.5"></circle>
                <circle id="Oval" fill="#000000" cx="60.3" cy="30.8" r="7.5"></circle>
                <circle id="Oval" fill="#000000" cx="90.3" cy="30.8" r="7.5"></circle>
                <path d="M240.3,195.8 L120.3,195.8 C116.157864,195.8 112.8,192.442136 112.8,188.3 L112.8,158.3 C112.8,154.157864 116.157864,150.8 120.3,150.8 L240.3,150.8 C244.442136,150.8 247.8,154.157864 247.8,158.3 L247.8,188.3 C247.8,192.442136 244.442136,195.8 240.3,195.8 Z M127.8,180.8 L232.8,180.8 L232.8,165.8 L127.8,165.8 L127.8,180.8 Z" id="Shape" fill="#000000" fill-rule="nonzero"></path>
                <rect id="Rectangle" fill="#EC5F67" x="15.45" y="60.8" width="329.85" height="37.8"></rect>
            </g>
            <g id="Server" transform="translate(1345.000000, 4.000000)">
                <rect id="Rectangle" fill="#EC5F67" x="68.3478261" y="79.0869565" width="177.913043" height="158.347826"></rect>
                <path d="M246.26087,243.826087 L68.3478261,243.826087 C64.745969,243.826087 61.826087,240.906205 61.826087,237.304348 L61.826087,79.0869565 C61.826087,75.4850995 64.745969,72.5652174 68.3478261,72.5652174 L246.26087,72.5652174 C249.862727,72.5652174 252.782609,75.4850995 252.782609,79.0869565 L252.782609,237.565217 C252.642514,241.064808 249.763262,243.82889 246.26087,243.826087 Z M74.8695652,230.782609 L239.73913,230.782609 L239.73913,85.6086957 L74.8695652,85.6086957 L74.8695652,230.782609 Z" id="Shape" fill="#000000" fill-rule="nonzero"></path>
                <rect id="Rectangle" fill="#FFFFFF" x="51.1304348" y="129.043478" width="212.217391" height="58.6956522"></rect>
                <path d="M263.347826,194.26087 L51.1304348,194.26087 C47.5577158,194.191477 44.6780883,191.311849 44.6086957,187.73913 L44.6086957,129.043478 C44.6086957,125.441621 47.5285777,122.521739 51.1304348,122.521739 L263.347826,122.521739 C266.949683,122.521739 269.869565,125.441621 269.869565,129.043478 L269.869565,187.73913 C269.869565,191.340987 266.949683,194.26087 263.347826,194.26087 Z M57.6521739,181.217391 L256.826087,181.217391 L256.826087,135.565217 L57.6521739,135.565217 L57.6521739,181.217391 Z" id="Shape" fill="#000000" fill-rule="nonzero"></path>
                <rect id="Rectangle" fill="#FFFFFF" x="51.1304348" y="38.6521739" width="212.217391" height="58.6956522"></rect>
                <path d="M263.347826,103.869565 L51.1304348,103.869565 C47.5577158,103.800173 44.6780883,100.920545 44.6086957,97.3478261 L44.6086957,38.6521739 C44.6086957,35.0503168 47.5285777,32.1304348 51.1304348,32.1304348 L263.347826,32.1304348 C266.949683,32.1304348 269.869565,35.0503168 269.869565,38.6521739 L269.869565,97.3478261 C269.869565,100.949683 266.949683,103.869565 263.347826,103.869565 Z M57.6521739,90.826087 L256.826087,90.826087 L256.826087,45.173913 L57.6521739,45.173913 L57.6521739,90.826087 Z" id="Shape" fill="#000000" fill-rule="nonzero"></path>
                <rect id="Rectangle" fill="#FFFFFF" x="51.1304348" y="219.304348" width="212.217391" height="58.6956522"></rect>
                <path d="M263.347826,284.521739 L51.1304348,284.521739 C47.5285777,284.521739 44.6086957,281.601857 44.6086957,278 L44.6086957,219.304348 C44.6780883,215.731629 47.5577158,212.852001 51.1304348,212.782609 L263.347826,212.782609 C266.949683,212.782609 269.869565,215.702491 269.869565,219.304348 L269.869565,278 C269.869565,281.601857 266.949683,284.521739 263.347826,284.521739 Z M57.6521739,271.478261 L256.826087,271.478261 L256.826087,225.826087 L57.6521739,225.826087 L57.6521739,271.478261 Z" id="Shape" fill="#000000" fill-rule="nonzero"></path>
                <path d="M45,259.347826 L7.17391304,259.347826 C3.6011941,259.278433 0.721566597,256.398806 0.652173913,252.826087 C0.652173913,249.22423 3.57205598,246.304348 7.17391304,246.304348 L45,246.304348 C48.6018571,246.304348 51.5217391,249.22423 51.5217391,252.826087 C51.4523464,256.398806 48.5727189,259.278433 45,259.347826 Z" id="Path" fill="#000000"></path>
                <path d="M304.043478,259.347826 L266.347826,259.347826 C262.745969,259.347826 259.826087,256.427944 259.826087,252.826087 C259.826087,249.22423 262.745969,246.304348 266.347826,246.304348 L304.043478,246.304348 C307.645335,246.304348 310.565217,249.22423 310.565217,252.826087 C310.565217,256.427944 307.645335,259.347826 304.043478,259.347826 Z" id="Path" fill="#000000"></path>
                <rect id="Rectangle" fill="#000000" x="31.826087" y="240.956522" width="16.4347826" height="23.3478261"></rect>
                <rect id="Rectangle" fill="#000000" x="266.347826" y="240.956522" width="16.4347826" height="23.3478261"></rect>
                <path d="M228.913043,163.217391 L154.173913,163.217391 C150.572056,163.217391 147.652174,160.297509 147.652174,156.695652 C147.652174,153.093795 150.572056,150.173913 154.173913,150.173913 L228.913043,150.173913 C232.514901,150.173913 235.434783,153.093795 235.434783,156.695652 C235.434783,160.297509 232.514901,163.217391 228.913043,163.217391 Z" id="Path" fill="#EC5F67"></path>
                <path d="M231.391304,255.826087 L156.782609,255.826087 C153.180752,255.826087 150.26087,252.906205 150.26087,249.304348 C150.26087,245.702491 153.180752,242.782609 156.782609,242.782609 L231.391304,242.782609 C234.993161,242.782609 237.913043,245.702491 237.913043,249.304348 C237.913043,252.906205 234.993161,255.826087 231.391304,255.826087 Z" id="Path" fill="#EC5F67"></path>
                <path d="M228.913043,74.2608696 L154.173913,74.2608696 C150.572056,74.2608696 147.652174,71.3409875 147.652174,67.7391304 C147.652174,64.1372734 150.572056,61.2173913 154.173913,61.2173913 L228.913043,61.2173913 C232.485762,61.286784 235.36539,64.1664115 235.434783,67.7391304 C235.434783,69.4688032 234.747673,71.1276331 233.524609,72.3506964 C232.301546,73.5737597 230.642716,74.2608696 228.913043,74.2608696 Z" id="Path" fill="#EC5F67"></path>
                <circle id="Oval" fill="#000000" cx="121.826087" cy="68" r="8.08695652"></circle>
                <circle id="Oval" fill="#000000" cx="121.826087" cy="157.478261" r="8.08695652"></circle>
                <circle id="Oval" fill="#000000" cx="121.826087" cy="247.73913" r="8.08695652"></circle>
                <polygon id="Path" fill="#FFFFFF" points="236.869565 38.1304348 181.956522 38.1304348 194.347826 7.2173913 224.478261 7.2173913"></polygon>
                <path d="M236.869565,44.6521739 L181.956522,44.6521739 C179.769782,44.6542162 177.721701,43.5814118 176.478261,41.7826087 C175.503643,39.9013438 175.503643,37.6638736 176.478261,35.7826087 L188.869565,4.73913043 C189.875946,2.23209168 192.298567,0.582648061 195,0.565217391 L224.478261,0.565217391 C227.179694,0.582648061 229.602315,2.23209168 230.608696,4.73913043 L242.869565,35.7826087 C243.915165,37.6459489 243.915165,39.9192685 242.869565,41.7826087 C241.563972,43.78637 239.248927,44.8935652 236.869565,44.6521739 Z M191.608696,31.6086957 L227.217391,31.6086957 L220.043478,13.6086957 L198.652174,13.6086957 L191.608696,31.6086957 Z" id="Shape" fill="#000000" fill-rule="nonzero"></path>
            </g>
            <g id="Access-Token" transform="translate(1094.000000, 45.000000)">
                <polygon id="Path" fill="#FFFFFF" points="89.2944251 3.92421603 4.14634146 65.8231707 36.6506969 165.9277 141.938153 165.9277 174.442509 65.8231707"></polygon>
                <path d="M141.938153,169.555749 L36.6506969,169.555749 C34.8716359,169.673142 33.2709451,168.48047 32.8745645,166.74216 L0.666376307,66.9337979 C0.280027564,65.4985692 0.808158578,63.9728574 1.99912892,63.0836237 L87.1472125,1.2587108 C88.4401925,0.283807232 90.2226995,0.283807232 91.5156794,1.2587108 L176.663763,63.0836237 C177.922153,64.0575364 178.451771,65.7052379 177.996516,67.2299652 L145.418118,166.74216 C145.094893,168.400415 143.627328,169.586957 141.938153,169.555749 Z M39.3902439,162.151568 L139.272648,162.151568 L170.074042,67.2299652 L89.2944251,8.51480836 L8.51480836,67.2299652 L39.3902439,162.151568 Z" id="Shape" fill="#000000" fill-rule="nonzero"></path>
                <polygon id="Path" fill="#EC5F67" points="89.2944251 25.0261324 23.9155052 72.5609756 48.8675958 149.416376 129.721254 149.416376 154.673345 72.5609756"></polygon>
                <path d="M80.261324,88.4799652 C70.9434698,84.2302008 65.8480034,74.0601629 68.0224648,64.0524348 C70.1969263,54.0447067 79.0531896,46.906076 89.2944251,46.906076 C99.5356606,46.906076 108.391924,54.0447067 110.566385,64.0524348 C112.740847,74.0601629 107.64538,84.2302008 98.3275261,88.4799652 L98.3275261,97.4390244 L95.3658537,103.510453 L98.3275261,108.175087 L95.6620209,111.13676 L98.9939024,116.541812 L94.2552265,120.910279 L98.3275261,129.721254 L87.369338,136.162892 L79.9651568,128.758711 L79.9651568,88.4799652 L80.261324,88.4799652 Z" id="Path" fill="#FFFFFF"></path>
                <path d="M87.369338,140.16115 C86.3928403,140.147241 85.4613933,139.748049 84.7778746,139.050523 L77.3736934,131.646341 C76.6429475,130.955052 76.2393737,129.986475 76.2630662,128.980836 L76.2630662,90.7012195 C66.2504686,84.9204436 61.368909,73.1353163 64.3612588,61.9677148 C67.3536086,50.8001132 77.4737269,43.0346734 89.0352787,43.0346734 C100.596831,43.0346734 110.716949,50.8001132 113.709299,61.9677148 C116.701648,73.1353163 111.820089,84.9204436 101.807491,90.7012195 L101.807491,97.4390244 C101.836994,97.9822074 101.708402,98.5222962 101.437282,98.9939024 L99.3641115,103.288328 L101.215157,106.175958 C102.180935,107.551844 102.025138,109.421412 100.844948,110.618467 L100.030488,111.506969 L101.881533,114.616725 C102.812603,116.090507 102.563876,118.018147 101.289199,119.207317 L98.5496516,121.79878 L101.511324,128.462544 C102.271369,130.19021 101.639018,132.213733 100.030488,133.20122 L89.0722997,139.642857 C88.5462348,139.930671 87.9665479,140.107098 87.369338,140.16115 Z M83.8893728,127.796167 L87.9616725,131.794425 L93.662892,128.462544 L90.9233449,122.317073 C90.2667527,120.880575 90.5938317,119.185711 91.7378049,118.09669 L94.2552265,115.801394 L92.478223,112.987805 C91.6412805,111.568626 91.8210789,109.770642 92.9224739,108.545296 L93.7369338,107.656794 L92.2560976,105.43554 C91.6635005,104.298786 91.6635005,102.944246 92.2560976,101.807491 L94.847561,96.4764808 L94.847561,89.0722997 C94.6720152,87.4818214 95.5381799,85.9585662 96.9947735,85.2961672 C104.721115,81.8075057 108.964011,73.3987433 107.17971,65.1111992 C105.395409,56.823655 98.0680399,50.9059604 89.5905923,50.9059604 C81.1131448,50.9059604 73.7857757,56.823655 72.0014748,65.1111992 C70.2171738,73.3987433 74.4600693,81.8075057 82.1864111,85.2961672 C83.7309115,85.9825281 84.6144743,87.6277831 84.3336237,89.2944251 L83.8893728,127.796167 Z" id="Shape" fill="#000000" fill-rule="nonzero"></path>
                <circle id="Oval" fill="#000000" cx="89.2944251" cy="62.2691638" r="4.66463415"></circle>
            </g>
            <g id="Auth" transform="translate(1331.000000, 62.000000)">
                <path d="M38.2173913,150.347826 C10.0621733,129.96537 -1.71013464,93.7347748 9.08695652,60.6956522 L27.0869565,5.2173913 L143.695652,5.2173913 L161.695652,60.6956522 C172.406229,93.7347967 160.650458,129.9145 132.565217,150.347826 L85.3478261,184.608696 L38.2173913,150.347826 Z" id="Path" fill="#EC5F67"></path>
                <path d="M85.3478261,190 L35.6086957,153.913043 C5.89333244,132.406281 -6.51555014,94.1602066 4.91304348,59.3043478 L23.8695652,0.869565217 L146.826087,0.869565217 L165.782609,59.3043478 C177.211202,94.1602066 164.80232,132.406281 135.086957,153.913043 L85.3478261,190 Z M40.7391304,146.521739 L85.3478261,178.956522 L129.956522,146.521739 C156.603789,127.222259 167.742932,92.9263489 157.521739,61.6521739 L140.130435,9.47826087 L30.2173913,9.47826087 L12.826087,61.6521739 C2.60489392,92.9263489 13.7440368,127.222259 40.3913043,146.521739 L40.7391304,146.521739 Z" id="Shape" fill="#000000" fill-rule="nonzero"></path>
            </g>
        </g>
    </g>
</svg>