<?xml version="1.0" encoding="UTF-8"?>
<svg width="1656px" height="300px" viewBox="0 0 1656 300" version="1.1" xmlns="http://www.w3.org/2000/svg" xmlns:xlink="http://www.w3.org/1999/xlink">
    <!-- Generator: Sketch 52.4 (67378) - http://www.bohemiancoding.com/sketch -->
    <title>5</title>
    <desc>Created with Sketch.</desc>
    <g id="Page-1" stroke="none" stroke-width="1" fill="none" fill-rule="evenodd">
        <g id="5">
            <path d="M362.037943,145 L543.5,145 L543.5,126.221159 C543.5,124.442162 544.942162,123 546.721159,123 C547.221228,123 547.71443,123.116429 548.161705,123.340067 L595.718681,147.118555 C597.309865,147.914146 597.954819,149.84901 597.159228,151.440193 C596.847536,152.063576 596.342064,152.569048 595.718681,152.88074 L548.161705,176.659228 C546.570522,177.454819 544.635659,176.809865 543.840067,175.218681 C543.616429,174.771406 543.5,174.278204 543.5,173.778135 L543.5,155 L362.037943,155 C359.69313,167.522838 348.70332,177 335.5,177 C320.588312,177 308.5,164.911688 308.5,150 C308.5,135.088312 320.588312,123 335.5,123 C348.70332,123 359.69313,132.477162 362.037943,145 Z M318.5,150 C318.5,159.388841 326.111159,167 335.5,167 C344.888841,167 352.5,159.388841 352.5,150 C352.5,140.611159 344.888841,133 335.5,133 C326.111159,133 318.5,140.611159 318.5,150 Z" id="Line" fill="#000000" fill-rule="nonzero" transform="translate(453.000000, 150.000000) scale(-1, 1) translate(-453.000000, -150.000000) "></path>
            <path d="M1068.03794,145 L1249.5,145 L1249.5,126.221159 C1249.5,124.442162 1250.94216,123 1252.72116,123 C1253.22123,123 1253.71443,123.116429 1254.16171,123.340067 L1301.71868,147.118555 C1303.30986,147.914146 1303.95482,149.84901 1303.15923,151.440193 C1302.84754,152.063576 1302.34206,152.569048 1301.71868,152.88074 L1254.16171,176.659228 C1252.57052,177.454819 1250.63566,176.809865 1249.84007,175.218681 C1249.61643,174.771406 1249.5,174.278204 1249.5,173.778135 L1249.5,155 L1068.03794,155 C1065.69313,167.522838 1054.70332,177 1041.5,177 C1026.58831,177 1014.5,164.911688 1014.5,150 C1014.5,135.088312 1026.58831,123 1041.5,123 C1054.70332,123 1065.69313,132.477162 1068.03794,145 Z M1024.5,150 C1024.5,159.388841 1032.11116,167 1041.5,167 C1050.88884,167 1058.5,159.388841 1058.5,150 C1058.5,140.611159 1050.88884,133 1041.5,133 C1032.11116,133 1024.5,140.611159 1024.5,150 Z" id="Line" fill="#000000" fill-rule="nonzero" transform="translate(1159.000000, 150.000000) scale(-1, 1) translate(-1159.000000, -150.000000) "></path>
            <g id="User">
                <circle id="Oval" fill="#FFFFFF" cx="150" cy="150" r="143.877551"></circle>
                <path d="M150,300 C67.1572875,300 1.11022302e-14,232.842712 0,150 C-1.11022302e-14,67.1572875 67.1572875,2.22044605e-14 150,0 C232.842712,-2.22044605e-14 300,67.1572875 300,150 C300,189.782473 284.196474,227.93556 256.066017,256.066017 C227.93556,284.196474 189.782473,300 150,300 Z M150,12.5 C74.0608469,12.5 12.5,74.0608469 12.5,150 C12.5,225.939153 74.0608469,287.5 150,287.5 C225.939153,287.5 287.5,225.939153 287.5,150 C287.5,74.0608469 225.939153,12.5 150,12.5 Z" id="Shape" fill="#000000" fill-rule="nonzero"></path>
                <circle id="Oval" fill="#FAC863" cx="150" cy="150" r="119.387755"></circle>
                <circle id="Oval" fill="#FFFFFF" cx="151.020408" cy="100" r="40.8163265"></circle>
                <path d="M80.5052967,183.311689 C89.6791053,152.006314 118.493531,130.52242 151.185969,130.612527 C184.77802,130.612527 217.121296,156.401479 221.991519,183.810026 C226.861742,211.218574 192.145793,216.326531 151.185969,216.326531 C110.226145,216.326531 73.262401,212.589001 80.5052967,183.311689 Z" id="Path" fill="#FFFFFF"></path>
            </g>
            <g id="Browser" transform="translate(640.000000, 1.000000)">
                <rect id="Rectangle" fill="#FFFFFF" x="7.8" y="8.3" width="345" height="270"></rect>
                <path d="M352.8,285.8 L7.8,285.8 C3.65786438,285.8 0.3,282.442136 0.3,278.3 L0.3,8.3 C0.3,4.15786438 3.65786438,0.8 7.8,0.8 L352.8,0.8 C356.942136,0.8 360.3,4.15786438 360.3,8.3 L360.3,278.3 C360.3,282.442136 356.942136,285.8 352.8,285.8 Z M15.3,270.8 L345.3,270.8 L345.3,15.8 L15.3,15.8 L15.3,270.8 Z" id="Shape" fill="#000000" fill-rule="nonzero"></path>
                <path d="M352.8,60.8 L7.8,60.8 C3.65786438,60.8 0.3,57.4421356 0.3,53.3 C0.3,49.1578644 3.65786438,45.8 7.8,45.8 L352.8,45.8 C356.942136,45.8 360.3,49.1578644 360.3,53.3 C360.3,57.4421356 356.942136,60.8 352.8,60.8 Z" id="Path" fill="#000000"></path>
                <circle id="Oval" fill="#000000" cx="30.3" cy="30.8" r="7.5"></circle>
                <circle id="Oval" fill="#000000" cx="60.3" cy="30.8" r="7.5"></circle>
                <circle id="Oval" fill="#000000" cx="90.3" cy="30.8" r="7.5"></circle>
                <path d="M240.3,195.8 L120.3,195.8 C116.157864,195.8 112.8,192.442136 112.8,188.3 L112.8,158.3 C112.8,154.157864 116.157864,150.8 120.3,150.8 L240.3,150.8 C244.442136,150.8 247.8,154.157864 247.8,158.3 L247.8,188.3 C247.8,192.442136 244.442136,195.8 240.3,195.8 Z M127.8,180.8 L232.8,180.8 L232.8,165.8 L127.8,165.8 L127.8,180.8 Z" id="Shape" fill="#000000" fill-rule="nonzero"></path>
                <rect id="Rectangle" fill="#FAC863" x="15.45" y="60.8" width="329.85" height="37.8"></rect>
            </g>
            <g id="Server" transform="translate(1345.000000, 4.000000)">
                <rect id="Rectangle" fill="#FAC863" x="68.3478261" y="79.0869565" width="177.913043" height="158.347826"></rect>
                <path d="M246.26087,243.826087 L68.3478261,243.826087 C64.745969,243.826087 61.826087,240.906205 61.826087,237.304348 L61.826087,79.0869565 C61.826087,75.4850995 64.745969,72.5652174 68.3478261,72.5652174 L246.26087,72.5652174 C249.862727,72.5652174 252.782609,75.4850995 252.782609,79.0869565 L252.782609,237.565217 C252.642514,241.064808 249.763262,243.82889 246.26087,243.826087 Z M74.8695652,230.782609 L239.73913,230.782609 L239.73913,85.6086957 L74.8695652,85.6086957 L74.8695652,230.782609 Z" id="Shape" fill="#000000" fill-rule="nonzero"></path>
                <rect id="Rectangle" fill="#FFFFFF" x="51.1304348" y="129.043478" width="212.217391" height="58.6956522"></rect>
                <path d="M263.347826,194.26087 L51.1304348,194.26087 C47.5577158,194.191477 44.6780883,191.311849 44.6086957,187.73913 L44.6086957,129.043478 C44.6086957,125.441621 47.5285777,122.521739 51.1304348,122.521739 L263.347826,122.521739 C266.949683,122.521739 269.869565,125.441621 269.869565,129.043478 L269.869565,187.73913 C269.869565,191.340987 266.949683,194.26087 263.347826,194.26087 Z M57.6521739,181.217391 L256.826087,181.217391 L256.826087,135.565217 L57.6521739,135.565217 L57.6521739,181.217391 Z" id="Shape" fill="#000000" fill-rule="nonzero"></path>
                <rect id="Rectangle" fill="#FFFFFF" x="51.1304348" y="38.6521739" width="212.217391" height="58.6956522"></rect>
                <path d="M263.347826,103.869565 L51.1304348,103.869565 C47.5577158,103.800173 44.6780883,100.920545 44.6086957,97.3478261 L44.6086957,38.6521739 C44.6086957,35.0503168 47.5285777,32.1304348 51.1304348,32.1304348 L263.347826,32.1304348 C266.949683,32.1304348 269.869565,35.0503168 269.869565,38.6521739 L269.869565,97.3478261 C269.869565,100.949683 266.949683,103.869565 263.347826,103.869565 Z M57.6521739,90.826087 L256.826087,90.826087 L256.826087,45.173913 L57.6521739,45.173913 L57.6521739,90.826087 Z" id="Shape" fill="#000000" fill-rule="nonzero"></path>
                <rect id="Rectangle" fill="#FFFFFF" x="51.1304348" y="219.304348" width="212.217391" height="58.6956522"></rect>
                <path d="M263.347826,284.521739 L51.1304348,284.521739 C47.5285777,284.521739 44.6086957,281.601857 44.6086957,278 L44.6086957,219.304348 C44.6780883,215.731629 47.5577158,212.852001 51.1304348,212.782609 L263.347826,212.782609 C266.949683,212.782609 269.869565,215.702491 269.869565,219.304348 L269.869565,278 C269.869565,281.601857 266.949683,284.521739 263.347826,284.521739 Z M57.6521739,271.478261 L256.826087,271.478261 L256.826087,225.826087 L57.6521739,225.826087 L57.6521739,271.478261 Z" id="Shape" fill="#000000" fill-rule="nonzero"></path>
                <path d="M45,259.347826 L7.17391304,259.347826 C3.6011941,259.278433 0.721566597,256.398806 0.652173913,252.826087 C0.652173913,249.22423 3.57205598,246.304348 7.17391304,246.304348 L45,246.304348 C48.6018571,246.304348 51.5217391,249.22423 51.5217391,252.826087 C51.4523464,256.398806 48.5727189,259.278433 45,259.347826 Z" id="Path" fill="#000000"></path>
                <path d="M304.043478,259.347826 L266.347826,259.347826 C262.745969,259.347826 259.826087,256.427944 259.826087,252.826087 C259.826087,249.22423 262.745969,246.304348 266.347826,246.304348 L304.043478,246.304348 C307.645335,246.304348 310.565217,249.22423 310.565217,252.826087 C310.565217,256.427944 307.645335,259.347826 304.043478,259.347826 Z" id="Path" fill="#000000"></path>
                <rect id="Rectangle" fill="#000000" x="31.826087" y="240.956522" width="16.4347826" height="23.3478261"></rect>
                <rect id="Rectangle" fill="#000000" x="266.347826" y="240.956522" width="16.4347826" height="23.3478261"></rect>
                <path d="M228.913043,163.217391 L154.173913,163.217391 C150.572056,163.217391 147.652174,160.297509 147.652174,156.695652 C147.652174,153.093795 150.572056,150.173913 154.173913,150.173913 L228.913043,150.173913 C232.514901,150.173913 235.434783,153.093795 235.434783,156.695652 C235.434783,160.297509 232.514901,163.217391 228.913043,163.217391 Z" id="Path" fill="#FAC863"></path>
                <path d="M231.391304,255.826087 L156.782609,255.826087 C153.180752,255.826087 150.26087,252.906205 150.26087,249.304348 C150.26087,245.702491 153.180752,242.782609 156.782609,242.782609 L231.391304,242.782609 C234.993161,242.782609 237.913043,245.702491 237.913043,249.304348 C237.913043,252.906205 234.993161,255.826087 231.391304,255.826087 Z" id="Path" fill="#FAC863"></path>
                <path d="M228.913043,74.2608696 L154.173913,74.2608696 C150.572056,74.2608696 147.652174,71.3409875 147.652174,67.7391304 C147.652174,64.1372734 150.572056,61.2173913 154.173913,61.2173913 L228.913043,61.2173913 C232.485762,61.286784 235.36539,64.1664115 235.434783,67.7391304 C235.434783,69.4688032 234.747673,71.1276331 233.524609,72.3506964 C232.301546,73.5737597 230.642716,74.2608696 228.913043,74.2608696 Z" id="Path" fill="#FAC863"></path>
                <circle id="Oval" fill="#000000" cx="121.826087" cy="68" r="8.08695652"></circle>
                <circle id="Oval" fill="#000000" cx="121.826087" cy="157.478261" r="8.08695652"></circle>
                <circle id="Oval" fill="#000000" cx="121.826087" cy="247.73913" r="8.08695652"></circle>
                <polygon id="Path" fill="#FFFFFF" points="236.869565 38.1304348 181.956522 38.1304348 194.347826 7.2173913 224.478261 7.2173913"></polygon>
                <path d="M236.869565,44.6521739 L181.956522,44.6521739 C179.769782,44.6542162 177.721701,43.5814118 176.478261,41.7826087 C175.503643,39.9013438 175.503643,37.6638736 176.478261,35.7826087 L188.869565,4.73913043 C189.875946,2.23209168 192.298567,0.582648061 195,0.565217391 L224.478261,0.565217391 C227.179694,0.582648061 229.602315,2.23209168 230.608696,4.73913043 L242.869565,35.7826087 C243.915165,37.6459489 243.915165,39.9192685 242.869565,41.7826087 C241.563972,43.78637 239.248927,44.8935652 236.869565,44.6521739 Z M191.608696,31.6086957 L227.217391,31.6086957 L220.043478,13.6086957 L198.652174,13.6086957 L191.608696,31.6086957 Z" id="Shape" fill="#000000" fill-rule="nonzero"></path>
            </g>
            <g id="Web-app" transform="translate(1083.000000, 62.000000)">
                <rect id="Rectangle" stroke="#000000" stroke-width="10" fill="#FFFFFF" stroke-linecap="round" stroke-linejoin="round" x="0.340909091" y="0.4" width="149.909091" height="162.659091"></rect>
                <polyline id="Path" stroke="#000000" stroke-width="10" stroke-linecap="round" stroke-linejoin="round" points="0.340909091 92.4318182 0.340909091 34.6318182 150.25 34.6318182 150.25 92.4318182"></polyline>
                <circle id="Oval" fill="#000000" cx="91.2909091" cy="16.4727273" r="5.33181818"></circle>
                <path d="M109.836364,16.4727273 L134.795455,16.4727273" id="Path" stroke="#000000" stroke-width="10" stroke-linecap="round" stroke-linejoin="round"></path>
                <path d="M61.0772727,117.622727 L89.5136364,117.622727" id="Path" stroke="#000000" stroke-linecap="round" stroke-linejoin="round"></path>
                <path d="M119.881818,104.718182 L119.340909,104.718182 C117.273223,105.402429 115.694078,107.089237 115.147492,109.197498 C114.600906,111.305759 115.161581,113.547335 116.636364,115.15 L117.022727,115.536364 C118.812824,117.597177 119.10236,120.565236 117.744289,122.933155 C116.386218,125.301074 113.67816,126.549925 110.995455,126.045455 L110.454545,126.045455 C108.294305,125.57326 106.042282,126.23329 104.478695,127.796877 C102.915108,129.360464 102.255078,131.612486 102.727273,133.772727 L102.727273,134.313636 C103.234513,136.97998 102.008472,139.676933 99.6659258,141.047756 C97.3233797,142.418579 94.3715736,142.166441 92.2954545,140.418182 L91.8318182,140.031818 C90.2300878,138.663739 88.0586869,138.169389 86.0225841,138.709265 C83.9864813,139.249141 82.3452816,140.754407 81.6318182,142.736364 L81.6318182,143.277273 C80.7099714,145.811557 78.3012844,147.498487 75.6045455,147.498487 C72.9078065,147.498487 70.4991195,145.811557 69.5772727,143.277273 L69.5772727,142.736364 C68.8638093,140.754407 67.2226096,139.249141 65.1865068,138.709265 C63.150404,138.169389 60.9790031,138.663739 59.3772727,140.031818 L58.9909091,140.418182 C56.896952,142.130223 53.9608367,142.364349 51.6220288,141.005777 C49.2832209,139.647204 48.0320104,136.980735 48.4818182,134.313636 L48.4818182,133.772727 C48.999113,131.605187 48.3542329,129.324492 46.7785066,127.748766 C45.2027803,126.17304 42.9220862,125.52816 40.7545455,126.045455 L40.2136364,126.045455 C37.5465379,126.495262 34.8800683,125.244052 33.5214961,122.905244 C32.1629238,120.566436 32.3970498,117.630321 34.1090909,115.536364 L34.4954545,115.15 C35.7563742,113.532604 36.1677847,111.40974 35.6023614,109.4384 C35.0369381,107.467059 33.5628726,105.88499 31.6363636,105.181818 L31.0181818,105.181818 C28.5009714,104.223173 26.8373913,101.809485 26.8373913,99.1159091 C26.8373913,96.4223336 28.5009714,94.0086452 31.0181818,93.05 L31.6363636,93.05 C34.0092076,92.5670733 35.9077763,90.7889091 36.5449121,88.4527446 C37.1820478,86.1165801 36.4491182,83.6207345 34.65,82 L34.2636364,82 C32.5153776,79.9238809 32.263239,76.9720749 33.6340623,74.6295287 C35.0048856,72.2869825 37.7018386,71.0609412 40.3681818,71.5681818 L40.9090909,71.5681818 C43.0766317,72.0854766 45.3573257,71.4405965 46.933052,69.8648702 C48.5087784,68.2891439 49.1536585,66.0084498 48.6363636,63.8409091 L48.6363636,63.3 C48.1318932,60.617295 49.3807442,57.9092365 51.748663,56.5511654 C54.1165819,55.1930943 57.0846416,55.4826304 59.1454545,57.2727273 L59.5318182,57.2727273 C61.1198534,58.6789796 63.3062097,59.1973336 65.3565386,58.6536858 C67.4068675,58.110038 69.0491643,56.5765108 69.7318182,54.5681818 L69.7318182,54.0272727 C70.653665,51.492988 73.062352,49.8060585 75.7590909,49.8060585 C78.4558298,49.8060585 80.8645168,51.492988 81.7863636,54.0272727 L81.7863636,54.5681818 C82.499827,56.550138 84.1410267,58.0554045 86.1771295,58.5952803 C88.2132324,59.135156 90.3846333,58.6408064 91.9863636,57.2727273 L92.45,57.2727273 C94.5159324,55.5450002 97.4411849,55.2919757 99.7730991,56.639304 C102.105013,57.9866322 103.346808,60.6472841 102.881818,63.3 L102.881818,63.8409091 C102.409623,66.0011499 103.069654,68.2531722 104.633241,69.8167592 C106.196828,71.3803461 108.44885,72.0403766 110.609091,71.5681818 L111.15,71.5681818 C113.706082,71.3669202 116.136419,72.707345 117.329896,74.9766336 C118.523374,77.2459223 118.250632,80.0079664 116.636364,82 C115.271156,83.612381 114.787583,85.7936736 115.343475,87.8319448 C115.899367,89.870216 117.423409,91.5039774 119.418182,92.2 L119.959091,92.2 C122.772808,92.9913551 124.710539,95.5657202 124.692497,98.488548 C124.674455,101.411376 122.70509,103.961623 119.881818,104.718182 Z" id="Path" fill="#FAC863"></path>
                <circle id="Oval" fill="#FAC863" cx="75.6045455" cy="98.6909091" r="28.2818182"></circle>
                <circle id="Oval" stroke="#000000" stroke-width="10" fill="#FFFFFF" stroke-linecap="round" stroke-linejoin="round" cx="75.6045455" cy="98.6909091" r="15.6863636"></circle>
            </g>
        </g>
    </g>
</svg>