<?xml version="1.0" encoding="UTF-8"?>
<svg width="1656px" height="300px" viewBox="0 0 1656 300" version="1.1" xmlns="http://www.w3.org/2000/svg" xmlns:xlink="http://www.w3.org/1999/xlink">
    <!-- Generator: Sketch 52.4 (67378) - http://www.bohemiancoding.com/sketch -->
    <title>6</title>
    <desc>Created with Sketch.</desc>
    <g id="Page-1" stroke="none" stroke-width="1" fill="none" fill-rule="evenodd">
        <g id="6">
            <path d="M362.037943,145 L543.5,145 L543.5,126.221159 C543.5,124.442162 544.942162,123 546.721159,123 C547.221228,123 547.71443,123.116429 548.161705,123.340067 L595.718681,147.118555 C597.309865,147.914146 597.954819,149.84901 597.159228,151.440193 C596.847536,152.063576 596.342064,152.569048 595.718681,152.88074 L548.161705,176.659228 C546.570522,177.454819 544.635659,176.809865 543.840067,175.218681 C543.616429,174.771406 543.5,174.278204 543.5,173.778135 L543.5,155 L362.037943,155 C359.69313,167.522838 348.70332,177 335.5,177 C320.588312,177 308.5,164.911688 308.5,150 C308.5,135.088312 320.588312,123 335.5,123 C348.70332,123 359.69313,132.477162 362.037943,145 Z M318.5,150 C318.5,159.388841 326.111159,167 335.5,167 C344.888841,167 352.5,159.388841 352.5,150 C352.5,140.611159 344.888841,133 335.5,133 C326.111159,133 318.5,140.611159 318.5,150 Z" id="Line" fill="#000000" fill-rule="nonzero" transform="translate(453.000000, 150.000000) scale(-1, 1) translate(-453.000000, -150.000000) "></path>
            <path d="M1068.03794,145 L1249.5,145 L1249.5,126.221159 C1249.5,124.442162 1250.94216,123 1252.72116,123 C1253.22123,123 1253.71443,123.116429 1254.16171,123.340067 L1301.71868,147.118555 C1303.30986,147.914146 1303.95482,149.84901 1303.15923,151.440193 C1302.84754,152.063576 1302.34206,152.569048 1301.71868,152.88074 L1254.16171,176.659228 C1252.57052,177.454819 1250.63566,176.809865 1249.84007,175.218681 C1249.61643,174.771406 1249.5,174.278204 1249.5,173.778135 L1249.5,155 L1068.03794,155 C1065.69313,167.522838 1054.70332,177 1041.5,177 C1026.58831,177 1014.5,164.911688 1014.5,150 C1014.5,135.088312 1026.58831,123 1041.5,123 C1054.70332,123 1065.69313,132.477162 1068.03794,145 Z M1024.5,150 C1024.5,159.388841 1032.11116,167 1041.5,167 C1050.88884,167 1058.5,159.388841 1058.5,150 C1058.5,140.611159 1050.88884,133 1041.5,133 C1032.11116,133 1024.5,140.611159 1024.5,150 Z" id="Line" fill="#000000" fill-rule="nonzero" transform="translate(1159.000000, 150.000000) scale(-1, 1) translate(-1159.000000, -150.000000) "></path>
            <g id="User">
                <circle id="Oval" fill="#FFFFFF" cx="150" cy="150" r="143.877551"></circle>
                <path d="M150,300 C67.1572875,300 1.11022302e-14,232.842712 0,150 C-1.11022302e-14,67.1572875 67.1572875,2.22044605e-14 150,0 C232.842712,-2.22044605e-14 300,67.1572875 300,150 C300,189.782473 284.196474,227.93556 256.066017,256.066017 C227.93556,284.196474 189.782473,300 150,300 Z M150,12.5 C74.0608469,12.5 12.5,74.0608469 12.5,150 C12.5,225.939153 74.0608469,287.5 150,287.5 C225.939153,287.5 287.5,225.939153 287.5,150 C287.5,74.0608469 225.939153,12.5 150,12.5 Z" id="Shape" fill="#000000" fill-rule="nonzero"></path>
                <circle id="Oval" fill="#FAC863" cx="150" cy="150" r="119.387755"></circle>
                <circle id="Oval" fill="#FFFFFF" cx="151.020408" cy="100" r="40.8163265"></circle>
                <path d="M80.5052967,183.311689 C89.6791053,152.006314 118.493531,130.52242 151.185969,130.612527 C184.77802,130.612527 217.121296,156.401479 221.991519,183.810026 C226.861742,211.218574 192.145793,216.326531 151.185969,216.326531 C110.226145,216.326531 73.262401,212.589001 80.5052967,183.311689 Z" id="Path" fill="#FFFFFF"></path>
            </g>
            <g id="Browser" transform="translate(640.000000, 1.000000)">
                <rect id="Rectangle" fill="#FFFFFF" x="7.8" y="8.3" width="345" height="270"></rect>
                <path d="M352.8,285.8 L7.8,285.8 C3.65786438,285.8 0.3,282.442136 0.3,278.3 L0.3,8.3 C0.3,4.15786438 3.65786438,0.8 7.8,0.8 L352.8,0.8 C356.942136,0.8 360.3,4.15786438 360.3,8.3 L360.3,278.3 C360.3,282.442136 356.942136,285.8 352.8,285.8 Z M15.3,270.8 L345.3,270.8 L345.3,15.8 L15.3,15.8 L15.3,270.8 Z" id="Shape" fill="#000000" fill-rule="nonzero"></path>
                <path d="M352.8,60.8 L7.8,60.8 C3.65786438,60.8 0.3,57.4421356 0.3,53.3 C0.3,49.1578644 3.65786438,45.8 7.8,45.8 L352.8,45.8 C356.942136,45.8 360.3,49.1578644 360.3,53.3 C360.3,57.4421356 356.942136,60.8 352.8,60.8 Z" id="Path" fill="#000000"></path>
                <circle id="Oval" fill="#000000" cx="30.3" cy="30.8" r="7.5"></circle>
                <circle id="Oval" fill="#000000" cx="60.3" cy="30.8" r="7.5"></circle>
                <circle id="Oval" fill="#000000" cx="90.3" cy="30.8" r="7.5"></circle>
                <path d="M240.3,195.8 L120.3,195.8 C116.157864,195.8 112.8,192.442136 112.8,188.3 L112.8,158.3 C112.8,154.157864 116.157864,150.8 120.3,150.8 L240.3,150.8 C244.442136,150.8 247.8,154.157864 247.8,158.3 L247.8,188.3 C247.8,192.442136 244.442136,195.8 240.3,195.8 Z M127.8,180.8 L232.8,180.8 L232.8,165.8 L127.8,165.8 L127.8,180.8 Z" id="Shape" fill="#000000" fill-rule="nonzero"></path>
                <rect id="Rectangle" fill="#FAC863" x="15.45" y="60.8" width="329.85" height="37.8"></rect>
            </g>
            <g id="Server" transform="translate(1345.000000, 4.000000)">
                <rect id="Rectangle" fill="#FAC863" x="68.3478261" y="79.0869565" width="177.913043" height="158.347826"></rect>
                <path d="M246.26087,243.826087 L68.3478261,243.826087 C64.745969,243.826087 61.826087,240.906205 61.826087,237.304348 L61.826087,79.0869565 C61.826087,75.4850995 64.745969,72.5652174 68.3478261,72.5652174 L246.26087,72.5652174 C249.862727,72.5652174 252.782609,75.4850995 252.782609,79.0869565 L252.782609,237.565217 C252.642514,241.064808 249.763262,243.82889 246.26087,243.826087 Z M74.8695652,230.782609 L239.73913,230.782609 L239.73913,85.6086957 L74.8695652,85.6086957 L74.8695652,230.782609 Z" id="Shape" fill="#000000" fill-rule="nonzero"></path>
                <rect id="Rectangle" fill="#FFFFFF" x="51.1304348" y="129.043478" width="212.217391" height="58.6956522"></rect>
                <path d="M263.347826,194.26087 L51.1304348,194.26087 C47.5577158,194.191477 44.6780883,191.311849 44.6086957,187.73913 L44.6086957,129.043478 C44.6086957,125.441621 47.5285777,122.521739 51.1304348,122.521739 L263.347826,122.521739 C266.949683,122.521739 269.869565,125.441621 269.869565,129.043478 L269.869565,187.73913 C269.869565,191.340987 266.949683,194.26087 263.347826,194.26087 Z M57.6521739,181.217391 L256.826087,181.217391 L256.826087,135.565217 L57.6521739,135.565217 L57.6521739,181.217391 Z" id="Shape" fill="#000000" fill-rule="nonzero"></path>
                <rect id="Rectangle" fill="#FFFFFF" x="51.1304348" y="38.6521739" width="212.217391" height="58.6956522"></rect>
                <path d="M263.347826,103.869565 L51.1304348,103.869565 C47.5577158,103.800173 44.6780883,100.920545 44.6086957,97.3478261 L44.6086957,38.6521739 C44.6086957,35.0503168 47.5285777,32.1304348 51.1304348,32.1304348 L263.347826,32.1304348 C266.949683,32.1304348 269.869565,35.0503168 269.869565,38.6521739 L269.869565,97.3478261 C269.869565,100.949683 266.949683,103.869565 263.347826,103.869565 Z M57.6521739,90.826087 L256.826087,90.826087 L256.826087,45.173913 L57.6521739,45.173913 L57.6521739,90.826087 Z" id="Shape" fill="#000000" fill-rule="nonzero"></path>
                <rect id="Rectangle" fill="#FFFFFF" x="51.1304348" y="219.304348" width="212.217391" height="58.6956522"></rect>
                <path d="M263.347826,284.521739 L51.1304348,284.521739 C47.5285777,284.521739 44.6086957,281.601857 44.6086957,278 L44.6086957,219.304348 C44.6780883,215.731629 47.5577158,212.852001 51.1304348,212.782609 L263.347826,212.782609 C266.949683,212.782609 269.869565,215.702491 269.869565,219.304348 L269.869565,278 C269.869565,281.601857 266.949683,284.521739 263.347826,284.521739 Z M57.6521739,271.478261 L256.826087,271.478261 L256.826087,225.826087 L57.6521739,225.826087 L57.6521739,271.478261 Z" id="Shape" fill="#000000" fill-rule="nonzero"></path>
                <path d="M45,259.347826 L7.17391304,259.347826 C3.6011941,259.278433 0.721566597,256.398806 0.652173913,252.826087 C0.652173913,249.22423 3.57205598,246.304348 7.17391304,246.304348 L45,246.304348 C48.6018571,246.304348 51.5217391,249.22423 51.5217391,252.826087 C51.4523464,256.398806 48.5727189,259.278433 45,259.347826 Z" id="Path" fill="#000000"></path>
                <path d="M304.043478,259.347826 L266.347826,259.347826 C262.745969,259.347826 259.826087,256.427944 259.826087,252.826087 C259.826087,249.22423 262.745969,246.304348 266.347826,246.304348 L304.043478,246.304348 C307.645335,246.304348 310.565217,249.22423 310.565217,252.826087 C310.565217,256.427944 307.645335,259.347826 304.043478,259.347826 Z" id="Path" fill="#000000"></path>
                <rect id="Rectangle" fill="#000000" x="31.826087" y="240.956522" width="16.4347826" height="23.3478261"></rect>
                <rect id="Rectangle" fill="#000000" x="266.347826" y="240.956522" width="16.4347826" height="23.3478261"></rect>
                <path d="M228.913043,163.217391 L154.173913,163.217391 C150.572056,163.217391 147.652174,160.297509 147.652174,156.695652 C147.652174,153.093795 150.572056,150.173913 154.173913,150.173913 L228.913043,150.173913 C232.514901,150.173913 235.434783,153.093795 235.434783,156.695652 C235.434783,160.297509 232.514901,163.217391 228.913043,163.217391 Z" id="Path" fill="#FAC863"></path>
                <path d="M231.391304,255.826087 L156.782609,255.826087 C153.180752,255.826087 150.26087,252.906205 150.26087,249.304348 C150.26087,245.702491 153.180752,242.782609 156.782609,242.782609 L231.391304,242.782609 C234.993161,242.782609 237.913043,245.702491 237.913043,249.304348 C237.913043,252.906205 234.993161,255.826087 231.391304,255.826087 Z" id="Path" fill="#FAC863"></path>
                <path d="M228.913043,74.2608696 L154.173913,74.2608696 C150.572056,74.2608696 147.652174,71.3409875 147.652174,67.7391304 C147.652174,64.1372734 150.572056,61.2173913 154.173913,61.2173913 L228.913043,61.2173913 C232.485762,61.286784 235.36539,64.1664115 235.434783,67.7391304 C235.434783,69.4688032 234.747673,71.1276331 233.524609,72.3506964 C232.301546,73.5737597 230.642716,74.2608696 228.913043,74.2608696 Z" id="Path" fill="#FAC863"></path>
                <circle id="Oval" fill="#000000" cx="121.826087" cy="68" r="8.08695652"></circle>
                <circle id="Oval" fill="#000000" cx="121.826087" cy="157.478261" r="8.08695652"></circle>
                <circle id="Oval" fill="#000000" cx="121.826087" cy="247.73913" r="8.08695652"></circle>
                <polygon id="Path" fill="#FFFFFF" points="236.869565 38.1304348 181.956522 38.1304348 194.347826 7.2173913 224.478261 7.2173913"></polygon>
                <path d="M236.869565,44.6521739 L181.956522,44.6521739 C179.769782,44.6542162 177.721701,43.5814118 176.478261,41.7826087 C175.503643,39.9013438 175.503643,37.6638736 176.478261,35.7826087 L188.869565,4.73913043 C189.875946,2.23209168 192.298567,0.582648061 195,0.565217391 L224.478261,0.565217391 C227.179694,0.582648061 229.602315,2.23209168 230.608696,4.73913043 L242.869565,35.7826087 C243.915165,37.6459489 243.915165,39.9192685 242.869565,41.7826087 C241.563972,43.78637 239.248927,44.8935652 236.869565,44.6521739 Z M191.608696,31.6086957 L227.217391,31.6086957 L220.043478,13.6086957 L198.652174,13.6086957 L191.608696,31.6086957 Z" id="Shape" fill="#000000" fill-rule="nonzero"></path>
            </g>
            <g id="Cookie" transform="translate(1076.000000, 62.000000)">
                <path d="M106.5,25.1458333 C106.253753,26.4070323 106.111607,27.686341 106.075,28.9708333 C106.075,41.2154465 116.00122,51.1416667 128.245833,51.1416667 C132.165447,51.1206478 136.007006,50.0440326 139.366667,48.025 C143.124488,56.8523529 151.801946,62.5722205 161.395833,62.5458333 C169.912318,95.060301 156.79892,129.390496 128.774389,147.94708 C100.749859,166.503664 64.0244339,165.174496 37.4146681,144.640586 C10.8049024,124.106675 0.207521935,88.918338 11.0521761,57.1045895 C21.8968303,25.290841 51.7803429,3.90160999 85.3916667,3.89583333 C87.6583333,18.1333333 95.1666667,24.3666667 106.5,25.1458333 Z" id="Path" fill="#FFFFFF"></path>
                <path d="M85.3916667,164.333333 C55.5249726,165.211291 27.5434875,149.779026 12.3509295,124.050123 C-2.84162837,98.3212211 -2.84162837,66.3662789 12.3509295,40.6373767 C27.5434875,14.9084745 55.5249726,-0.523790946 85.3916667,0.354166667 C87.1421085,0.304039641 88.6443227,1.59165182 88.8625,3.32916667 C90.8458333,15.4416667 95.9458333,20.8958333 106.7125,21.6041667 C107.723445,21.6682856 108.658548,22.162217 109.281393,22.9610823 C109.904237,23.7599476 110.1552,24.7872764 109.970833,25.7833333 C109.748231,26.8315991 109.629601,27.899271 109.616667,28.9708333 C109.549005,35.6751996 113.116466,41.890736 118.939591,45.2140349 C124.762717,48.5373337 131.928719,48.4474603 137.666667,44.9791667 C138.562218,44.4514873 139.644367,44.3438615 140.626309,44.6848136 C141.608251,45.0257657 142.39084,45.7808699 142.766667,46.75 C146.007423,54.1908779 153.350684,59.0029392 161.466667,59.0041667 C163.077961,58.961404 164.497849,60.0559011 164.866667,61.625 C166.621213,68.3548947 167.502063,75.282667 167.4875,82.2375 C167.448444,127.56159 130.715756,164.294278 85.3916667,164.333333 Z M82.4875,7.4375 C51.1640991,8.92258016 24.1071733,29.8235894 14.7591934,59.7564506 C5.41121347,89.6893118 15.764789,122.273555 40.6760379,141.320617 C65.5872868,160.36768 99.7461427,161.817501 126.181741,144.94978 C152.61734,128.082058 165.694685,96.4923052 158.916667,65.875 C150.186951,65.031268 142.340075,60.1923614 137.666667,52.7708333 C134.662001,54.0350112 131.434778,54.6852725 128.175,54.6833333 C121.324581,54.7209991 114.740792,52.0309076 109.876848,47.2068316 C105.012904,42.3827556 102.268717,35.8213307 102.25,28.9708333 C102.215088,28.7360128 102.215088,28.4973206 102.25,28.2625 C91.7811365,26.4567012 83.7430928,17.9865047 82.4875,7.4375 Z" id="Shape" fill="#000000" fill-rule="nonzero"></path>
                <path d="M95.875,35.4166667 C94.175,48.5916667 110.041667,68.5666667 133.558333,61.7666667 C136.179167,68.85 139.933333,71.8958333 151.691667,74.2333333 C156.295833,112.270833 121.5875,147.6875 85.3208333,147.6875 C67.859699,147.840174 51.0693317,140.971218 38.7219733,128.62386 C26.3746149,116.276502 19.5056589,99.4861343 19.6583333,82.025 C20.5083333,47.6 47.9916667,19.9041667 76.325,18.7 C77.399616,28.5632722 85.9645085,35.886876 95.875,35.4166667 Z" id="Path" fill="#FAC863"></path>
                <g id="Group" style="mix-blend-mode: darken;" transform="translate(16.166667, 16.166667)" fill="#000000">
                    <path d="M50.6666667,11.4583333 C50.0957555,11.4618437 49.5339431,11.315284 49.0375,11.0333333 L41.1041667,6.925 C39.3941608,6.01583579 38.7315316,3.90173325 39.6166667,2.17916667 C40.0535719,1.33864946 40.8089827,0.70818899 41.7140928,0.42866969 C42.619203,0.14915038 43.5985669,0.2438716 44.4333333,0.69166667 L52.0125,5.08333333 C52.8482165,5.50609906 53.4776108,6.24866087 53.7577239,7.14235518 C54.0378371,8.0360495 53.944892,9.0050162 53.5,9.8291667 C52.8775637,10.8015862 51.8202041,11.409568 50.6666667,11.4583333 Z" id="Path"></path>
                    <path d="M56.1916667,106.375 C54.7278916,106.438118 53.3763606,105.593411 52.7916667,104.25 C52.2221831,102.37662 53.217939,100.385108 55.0583333,99.716667 L62.9916667,97.1666667 C63.883792,96.8510603 64.865118,96.9056001 65.7167757,97.3181218 C66.5684333,97.7306435 67.2195844,98.466835 67.525,99.3625 C68.0944836,101.23588 67.0987276,103.227392 65.2583333,103.895833 L57.325,106.516667 L56.1916667,106.375 Z" id="Path"></path>
                    <path d="M80.9833333,38.6583333 C79.6896129,38.6468326 78.5008173,37.9443625 77.8666667,36.8166667 C77.4134822,35.9905511 77.3081757,35.0179019 77.5740481,34.1139357 C77.8399205,33.2099695 78.455052,32.4492138 79.2833333,32 L88.1375,27.1125 C88.9636155,26.6593156 89.9362648,26.5540091 90.8402309,26.8198815 C91.7441971,27.0857539 92.5049528,27.7008854 92.9541667,28.5291667 C93.8571147,30.2541461 93.2305725,32.3843894 91.5375,33.3458333 L82.6833333,38.1625 C82.1765279,38.4886723 81.5860219,38.6609032 80.9833333,38.6583333 Z" id="Path"></path>
                    <path d="M45.5666667,49.7083333 C44.6826418,49.6836366 43.8333253,49.358898 43.1583333,48.7875 L38.2708333,44.325 C37.6045462,43.6721746 37.2290773,42.7786353 37.2290773,41.8458333 C37.2290773,40.9130313 37.6045462,40.0194921 38.2708333,39.3666667 C38.93584,38.6961844 39.8410754,38.3190476 40.7854167,38.3190476 C41.7297579,38.3190476 42.6349933,38.6961844 43.3,39.3666667 L48.1166667,43.8291667 C48.7829538,44.4819921 49.1584227,45.3755313 49.1584227,46.3083333 C49.1584227,47.2411353 48.7829538,48.1346746 48.1166667,48.7875 C47.41845,49.4138611 46.5039801,49.7440864 45.5666667,49.7083333 Z" id="Path"></path>
                    <path d="M20.775,63.45 C19.5786046,63.4218983 18.4810775,62.7794434 17.8708333,61.75 C16.7677272,60.1390848 17.1441659,57.9431921 18.7208333,56.7916667 L24.5291667,52.825 C26.1198837,51.9956907 28.0794554,52.4867162 29.0911552,53.9681338 C30.1028551,55.4495514 29.8471385,57.4534567 28.4958333,58.6333333 L22.7583333,62.6708333 C22.2004418,63.1408335 21.5036212,63.4145845 20.775,63.45 Z" id="Path"></path>
                    <path d="M14.1166667,26.6875 C13.0414201,26.6724134 12.0287917,26.1790816 11.3541667,25.3416667 L8.1666667,20.95 C7.3695177,19.9630538 7.1594513,18.625804 7.6155974,17.4419797 C8.0717434,16.2581555 9.1248025,15.4076077 10.3780974,15.2107297 C11.6313924,15.0138516 12.8945178,15.5005537 13.6916667,16.4875 L17.2333333,20.95 C18.438764,22.4777685 18.1857165,24.691934 16.6666667,25.9083333 C15.9471224,26.4837223 15.0349254,26.7624492 14.1166667,26.6875 Z" id="Path"></path>
                    <path d="M3.91666667,94.4041667 C2.0407264,94.4075462 0.48755355,92.9475638 0.375,91.075 C0.29285281,89.1313364 1.76462489,87.4716785 3.70416667,87.3208333 L11.2833333,86.8958333 C12.2386818,86.755452 13.2093275,87.0193979 13.9620272,87.6242458 C14.7147268,88.2290937 15.1814338,89.1201634 15.25,90.0833333 C15.3080813,91.0230578 14.9895949,91.9472336 14.36491,92.6516655 C13.7402251,93.3560974 12.8607608,93.7828021 11.9208333,93.8375 L4.4125,94.2625 L3.91666667,94.4041667 Z" id="Path"></path>
                    <path d="M36.5,132.016667 C34.5439915,132.016667 32.9583333,130.431008 32.9583333,128.475 L32.9583333,125.5 C32.9583333,123.543992 34.5439915,121.958333 36.5,121.958333 C38.4560085,121.958333 40.0416667,123.543992 40.0416667,125.5 L40.0416667,128.545833 C40.0030932,130.474125 38.428677,132.017052 36.5,132.016667 Z" id="Path"></path>
                    <path d="M134.533333,85.975 C133.941075,85.969419 133.358541,85.8237854 132.833333,85.55 L127.095833,82.5041667 C125.402761,81.5427227 124.776219,79.4124794 125.679167,77.6875 C126.099503,76.8492473 126.847384,76.2218167 127.745941,75.9535907 C128.644498,75.6853646 129.61394,75.8001617 130.425,76.2708333 L136.233333,79.3166667 C137.926406,80.2781106 138.552948,82.4083539 137.65,84.1333333 C137.038877,85.2833011 135.835455,85.9944141 134.533333,85.975 Z" id="Path"></path>
                    <path d="M107.970833,53.25 C106.510644,53.2726093 105.199113,52.3602401 104.7125,50.9833333 C103.978897,49.1838263 104.832318,47.1292939 106.625,46.3791667 L113.283333,43.7583333 C114.156818,43.409907 115.133014,43.4231821 115.996701,43.795232 C116.860389,44.1672818 117.540646,44.8675561 117.8875,45.7416667 C118.235926,46.6151515 118.222651,47.5913475 117.850601,48.4550347 C117.478552,49.3187218 116.778277,49.9989798 115.904167,50.3458333 L109.316667,52.9666667 C108.895525,53.1624849 108.435179,53.2593998 107.970833,53.25 Z" id="Path"></path>
                    <path d="M74.75,77.1208333 C73.8286667,77.1119909 72.9441039,76.7581658 72.2708333,76.1291667 L68.3041667,72.0916667 C67.4184456,71.2059457 67.0725322,69.9149793 67.3967285,68.7050619 C67.7209249,67.4951446 68.6659779,66.5500915 69.8758953,66.2258952 C71.0858126,65.9016988 72.3767791,66.2476123 73.2625,67.1333333 L77.3,71.1 C78.658465,72.5011802 78.658465,74.7279865 77.3,76.1291667 C76.6013407,76.7628183 75.6931944,77.1159863 74.75,77.1208333 Z" id="Path"></path>
                    <path d="M41.6,83.3541667 L40.8916667,83.3541667 C38.9688813,82.9619063 37.7109036,81.1063892 38.0583333,79.175 L38.5541667,76.9791667 C38.9258083,75.0231582 40.8127415,73.7387751 42.76875,74.1104167 C44.7247585,74.4820583 46.0091416,76.3689915 45.6375,78.325 L45.2125,80.5916667 C44.8117361,82.2500142 43.3054177,83.4019048 41.6,83.3541667 Z" id="Path"></path>
                    <path d="M91.6083333,114.308333 L91.0416667,114.308333 C89.0936526,113.982424 87.7685013,112.152453 88.0666667,110.2 L89.8375,99.575 C90.1969783,97.6556982 92.0165566,96.3694446 93.9458333,96.6708333 C95.854968,96.9962653 97.148672,98.79483 96.85,100.708333 L95.079167,111.333333 C94.830838,113.05445 93.3471809,114.326156 91.6083333,114.308333 Z" id="Path"></path>
                </g>
            </g>
        </g>
    </g>
</svg>