<?xml version="1.0" encoding="UTF-8"?>
<svg width="1662px" height="300px" viewBox="0 0 1662 300" version="1.1" xmlns="http://www.w3.org/2000/svg" xmlns:xlink="http://www.w3.org/1999/xlink">
    <!-- Generator: Sketch 52.4 (67378) - http://www.bohemiancoding.com/sketch -->
    <title>1</title>
    <desc>Created with Sketch.</desc>
    <g id="Page-1" stroke="none" stroke-width="1" fill="none" fill-rule="evenodd">
        <path id="Line" d="M362.037943,145 L543.5,145 L543.5,126.221159 C543.5,124.442162 544.942162,123 546.721159,123 C547.221228,123 547.71443,123.116429 548.161705,123.340067 L595.718681,147.118555 C597.309865,147.914146 597.954819,149.84901 597.159228,151.440193 C596.847536,152.063576 596.342064,152.569048 595.718681,152.88074 L548.161705,176.659228 C546.570522,177.454819 544.635659,176.809865 543.840067,175.218681 C543.616429,174.771406 543.5,174.278204 543.5,173.778135 L543.5,155 L362.037943,155 C359.69313,167.522838 348.70332,177 335.5,177 C320.588312,177 308.5,164.911688 308.5,150 C308.5,135.088312 320.588312,123 335.5,123 C348.70332,123 359.69313,132.477162 362.037943,145 Z M318.5,150 C318.5,159.388841 326.111159,167 335.5,167 C344.888841,167 352.5,159.388841 352.5,150 C352.5,140.611159 344.888841,133 335.5,133 C326.111159,133 318.5,140.611159 318.5,150 Z" fill="#000000" fill-rule="nonzero"></path>
        <path id="Line" d="M1068.03794,145 L1249.5,145 L1249.5,126.221159 C1249.5,124.442162 1250.94216,123 1252.72116,123 C1253.22123,123 1253.71443,123.116429 1254.16171,123.340067 L1301.71868,147.118555 C1303.30986,147.914146 1303.95482,149.84901 1303.15923,151.440193 C1302.84754,152.063576 1302.34206,152.569048 1301.71868,152.88074 L1254.16171,176.659228 C1252.57052,177.454819 1250.63566,176.809865 1249.84007,175.218681 C1249.61643,174.771406 1249.5,174.278204 1249.5,173.778135 L1249.5,155 L1068.03794,155 C1065.69313,167.522838 1054.70332,177 1041.5,177 C1026.58831,177 1014.5,164.911688 1014.5,150 C1014.5,135.088312 1026.58831,123 1041.5,123 C1054.70332,123 1065.69313,132.477162 1068.03794,145 Z M1024.5,150 C1024.5,159.388841 1032.11116,167 1041.5,167 C1050.88884,167 1058.5,159.388841 1058.5,150 C1058.5,140.611159 1050.88884,133 1041.5,133 C1032.11116,133 1024.5,140.611159 1024.5,150 Z" fill="#000000" fill-rule="nonzero"></path>
        <g id="User">
            <circle id="Oval" fill="#FFFFFF" cx="150" cy="150" r="143.877551"></circle>
            <path d="M150,300 C67.1572875,300 1.11022302e-14,232.842712 0,150 C-1.11022302e-14,67.1572875 67.1572875,2.22044605e-14 150,0 C232.842712,-2.22044605e-14 300,67.1572875 300,150 C300,189.782473 284.196474,227.93556 256.066017,256.066017 C227.93556,284.196474 189.782473,300 150,300 Z M150,12.5 C74.0608469,12.5 12.5,74.0608469 12.5,150 C12.5,225.939153 74.0608469,287.5 150,287.5 C225.939153,287.5 287.5,225.939153 287.5,150 C287.5,74.0608469 225.939153,12.5 150,12.5 Z" id="Shape" fill="#000000" fill-rule="nonzero"></path>
            <circle id="Oval" fill="#FAC863" cx="150" cy="150" r="119.387755"></circle>
            <circle id="Oval" fill="#FFFFFF" cx="151.020408" cy="100" r="40.8163265"></circle>
            <path d="M80.5052967,183.311689 C89.6791053,152.006314 118.493531,130.52242 151.185969,130.612527 C184.77802,130.612527 217.121296,156.401479 221.991519,183.810026 C226.861742,211.218574 192.145793,216.326531 151.185969,216.326531 C110.226145,216.326531 73.262401,212.589001 80.5052967,183.311689 Z" id="Path" fill="#FFFFFF"></path>
        </g>
        <g id="Browser" transform="translate(640.000000, 1.000000)">
            <rect id="Rectangle" fill="#FFFFFF" x="7.8" y="8.3" width="345" height="270"></rect>
            <path d="M352.8,285.8 L7.8,285.8 C3.65786438,285.8 0.3,282.442136 0.3,278.3 L0.3,8.3 C0.3,4.15786438 3.65786438,0.8 7.8,0.8 L352.8,0.8 C356.942136,0.8 360.3,4.15786438 360.3,8.3 L360.3,278.3 C360.3,282.442136 356.942136,285.8 352.8,285.8 Z M15.3,270.8 L345.3,270.8 L345.3,15.8 L15.3,15.8 L15.3,270.8 Z" id="Shape" fill="#000000" fill-rule="nonzero"></path>
            <path d="M352.8,60.8 L7.8,60.8 C3.65786438,60.8 0.3,57.4421356 0.3,53.3 C0.3,49.1578644 3.65786438,45.8 7.8,45.8 L352.8,45.8 C356.942136,45.8 360.3,49.1578644 360.3,53.3 C360.3,57.4421356 356.942136,60.8 352.8,60.8 Z" id="Path" fill="#000000"></path>
            <circle id="Oval" fill="#000000" cx="30.3" cy="30.8" r="7.5"></circle>
            <circle id="Oval" fill="#000000" cx="60.3" cy="30.8" r="7.5"></circle>
            <circle id="Oval" fill="#000000" cx="90.3" cy="30.8" r="7.5"></circle>
            <path d="M240.3,195.8 L120.3,195.8 C116.157864,195.8 112.8,192.442136 112.8,188.3 L112.8,158.3 C112.8,154.157864 116.157864,150.8 120.3,150.8 L240.3,150.8 C244.442136,150.8 247.8,154.157864 247.8,158.3 L247.8,188.3 C247.8,192.442136 244.442136,195.8 240.3,195.8 Z M127.8,180.8 L232.8,180.8 L232.8,165.8 L127.8,165.8 L127.8,180.8 Z" id="Shape" fill="#000000" fill-rule="nonzero"></path>
            <rect id="Rectangle" fill="#FAC863" x="15.45" y="60.8" width="329.85" height="37.8"></rect>
        </g>
        <g id="Server" transform="translate(1345.000000, 4.000000)">
            <rect id="Rectangle" fill="#FAC863" x="68.3478261" y="79.0869565" width="177.913043" height="158.347826"></rect>
            <path d="M246.26087,243.826087 L68.3478261,243.826087 C64.745969,243.826087 61.826087,240.906205 61.826087,237.304348 L61.826087,79.0869565 C61.826087,75.4850995 64.745969,72.5652174 68.3478261,72.5652174 L246.26087,72.5652174 C249.862727,72.5652174 252.782609,75.4850995 252.782609,79.0869565 L252.782609,237.565217 C252.642514,241.064808 249.763262,243.82889 246.26087,243.826087 Z M74.8695652,230.782609 L239.73913,230.782609 L239.73913,85.6086957 L74.8695652,85.6086957 L74.8695652,230.782609 Z" id="Shape" fill="#000000" fill-rule="nonzero"></path>
            <rect id="Rectangle" fill="#FFFFFF" x="51.1304348" y="129.043478" width="212.217391" height="58.6956522"></rect>
            <path d="M263.347826,194.26087 L51.1304348,194.26087 C47.5577158,194.191477 44.6780883,191.311849 44.6086957,187.73913 L44.6086957,129.043478 C44.6086957,125.441621 47.5285777,122.521739 51.1304348,122.521739 L263.347826,122.521739 C266.949683,122.521739 269.869565,125.441621 269.869565,129.043478 L269.869565,187.73913 C269.869565,191.340987 266.949683,194.26087 263.347826,194.26087 Z M57.6521739,181.217391 L256.826087,181.217391 L256.826087,135.565217 L57.6521739,135.565217 L57.6521739,181.217391 Z" id="Shape" fill="#000000" fill-rule="nonzero"></path>
            <rect id="Rectangle" fill="#FFFFFF" x="51.1304348" y="38.6521739" width="212.217391" height="58.6956522"></rect>
            <path d="M263.347826,103.869565 L51.1304348,103.869565 C47.5577158,103.800173 44.6780883,100.920545 44.6086957,97.3478261 L44.6086957,38.6521739 C44.6086957,35.0503168 47.5285777,32.1304348 51.1304348,32.1304348 L263.347826,32.1304348 C266.949683,32.1304348 269.869565,35.0503168 269.869565,38.6521739 L269.869565,97.3478261 C269.869565,100.949683 266.949683,103.869565 263.347826,103.869565 Z M57.6521739,90.826087 L256.826087,90.826087 L256.826087,45.173913 L57.6521739,45.173913 L57.6521739,90.826087 Z" id="Shape" fill="#000000" fill-rule="nonzero"></path>
            <rect id="Rectangle" fill="#FFFFFF" x="51.1304348" y="219.304348" width="212.217391" height="58.6956522"></rect>
            <path d="M263.347826,284.521739 L51.1304348,284.521739 C47.5285777,284.521739 44.6086957,281.601857 44.6086957,278 L44.6086957,219.304348 C44.6780883,215.731629 47.5577158,212.852001 51.1304348,212.782609 L263.347826,212.782609 C266.949683,212.782609 269.869565,215.702491 269.869565,219.304348 L269.869565,278 C269.869565,281.601857 266.949683,284.521739 263.347826,284.521739 Z M57.6521739,271.478261 L256.826087,271.478261 L256.826087,225.826087 L57.6521739,225.826087 L57.6521739,271.478261 Z" id="Shape" fill="#000000" fill-rule="nonzero"></path>
            <path d="M45,259.347826 L7.17391304,259.347826 C3.6011941,259.278433 0.721566597,256.398806 0.652173913,252.826087 C0.652173913,249.22423 3.57205598,246.304348 7.17391304,246.304348 L45,246.304348 C48.6018571,246.304348 51.5217391,249.22423 51.5217391,252.826087 C51.4523464,256.398806 48.5727189,259.278433 45,259.347826 Z" id="Path" fill="#000000"></path>
            <path d="M304.043478,259.347826 L266.347826,259.347826 C262.745969,259.347826 259.826087,256.427944 259.826087,252.826087 C259.826087,249.22423 262.745969,246.304348 266.347826,246.304348 L304.043478,246.304348 C307.645335,246.304348 310.565217,249.22423 310.565217,252.826087 C310.565217,256.427944 307.645335,259.347826 304.043478,259.347826 Z" id="Path" fill="#000000"></path>
            <rect id="Rectangle" fill="#000000" x="31.826087" y="240.956522" width="16.4347826" height="23.3478261"></rect>
            <rect id="Rectangle" fill="#000000" x="266.347826" y="240.956522" width="16.4347826" height="23.3478261"></rect>
            <path d="M228.913043,163.217391 L154.173913,163.217391 C150.572056,163.217391 147.652174,160.297509 147.652174,156.695652 C147.652174,153.093795 150.572056,150.173913 154.173913,150.173913 L228.913043,150.173913 C232.514901,150.173913 235.434783,153.093795 235.434783,156.695652 C235.434783,160.297509 232.514901,163.217391 228.913043,163.217391 Z" id="Path" fill="#FAC863"></path>
            <path d="M231.391304,255.826087 L156.782609,255.826087 C153.180752,255.826087 150.26087,252.906205 150.26087,249.304348 C150.26087,245.702491 153.180752,242.782609 156.782609,242.782609 L231.391304,242.782609 C234.993161,242.782609 237.913043,245.702491 237.913043,249.304348 C237.913043,252.906205 234.993161,255.826087 231.391304,255.826087 Z" id="Path" fill="#FAC863"></path>
            <path d="M228.913043,74.2608696 L154.173913,74.2608696 C150.572056,74.2608696 147.652174,71.3409875 147.652174,67.7391304 C147.652174,64.1372734 150.572056,61.2173913 154.173913,61.2173913 L228.913043,61.2173913 C232.485762,61.286784 235.36539,64.1664115 235.434783,67.7391304 C235.434783,69.4688032 234.747673,71.1276331 233.524609,72.3506964 C232.301546,73.5737597 230.642716,74.2608696 228.913043,74.2608696 Z" id="Path" fill="#FAC863"></path>
            <circle id="Oval" fill="#000000" cx="121.826087" cy="68" r="8.08695652"></circle>
            <circle id="Oval" fill="#000000" cx="121.826087" cy="157.478261" r="8.08695652"></circle>
            <circle id="Oval" fill="#000000" cx="121.826087" cy="247.73913" r="8.08695652"></circle>
            <polygon id="Path" fill="#FFFFFF" points="236.869565 38.1304348 181.956522 38.1304348 194.347826 7.2173913 224.478261 7.2173913"></polygon>
            <path d="M236.869565,44.6521739 L181.956522,44.6521739 C179.769782,44.6542162 177.721701,43.5814118 176.478261,41.7826087 C175.503643,39.9013438 175.503643,37.6638736 176.478261,35.7826087 L188.869565,4.73913043 C189.875946,2.23209168 192.298567,0.582648061 195,0.565217391 L224.478261,0.565217391 C227.179694,0.582648061 229.602315,2.23209168 230.608696,4.73913043 L242.869565,35.7826087 C243.915165,37.6459489 243.915165,39.9192685 242.869565,41.7826087 C241.563972,43.78637 239.248927,44.8935652 236.869565,44.6521739 Z M191.608696,31.6086957 L227.217391,31.6086957 L220.043478,13.6086957 L198.652174,13.6086957 L191.608696,31.6086957 Z" id="Shape" fill="#000000" fill-rule="nonzero"></path>
        </g>
        <g id="Cookie" transform="translate(1075.000000, 65.000000)">
            <path d="M106.5,25.1458333 C106.253753,26.4070323 106.111607,27.686341 106.075,28.9708333 C106.075,41.2154465 116.00122,51.1416667 128.245833,51.1416667 C132.165447,51.1206478 136.007006,50.0440326 139.366667,48.025 C143.124488,56.8523529 151.801946,62.5722205 161.395833,62.5458333 C169.912318,95.060301 156.79892,129.390496 128.774389,147.94708 C100.749859,166.503664 64.0244339,165.174496 37.4146681,144.640586 C10.8049024,124.106675 0.207521935,88.918338 11.0521761,57.1045895 C21.8968303,25.290841 51.7803429,3.90160999 85.3916667,3.89583333 C87.6583333,18.1333333 95.1666667,24.3666667 106.5,25.1458333 Z" id="Path" fill="#FFFFFF"></path>
            <path d="M85.3916667,164.333333 C55.5249726,165.211291 27.5434875,149.779026 12.3509295,124.050123 C-2.84162837,98.3212211 -2.84162837,66.3662789 12.3509295,40.6373767 C27.5434875,14.9084745 55.5249726,-0.523790946 85.3916667,0.354166667 C87.1421085,0.304039641 88.6443227,1.59165182 88.8625,3.32916667 C90.8458333,15.4416667 95.9458333,20.8958333 106.7125,21.6041667 C107.723445,21.6682856 108.658548,22.162217 109.281393,22.9610823 C109.904237,23.7599476 110.1552,24.7872764 109.970833,25.7833333 C109.748231,26.8315991 109.629601,27.899271 109.616667,28.9708333 C109.549005,35.6751996 113.116466,41.890736 118.939591,45.2140349 C124.762717,48.5373337 131.928719,48.4474603 137.666667,44.9791667 C138.562218,44.4514873 139.644367,44.3438615 140.626309,44.6848136 C141.608251,45.0257657 142.39084,45.7808699 142.766667,46.75 C146.007423,54.1908779 153.350684,59.0029392 161.466667,59.0041667 C163.077961,58.961404 164.497849,60.0559011 164.866667,61.625 C166.621213,68.3548947 167.502063,75.282667 167.4875,82.2375 C167.448444,127.56159 130.715756,164.294278 85.3916667,164.333333 Z M82.4875,7.4375 C51.1640991,8.92258016 24.1071733,29.8235894 14.7591934,59.7564506 C5.41121347,89.6893118 15.764789,122.273555 40.6760379,141.320617 C65.5872868,160.36768 99.7461427,161.817501 126.181741,144.94978 C152.61734,128.082058 165.694685,96.4923052 158.916667,65.875 C150.186951,65.031268 142.340075,60.1923614 137.666667,52.7708333 C134.662001,54.0350112 131.434778,54.6852725 128.175,54.6833333 C121.324581,54.7209991 114.740792,52.0309076 109.876848,47.2068316 C105.012904,42.3827556 102.268717,35.8213307 102.25,28.9708333 C102.215088,28.7360128 102.215088,28.4973206 102.25,28.2625 C91.7811365,26.4567012 83.7430928,17.9865047 82.4875,7.4375 Z" id="Shape" fill="#000000" fill-rule="nonzero"></path>
            <path d="M95.875,35.4166667 C94.175,48.5916667 110.041667,68.5666667 133.558333,61.7666667 C136.179167,68.85 139.933333,71.8958333 151.691667,74.2333333 C156.295833,112.270833 121.5875,147.6875 85.3208333,147.6875 C67.859699,147.840174 51.0693317,140.971218 38.7219733,128.62386 C26.3746149,116.276502 19.5056589,99.4861343 19.6583333,82.025 C20.5083333,47.6 47.9916667,19.9041667 76.325,18.7 C77.399616,28.5632722 85.9645085,35.886876 95.875,35.4166667 Z" id="Path" fill="#FAC863"></path>
            <g id="Group" style="mix-blend-mode: darken;" transform="translate(10.166667, 14.166667)" fill="#000000">
                <path d="M56.6666667,13.4583333 C56.0957555,13.4618437 55.5339431,13.315284 55.0375,13.0333333 L47.1041667,8.925 C45.3941608,8.01583579 44.7315316,5.90173325 45.6166667,4.17916667 C46.0535719,3.33864946 46.8089827,2.70818899 47.7140928,2.42866969 C48.619203,2.14915038 49.5985669,2.2438716 50.4333333,2.69166667 L58.0125,7.08333333 C58.8482165,7.50609906 59.4776108,8.24866087 59.7577239,9.14235518 C60.0378371,10.0360495 59.944892,11.0050162 59.5,11.8291667 C58.8775637,12.8015862 57.8202041,13.409568 56.6666667,13.4583333 Z" id="Path"></path>
                <path d="M62.1916667,108.375 C60.7278916,108.438118 59.3763606,107.593411 58.7916667,106.25 C58.2221831,104.37662 59.217939,102.385108 61.0583333,101.716667 L68.9916667,99.1666667 C69.883792,98.8510603 70.865118,98.9056001 71.7167757,99.3181218 C72.5684333,99.7306435 73.2195844,100.466835 73.525,101.3625 C74.0944836,103.23588 73.0987276,105.227392 71.2583333,105.895833 L63.325,108.516667 L62.1916667,108.375 Z" id="Path"></path>
                <path d="M86.9833333,40.6583333 C85.6896129,40.6468326 84.5008173,39.9443625 83.8666667,38.8166667 C83.4134822,37.9905511 83.3081757,37.0179019 83.5740481,36.1139357 C83.8399205,35.2099695 84.455052,34.4492138 85.2833333,34 L94.1375,29.1125 C94.9636155,28.6593156 95.9362648,28.5540091 96.8402309,28.8198815 C97.7441971,29.0857539 98.5049528,29.7008854 98.9541667,30.5291667 C99.8571147,32.2541461 99.2305725,34.3843894 97.5375,35.3458333 L88.6833333,40.1625 C88.1765279,40.4886723 87.5860219,40.6609032 86.9833333,40.6583333 Z" id="Path"></path>
                <path d="M51.5666667,51.7083333 C50.6826418,51.6836366 49.8333253,51.358898 49.1583333,50.7875 L44.2708333,46.325 C43.6045462,45.6721746 43.2290773,44.7786353 43.2290773,43.8458333 C43.2290773,42.9130313 43.6045462,42.0194921 44.2708333,41.3666667 C44.93584,40.6961844 45.8410754,40.3190476 46.7854167,40.3190476 C47.7297579,40.3190476 48.6349933,40.6961844 49.3,41.3666667 L54.1166667,45.8291667 C54.7829538,46.4819921 55.1584227,47.3755313 55.1584227,48.3083333 C55.1584227,49.2411353 54.7829538,50.1346746 54.1166667,50.7875 C53.41845,51.4138611 52.5039801,51.7440864 51.5666667,51.7083333 Z" id="Path"></path>
                <path d="M26.775,65.45 C25.5786046,65.4218983 24.4810775,64.7794434 23.8708333,63.75 C22.7677272,62.1390848 23.1441659,59.9431921 24.7208333,58.7916667 L30.5291667,54.825 C32.1198837,53.9956907 34.0794554,54.4867162 35.0911552,55.9681338 C36.1028551,57.4495514 35.8471385,59.4534567 34.4958333,60.6333333 L28.7583333,64.6708333 C28.2004418,65.1408335 27.5036212,65.4145845 26.775,65.45 Z" id="Path"></path>
                <path d="M20.1166667,28.6875 C19.0414201,28.6724134 18.0287917,28.1790816 17.3541667,27.3416667 L14.1666667,22.95 C13.3695177,21.9630538 13.1594513,20.625804 13.6155974,19.4419797 C14.0717434,18.2581555 15.1248025,17.4076077 16.3780974,17.2107297 C17.6313924,17.0138516 18.8945178,17.5005537 19.6916667,18.4875 L23.2333333,22.95 C24.438764,24.4777685 24.1857165,26.691934 22.6666667,27.9083333 C21.9471224,28.4837223 21.0349254,28.7624492 20.1166667,28.6875 Z" id="Path"></path>
                <path d="M9.91666667,96.4041667 C8.0407264,96.4075462 6.48755355,94.9475638 6.375,93.075 C6.29285281,91.1313364 7.76462489,89.4716785 9.70416667,89.3208333 L17.2833333,88.8958333 C18.2386818,88.755452 19.2093275,89.0193979 19.9620272,89.6242458 C20.7147268,90.2290937 21.1814338,91.1201634 21.25,92.0833333 C21.3080813,93.0230578 20.9895949,93.9472336 20.36491,94.6516655 C19.7402251,95.3560974 18.8607608,95.7828021 17.9208333,95.8375 L10.4125,96.2625 L9.91666667,96.4041667 Z" id="Path"></path>
                <path d="M42.5,134.016667 C40.5439915,134.016667 38.9583333,132.431008 38.9583333,130.475 L38.9583333,127.5 C38.9583333,125.543992 40.5439915,123.958333 42.5,123.958333 C44.4560085,123.958333 46.0416667,125.543992 46.0416667,127.5 L46.0416667,130.545833 C46.0030932,132.474125 44.428677,134.017052 42.5,134.016667 Z" id="Path"></path>
                <path d="M140.533333,87.975 C139.941075,87.969419 139.358541,87.8237854 138.833333,87.55 L133.095833,84.5041667 C131.402761,83.5427227 130.776219,81.4124794 131.679167,79.6875 C132.099503,78.8492473 132.847384,78.2218167 133.745941,77.9535907 C134.644498,77.6853646 135.61394,77.8001617 136.425,78.2708333 L142.233333,81.3166667 C143.926406,82.2781106 144.552948,84.4083539 143.65,86.1333333 C143.038877,87.2833011 141.835455,87.9944141 140.533333,87.975 Z" id="Path"></path>
                <path d="M113.970833,55.25 C112.510644,55.2726093 111.199113,54.3602401 110.7125,52.9833333 C109.978897,51.1838263 110.832318,49.1292939 112.625,48.3791667 L119.283333,45.7583333 C120.156818,45.409907 121.133014,45.4231821 121.996701,45.795232 C122.860389,46.1672818 123.540646,46.8675561 123.8875,47.7416667 C124.235926,48.6151515 124.222651,49.5913475 123.850601,50.4550347 C123.478552,51.3187218 122.778277,51.9989798 121.904167,52.3458333 L115.316667,54.9666667 C114.895525,55.1624849 114.435179,55.2593998 113.970833,55.25 Z" id="Path"></path>
                <path d="M80.75,79.1208333 C79.8286667,79.1119909 78.9441039,78.7581658 78.2708333,78.1291667 L74.3041667,74.0916667 C73.4184456,73.2059457 73.0725322,71.9149793 73.3967285,70.7050619 C73.7209249,69.4951446 74.6659779,68.5500915 75.8758953,68.2258952 C77.0858126,67.9016988 78.3767791,68.2476123 79.2625,69.1333333 L83.3,73.1 C84.658465,74.5011802 84.658465,76.7279865 83.3,78.1291667 C82.6013407,78.7628183 81.6931944,79.1159863 80.75,79.1208333 Z" id="Path"></path>
                <path d="M47.6,85.3541667 L46.8916667,85.3541667 C44.9688813,84.9619063 43.7109036,83.1063892 44.0583333,81.175 L44.5541667,78.9791667 C44.9258083,77.0231582 46.8127415,75.7387751 48.76875,76.1104167 C50.7247585,76.4820583 52.0091416,78.3689915 51.6375,80.325 L51.2125,82.5916667 C50.8117361,84.2500142 49.3054177,85.4019048 47.6,85.3541667 Z" id="Path"></path>
                <path d="M97.6083333,116.308333 L97.0416667,116.308333 C95.0936526,115.982424 93.7685013,114.152453 94.0666667,112.2 L95.8375,101.575 C96.1969783,99.6556982 98.0165566,98.3694446 99.9458333,98.6708333 C101.854968,98.9962653 103.148672,100.79483 102.85,102.708333 L101.079167,113.333333 C100.830838,115.05445 99.3471809,116.326156 97.6083333,116.308333 Z" id="Path"></path>
            </g>
        </g>
        <g id="Auth" transform="translate(1308.000000, 68.000000)">
            <path d="M38.2173913,150.347826 C10.0621733,129.96537 -1.71013464,93.7347748 9.08695652,60.6956522 L27.0869565,5.2173913 L143.695652,5.2173913 L161.695652,60.6956522 C172.406229,93.7347967 160.650458,129.9145 132.565217,150.347826 L85.3478261,184.608696 L38.2173913,150.347826 Z" id="Path" fill="#FAC863"></path>
            <path d="M85.3478261,190 L35.6086957,153.913043 C5.89333244,132.406281 -6.51555014,94.1602066 4.91304348,59.3043478 L23.8695652,0.869565217 L146.826087,0.869565217 L165.782609,59.3043478 C177.211202,94.1602066 164.80232,132.406281 135.086957,153.913043 L85.3478261,190 Z M40.7391304,146.521739 L85.3478261,178.956522 L129.956522,146.521739 C156.603789,127.222259 167.742932,92.9263489 157.521739,61.6521739 L140.130435,9.47826087 L30.2173913,9.47826087 L12.826087,61.6521739 C2.60489392,92.9263489 13.7440368,127.222259 40.3913043,146.521739 L40.7391304,146.521739 Z" id="Shape" fill="#000000" fill-rule="nonzero"></path>
        </g>
    </g>
</svg>