<?xml version="1.0" encoding="UTF-8"?>
<svg width="1672px" height="346px" viewBox="0 0 1672 346" version="1.1" xmlns="http://www.w3.org/2000/svg" xmlns:xlink="http://www.w3.org/1999/xlink">
    <!-- Generator: Sketch 52.4 (67378) - http://www.bohemiancoding.com/sketch -->
    <title>Slice</title>
    <desc>Created with Sketch.</desc>
    <g id="Page-1" stroke="none" stroke-width="1" fill="none" fill-rule="evenodd">
        <g id="Browser">
            <rect id="Rectangle" fill="#FFFFFF" x="7.8" y="8.3" width="345" height="270"></rect>
            <path d="M352.8,285.8 L7.8,285.8 C3.65786438,285.8 0.3,282.442136 0.3,278.3 L0.3,8.3 C0.3,4.15786438 3.65786438,0.8 7.8,0.8 L352.8,0.8 C356.942136,0.8 360.3,4.15786438 360.3,8.3 L360.3,278.3 C360.3,282.442136 356.942136,285.8 352.8,285.8 Z M15.3,270.8 L345.3,270.8 L345.3,15.8 L15.3,15.8 L15.3,270.8 Z" id="Shape" fill="#000000" fill-rule="nonzero"></path>
            <path d="M352.8,60.8 L7.8,60.8 C3.65786438,60.8 0.3,57.4421356 0.3,53.3 C0.3,49.1578644 3.65786438,45.8 7.8,45.8 L352.8,45.8 C356.942136,45.8 360.3,49.1578644 360.3,53.3 C360.3,57.4421356 356.942136,60.8 352.8,60.8 Z" id="Path" fill="#000000"></path>
            <circle id="Oval" fill="#000000" cx="30.3" cy="30.8" r="7.5"></circle>
            <circle id="Oval" fill="#000000" cx="60.3" cy="30.8" r="7.5"></circle>
            <circle id="Oval" fill="#000000" cx="90.3" cy="30.8" r="7.5"></circle>
            <path d="M240.3,195.8 L120.3,195.8 C116.157864,195.8 112.8,192.442136 112.8,188.3 L112.8,158.3 C112.8,154.157864 116.157864,150.8 120.3,150.8 L240.3,150.8 C244.442136,150.8 247.8,154.157864 247.8,158.3 L247.8,188.3 C247.8,192.442136 244.442136,195.8 240.3,195.8 Z M127.8,180.8 L232.8,180.8 L232.8,165.8 L127.8,165.8 L127.8,180.8 Z" id="Shape" fill="#000000" fill-rule="nonzero"></path>
            <rect id="Rectangle" fill="#FAC863" x="15.45" y="60.8" width="329.85" height="37.8"></rect>
        </g>
        <g id="Server" transform="translate(704.000000, 14.000000)">
            <rect id="Rectangle" fill="#FAC863" x="68.3478261" y="79.0869565" width="177.913043" height="158.347826"></rect>
            <path d="M246.26087,243.826087 L68.3478261,243.826087 C64.745969,243.826087 61.826087,240.906205 61.826087,237.304348 L61.826087,79.0869565 C61.826087,75.4850995 64.745969,72.5652174 68.3478261,72.5652174 L246.26087,72.5652174 C249.862727,72.5652174 252.782609,75.4850995 252.782609,79.0869565 L252.782609,237.565217 C252.642514,241.064808 249.763262,243.82889 246.26087,243.826087 Z M74.8695652,230.782609 L239.73913,230.782609 L239.73913,85.6086957 L74.8695652,85.6086957 L74.8695652,230.782609 Z" id="Shape" fill="#000000" fill-rule="nonzero"></path>
            <rect id="Rectangle" fill="#FFFFFF" x="51.1304348" y="129.043478" width="212.217391" height="58.6956522"></rect>
            <path d="M263.347826,194.26087 L51.1304348,194.26087 C47.5577158,194.191477 44.6780883,191.311849 44.6086957,187.73913 L44.6086957,129.043478 C44.6086957,125.441621 47.5285777,122.521739 51.1304348,122.521739 L263.347826,122.521739 C266.949683,122.521739 269.869565,125.441621 269.869565,129.043478 L269.869565,187.73913 C269.869565,191.340987 266.949683,194.26087 263.347826,194.26087 Z M57.6521739,181.217391 L256.826087,181.217391 L256.826087,135.565217 L57.6521739,135.565217 L57.6521739,181.217391 Z" id="Shape" fill="#000000" fill-rule="nonzero"></path>
            <rect id="Rectangle" fill="#FFFFFF" x="51.1304348" y="38.6521739" width="212.217391" height="58.6956522"></rect>
            <path d="M263.347826,103.869565 L51.1304348,103.869565 C47.5577158,103.800173 44.6780883,100.920545 44.6086957,97.3478261 L44.6086957,38.6521739 C44.6086957,35.0503168 47.5285777,32.1304348 51.1304348,32.1304348 L263.347826,32.1304348 C266.949683,32.1304348 269.869565,35.0503168 269.869565,38.6521739 L269.869565,97.3478261 C269.869565,100.949683 266.949683,103.869565 263.347826,103.869565 Z M57.6521739,90.826087 L256.826087,90.826087 L256.826087,45.173913 L57.6521739,45.173913 L57.6521739,90.826087 Z" id="Shape" fill="#000000" fill-rule="nonzero"></path>
            <rect id="Rectangle" fill="#FFFFFF" x="51.1304348" y="219.304348" width="212.217391" height="58.6956522"></rect>
            <path d="M263.347826,284.521739 L51.1304348,284.521739 C47.5285777,284.521739 44.6086957,281.601857 44.6086957,278 L44.6086957,219.304348 C44.6780883,215.731629 47.5577158,212.852001 51.1304348,212.782609 L263.347826,212.782609 C266.949683,212.782609 269.869565,215.702491 269.869565,219.304348 L269.869565,278 C269.869565,281.601857 266.949683,284.521739 263.347826,284.521739 Z M57.6521739,271.478261 L256.826087,271.478261 L256.826087,225.826087 L57.6521739,225.826087 L57.6521739,271.478261 Z" id="Shape" fill="#000000" fill-rule="nonzero"></path>
            <path d="M45,259.347826 L7.17391304,259.347826 C3.6011941,259.278433 0.721566597,256.398806 0.652173913,252.826087 C0.652173913,249.22423 3.57205598,246.304348 7.17391304,246.304348 L45,246.304348 C48.6018571,246.304348 51.5217391,249.22423 51.5217391,252.826087 C51.4523464,256.398806 48.5727189,259.278433 45,259.347826 Z" id="Path" fill="#000000"></path>
            <path d="M304.043478,259.347826 L266.347826,259.347826 C262.745969,259.347826 259.826087,256.427944 259.826087,252.826087 C259.826087,249.22423 262.745969,246.304348 266.347826,246.304348 L304.043478,246.304348 C307.645335,246.304348 310.565217,249.22423 310.565217,252.826087 C310.565217,256.427944 307.645335,259.347826 304.043478,259.347826 Z" id="Path" fill="#000000"></path>
            <rect id="Rectangle" fill="#000000" x="31.826087" y="240.956522" width="16.4347826" height="23.3478261"></rect>
            <rect id="Rectangle" fill="#000000" x="266.347826" y="240.956522" width="16.4347826" height="23.3478261"></rect>
            <path d="M228.913043,163.217391 L154.173913,163.217391 C150.572056,163.217391 147.652174,160.297509 147.652174,156.695652 C147.652174,153.093795 150.572056,150.173913 154.173913,150.173913 L228.913043,150.173913 C232.514901,150.173913 235.434783,153.093795 235.434783,156.695652 C235.434783,160.297509 232.514901,163.217391 228.913043,163.217391 Z" id="Path" fill="#FAC863"></path>
            <path d="M231.391304,255.826087 L156.782609,255.826087 C153.180752,255.826087 150.26087,252.906205 150.26087,249.304348 C150.26087,245.702491 153.180752,242.782609 156.782609,242.782609 L231.391304,242.782609 C234.993161,242.782609 237.913043,245.702491 237.913043,249.304348 C237.913043,252.906205 234.993161,255.826087 231.391304,255.826087 Z" id="Path" fill="#FAC863"></path>
            <path d="M228.913043,74.2608696 L154.173913,74.2608696 C150.572056,74.2608696 147.652174,71.3409875 147.652174,67.7391304 C147.652174,64.1372734 150.572056,61.2173913 154.173913,61.2173913 L228.913043,61.2173913 C232.485762,61.286784 235.36539,64.1664115 235.434783,67.7391304 C235.434783,69.4688032 234.747673,71.1276331 233.524609,72.3506964 C232.301546,73.5737597 230.642716,74.2608696 228.913043,74.2608696 Z" id="Path" fill="#FAC863"></path>
            <circle id="Oval" fill="#000000" cx="121.826087" cy="68" r="8.08695652"></circle>
            <circle id="Oval" fill="#000000" cx="121.826087" cy="157.478261" r="8.08695652"></circle>
            <circle id="Oval" fill="#000000" cx="121.826087" cy="247.73913" r="8.08695652"></circle>
            <polygon id="Path" fill="#FFFFFF" points="236.869565 38.1304348 181.956522 38.1304348 194.347826 7.2173913 224.478261 7.2173913"></polygon>
            <path d="M236.869565,44.6521739 L181.956522,44.6521739 C179.769782,44.6542162 177.721701,43.5814118 176.478261,41.7826087 C175.503643,39.9013438 175.503643,37.6638736 176.478261,35.7826087 L188.869565,4.73913043 C189.875946,2.23209168 192.298567,0.582648061 195,0.565217391 L224.478261,0.565217391 C227.179694,0.582648061 229.602315,2.23209168 230.608696,4.73913043 L242.869565,35.7826087 C243.915165,37.6459489 243.915165,39.9192685 242.869565,41.7826087 C241.563972,43.78637 239.248927,44.8935652 236.869565,44.6521739 Z M191.608696,31.6086957 L227.217391,31.6086957 L220.043478,13.6086957 L198.652174,13.6086957 L191.608696,31.6086957 Z" id="Shape" fill="#000000" fill-rule="nonzero"></path>
        </g>
        <path d="M765.044922,336.555664 C764.068354,337.385746 763.128422,337.971678 762.225098,338.313477 C761.321773,338.655275 760.352544,338.826172 759.317383,338.826172 C757.60839,338.826172 756.294926,338.408696 755.376953,337.57373 C754.45898,336.738765 754,335.671881 754,334.373047 C754,333.611324 754.173338,332.91553 754.52002,332.285645 C754.866701,331.655759 755.320798,331.150393 755.882324,330.769531 C756.44385,330.38867 757.076168,330.100587 757.779297,329.905273 C758.296878,329.768554 759.07812,329.636719 760.123047,329.509766 C762.251964,329.255858 763.819331,328.953127 764.825195,328.601562 C764.834961,328.240233 764.839844,328.010743 764.839844,327.913086 C764.839844,326.838862 764.590823,326.082033 764.092773,325.642578 C763.418942,325.046872 762.417975,324.749023 761.089844,324.749023 C759.849603,324.749023 758.934085,324.966306 758.343262,325.400879 C757.752438,325.835451 757.315431,326.604487 757.032227,327.708008 L754.454102,327.356445 C754.688478,326.252924 755.074216,325.36182 755.611328,324.683105 C756.14844,324.004391 756.9248,323.481935 757.94043,323.115723 C758.95606,322.74951 760.132806,322.566406 761.470703,322.566406 C762.798835,322.566406 763.877926,322.722655 764.708008,323.035156 C765.53809,323.347658 766.148436,323.74072 766.539062,324.214355 C766.929689,324.687991 767.203124,325.286129 767.359375,326.008789 C767.447266,326.45801 767.491211,327.268549 767.491211,328.44043 L767.491211,331.956055 C767.491211,334.407239 767.547363,335.957516 767.659668,336.606934 C767.771973,337.256351 767.994139,337.878903 768.326172,338.474609 L765.572266,338.474609 C765.298827,337.927732 765.123047,337.28809 765.044922,336.555664 Z M764.825195,330.666992 C763.868159,331.057619 762.432627,331.389647 760.518555,331.663086 C759.434565,331.819337 758.667971,331.995116 758.21875,332.19043 C757.769529,332.385743 757.422853,332.671385 757.178711,333.047363 C756.934569,333.423342 756.8125,333.840818 756.8125,334.299805 C756.8125,335.002933 757.078611,335.588865 757.61084,336.057617 C758.143069,336.52637 758.92187,336.760742 759.947266,336.760742 C760.962896,336.760742 761.866207,336.538576 762.657227,336.094238 C763.448246,335.6499 764.029295,335.041996 764.400391,334.270508 C764.683595,333.674802 764.825195,332.795904 764.825195,331.633789 L764.825195,330.666992 Z M771.578125,344.436523 L771.578125,322.917969 L773.980469,322.917969 L773.980469,324.939453 C774.546878,324.148434 775.18652,323.555178 775.899414,323.159668 C776.612308,322.764158 777.476557,322.566406 778.492188,322.566406 C779.820319,322.566406 780.992182,322.9082 782.007812,323.591797 C783.023443,324.275394 783.790036,325.23974 784.307617,326.484863 C784.825198,327.729987 785.083984,329.094719 785.083984,330.579102 C785.083984,332.170906 784.798343,333.603998 784.227051,334.878418 C783.655759,336.152838 782.825689,337.129391 781.736816,337.808105 C780.647944,338.48682 779.502936,338.826172 778.301758,338.826172 C777.422847,338.826172 776.634281,338.640627 775.936035,338.269531 C775.237789,337.898436 774.664065,337.42969 774.214844,336.863281 L774.214844,344.436523 L771.578125,344.436523 Z M773.96582,330.78418 C773.96582,332.786143 774.37109,334.26562 775.181641,335.222656 C775.992192,336.179692 776.973627,336.658203 778.125977,336.658203 C779.297857,336.658203 780.301265,336.162603 781.13623,335.171387 C781.971196,334.180171 782.388672,332.644542 782.388672,330.564453 C782.388672,328.582021 781.980961,327.097661 781.165527,326.111328 C780.350094,325.124995 779.375982,324.631836 778.243164,324.631836 C777.120112,324.631836 776.126469,325.156733 775.262207,326.206543 C774.397945,327.256353 773.96582,328.782217 773.96582,330.78418 Z M788.277344,320.032227 L788.277344,317 L790.914062,317 L790.914062,320.032227 L788.277344,320.032227 Z M788.277344,338.474609 L788.277344,322.917969 L790.914062,322.917969 L790.914062,338.474609 L788.277344,338.474609 Z M795.674805,338.474609 L795.674805,335.47168 L798.677734,335.47168 L798.677734,338.474609 L795.674805,338.474609 Z M802.208008,333.831055 L804.81543,333.420898 C804.961915,334.465826 805.369626,335.266599 806.038574,335.823242 C806.707523,336.379886 807.642572,336.658203 808.84375,336.658203 C810.054694,336.658203 810.953122,336.411624 811.539062,335.918457 C812.125003,335.425291 812.417969,334.846683 812.417969,334.182617 C812.417969,333.586911 812.159182,333.118166 811.641602,332.776367 C811.280272,332.541991 810.381843,332.244142 808.946289,331.882812 C807.012686,331.394529 805.672367,330.97217 804.925293,330.615723 C804.178219,330.259276 803.611818,329.766116 803.226074,329.13623 C802.84033,328.506345 802.647461,327.810551 802.647461,327.048828 C802.647461,326.355465 802.806151,325.713382 803.123535,325.122559 C803.44092,324.531735 803.873044,324.041018 804.419922,323.650391 C804.83008,323.347655 805.389157,323.09131 806.097168,322.881348 C806.805179,322.671386 807.564449,322.566406 808.375,322.566406 C809.595709,322.566406 810.667476,322.742186 811.590332,323.09375 C812.513188,323.445314 813.194334,323.921384 813.633789,324.521973 C814.073244,325.122562 814.375976,325.925776 814.541992,326.931641 L811.963867,327.283203 C811.846679,326.482418 811.507327,325.857424 810.945801,325.408203 C810.384275,324.958982 809.590825,324.734375 808.56543,324.734375 C807.354486,324.734375 806.490237,324.934568 805.972656,325.334961 C805.455076,325.735354 805.196289,326.204099 805.196289,326.741211 C805.196289,327.08301 805.30371,327.390624 805.518555,327.664062 C805.7334,327.947267 806.07031,328.18164 806.529297,328.367188 C806.79297,328.464844 807.569329,328.689451 808.858398,329.041016 C810.723642,329.539065 812.024899,329.946776 812.762207,330.26416 C813.499515,330.581545 814.078123,331.042966 814.498047,331.648438 C814.917971,332.253909 815.12793,333.005855 815.12793,333.904297 C815.12793,334.783208 814.871585,335.610836 814.358887,336.387207 C813.846189,337.163578 813.10645,337.764158 812.139648,338.188965 C811.172847,338.613772 810.079108,338.826172 808.858398,338.826172 C806.836904,338.826172 805.296392,338.406254 804.236816,337.566406 C803.177241,336.726558 802.500978,335.481454 802.208008,333.831055 Z M828.414062,336.555664 C827.437495,337.385746 826.497563,337.971678 825.594238,338.313477 C824.690913,338.655275 823.721685,338.826172 822.686523,338.826172 C820.977531,338.826172 819.664067,338.408696 818.746094,337.57373 C817.82812,336.738765 817.369141,335.671881 817.369141,334.373047 C817.369141,333.611324 817.542479,332.91553 817.88916,332.285645 C818.235842,331.655759 818.689939,331.150393 819.251465,330.769531 C819.812991,330.38867 820.445309,330.100587 821.148438,329.905273 C821.666018,329.768554 822.44726,329.636719 823.492188,329.509766 C825.621104,329.255858 827.188472,328.953127 828.194336,328.601562 C828.204102,328.240233 828.208984,328.010743 828.208984,327.913086 C828.208984,326.838862 827.959963,326.082033 827.461914,325.642578 C826.788083,325.046872 825.787116,324.749023 824.458984,324.749023 C823.218744,324.749023 822.303226,324.966306 821.712402,325.400879 C821.121579,325.835451 820.684572,326.604487 820.401367,327.708008 L817.823242,327.356445 C818.057618,326.252924 818.443357,325.36182 818.980469,324.683105 C819.517581,324.004391 820.29394,323.481935 821.30957,323.115723 C822.3252,322.74951 823.501946,322.566406 824.839844,322.566406 C826.167975,322.566406 827.247066,322.722655 828.077148,323.035156 C828.907231,323.347658 829.517576,323.74072 829.908203,324.214355 C830.29883,324.687991 830.572265,325.286129 830.728516,326.008789 C830.816407,326.45801 830.860352,327.268549 830.860352,328.44043 L830.860352,331.956055 C830.860352,334.407239 830.916503,335.957516 831.028809,336.606934 C831.141114,337.256351 831.36328,337.878903 831.695312,338.474609 L828.941406,338.474609 C828.667967,337.927732 828.492188,337.28809 828.414062,336.555664 Z M828.194336,330.666992 C827.2373,331.057619 825.801767,331.389647 823.887695,331.663086 C822.803706,331.819337 822.037112,331.995116 821.587891,332.19043 C821.13867,332.385743 820.791993,332.671385 820.547852,333.047363 C820.30371,333.423342 820.181641,333.840818 820.181641,334.299805 C820.181641,335.002933 820.447751,335.588865 820.97998,336.057617 C821.51221,336.52637 822.29101,336.760742 823.316406,336.760742 C824.332036,336.760742 825.235348,336.538576 826.026367,336.094238 C826.817387,335.6499 827.398436,335.041996 827.769531,334.270508 C828.052736,333.674802 828.194336,332.795904 828.194336,331.633789 L828.194336,330.666992 Z M834.947266,338.474609 L834.947266,322.917969 L837.305664,322.917969 L837.305664,325.100586 C837.793948,324.338863 838.443355,323.726077 839.253906,323.262207 C840.064457,322.798338 840.9873,322.566406 842.022461,322.566406 C843.17481,322.566406 844.119625,322.805662 844.856934,323.28418 C845.594242,323.762698 846.114256,324.431636 846.416992,325.291016 C847.647467,323.4746 849.249014,322.566406 851.22168,322.566406 C852.764656,322.566406 853.951168,322.993648 854.78125,323.848145 C855.611332,324.702641 856.026367,326.018546 856.026367,327.795898 L856.026367,338.474609 L853.404297,338.474609 L853.404297,328.674805 C853.404297,327.620112 853.318849,326.860842 853.147949,326.396973 C852.97705,325.933103 852.666994,325.559572 852.217773,325.276367 C851.768552,324.993163 851.241214,324.851562 850.635742,324.851562 C849.541987,324.851562 848.633793,325.215328 847.911133,325.942871 C847.188473,326.670414 846.827148,327.834953 846.827148,329.436523 L846.827148,338.474609 L844.19043,338.474609 L844.19043,328.367188 C844.19043,327.195307 843.975588,326.316409 843.545898,325.730469 C843.116209,325.144528 842.413091,324.851562 841.436523,324.851562 C840.694332,324.851562 840.008304,325.046873 839.378418,325.4375 C838.748532,325.828127 838.291994,326.39941 838.008789,327.151367 C837.725585,327.903324 837.583984,328.987298 837.583984,330.40332 L837.583984,338.474609 L834.947266,338.474609 Z M862.369141,338.474609 L859.922852,338.474609 L859.922852,317 L862.55957,317 L862.55957,324.661133 C863.672857,323.264641 865.093741,322.566406 866.822266,322.566406 C867.779302,322.566406 868.685054,322.759275 869.539551,323.14502 C870.394047,323.530764 871.097165,324.07275 871.648926,324.770996 C872.200686,325.469242 872.632811,326.311519 872.945312,327.297852 C873.257814,328.284185 873.414062,329.338862 873.414062,330.461914 C873.414062,333.127943 872.754889,335.188469 871.436523,336.643555 C870.118157,338.09864 868.536142,338.826172 866.69043,338.826172 C864.854483,338.826172 863.414068,338.059578 862.369141,336.526367 L862.369141,338.474609 Z M862.339844,330.579102 C862.339844,332.444345 862.593747,333.791988 863.101562,334.62207 C863.931645,335.979499 865.05468,336.658203 866.470703,336.658203 C867.623053,336.658203 868.619136,336.15772 869.458984,335.156738 C870.298832,334.155757 870.71875,332.664072 870.71875,330.681641 C870.71875,328.65038 870.315922,327.151372 869.510254,326.18457 C868.704586,325.217769 867.730474,324.734375 866.587891,324.734375 C865.435541,324.734375 864.439457,325.234858 863.599609,326.23584 C862.759761,327.236821 862.339844,328.684561 862.339844,330.579102 Z M887.271484,333.464844 L889.996094,333.801758 C889.566404,335.393563 888.770514,336.628902 887.608398,337.507812 C886.446283,338.386723 884.961923,338.826172 883.155273,338.826172 C880.879871,338.826172 879.07569,338.125495 877.742676,336.724121 C876.409661,335.322747 875.743164,333.357435 875.743164,330.828125 C875.743164,328.210924 876.416985,326.179695 877.764648,324.734375 C879.112311,323.289055 880.860341,322.566406 883.008789,322.566406 C885.088878,322.566406 886.788079,323.274407 888.106445,324.69043 C889.424811,326.106452 890.083984,328.09862 890.083984,330.666992 C890.083984,330.823243 890.079102,331.057616 890.069336,331.370117 L878.467773,331.370117 C878.56543,333.07911 879.048824,334.387691 879.917969,335.295898 C880.787114,336.204106 881.871087,336.658203 883.169922,336.658203 C884.136724,336.658203 884.961911,336.404299 885.645508,335.896484 C886.329105,335.388669 886.871092,334.578131 887.271484,333.464844 Z M878.614258,329.202148 L887.300781,329.202148 C887.183593,327.893548 886.851565,326.912113 886.304688,326.257812 C885.46484,325.242182 884.375983,324.734375 883.038086,324.734375 C881.827142,324.734375 880.809086,325.139644 879.983887,325.950195 C879.158687,326.760746 878.702149,327.84472 878.614258,329.202148 Z M892.823242,339.763672 L895.386719,340.144531 C895.494141,340.935551 895.79199,341.511717 896.280273,341.873047 C896.934574,342.361331 897.828119,342.605469 898.960938,342.605469 C900.181647,342.605469 901.12402,342.361331 901.788086,341.873047 C902.452152,341.384763 902.901366,340.701176 903.135742,339.822266 C903.272462,339.285154 903.335938,338.157235 903.326172,336.438477 C902.173822,337.795905 900.73829,338.474609 899.019531,338.474609 C896.880849,338.474609 895.225592,337.703133 894.053711,336.160156 C892.88183,334.61718 892.295898,332.766612 892.295898,330.608398 C892.295898,329.124016 892.56445,327.754401 893.101562,326.499512 C893.638675,325.244623 894.417475,324.275394 895.437988,323.591797 C896.458501,322.9082 897.65722,322.566406 899.03418,322.566406 C900.870126,322.566406 902.383783,323.308586 903.575195,324.792969 L903.575195,322.917969 L906.006836,322.917969 L906.006836,336.365234 C906.006836,338.787121 905.760256,340.503413 905.26709,341.51416 C904.773923,342.524907 903.992681,343.323239 902.92334,343.90918 C901.853999,344.49512 900.538094,344.788086 898.975586,344.788086 C897.120108,344.788086 895.621099,344.37061 894.478516,343.535645 C893.335932,342.700679 892.784179,341.443368 892.823242,339.763672 Z M895.005859,330.417969 C895.005859,332.458995 895.411129,333.948238 896.22168,334.885742 C897.032231,335.823247 898.047845,336.291992 899.268555,336.291992 C900.479498,336.291992 901.495113,335.825688 902.31543,334.893066 C903.135746,333.960445 903.545898,332.498057 903.545898,330.505859 C903.545898,328.601553 903.123539,327.16602 902.278809,326.199219 C901.434078,325.232417 900.416022,324.749023 899.224609,324.749023 C898.052729,324.749023 897.056645,325.225093 896.236328,326.177246 C895.416012,327.129399 895.005859,328.542959 895.005859,330.417969 Z M909.009766,330.696289 C909.009766,327.815415 909.810539,325.681648 911.412109,324.294922 C912.750007,323.142572 914.38085,322.566406 916.304688,322.566406 C918.44337,322.566406 920.191399,323.267083 921.548828,324.668457 C922.906257,326.069831 923.584961,328.005847 923.584961,330.476562 C923.584961,332.478526 923.284671,334.053217 922.684082,335.200684 C922.083493,336.34815 921.209478,337.239255 920.062012,337.874023 C918.914545,338.508792 917.662116,338.826172 916.304688,338.826172 C914.126942,338.826172 912.366706,338.127937 911.023926,336.731445 C909.681146,335.334954 909.009766,333.323255 909.009766,330.696289 Z M911.719727,330.696289 C911.719727,332.688487 912.154293,334.180171 913.023438,335.171387 C913.892582,336.162603 914.986322,336.658203 916.304688,336.658203 C917.613288,336.658203 918.702144,336.160161 919.571289,335.164062 C920.440434,334.167964 920.875,332.649424 920.875,330.608398 C920.875,328.684561 920.437993,327.227056 919.563965,326.23584 C918.689937,325.244624 917.603522,324.749023 916.304688,324.749023 C914.986322,324.749023 913.892582,325.242183 913.023438,326.228516 C912.154293,327.214849 911.719727,328.704092 911.719727,330.696289 Z M927.422852,338.474609 L927.422852,335.47168 L930.425781,335.47168 L930.425781,338.474609 L927.422852,338.474609 Z M937.442383,338.474609 L934.996094,338.474609 L934.996094,317 L937.632812,317 L937.632812,324.661133 C938.746099,323.264641 940.166984,322.566406 941.895508,322.566406 C942.852544,322.566406 943.758297,322.759275 944.612793,323.14502 C945.467289,323.530764 946.170407,324.07275 946.722168,324.770996 C947.273929,325.469242 947.706053,326.311519 948.018555,327.297852 C948.331056,328.284185 948.487305,329.338862 948.487305,330.461914 C948.487305,333.127943 947.828132,335.188469 946.509766,336.643555 C945.1914,338.09864 943.609384,338.826172 941.763672,338.826172 C939.927725,338.826172 938.48731,338.059578 937.442383,336.526367 L937.442383,338.474609 Z M937.413086,330.579102 C937.413086,332.444345 937.66699,333.791988 938.174805,334.62207 C939.004887,335.979499 940.127923,336.658203 941.543945,336.658203 C942.696295,336.658203 943.692379,336.15772 944.532227,335.156738 C945.372075,334.155757 945.791992,332.664072 945.791992,330.681641 C945.791992,328.65038 945.389164,327.151372 944.583496,326.18457 C943.777828,325.217769 942.803717,324.734375 941.661133,324.734375 C940.508783,324.734375 939.5127,325.234858 938.672852,326.23584 C937.833004,327.236821 937.413086,328.684561 937.413086,330.579102 Z M962.344727,333.464844 L965.069336,333.801758 C964.639646,335.393563 963.843756,336.628902 962.681641,337.507812 C961.519525,338.386723 960.035165,338.826172 958.228516,338.826172 C955.953114,338.826172 954.148932,338.125495 952.815918,336.724121 C951.482903,335.322747 950.816406,333.357435 950.816406,330.828125 C950.816406,328.210924 951.490228,326.179695 952.837891,324.734375 C954.185554,323.289055 955.933583,322.566406 958.082031,322.566406 C960.16212,322.566406 961.861322,323.274407 963.179688,324.69043 C964.498053,326.106452 965.157227,328.09862 965.157227,330.666992 C965.157227,330.823243 965.152344,331.057616 965.142578,331.370117 L953.541016,331.370117 C953.638672,333.07911 954.122066,334.387691 954.991211,335.295898 C955.860356,336.204106 956.944329,336.658203 958.243164,336.658203 C959.209966,336.658203 960.035153,336.404299 960.71875,335.896484 C961.402347,335.388669 961.944334,334.578131 962.344727,333.464844 Z M953.6875,329.202148 L962.374023,329.202148 C962.256835,327.893548 961.924807,326.912113 961.37793,326.257812 C960.538082,325.242182 959.449225,324.734375 958.111328,324.734375 C956.900385,324.734375 955.882328,325.139644 955.057129,325.950195 C954.231929,326.760746 953.775391,327.84472 953.6875,329.202148 Z" id="api.sambego.be" fill="#000000"></path>
        <path id="Line" d="M444.037943,152 L625.5,152 L625.5,133.221159 C625.5,131.442162 626.942162,130 628.721159,130 C629.221228,130 629.71443,130.116429 630.161705,130.340067 L677.718681,154.118555 C679.309865,154.914146 679.954819,156.84901 679.159228,158.440193 C678.847536,159.063576 678.342064,159.569048 677.718681,159.88074 L630.161705,183.659228 C628.570522,184.454819 626.635659,183.809865 625.840067,182.218681 C625.616429,181.771406 625.5,181.278204 625.5,180.778135 L625.5,162 L444.037943,162 C441.69313,174.522838 430.70332,184 417.5,184 C402.588312,184 390.5,171.911688 390.5,157 C390.5,142.088312 402.588312,130 417.5,130 C430.70332,130 441.69313,139.477162 444.037943,152 Z M400.5,157 C400.5,166.388841 408.111159,174 417.5,174 C426.888841,174 434.5,166.388841 434.5,157 C434.5,147.611159 426.888841,140 417.5,140 C408.111159,140 400.5,147.611159 400.5,157 Z" fill="#000000" fill-rule="nonzero"></path>
        <path d="M81.1289062,324.081055 C80.1523389,324.911137 79.2124069,325.497069 78.309082,325.838867 C77.4057572,326.180666 76.4365286,326.351562 75.4013672,326.351562 C73.6923743,326.351562 72.3789108,325.934086 71.4609375,325.099121 C70.5429642,324.264156 70.0839844,323.197272 70.0839844,321.898438 C70.0839844,321.136715 70.2573225,320.440921 70.6040039,319.811035 C70.9506853,319.181149 71.4047823,318.675783 71.9663086,318.294922 C72.5278348,317.914061 73.1601527,317.625978 73.8632812,317.430664 C74.380862,317.293945 75.1621042,317.16211 76.2070312,317.035156 C78.3359481,316.781249 79.9033153,316.478517 80.9091797,316.126953 C80.9189454,315.765623 80.9238281,315.536133 80.9238281,315.438477 C80.9238281,314.364252 80.6748072,313.607424 80.1767578,313.167969 C79.5029263,312.572263 78.5019598,312.274414 77.1738281,312.274414 C75.9335875,312.274414 75.0180694,312.491697 74.4272461,312.92627 C73.8364228,313.360842 73.3994155,314.129877 73.1162109,315.233398 L70.5380859,314.881836 C70.7724621,313.778315 71.1582004,312.88721 71.6953125,312.208496 C72.2324246,311.529782 73.008784,311.007326 74.0244141,310.641113 C75.0400441,310.274901 76.2167902,310.091797 77.5546875,310.091797 C78.8828191,310.091797 79.9619099,310.248045 80.7919922,310.560547 C81.6220745,310.873048 82.2324199,311.266111 82.6230469,311.739746 C83.0136738,312.213381 83.2871086,312.81152 83.4433594,313.53418 C83.5312504,313.983401 83.5751953,314.793939 83.5751953,315.96582 L83.5751953,319.481445 C83.5751953,321.932629 83.6313471,323.482907 83.7436523,324.132324 C83.8559576,324.781742 84.0781233,325.404294 84.4101562,326 L81.65625,326 C81.3828111,325.453122 81.2070316,324.81348 81.1289062,324.081055 Z M80.9091797,318.192383 C79.9521437,318.58301 78.5166111,318.915038 76.6025391,319.188477 C75.5185493,319.344727 74.7519554,319.520507 74.3027344,319.71582 C73.8535134,319.911134 73.5068372,320.196775 73.2626953,320.572754 C73.0185535,320.948732 72.8964844,321.366209 72.8964844,321.825195 C72.8964844,322.528324 73.162595,323.114255 73.6948242,323.583008 C74.2270534,324.05176 75.0058542,324.286133 76.03125,324.286133 C77.0468801,324.286133 77.9501914,324.063967 78.7412109,323.619629 C79.5322305,323.175291 80.1132794,322.567387 80.484375,321.795898 C80.7675795,321.200192 80.9091797,320.321295 80.9091797,319.15918 L80.9091797,318.192383 Z M87.6621094,331.961914 L87.6621094,310.443359 L90.0644531,310.443359 L90.0644531,312.464844 C90.6308622,311.673824 91.2705042,311.080568 91.9833984,310.685059 C92.6962926,310.289549 93.5605418,310.091797 94.5761719,310.091797 C95.9043035,310.091797 97.0761668,310.43359 98.0917969,311.117188 C99.107427,311.800785 99.8740208,312.76513 100.391602,314.010254 C100.909182,315.255377 101.167969,316.62011 101.167969,318.104492 C101.167969,319.696297 100.882327,321.129388 100.311035,322.403809 C99.7397432,323.678229 98.9096734,324.654782 97.8208008,325.333496 C96.7319281,326.01221 95.5869201,326.351562 94.3857422,326.351562 C93.5068315,326.351562 92.7182652,326.166017 92.0200195,325.794922 C91.3217739,325.423826 90.7480491,324.955081 90.2988281,324.388672 L90.2988281,331.961914 L87.6621094,331.961914 Z M90.0498047,318.30957 C90.0498047,320.311533 90.4550741,321.791011 91.265625,322.748047 C92.0761759,323.705083 93.0576114,324.183594 94.2099609,324.183594 C95.3818418,324.183594 96.3852497,323.687993 97.2202148,322.696777 C98.05518,321.705561 98.4726562,320.169932 98.4726562,318.089844 C98.4726562,316.107412 98.0649455,314.623052 97.2495117,313.636719 C96.434078,312.650386 95.4599666,312.157227 94.3271484,312.157227 C93.2040959,312.157227 92.2104535,312.682124 91.3461914,313.731934 C90.4819293,314.781744 90.0498047,316.307607 90.0498047,318.30957 Z M104.34668,331.961914 L104.34668,310.443359 L106.749023,310.443359 L106.749023,312.464844 C107.315433,311.673824 107.955075,311.080568 108.667969,310.685059 C109.380863,310.289549 110.245112,310.091797 111.260742,310.091797 C112.588874,310.091797 113.760737,310.43359 114.776367,311.117188 C115.791997,311.800785 116.558591,312.76513 117.076172,314.010254 C117.593753,315.255377 117.852539,316.62011 117.852539,318.104492 C117.852539,319.696297 117.566897,321.129388 116.995605,322.403809 C116.424314,323.678229 115.594244,324.654782 114.505371,325.333496 C113.416498,326.01221 112.27149,326.351562 111.070312,326.351562 C110.191402,326.351562 109.402836,326.166017 108.70459,325.794922 C108.006344,325.423826 107.432619,324.955081 106.983398,324.388672 L106.983398,331.961914 L104.34668,331.961914 Z M106.734375,318.30957 C106.734375,320.311533 107.139644,321.791011 107.950195,322.748047 C108.760746,323.705083 109.742182,324.183594 110.894531,324.183594 C112.066412,324.183594 113.06982,323.687993 113.904785,322.696777 C114.73975,321.705561 115.157227,320.169932 115.157227,318.089844 C115.157227,316.107412 114.749516,314.623052 113.934082,313.636719 C113.118648,312.650386 112.144537,312.157227 111.011719,312.157227 C109.888666,312.157227 108.895024,312.682124 108.030762,313.731934 C107.1665,314.781744 106.734375,316.307607 106.734375,318.30957 Z M121.77832,326 L121.77832,322.99707 L124.78125,322.99707 L124.78125,326 L121.77832,326 Z M128.311523,321.356445 L130.918945,320.946289 C131.06543,321.991216 131.473141,322.791989 132.14209,323.348633 C132.811039,323.905276 133.746088,324.183594 134.947266,324.183594 C136.158209,324.183594 137.056638,323.937014 137.642578,323.443848 C138.228519,322.950681 138.521484,322.372074 138.521484,321.708008 C138.521484,321.112302 138.262698,320.643556 137.745117,320.301758 C137.383787,320.067382 136.485359,319.769533 135.049805,319.408203 C133.116201,318.919919 131.775883,318.49756 131.028809,318.141113 C130.281735,317.784666 129.715334,317.291507 129.32959,316.661621 C128.943846,316.031735 128.750977,315.335941 128.750977,314.574219 C128.750977,313.880856 128.909666,313.238772 129.227051,312.647949 C129.544435,312.057126 129.97656,311.566408 130.523438,311.175781 C130.933596,310.873045 131.492672,310.6167 132.200684,310.406738 C132.908695,310.196776 133.667965,310.091797 134.478516,310.091797 C135.699225,310.091797 136.770991,310.267576 137.693848,310.619141 C138.616704,310.970705 139.297849,311.446774 139.737305,312.047363 C140.17676,312.647952 140.479491,313.451167 140.645508,314.457031 L138.067383,314.808594 C137.950195,314.007808 137.610843,313.382815 137.049316,312.933594 C136.48779,312.484373 135.694341,312.259766 134.668945,312.259766 C133.458002,312.259766 132.593753,312.459959 132.076172,312.860352 C131.558591,313.260744 131.299805,313.72949 131.299805,314.266602 C131.299805,314.6084 131.407225,314.916014 131.62207,315.189453 C131.836915,315.472658 132.173826,315.70703 132.632812,315.892578 C132.896486,315.990235 133.672845,316.214842 134.961914,316.566406 C136.827158,317.064456 138.128414,317.472166 138.865723,317.789551 C139.603031,318.106935 140.181639,318.568356 140.601562,319.173828 C141.021486,319.7793 141.231445,320.531246 141.231445,321.429688 C141.231445,322.308598 140.9751,323.136227 140.462402,323.912598 C139.949704,324.688969 139.209966,325.289549 138.243164,325.714355 C137.276362,326.139162 136.182623,326.351562 134.961914,326.351562 C132.94042,326.351562 131.399908,325.931645 130.340332,325.091797 C129.280756,324.251949 128.604494,323.006844 128.311523,321.356445 Z M154.517578,324.081055 C153.541011,324.911137 152.601079,325.497069 151.697754,325.838867 C150.794429,326.180666 149.8252,326.351562 148.790039,326.351562 C147.081046,326.351562 145.767583,325.934086 144.849609,325.099121 C143.931636,324.264156 143.472656,323.197272 143.472656,321.898438 C143.472656,321.136715 143.645994,320.440921 143.992676,319.811035 C144.339357,319.181149 144.793454,318.675783 145.35498,318.294922 C145.916507,317.914061 146.548825,317.625978 147.251953,317.430664 C147.769534,317.293945 148.550776,317.16211 149.595703,317.035156 C151.72462,316.781249 153.291987,316.478517 154.297852,316.126953 C154.307617,315.765623 154.3125,315.536133 154.3125,315.438477 C154.3125,314.364252 154.063479,313.607424 153.56543,313.167969 C152.891598,312.572263 151.890632,312.274414 150.5625,312.274414 C149.322259,312.274414 148.406741,312.491697 147.815918,312.92627 C147.225095,313.360842 146.788087,314.129877 146.504883,315.233398 L143.926758,314.881836 C144.161134,313.778315 144.546872,312.88721 145.083984,312.208496 C145.621096,311.529782 146.397456,311.007326 147.413086,310.641113 C148.428716,310.274901 149.605462,310.091797 150.943359,310.091797 C152.271491,310.091797 153.350582,310.248045 154.180664,310.560547 C155.010746,310.873048 155.621092,311.266111 156.011719,311.739746 C156.402346,312.213381 156.67578,312.81152 156.832031,313.53418 C156.919922,313.983401 156.963867,314.793939 156.963867,315.96582 L156.963867,319.481445 C156.963867,321.932629 157.020019,323.482907 157.132324,324.132324 C157.244629,324.781742 157.466795,325.404294 157.798828,326 L155.044922,326 C154.771483,325.453122 154.595704,324.81348 154.517578,324.081055 Z M154.297852,318.192383 C153.340816,318.58301 151.905283,318.915038 149.991211,319.188477 C148.907221,319.344727 148.140627,319.520507 147.691406,319.71582 C147.242185,319.911134 146.895509,320.196775 146.651367,320.572754 C146.407225,320.948732 146.285156,321.366209 146.285156,321.825195 C146.285156,322.528324 146.551267,323.114255 147.083496,323.583008 C147.615725,324.05176 148.394526,324.286133 149.419922,324.286133 C150.435552,324.286133 151.338863,324.063967 152.129883,323.619629 C152.920902,323.175291 153.501951,322.567387 153.873047,321.795898 C154.156251,321.200192 154.297852,320.321295 154.297852,319.15918 L154.297852,318.192383 Z M161.050781,326 L161.050781,310.443359 L163.40918,310.443359 L163.40918,312.625977 C163.897463,311.864254 164.546871,311.251467 165.357422,310.787598 C166.167973,310.323728 167.090815,310.091797 168.125977,310.091797 C169.278326,310.091797 170.223141,310.331052 170.960449,310.80957 C171.697758,311.288088 172.217772,311.957027 172.520508,312.816406 C173.750983,310.999991 175.352529,310.091797 177.325195,310.091797 C178.868172,310.091797 180.054683,310.519039 180.884766,311.373535 C181.714848,312.228032 182.129883,313.543936 182.129883,315.321289 L182.129883,326 L179.507812,326 L179.507812,316.200195 C179.507812,315.145503 179.422364,314.386233 179.251465,313.922363 C179.080566,313.458494 178.77051,313.084962 178.321289,312.801758 C177.872068,312.518553 177.34473,312.376953 176.739258,312.376953 C175.645502,312.376953 174.737308,312.740719 174.014648,313.468262 C173.291989,314.195804 172.930664,315.360344 172.930664,316.961914 L172.930664,326 L170.293945,326 L170.293945,315.892578 C170.293945,314.720697 170.079104,313.8418 169.649414,313.255859 C169.219724,312.669919 168.516606,312.376953 167.540039,312.376953 C166.797848,312.376953 166.11182,312.572264 165.481934,312.962891 C164.852048,313.353518 164.395509,313.924801 164.112305,314.676758 C163.8291,315.428715 163.6875,316.512688 163.6875,317.928711 L163.6875,326 L161.050781,326 Z M188.472656,326 L186.026367,326 L186.026367,304.525391 L188.663086,304.525391 L188.663086,312.186523 C189.776373,310.790032 191.197257,310.091797 192.925781,310.091797 C193.882817,310.091797 194.78857,310.284666 195.643066,310.67041 C196.497563,311.056154 197.200681,311.598141 197.752441,312.296387 C198.304202,312.994632 198.736327,313.836909 199.048828,314.823242 C199.36133,315.809575 199.517578,316.864252 199.517578,317.987305 C199.517578,320.653334 198.858405,322.71386 197.540039,324.168945 C196.221673,325.624031 194.639658,326.351562 192.793945,326.351562 C190.957999,326.351562 189.517583,325.584969 188.472656,324.051758 L188.472656,326 Z M188.443359,318.104492 C188.443359,319.969736 188.697263,321.317379 189.205078,322.147461 C190.03516,323.50489 191.158196,324.183594 192.574219,324.183594 C193.726568,324.183594 194.722652,323.68311 195.5625,322.682129 C196.402348,321.681147 196.822266,320.189463 196.822266,318.207031 C196.822266,316.175771 196.419438,314.676763 195.61377,313.709961 C194.808101,312.743159 193.83399,312.259766 192.691406,312.259766 C191.539057,312.259766 190.542973,312.760249 189.703125,313.76123 C188.863277,314.762212 188.443359,316.209951 188.443359,318.104492 Z M213.375,320.990234 L216.099609,321.327148 C215.66992,322.918953 214.874029,324.154292 213.711914,325.033203 C212.549799,325.912114 211.065439,326.351562 209.258789,326.351562 C206.983387,326.351562 205.179206,325.650886 203.846191,324.249512 C202.513177,322.848138 201.84668,320.882825 201.84668,318.353516 C201.84668,315.736315 202.520501,313.705085 203.868164,312.259766 C205.215827,310.814446 206.963856,310.091797 209.112305,310.091797 C211.192393,310.091797 212.891595,310.799798 214.209961,312.21582 C215.528327,313.631843 216.1875,315.624011 216.1875,318.192383 C216.1875,318.348634 216.182617,318.583006 216.172852,318.895508 L204.571289,318.895508 C204.668946,320.604501 205.152339,321.913081 206.021484,322.821289 C206.890629,323.729497 207.974603,324.183594 209.273438,324.183594 C210.240239,324.183594 211.065426,323.92969 211.749023,323.421875 C212.432621,322.91406 212.974607,322.103521 213.375,320.990234 Z M204.717773,316.727539 L213.404297,316.727539 C213.287109,315.418939 212.955081,314.437503 212.408203,313.783203 C211.568355,312.767573 210.479499,312.259766 209.141602,312.259766 C207.930658,312.259766 206.912602,312.665035 206.087402,313.475586 C205.262203,314.286137 204.805665,315.37011 204.717773,316.727539 Z M218.926758,327.289062 L221.490234,327.669922 C221.597657,328.460941 221.895505,329.037108 222.383789,329.398438 C223.038089,329.886721 223.931635,330.130859 225.064453,330.130859 C226.285162,330.130859 227.227536,329.886721 227.891602,329.398438 C228.555667,328.910154 229.004882,328.226567 229.239258,327.347656 C229.375977,326.810544 229.439453,325.682626 229.429688,323.963867 C228.277338,325.321296 226.841805,326 225.123047,326 C222.984364,326 221.329107,325.228523 220.157227,323.685547 C218.985346,322.14257 218.399414,320.292003 218.399414,318.133789 C218.399414,316.649407 218.667966,315.279791 219.205078,314.024902 C219.74219,312.770013 220.520991,311.800785 221.541504,311.117188 C222.562017,310.43359 223.760735,310.091797 225.137695,310.091797 C226.973642,310.091797 228.487299,310.833977 229.678711,312.318359 L229.678711,310.443359 L232.110352,310.443359 L232.110352,323.890625 C232.110352,326.312512 231.863772,328.028804 231.370605,329.039551 C230.877439,330.050298 230.096197,330.84863 229.026855,331.43457 C227.957514,332.020511 226.641609,332.313477 225.079102,332.313477 C223.223624,332.313477 221.724615,331.896 220.582031,331.061035 C219.439447,330.22607 218.887695,328.968758 218.926758,327.289062 Z M221.109375,317.943359 C221.109375,319.984385 221.514644,321.473628 222.325195,322.411133 C223.135746,323.348637 224.151361,323.817383 225.37207,323.817383 C226.583014,323.817383 227.598629,323.351079 228.418945,322.418457 C229.239262,321.485835 229.649414,320.023447 229.649414,318.03125 C229.649414,316.126944 229.227055,314.691411 228.382324,313.724609 C227.537593,312.757808 226.519537,312.274414 225.328125,312.274414 C224.156244,312.274414 223.16016,312.750484 222.339844,313.702637 C221.519527,314.65479 221.109375,316.06835 221.109375,317.943359 Z M235.113281,318.22168 C235.113281,315.340806 235.914054,313.207038 237.515625,311.820312 C238.853522,310.667963 240.484365,310.091797 242.408203,310.091797 C244.546886,310.091797 246.294915,310.792473 247.652344,312.193848 C249.009772,313.595222 249.688477,315.531238 249.688477,318.001953 C249.688477,320.003916 249.388187,321.578608 248.787598,322.726074 C248.187009,323.873541 247.312994,324.764645 246.165527,325.399414 C245.018061,326.034183 243.765632,326.351562 242.408203,326.351562 C240.230458,326.351562 238.470222,325.653327 237.127441,324.256836 C235.784661,322.860345 235.113281,320.848646 235.113281,318.22168 Z M237.823242,318.22168 C237.823242,320.213877 238.257808,321.705561 239.126953,322.696777 C239.996098,323.687993 241.089837,324.183594 242.408203,324.183594 C243.716803,324.183594 244.80566,323.685552 245.674805,322.689453 C246.54395,321.693354 246.978516,320.174815 246.978516,318.133789 C246.978516,316.209951 246.541508,314.752446 245.66748,313.76123 C244.793453,312.770015 243.707038,312.274414 242.408203,312.274414 C241.089837,312.274414 239.996098,312.767573 239.126953,313.753906 C238.257808,314.740239 237.823242,316.229482 237.823242,318.22168 Z M253.526367,326 L253.526367,322.99707 L256.529297,322.99707 L256.529297,326 L253.526367,326 Z M263.545898,326 L261.099609,326 L261.099609,304.525391 L263.736328,304.525391 L263.736328,312.186523 C264.849615,310.790032 266.270499,310.091797 267.999023,310.091797 C268.956059,310.091797 269.861812,310.284666 270.716309,310.67041 C271.570805,311.056154 272.273923,311.598141 272.825684,312.296387 C273.377444,312.994632 273.809569,313.836909 274.12207,314.823242 C274.434572,315.809575 274.59082,316.864252 274.59082,317.987305 C274.59082,320.653334 273.931647,322.71386 272.613281,324.168945 C271.294915,325.624031 269.7129,326.351562 267.867188,326.351562 C266.031241,326.351562 264.590826,325.584969 263.545898,324.051758 L263.545898,326 Z M263.516602,318.104492 C263.516602,319.969736 263.770505,321.317379 264.27832,322.147461 C265.108403,323.50489 266.231438,324.183594 267.647461,324.183594 C268.79981,324.183594 269.795894,323.68311 270.635742,322.682129 C271.47559,321.681147 271.895508,320.189463 271.895508,318.207031 C271.895508,316.175771 271.49268,314.676763 270.687012,313.709961 C269.881344,312.743159 268.907232,312.259766 267.764648,312.259766 C266.612299,312.259766 265.616215,312.760249 264.776367,313.76123 C263.936519,314.762212 263.516602,316.209951 263.516602,318.104492 Z M288.448242,320.990234 L291.172852,321.327148 C290.743162,322.918953 289.947271,324.154292 288.785156,325.033203 C287.623041,325.912114 286.138681,326.351562 284.332031,326.351562 C282.056629,326.351562 280.252448,325.650886 278.919434,324.249512 C277.586419,322.848138 276.919922,320.882825 276.919922,318.353516 C276.919922,315.736315 277.593743,313.705085 278.941406,312.259766 C280.289069,310.814446 282.037099,310.091797 284.185547,310.091797 C286.265635,310.091797 287.964837,310.799798 289.283203,312.21582 C290.601569,313.631843 291.260742,315.624011 291.260742,318.192383 C291.260742,318.348634 291.255859,318.583006 291.246094,318.895508 L279.644531,318.895508 C279.742188,320.604501 280.225582,321.913081 281.094727,322.821289 C281.963872,323.729497 283.047845,324.183594 284.34668,324.183594 C285.313481,324.183594 286.138668,323.92969 286.822266,323.421875 C287.505863,322.91406 288.04785,322.103521 288.448242,320.990234 Z M279.791016,316.727539 L288.477539,316.727539 C288.360351,315.418939 288.028323,314.437503 287.481445,313.783203 C286.641597,312.767573 285.552741,312.259766 284.214844,312.259766 C283.0039,312.259766 281.985844,312.665035 281.160645,313.475586 C280.335445,314.286137 279.878907,315.37011 279.791016,316.727539 Z" id="app.sambego.be" fill="#000000"></path>
        <g id="Server" transform="translate(1360.500000, 14.000000)">
            <rect id="Rectangle" fill="#FAC863" x="68.3478261" y="79.0869565" width="177.913043" height="158.347826"></rect>
            <path d="M246.26087,243.826087 L68.3478261,243.826087 C64.745969,243.826087 61.826087,240.906205 61.826087,237.304348 L61.826087,79.0869565 C61.826087,75.4850995 64.745969,72.5652174 68.3478261,72.5652174 L246.26087,72.5652174 C249.862727,72.5652174 252.782609,75.4850995 252.782609,79.0869565 L252.782609,237.565217 C252.642514,241.064808 249.763262,243.82889 246.26087,243.826087 Z M74.8695652,230.782609 L239.73913,230.782609 L239.73913,85.6086957 L74.8695652,85.6086957 L74.8695652,230.782609 Z" id="Shape" fill="#000000" fill-rule="nonzero"></path>
            <rect id="Rectangle" fill="#FFFFFF" x="51.1304348" y="129.043478" width="212.217391" height="58.6956522"></rect>
            <path d="M263.347826,194.26087 L51.1304348,194.26087 C47.5577158,194.191477 44.6780883,191.311849 44.6086957,187.73913 L44.6086957,129.043478 C44.6086957,125.441621 47.5285777,122.521739 51.1304348,122.521739 L263.347826,122.521739 C266.949683,122.521739 269.869565,125.441621 269.869565,129.043478 L269.869565,187.73913 C269.869565,191.340987 266.949683,194.26087 263.347826,194.26087 Z M57.6521739,181.217391 L256.826087,181.217391 L256.826087,135.565217 L57.6521739,135.565217 L57.6521739,181.217391 Z" id="Shape" fill="#000000" fill-rule="nonzero"></path>
            <rect id="Rectangle" fill="#FFFFFF" x="51.1304348" y="38.6521739" width="212.217391" height="58.6956522"></rect>
            <path d="M263.347826,103.869565 L51.1304348,103.869565 C47.5577158,103.800173 44.6780883,100.920545 44.6086957,97.3478261 L44.6086957,38.6521739 C44.6086957,35.0503168 47.5285777,32.1304348 51.1304348,32.1304348 L263.347826,32.1304348 C266.949683,32.1304348 269.869565,35.0503168 269.869565,38.6521739 L269.869565,97.3478261 C269.869565,100.949683 266.949683,103.869565 263.347826,103.869565 Z M57.6521739,90.826087 L256.826087,90.826087 L256.826087,45.173913 L57.6521739,45.173913 L57.6521739,90.826087 Z" id="Shape" fill="#000000" fill-rule="nonzero"></path>
            <rect id="Rectangle" fill="#FFFFFF" x="51.1304348" y="219.304348" width="212.217391" height="58.6956522"></rect>
            <path d="M263.347826,284.521739 L51.1304348,284.521739 C47.5285777,284.521739 44.6086957,281.601857 44.6086957,278 L44.6086957,219.304348 C44.6780883,215.731629 47.5577158,212.852001 51.1304348,212.782609 L263.347826,212.782609 C266.949683,212.782609 269.869565,215.702491 269.869565,219.304348 L269.869565,278 C269.869565,281.601857 266.949683,284.521739 263.347826,284.521739 Z M57.6521739,271.478261 L256.826087,271.478261 L256.826087,225.826087 L57.6521739,225.826087 L57.6521739,271.478261 Z" id="Shape" fill="#000000" fill-rule="nonzero"></path>
            <path d="M45,259.347826 L7.17391304,259.347826 C3.6011941,259.278433 0.721566597,256.398806 0.652173913,252.826087 C0.652173913,249.22423 3.57205598,246.304348 7.17391304,246.304348 L45,246.304348 C48.6018571,246.304348 51.5217391,249.22423 51.5217391,252.826087 C51.4523464,256.398806 48.5727189,259.278433 45,259.347826 Z" id="Path" fill="#000000"></path>
            <path d="M304.043478,259.347826 L266.347826,259.347826 C262.745969,259.347826 259.826087,256.427944 259.826087,252.826087 C259.826087,249.22423 262.745969,246.304348 266.347826,246.304348 L304.043478,246.304348 C307.645335,246.304348 310.565217,249.22423 310.565217,252.826087 C310.565217,256.427944 307.645335,259.347826 304.043478,259.347826 Z" id="Path" fill="#000000"></path>
            <rect id="Rectangle" fill="#000000" x="31.826087" y="240.956522" width="16.4347826" height="23.3478261"></rect>
            <rect id="Rectangle" fill="#000000" x="266.347826" y="240.956522" width="16.4347826" height="23.3478261"></rect>
            <path d="M228.913043,163.217391 L154.173913,163.217391 C150.572056,163.217391 147.652174,160.297509 147.652174,156.695652 C147.652174,153.093795 150.572056,150.173913 154.173913,150.173913 L228.913043,150.173913 C232.514901,150.173913 235.434783,153.093795 235.434783,156.695652 C235.434783,160.297509 232.514901,163.217391 228.913043,163.217391 Z" id="Path" fill="#FAC863"></path>
            <path d="M231.391304,255.826087 L156.782609,255.826087 C153.180752,255.826087 150.26087,252.906205 150.26087,249.304348 C150.26087,245.702491 153.180752,242.782609 156.782609,242.782609 L231.391304,242.782609 C234.993161,242.782609 237.913043,245.702491 237.913043,249.304348 C237.913043,252.906205 234.993161,255.826087 231.391304,255.826087 Z" id="Path" fill="#FAC863"></path>
            <path d="M228.913043,74.2608696 L154.173913,74.2608696 C150.572056,74.2608696 147.652174,71.3409875 147.652174,67.7391304 C147.652174,64.1372734 150.572056,61.2173913 154.173913,61.2173913 L228.913043,61.2173913 C232.485762,61.286784 235.36539,64.1664115 235.434783,67.7391304 C235.434783,69.4688032 234.747673,71.1276331 233.524609,72.3506964 C232.301546,73.5737597 230.642716,74.2608696 228.913043,74.2608696 Z" id="Path" fill="#FAC863"></path>
            <circle id="Oval" fill="#000000" cx="121.826087" cy="68" r="8.08695652"></circle>
            <circle id="Oval" fill="#000000" cx="121.826087" cy="157.478261" r="8.08695652"></circle>
            <circle id="Oval" fill="#000000" cx="121.826087" cy="247.73913" r="8.08695652"></circle>
            <polygon id="Path" fill="#FFFFFF" points="236.869565 38.1304348 181.956522 38.1304348 194.347826 7.2173913 224.478261 7.2173913"></polygon>
            <path d="M236.869565,44.6521739 L181.956522,44.6521739 C179.769782,44.6542162 177.721701,43.5814118 176.478261,41.7826087 C175.503643,39.9013438 175.503643,37.6638736 176.478261,35.7826087 L188.869565,4.73913043 C189.875946,2.23209168 192.298567,0.582648061 195,0.565217391 L224.478261,0.565217391 C227.179694,0.582648061 229.602315,2.23209168 230.608696,4.73913043 L242.869565,35.7826087 C243.915165,37.6459489 243.915165,39.9192685 242.869565,41.7826087 C241.563972,43.78637 239.248927,44.8935652 236.869565,44.6521739 Z M191.608696,31.6086957 L227.217391,31.6086957 L220.043478,13.6086957 L198.652174,13.6086957 L191.608696,31.6086957 Z" id="Shape" fill="#000000" fill-rule="nonzero"></path>
        </g>
        <path id="Line" d="M1100.53794,152 L1282,152 L1282,133.221159 C1282,131.442162 1283.44216,130 1285.22116,130 C1285.72123,130 1286.21443,130.116429 1286.66171,130.340067 L1334.21868,154.118555 C1335.80986,154.914146 1336.45482,156.84901 1335.65923,158.440193 C1335.34754,159.063576 1334.84206,159.569048 1334.21868,159.88074 L1286.66171,183.659228 C1285.07052,184.454819 1283.13566,183.809865 1282.34007,182.218681 C1282.11643,181.771406 1282,181.278204 1282,180.778135 L1282,162 L1100.53794,162 C1098.19313,174.522838 1087.20332,184 1074,184 C1059.08831,184 1047,171.911688 1047,157 C1047,142.088312 1059.08831,130 1074,130 C1087.20332,130 1098.19313,139.477162 1100.53794,152 Z M1057,157 C1057,166.388841 1064.61116,174 1074,174 C1083.38884,174 1091,166.388841 1091,157 C1091,147.611159 1083.38884,140 1074,140 C1064.61116,140 1057,147.611159 1057,157 Z" fill="#000000" fill-rule="nonzero"></path>
        <path d="M1421.75391,339.474609 L1421.75391,337.189453 C1420.54296,338.947274 1418.89747,339.826172 1416.81738,339.826172 C1415.89941,339.826172 1415.04248,339.650392 1414.24658,339.298828 C1413.45068,338.947264 1412.85987,338.505374 1412.47412,337.973145 C1412.08838,337.440915 1411.81738,336.789066 1411.66113,336.017578 C1411.55371,335.499997 1411.5,334.679693 1411.5,333.556641 L1411.5,323.917969 L1414.13672,323.917969 L1414.13672,332.545898 C1414.13672,333.922858 1414.19043,334.850584 1414.29785,335.329102 C1414.46387,336.022464 1414.81543,336.566893 1415.35254,336.962402 C1415.88965,337.357912 1416.55371,337.555664 1417.34473,337.555664 C1418.13575,337.555664 1418.87793,337.353029 1419.57129,336.947754 C1420.26465,336.542478 1420.75537,335.990726 1421.04346,335.29248 C1421.33154,334.594235 1421.47559,333.581061 1421.47559,332.25293 L1421.47559,323.917969 L1424.1123,323.917969 L1424.1123,339.474609 L1421.75391,339.474609 Z M1427.18848,334.831055 L1429.7959,334.420898 C1429.94238,335.465826 1430.35009,336.266599 1431.01904,336.823242 C1431.68799,337.379886 1432.62304,337.658203 1433.82422,337.658203 C1435.03516,337.658203 1435.93359,337.411624 1436.51953,336.918457 C1437.10547,336.425291 1437.39844,335.846683 1437.39844,335.182617 C1437.39844,334.586911 1437.13965,334.118166 1436.62207,333.776367 C1436.26074,333.541991 1435.36231,333.244142 1433.92676,332.882812 C1431.99315,332.394529 1430.65284,331.97217 1429.90576,331.615723 C1429.15869,331.259276 1428.59229,330.766116 1428.20654,330.13623 C1427.8208,329.506345 1427.62793,328.810551 1427.62793,328.048828 C1427.62793,327.355465 1427.78662,326.713382 1428.104,326.122559 C1428.42139,325.531735 1428.85351,325.041018 1429.40039,324.650391 C1429.81055,324.347655 1430.36963,324.09131 1431.07764,323.881348 C1431.78565,323.671386 1432.54492,323.566406 1433.35547,323.566406 C1434.57618,323.566406 1435.64794,323.742186 1436.5708,324.09375 C1437.49366,324.445314 1438.1748,324.921384 1438.61426,325.521973 C1439.05371,326.122562 1439.35644,326.925776 1439.52246,327.931641 L1436.94434,328.283203 C1436.82715,327.482418 1436.4878,326.857424 1435.92627,326.408203 C1435.36474,325.958982 1434.57129,325.734375 1433.5459,325.734375 C1432.33495,325.734375 1431.47071,325.934568 1430.95312,326.334961 C1430.43554,326.735354 1430.17676,327.204099 1430.17676,327.741211 C1430.17676,328.08301 1430.28418,328.390624 1430.49902,328.664062 C1430.71387,328.947267 1431.05078,329.18164 1431.50977,329.367188 C1431.77344,329.464844 1432.5498,329.689451 1433.83887,330.041016 C1435.70411,330.539065 1437.00537,330.946776 1437.74268,331.26416 C1438.47998,331.581545 1439.05859,332.042966 1439.47852,332.648438 C1439.89844,333.253909 1440.1084,334.005855 1440.1084,334.904297 C1440.1084,335.783208 1439.85205,336.610836 1439.33936,337.387207 C1438.82666,338.163578 1438.08692,338.764158 1437.12012,339.188965 C1436.15332,339.613772 1435.05958,339.826172 1433.83887,339.826172 C1431.81737,339.826172 1430.27686,339.406254 1429.21729,338.566406 C1428.15771,337.726558 1427.48145,336.481454 1427.18848,334.831055 Z M1453.89258,334.464844 L1456.61719,334.801758 C1456.1875,336.393563 1455.39161,337.628902 1454.22949,338.507812 C1453.06738,339.386723 1451.58302,339.826172 1449.77637,339.826172 C1447.50097,339.826172 1445.69678,339.125495 1444.36377,337.724121 C1443.03076,336.322747 1442.36426,334.357435 1442.36426,331.828125 C1442.36426,329.210924 1443.03808,327.179695 1444.38574,325.734375 C1445.73341,324.289055 1447.48143,323.566406 1449.62988,323.566406 C1451.70997,323.566406 1453.40917,324.274407 1454.72754,325.69043 C1456.04591,327.106452 1456.70508,329.09862 1456.70508,331.666992 C1456.70508,331.823243 1456.7002,332.057616 1456.69043,332.370117 L1445.08887,332.370117 C1445.18652,334.07911 1445.66992,335.387691 1446.53906,336.295898 C1447.40821,337.204106 1448.49218,337.658203 1449.79102,337.658203 C1450.75782,337.658203 1451.583,337.404299 1452.2666,336.896484 C1452.9502,336.388669 1453.49219,335.578131 1453.89258,334.464844 Z M1445.23535,330.202148 L1453.92188,330.202148 C1453.80469,328.893548 1453.47266,327.912113 1452.92578,327.257812 C1452.08593,326.242182 1450.99708,325.734375 1449.65918,325.734375 C1448.44824,325.734375 1447.43018,326.139644 1446.60498,326.950195 C1445.77978,327.760746 1445.32324,328.84472 1445.23535,330.202148 Z M1459.89844,339.474609 L1459.89844,323.917969 L1462.27148,323.917969 L1462.27148,326.276367 C1462.87696,325.172846 1463.43603,324.445314 1463.94873,324.09375 C1464.46143,323.742186 1465.02539,323.566406 1465.64062,323.566406 C1466.5293,323.566406 1467.43261,323.849607 1468.35059,324.416016 L1467.44238,326.862305 C1466.79785,326.481443 1466.15332,326.291016 1465.50879,326.291016 C1464.93261,326.291016 1464.41504,326.464354 1463.95605,326.811035 C1463.49707,327.157717 1463.16992,327.638669 1462.97461,328.253906 C1462.68164,329.191411 1462.53516,330.216791 1462.53516,331.330078 L1462.53516,339.474609 L1459.89844,339.474609 Z M1469.00977,339.474609 L1469.00977,336.47168 L1472.0127,336.47168 L1472.0127,339.474609 L1469.00977,339.474609 Z M1475.54297,334.831055 L1478.15039,334.420898 C1478.29688,335.465826 1478.70459,336.266599 1479.37354,336.823242 C1480.04248,337.379886 1480.97753,337.658203 1482.17871,337.658203 C1483.38965,337.658203 1484.28808,337.411624 1484.87402,336.918457 C1485.45996,336.425291 1485.75293,335.846683 1485.75293,335.182617 C1485.75293,334.586911 1485.49414,334.118166 1484.97656,333.776367 C1484.61523,333.541991 1483.7168,333.244142 1482.28125,332.882812 C1480.34765,332.394529 1479.00733,331.97217 1478.26025,331.615723 C1477.51318,331.259276 1476.94678,330.766116 1476.56104,330.13623 C1476.17529,329.506345 1475.98242,328.810551 1475.98242,328.048828 C1475.98242,327.355465 1476.14111,326.713382 1476.4585,326.122559 C1476.77588,325.531735 1477.20801,325.041018 1477.75488,324.650391 C1478.16504,324.347655 1478.72412,324.09131 1479.43213,323.881348 C1480.14014,323.671386 1480.89941,323.566406 1481.70996,323.566406 C1482.93067,323.566406 1484.00244,323.742186 1484.92529,324.09375 C1485.84815,324.445314 1486.52929,324.921384 1486.96875,325.521973 C1487.40821,326.122562 1487.71094,326.925776 1487.87695,327.931641 L1485.29883,328.283203 C1485.18164,327.482418 1484.84229,326.857424 1484.28076,326.408203 C1483.71924,325.958982 1482.92579,325.734375 1481.90039,325.734375 C1480.68945,325.734375 1479.8252,325.934568 1479.30762,326.334961 C1478.79004,326.735354 1478.53125,327.204099 1478.53125,327.741211 C1478.53125,328.08301 1478.63867,328.390624 1478.85352,328.664062 C1479.06836,328.947267 1479.40527,329.18164 1479.86426,329.367188 C1480.12793,329.464844 1480.90429,329.689451 1482.19336,330.041016 C1484.0586,330.539065 1485.35986,330.946776 1486.09717,331.26416 C1486.83448,331.581545 1487.41308,332.042966 1487.83301,332.648438 C1488.25293,333.253909 1488.46289,334.005855 1488.46289,334.904297 C1488.46289,335.783208 1488.20655,336.610836 1487.69385,337.387207 C1487.18115,338.163578 1486.44141,338.764158 1485.47461,339.188965 C1484.50781,339.613772 1483.41407,339.826172 1482.19336,339.826172 C1480.17186,339.826172 1478.63135,339.406254 1477.57178,338.566406 C1476.5122,337.726558 1475.83594,336.481454 1475.54297,334.831055 Z M1501.74902,337.555664 C1500.77246,338.385746 1499.83252,338.971678 1498.9292,339.313477 C1498.02587,339.655275 1497.05665,339.826172 1496.02148,339.826172 C1494.31249,339.826172 1492.99903,339.408696 1492.08105,338.57373 C1491.16308,337.738765 1490.7041,336.671881 1490.7041,335.373047 C1490.7041,334.611324 1490.87744,333.91553 1491.22412,333.285645 C1491.5708,332.655759 1492.0249,332.150393 1492.58643,331.769531 C1493.14795,331.38867 1493.78027,331.100587 1494.4834,330.905273 C1495.00098,330.768554 1495.78222,330.636719 1496.82715,330.509766 C1498.95607,330.255858 1500.52343,329.953127 1501.5293,329.601562 C1501.53906,329.240233 1501.54395,329.010743 1501.54395,328.913086 C1501.54395,327.838862 1501.29492,327.082033 1500.79688,326.642578 C1500.12304,326.046872 1499.12208,325.749023 1497.79395,325.749023 C1496.5537,325.749023 1495.63819,325.966306 1495.04736,326.400879 C1494.45654,326.835451 1494.01953,327.604487 1493.73633,328.708008 L1491.1582,328.356445 C1491.39258,327.252924 1491.77832,326.36182 1492.31543,325.683105 C1492.85254,325.004391 1493.6289,324.481935 1494.64453,324.115723 C1495.66016,323.74951 1496.83691,323.566406 1498.1748,323.566406 C1499.50294,323.566406 1500.58203,323.722655 1501.41211,324.035156 C1502.24219,324.347658 1502.85254,324.74072 1503.24316,325.214355 C1503.63379,325.687991 1503.90723,326.286129 1504.06348,327.008789 C1504.15137,327.45801 1504.19531,328.268549 1504.19531,329.44043 L1504.19531,332.956055 C1504.19531,335.407239 1504.25146,336.957516 1504.36377,337.606934 C1504.47607,338.256351 1504.69824,338.878903 1505.03027,339.474609 L1502.27637,339.474609 C1502.00293,338.927732 1501.82715,338.28809 1501.74902,337.555664 Z M1501.5293,331.666992 C1500.57226,332.057619 1499.13673,332.389647 1497.22266,332.663086 C1496.13867,332.819337 1495.37207,332.995116 1494.92285,333.19043 C1494.47363,333.385743 1494.12695,333.671385 1493.88281,334.047363 C1493.63867,334.423342 1493.5166,334.840818 1493.5166,335.299805 C1493.5166,336.002933 1493.78271,336.588865 1494.31494,337.057617 C1494.84717,337.52637 1495.62597,337.760742 1496.65137,337.760742 C1497.667,337.760742 1498.57031,337.538576 1499.36133,337.094238 C1500.15235,336.6499 1500.7334,336.041996 1501.10449,335.270508 C1501.3877,334.674802 1501.5293,333.795904 1501.5293,332.633789 L1501.5293,331.666992 Z M1508.28223,339.474609 L1508.28223,323.917969 L1510.64062,323.917969 L1510.64062,326.100586 C1511.12891,325.338863 1511.77832,324.726077 1512.58887,324.262207 C1513.39942,323.798338 1514.32226,323.566406 1515.35742,323.566406 C1516.50977,323.566406 1517.45459,323.805662 1518.19189,324.28418 C1518.9292,324.762698 1519.44922,325.431636 1519.75195,326.291016 C1520.98243,324.4746 1522.58397,323.566406 1524.55664,323.566406 C1526.09962,323.566406 1527.28613,323.993648 1528.11621,324.848145 C1528.94629,325.702641 1529.36133,327.018546 1529.36133,328.795898 L1529.36133,339.474609 L1526.73926,339.474609 L1526.73926,329.674805 C1526.73926,328.620112 1526.65381,327.860842 1526.48291,327.396973 C1526.31201,326.933103 1526.00196,326.559572 1525.55273,326.276367 C1525.10351,325.993163 1524.57617,325.851562 1523.9707,325.851562 C1522.87695,325.851562 1521.96875,326.215328 1521.24609,326.942871 C1520.52343,327.670414 1520.16211,328.834953 1520.16211,330.436523 L1520.16211,339.474609 L1517.52539,339.474609 L1517.52539,329.367188 C1517.52539,328.195307 1517.31055,327.316409 1516.88086,326.730469 C1516.45117,326.144528 1515.74805,325.851562 1514.77148,325.851562 C1514.02929,325.851562 1513.34326,326.046873 1512.71338,326.4375 C1512.08349,326.828127 1511.62695,327.39941 1511.34375,328.151367 C1511.06055,328.903324 1510.91895,329.987298 1510.91895,331.40332 L1510.91895,339.474609 L1508.28223,339.474609 Z M1535.7041,339.474609 L1533.25781,339.474609 L1533.25781,318 L1535.89453,318 L1535.89453,325.661133 C1537.00782,324.264641 1538.4287,323.566406 1540.15723,323.566406 C1541.11426,323.566406 1542.02002,323.759275 1542.87451,324.14502 C1543.72901,324.530764 1544.43213,325.07275 1544.98389,325.770996 C1545.53565,326.469242 1545.96777,327.311519 1546.28027,328.297852 C1546.59278,329.284185 1546.74902,330.338862 1546.74902,331.461914 C1546.74902,334.127943 1546.08985,336.188469 1544.77148,337.643555 C1543.45312,339.09864 1541.8711,339.826172 1540.02539,339.826172 C1538.18944,339.826172 1536.74903,339.059578 1535.7041,337.526367 L1535.7041,339.474609 Z M1535.6748,331.579102 C1535.6748,333.444345 1535.92871,334.791988 1536.43652,335.62207 C1537.26661,336.979499 1538.38964,337.658203 1539.80566,337.658203 C1540.95801,337.658203 1541.9541,337.15772 1542.79395,336.156738 C1543.63379,335.155757 1544.05371,333.664072 1544.05371,331.681641 C1544.05371,329.65038 1543.65088,328.151372 1542.84521,327.18457 C1542.03955,326.217769 1541.06544,325.734375 1539.92285,325.734375 C1538.7705,325.734375 1537.77442,326.234858 1536.93457,327.23584 C1536.09472,328.236821 1535.6748,329.684561 1535.6748,331.579102 Z M1560.60645,334.464844 L1563.33105,334.801758 C1562.90137,336.393563 1562.10547,337.628902 1560.94336,338.507812 C1559.78124,339.386723 1558.29688,339.826172 1556.49023,339.826172 C1554.21483,339.826172 1552.41065,339.125495 1551.07764,337.724121 C1549.74462,336.322747 1549.07812,334.357435 1549.07812,331.828125 C1549.07812,329.210924 1549.75195,327.179695 1551.09961,325.734375 C1552.44727,324.289055 1554.1953,323.566406 1556.34375,323.566406 C1558.42384,323.566406 1560.12304,324.274407 1561.44141,325.69043 C1562.75977,327.106452 1563.41895,329.09862 1563.41895,331.666992 C1563.41895,331.823243 1563.41406,332.057616 1563.4043,332.370117 L1551.80273,332.370117 C1551.90039,334.07911 1552.38378,335.387691 1553.25293,336.295898 C1554.12207,337.204106 1555.20605,337.658203 1556.50488,337.658203 C1557.47168,337.658203 1558.29687,337.404299 1558.98047,336.896484 C1559.66407,336.388669 1560.20605,335.578131 1560.60645,334.464844 Z M1551.94922,330.202148 L1560.63574,330.202148 C1560.51855,328.893548 1560.18653,327.912113 1559.63965,327.257812 C1558.7998,326.242182 1557.71094,325.734375 1556.37305,325.734375 C1555.1621,325.734375 1554.14405,326.139644 1553.31885,326.950195 C1552.49365,327.760746 1552.03711,328.84472 1551.94922,330.202148 Z M1566.1582,340.763672 L1568.72168,341.144531 C1568.8291,341.935551 1569.12695,342.511717 1569.61523,342.873047 C1570.26953,343.361331 1571.16308,343.605469 1572.2959,343.605469 C1573.51661,343.605469 1574.45898,343.361331 1575.12305,342.873047 C1575.78711,342.384763 1576.23633,341.701176 1576.4707,340.822266 C1576.60742,340.285154 1576.6709,339.157235 1576.66113,337.438477 C1575.50878,338.795905 1574.07325,339.474609 1572.35449,339.474609 C1570.21581,339.474609 1568.56055,338.703133 1567.38867,337.160156 C1566.21679,335.61718 1565.63086,333.766612 1565.63086,331.608398 C1565.63086,330.124016 1565.89941,328.754401 1566.43652,327.499512 C1566.97364,326.244623 1567.75244,325.275394 1568.77295,324.591797 C1569.79346,323.9082 1570.99218,323.566406 1572.36914,323.566406 C1574.20509,323.566406 1575.71874,324.308586 1576.91016,325.792969 L1576.91016,323.917969 L1579.3418,323.917969 L1579.3418,337.365234 C1579.3418,339.787121 1579.09522,341.503413 1578.60205,342.51416 C1578.10888,343.524907 1577.32764,344.323239 1576.2583,344.90918 C1575.18896,345.49512 1573.87305,345.788086 1572.31055,345.788086 C1570.45507,345.788086 1568.95606,345.37061 1567.81348,344.535645 C1566.67089,343.700679 1566.11914,342.443368 1566.1582,340.763672 Z M1568.34082,331.417969 C1568.34082,333.458995 1568.74609,334.948238 1569.55664,335.885742 C1570.36719,336.823247 1571.38281,337.291992 1572.60352,337.291992 C1573.81446,337.291992 1574.83007,336.825688 1575.65039,335.893066 C1576.47071,334.960445 1576.88086,333.498057 1576.88086,331.505859 C1576.88086,329.601553 1576.4585,328.16602 1575.61377,327.199219 C1574.76904,326.232417 1573.75098,325.749023 1572.55957,325.749023 C1571.38769,325.749023 1570.39161,326.225093 1569.57129,327.177246 C1568.75097,328.129399 1568.34082,329.542959 1568.34082,331.417969 Z M1582.34473,331.696289 C1582.34473,328.815415 1583.1455,326.681648 1584.74707,325.294922 C1586.08497,324.142572 1587.71581,323.566406 1589.63965,323.566406 C1591.77833,323.566406 1593.52636,324.267083 1594.88379,325.668457 C1596.24122,327.069831 1596.91992,329.005847 1596.91992,331.476562 C1596.91992,333.478526 1596.61963,335.053217 1596.01904,336.200684 C1595.41845,337.34815 1594.54444,338.239255 1593.39697,338.874023 C1592.24951,339.508792 1590.99708,339.826172 1589.63965,339.826172 C1587.4619,339.826172 1585.70167,339.127937 1584.35889,337.731445 C1583.01611,336.334954 1582.34473,334.323255 1582.34473,331.696289 Z M1585.05469,331.696289 C1585.05469,333.688487 1585.48925,335.180171 1586.3584,336.171387 C1587.22754,337.162603 1588.32128,337.658203 1589.63965,337.658203 C1590.94825,337.658203 1592.03711,337.160161 1592.90625,336.164062 C1593.77539,335.167964 1594.20996,333.649424 1594.20996,331.608398 C1594.20996,329.684561 1593.77295,328.227056 1592.89893,327.23584 C1592.0249,326.244624 1590.93848,325.749023 1589.63965,325.749023 C1588.32128,325.749023 1587.22754,326.242183 1586.3584,327.228516 C1585.48925,328.214849 1585.05469,329.704092 1585.05469,331.696289 Z M1600.75781,339.474609 L1600.75781,336.47168 L1603.76074,336.47168 L1603.76074,339.474609 L1600.75781,339.474609 Z M1610.77734,339.474609 L1608.33105,339.474609 L1608.33105,318 L1610.96777,318 L1610.96777,325.661133 C1612.08106,324.264641 1613.50194,323.566406 1615.23047,323.566406 C1616.1875,323.566406 1617.09326,323.759275 1617.94775,324.14502 C1618.80225,324.530764 1619.50537,325.07275 1620.05713,325.770996 C1620.60889,326.469242 1621.04101,327.311519 1621.35352,328.297852 C1621.66602,329.284185 1621.82227,330.338862 1621.82227,331.461914 C1621.82227,334.127943 1621.16309,336.188469 1619.84473,337.643555 C1618.52636,339.09864 1616.94435,339.826172 1615.09863,339.826172 C1613.26269,339.826172 1611.82227,339.059578 1610.77734,337.526367 L1610.77734,339.474609 Z M1610.74805,331.579102 C1610.74805,333.444345 1611.00195,334.791988 1611.50977,335.62207 C1612.33985,336.979499 1613.46288,337.658203 1614.87891,337.658203 C1616.03126,337.658203 1617.02734,337.15772 1617.86719,336.156738 C1618.70704,335.155757 1619.12695,333.664072 1619.12695,331.681641 C1619.12695,329.65038 1618.72413,328.151372 1617.91846,327.18457 C1617.11279,326.217769 1616.13868,325.734375 1614.99609,325.734375 C1613.84374,325.734375 1612.84766,326.234858 1612.00781,327.23584 C1611.16796,328.236821 1610.74805,329.684561 1610.74805,331.579102 Z M1635.67969,334.464844 L1638.4043,334.801758 C1637.97461,336.393563 1637.17872,337.628902 1636.0166,338.507812 C1634.85449,339.386723 1633.37013,339.826172 1631.56348,339.826172 C1629.28807,339.826172 1627.48389,339.125495 1626.15088,337.724121 C1624.81786,336.322747 1624.15137,334.357435 1624.15137,331.828125 C1624.15137,329.210924 1624.82519,327.179695 1626.17285,325.734375 C1627.52051,324.289055 1629.26854,323.566406 1631.41699,323.566406 C1633.49708,323.566406 1635.19628,324.274407 1636.51465,325.69043 C1637.83301,327.106452 1638.49219,329.09862 1638.49219,331.666992 C1638.49219,331.823243 1638.4873,332.057616 1638.47754,332.370117 L1626.87598,332.370117 C1626.97363,334.07911 1627.45703,335.387691 1628.32617,336.295898 C1629.19532,337.204106 1630.27929,337.658203 1631.57812,337.658203 C1632.54493,337.658203 1633.37011,337.404299 1634.05371,336.896484 C1634.73731,336.388669 1635.27929,335.578131 1635.67969,334.464844 Z M1627.02246,330.202148 L1635.70898,330.202148 C1635.5918,328.893548 1635.25977,327.912113 1634.71289,327.257812 C1633.87304,326.242182 1632.78419,325.734375 1631.44629,325.734375 C1630.23535,325.734375 1629.21729,326.139644 1628.39209,326.950195 C1627.56689,327.760746 1627.11035,328.84472 1627.02246,330.202148 Z" id="user.sambego.be" fill="#000000"></path>
    </g>
</svg>