<?xml version="1.0" encoding="UTF-8"?>
<svg width="1015px" height="1149px" viewBox="0 0 1015 1149" version="1.1" xmlns="http://www.w3.org/2000/svg" xmlns:xlink="http://www.w3.org/1999/xlink">
    <!-- Generator: Sketch 52.4 (67378) - http://www.bohemiancoding.com/sketch -->
    <title>Slice</title>
    <desc>Created with Sketch.</desc>
    <g id="Page-1" stroke="none" stroke-width="1" fill="none" fill-rule="evenodd">
        <g id="Browser" transform="translate(0.000000, 404.000000)">
            <rect id="Rectangle" fill="#FFFFFF" x="7.8" y="8.3" width="345" height="270"></rect>
            <path d="M352.8,285.8 L7.8,285.8 C3.65786438,285.8 0.3,282.442136 0.3,278.3 L0.3,8.3 C0.3,4.15786438 3.65786438,0.8 7.8,0.8 L352.8,0.8 C356.942136,0.8 360.3,4.15786438 360.3,8.3 L360.3,278.3 C360.3,282.442136 356.942136,285.8 352.8,285.8 Z M15.3,270.8 L345.3,270.8 L345.3,15.8 L15.3,15.8 L15.3,270.8 Z" id="Shape" fill="#000000" fill-rule="nonzero"></path>
            <path d="M352.8,60.8 L7.8,60.8 C3.65786438,60.8 0.3,57.4421356 0.3,53.3 C0.3,49.1578644 3.65786438,45.8 7.8,45.8 L352.8,45.8 C356.942136,45.8 360.3,49.1578644 360.3,53.3 C360.3,57.4421356 356.942136,60.8 352.8,60.8 Z" id="Path" fill="#000000"></path>
            <circle id="Oval" fill="#000000" cx="30.3" cy="30.8" r="7.5"></circle>
            <circle id="Oval" fill="#000000" cx="60.3" cy="30.8" r="7.5"></circle>
            <circle id="Oval" fill="#000000" cx="90.3" cy="30.8" r="7.5"></circle>
            <path d="M240.3,195.8 L120.3,195.8 C116.157864,195.8 112.8,192.442136 112.8,188.3 L112.8,158.3 C112.8,154.157864 116.157864,150.8 120.3,150.8 L240.3,150.8 C244.442136,150.8 247.8,154.157864 247.8,158.3 L247.8,188.3 C247.8,192.442136 244.442136,195.8 240.3,195.8 Z M127.8,180.8 L232.8,180.8 L232.8,165.8 L127.8,165.8 L127.8,180.8 Z" id="Shape" fill="#000000" fill-rule="nonzero"></path>
            <rect id="Rectangle" fill="#FAC863" x="15.45" y="60.8" width="329.85" height="37.8"></rect>
        </g>
        <g id="Server" transform="translate(704.000000, 418.000000)">
            <rect id="Rectangle" fill="#FAC863" x="68.3478261" y="79.0869565" width="177.913043" height="158.347826"></rect>
            <path d="M246.26087,243.826087 L68.3478261,243.826087 C64.745969,243.826087 61.826087,240.906205 61.826087,237.304348 L61.826087,79.0869565 C61.826087,75.4850995 64.745969,72.5652174 68.3478261,72.5652174 L246.26087,72.5652174 C249.862727,72.5652174 252.782609,75.4850995 252.782609,79.0869565 L252.782609,237.565217 C252.642514,241.064808 249.763262,243.82889 246.26087,243.826087 Z M74.8695652,230.782609 L239.73913,230.782609 L239.73913,85.6086957 L74.8695652,85.6086957 L74.8695652,230.782609 Z" id="Shape" fill="#000000" fill-rule="nonzero"></path>
            <rect id="Rectangle" fill="#FFFFFF" x="51.1304348" y="129.043478" width="212.217391" height="58.6956522"></rect>
            <path d="M263.347826,194.26087 L51.1304348,194.26087 C47.5577158,194.191477 44.6780883,191.311849 44.6086957,187.73913 L44.6086957,129.043478 C44.6086957,125.441621 47.5285777,122.521739 51.1304348,122.521739 L263.347826,122.521739 C266.949683,122.521739 269.869565,125.441621 269.869565,129.043478 L269.869565,187.73913 C269.869565,191.340987 266.949683,194.26087 263.347826,194.26087 Z M57.6521739,181.217391 L256.826087,181.217391 L256.826087,135.565217 L57.6521739,135.565217 L57.6521739,181.217391 Z" id="Shape" fill="#000000" fill-rule="nonzero"></path>
            <rect id="Rectangle" fill="#FFFFFF" x="51.1304348" y="38.6521739" width="212.217391" height="58.6956522"></rect>
            <path d="M263.347826,103.869565 L51.1304348,103.869565 C47.5577158,103.800173 44.6780883,100.920545 44.6086957,97.3478261 L44.6086957,38.6521739 C44.6086957,35.0503168 47.5285777,32.1304348 51.1304348,32.1304348 L263.347826,32.1304348 C266.949683,32.1304348 269.869565,35.0503168 269.869565,38.6521739 L269.869565,97.3478261 C269.869565,100.949683 266.949683,103.869565 263.347826,103.869565 Z M57.6521739,90.826087 L256.826087,90.826087 L256.826087,45.173913 L57.6521739,45.173913 L57.6521739,90.826087 Z" id="Shape" fill="#000000" fill-rule="nonzero"></path>
            <rect id="Rectangle" fill="#FFFFFF" x="51.1304348" y="219.304348" width="212.217391" height="58.6956522"></rect>
            <path d="M263.347826,284.521739 L51.1304348,284.521739 C47.5285777,284.521739 44.6086957,281.601857 44.6086957,278 L44.6086957,219.304348 C44.6780883,215.731629 47.5577158,212.852001 51.1304348,212.782609 L263.347826,212.782609 C266.949683,212.782609 269.869565,215.702491 269.869565,219.304348 L269.869565,278 C269.869565,281.601857 266.949683,284.521739 263.347826,284.521739 Z M57.6521739,271.478261 L256.826087,271.478261 L256.826087,225.826087 L57.6521739,225.826087 L57.6521739,271.478261 Z" id="Shape" fill="#000000" fill-rule="nonzero"></path>
            <path d="M45,259.347826 L7.17391304,259.347826 C3.6011941,259.278433 0.721566597,256.398806 0.652173913,252.826087 C0.652173913,249.22423 3.57205598,246.304348 7.17391304,246.304348 L45,246.304348 C48.6018571,246.304348 51.5217391,249.22423 51.5217391,252.826087 C51.4523464,256.398806 48.5727189,259.278433 45,259.347826 Z" id="Path" fill="#000000"></path>
            <path d="M304.043478,259.347826 L266.347826,259.347826 C262.745969,259.347826 259.826087,256.427944 259.826087,252.826087 C259.826087,249.22423 262.745969,246.304348 266.347826,246.304348 L304.043478,246.304348 C307.645335,246.304348 310.565217,249.22423 310.565217,252.826087 C310.565217,256.427944 307.645335,259.347826 304.043478,259.347826 Z" id="Path" fill="#000000"></path>
            <rect id="Rectangle" fill="#000000" x="31.826087" y="240.956522" width="16.4347826" height="23.3478261"></rect>
            <rect id="Rectangle" fill="#000000" x="266.347826" y="240.956522" width="16.4347826" height="23.3478261"></rect>
            <path d="M228.913043,163.217391 L154.173913,163.217391 C150.572056,163.217391 147.652174,160.297509 147.652174,156.695652 C147.652174,153.093795 150.572056,150.173913 154.173913,150.173913 L228.913043,150.173913 C232.514901,150.173913 235.434783,153.093795 235.434783,156.695652 C235.434783,160.297509 232.514901,163.217391 228.913043,163.217391 Z" id="Path" fill="#FAC863"></path>
            <path d="M231.391304,255.826087 L156.782609,255.826087 C153.180752,255.826087 150.26087,252.906205 150.26087,249.304348 C150.26087,245.702491 153.180752,242.782609 156.782609,242.782609 L231.391304,242.782609 C234.993161,242.782609 237.913043,245.702491 237.913043,249.304348 C237.913043,252.906205 234.993161,255.826087 231.391304,255.826087 Z" id="Path" fill="#FAC863"></path>
            <path d="M228.913043,74.2608696 L154.173913,74.2608696 C150.572056,74.2608696 147.652174,71.3409875 147.652174,67.7391304 C147.652174,64.1372734 150.572056,61.2173913 154.173913,61.2173913 L228.913043,61.2173913 C232.485762,61.286784 235.36539,64.1664115 235.434783,67.7391304 C235.434783,69.4688032 234.747673,71.1276331 233.524609,72.3506964 C232.301546,73.5737597 230.642716,74.2608696 228.913043,74.2608696 Z" id="Path" fill="#FAC863"></path>
            <circle id="Oval" fill="#000000" cx="121.826087" cy="68" r="8.08695652"></circle>
            <circle id="Oval" fill="#000000" cx="121.826087" cy="157.478261" r="8.08695652"></circle>
            <circle id="Oval" fill="#000000" cx="121.826087" cy="247.73913" r="8.08695652"></circle>
            <polygon id="Path" fill="#FFFFFF" points="236.869565 38.1304348 181.956522 38.1304348 194.347826 7.2173913 224.478261 7.2173913"></polygon>
            <path d="M236.869565,44.6521739 L181.956522,44.6521739 C179.769782,44.6542162 177.721701,43.5814118 176.478261,41.7826087 C175.503643,39.9013438 175.503643,37.6638736 176.478261,35.7826087 L188.869565,4.73913043 C189.875946,2.23209168 192.298567,0.582648061 195,0.565217391 L224.478261,0.565217391 C227.179694,0.582648061 229.602315,2.23209168 230.608696,4.73913043 L242.869565,35.7826087 C243.915165,37.6459489 243.915165,39.9192685 242.869565,41.7826087 C241.563972,43.78637 239.248927,44.8935652 236.869565,44.6521739 Z M191.608696,31.6086957 L227.217391,31.6086957 L220.043478,13.6086957 L198.652174,13.6086957 L191.608696,31.6086957 Z" id="Shape" fill="#000000" fill-rule="nonzero"></path>
        </g>
        <path id="Line" d="M444.037943,556 L625.5,556 L625.5,537.221159 C625.5,535.442162 626.942162,534 628.721159,534 C629.221228,534 629.71443,534.116429 630.161705,534.340067 L677.718681,558.118555 C679.309865,558.914146 679.954819,560.84901 679.159228,562.440193 C678.847536,563.063576 678.342064,563.569048 677.718681,563.88074 L630.161705,587.659228 C628.570522,588.454819 626.635659,587.809865 625.840067,586.218681 C625.616429,585.771406 625.5,585.278204 625.5,584.778135 L625.5,566 L444.037943,566 C441.69313,578.522838 430.70332,588 417.5,588 C402.588312,588 390.5,575.911688 390.5,561 C390.5,546.088312 402.588312,534 417.5,534 C430.70332,534 441.69313,543.477162 444.037943,556 Z M400.5,561 C400.5,570.388841 408.111159,578 417.5,578 C426.888841,578 434.5,570.388841 434.5,561 C434.5,551.611159 426.888841,544 417.5,544 C408.111159,544 400.5,551.611159 400.5,561 Z" fill="#000000" fill-rule="nonzero"></path>
        <path id="Line" d="M438.33337,198.495826 L647.684091,449.624967 L662.108237,437.600456 C663.474695,436.461324 665.505878,436.645609 666.64501,438.012068 C666.965215,438.396174 667.191593,438.849558 667.306216,439.336313 L679.493605,491.091023 C679.901376,492.822656 678.828174,494.556986 677.096541,494.964757 C676.418134,495.124511 675.706213,495.05992 675.067635,494.780679 L626.351433,473.477764 C624.721464,472.765001 623.977921,470.865842 624.690684,469.235872 C624.891039,468.777694 625.195318,468.372456 625.579424,468.052251 L640.003028,456.028191 L430.652307,204.89905 C419.532,211.116637 405.215511,208.743733 396.76113,198.60218 C387.212843,187.148419 388.757535,170.122894 400.211296,160.574607 C411.665058,151.026319 428.690582,152.571011 438.23887,164.024773 C446.693251,174.166326 446.450804,188.676107 438.33337,198.495826 Z M429.242397,193.60731 C435.665214,187.484799 436.322785,177.343444 430.557807,170.427996 C424.545922,163.216369 413.826147,162.243785 406.61452,168.25567 C399.402892,174.267554 398.430308,184.987329 404.442193,192.198957 C410.207171,199.114404 420.301276,200.292757 427.479758,195.076713 C427.707358,194.774347 427.973113,194.493226 428.27638,194.240411 C428.579647,193.987596 428.904007,193.776776 429.242397,193.60731 Z" fill="#000000" fill-rule="nonzero"></path>
        <path id="Line" d="M433.23078,870.575334 L636.175515,676.621763 L623.201007,663.045792 C621.971878,661.759684 622.018069,659.720682 623.304177,658.491553 C623.665697,658.14605 624.102694,657.889463 624.580561,657.742112 L675.390211,642.074888 C677.090224,641.550687 678.893306,642.503871 679.417507,644.203883 C679.622875,644.869903 679.606685,645.584565 679.371368,646.240601 L661.419357,696.288655 C660.81871,697.963186 658.974314,698.833742 657.299783,698.233095 C656.829079,698.064255 656.404149,697.788143 656.058646,697.426623 L643.084625,683.851161 L440.139891,877.804732 C447.096898,888.478047 445.699803,902.922446 436.154598,912.044765 C425.374345,922.347415 408.283275,921.960241 397.980625,911.179988 C387.677976,900.399735 388.065149,883.308666 398.845402,873.006016 C408.390608,863.883697 422.883455,863.142133 433.23078,870.575334 Z M429.308103,880.295206 C422.780858,873.984451 412.376624,873.906685 405.754513,880.235414 C398.966946,886.722268 398.72317,897.483311 405.210023,904.270878 C411.696877,911.058445 422.457921,911.302221 429.245487,904.815367 C435.867599,898.486638 436.261057,888.089557 430.252356,881.283232 C430.075919,881.142809 429.906907,880.988792 429.746752,880.821213 C429.586597,880.653634 429.440392,880.47782 429.308103,880.295206 Z" fill="#000000" fill-rule="nonzero"></path>
        <path d="M81.1289062,728.081055 C80.1523389,728.911137 79.2124069,729.497069 78.309082,729.838867 C77.4057572,730.180666 76.4365286,730.351562 75.4013672,730.351562 C73.6923743,730.351562 72.3789108,729.934086 71.4609375,729.099121 C70.5429642,728.264156 70.0839844,727.197272 70.0839844,725.898438 C70.0839844,725.136715 70.2573225,724.440921 70.6040039,723.811035 C70.9506853,723.181149 71.4047823,722.675783 71.9663086,722.294922 C72.5278348,721.914061 73.1601527,721.625978 73.8632812,721.430664 C74.380862,721.293945 75.1621042,721.16211 76.2070312,721.035156 C78.3359481,720.781249 79.9033153,720.478517 80.9091797,720.126953 C80.9189454,719.765623 80.9238281,719.536133 80.9238281,719.438477 C80.9238281,718.364252 80.6748072,717.607424 80.1767578,717.167969 C79.5029263,716.572263 78.5019598,716.274414 77.1738281,716.274414 C75.9335875,716.274414 75.0180694,716.491697 74.4272461,716.92627 C73.8364228,717.360842 73.3994155,718.129877 73.1162109,719.233398 L70.5380859,718.881836 C70.7724621,717.778315 71.1582004,716.88721 71.6953125,716.208496 C72.2324246,715.529782 73.008784,715.007326 74.0244141,714.641113 C75.0400441,714.274901 76.2167902,714.091797 77.5546875,714.091797 C78.8828191,714.091797 79.9619099,714.248045 80.7919922,714.560547 C81.6220745,714.873048 82.2324199,715.266111 82.6230469,715.739746 C83.0136738,716.213381 83.2871086,716.81152 83.4433594,717.53418 C83.5312504,717.983401 83.5751953,718.793939 83.5751953,719.96582 L83.5751953,723.481445 C83.5751953,725.932629 83.6313471,727.482907 83.7436523,728.132324 C83.8559576,728.781742 84.0781233,729.404294 84.4101562,730 L81.65625,730 C81.3828111,729.453122 81.2070316,728.81348 81.1289062,728.081055 Z M80.9091797,722.192383 C79.9521437,722.58301 78.5166111,722.915038 76.6025391,723.188477 C75.5185493,723.344727 74.7519554,723.520507 74.3027344,723.71582 C73.8535134,723.911134 73.5068372,724.196775 73.2626953,724.572754 C73.0185535,724.948732 72.8964844,725.366209 72.8964844,725.825195 C72.8964844,726.528324 73.162595,727.114255 73.6948242,727.583008 C74.2270534,728.05176 75.0058542,728.286133 76.03125,728.286133 C77.0468801,728.286133 77.9501914,728.063967 78.7412109,727.619629 C79.5322305,727.175291 80.1132794,726.567387 80.484375,725.795898 C80.7675795,725.200192 80.9091797,724.321295 80.9091797,723.15918 L80.9091797,722.192383 Z M87.6621094,735.961914 L87.6621094,714.443359 L90.0644531,714.443359 L90.0644531,716.464844 C90.6308622,715.673824 91.2705042,715.080568 91.9833984,714.685059 C92.6962926,714.289549 93.5605418,714.091797 94.5761719,714.091797 C95.9043035,714.091797 97.0761668,714.43359 98.0917969,715.117188 C99.107427,715.800785 99.8740208,716.76513 100.391602,718.010254 C100.909182,719.255377 101.167969,720.62011 101.167969,722.104492 C101.167969,723.696297 100.882327,725.129388 100.311035,726.403809 C99.7397432,727.678229 98.9096734,728.654782 97.8208008,729.333496 C96.7319281,730.01221 95.5869201,730.351562 94.3857422,730.351562 C93.5068315,730.351562 92.7182652,730.166017 92.0200195,729.794922 C91.3217739,729.423826 90.7480491,728.955081 90.2988281,728.388672 L90.2988281,735.961914 L87.6621094,735.961914 Z M90.0498047,722.30957 C90.0498047,724.311533 90.4550741,725.791011 91.265625,726.748047 C92.0761759,727.705083 93.0576114,728.183594 94.2099609,728.183594 C95.3818418,728.183594 96.3852497,727.687993 97.2202148,726.696777 C98.05518,725.705561 98.4726562,724.169932 98.4726562,722.089844 C98.4726562,720.107412 98.0649455,718.623052 97.2495117,717.636719 C96.434078,716.650386 95.4599666,716.157227 94.3271484,716.157227 C93.2040959,716.157227 92.2104535,716.682124 91.3461914,717.731934 C90.4819293,718.781744 90.0498047,720.307607 90.0498047,722.30957 Z M104.34668,735.961914 L104.34668,714.443359 L106.749023,714.443359 L106.749023,716.464844 C107.315433,715.673824 107.955075,715.080568 108.667969,714.685059 C109.380863,714.289549 110.245112,714.091797 111.260742,714.091797 C112.588874,714.091797 113.760737,714.43359 114.776367,715.117188 C115.791997,715.800785 116.558591,716.76513 117.076172,718.010254 C117.593753,719.255377 117.852539,720.62011 117.852539,722.104492 C117.852539,723.696297 117.566897,725.129388 116.995605,726.403809 C116.424314,727.678229 115.594244,728.654782 114.505371,729.333496 C113.416498,730.01221 112.27149,730.351562 111.070312,730.351562 C110.191402,730.351562 109.402836,730.166017 108.70459,729.794922 C108.006344,729.423826 107.432619,728.955081 106.983398,728.388672 L106.983398,735.961914 L104.34668,735.961914 Z M106.734375,722.30957 C106.734375,724.311533 107.139644,725.791011 107.950195,726.748047 C108.760746,727.705083 109.742182,728.183594 110.894531,728.183594 C112.066412,728.183594 113.06982,727.687993 113.904785,726.696777 C114.73975,725.705561 115.157227,724.169932 115.157227,722.089844 C115.157227,720.107412 114.749516,718.623052 113.934082,717.636719 C113.118648,716.650386 112.144537,716.157227 111.011719,716.157227 C109.888666,716.157227 108.895024,716.682124 108.030762,717.731934 C107.1665,718.781744 106.734375,720.307607 106.734375,722.30957 Z M121.77832,730 L121.77832,726.99707 L124.78125,726.99707 L124.78125,730 L121.77832,730 Z M128.311523,725.356445 L130.918945,724.946289 C131.06543,725.991216 131.473141,726.791989 132.14209,727.348633 C132.811039,727.905276 133.746088,728.183594 134.947266,728.183594 C136.158209,728.183594 137.056638,727.937014 137.642578,727.443848 C138.228519,726.950681 138.521484,726.372074 138.521484,725.708008 C138.521484,725.112302 138.262698,724.643556 137.745117,724.301758 C137.383787,724.067382 136.485359,723.769533 135.049805,723.408203 C133.116201,722.919919 131.775883,722.49756 131.028809,722.141113 C130.281735,721.784666 129.715334,721.291507 129.32959,720.661621 C128.943846,720.031735 128.750977,719.335941 128.750977,718.574219 C128.750977,717.880856 128.909666,717.238772 129.227051,716.647949 C129.544435,716.057126 129.97656,715.566408 130.523438,715.175781 C130.933596,714.873045 131.492672,714.6167 132.200684,714.406738 C132.908695,714.196776 133.667965,714.091797 134.478516,714.091797 C135.699225,714.091797 136.770991,714.267576 137.693848,714.619141 C138.616704,714.970705 139.297849,715.446774 139.737305,716.047363 C140.17676,716.647952 140.479491,717.451167 140.645508,718.457031 L138.067383,718.808594 C137.950195,718.007808 137.610843,717.382815 137.049316,716.933594 C136.48779,716.484373 135.694341,716.259766 134.668945,716.259766 C133.458002,716.259766 132.593753,716.459959 132.076172,716.860352 C131.558591,717.260744 131.299805,717.72949 131.299805,718.266602 C131.299805,718.6084 131.407225,718.916014 131.62207,719.189453 C131.836915,719.472658 132.173826,719.70703 132.632812,719.892578 C132.896486,719.990235 133.672845,720.214842 134.961914,720.566406 C136.827158,721.064456 138.128414,721.472166 138.865723,721.789551 C139.603031,722.106935 140.181639,722.568356 140.601562,723.173828 C141.021486,723.7793 141.231445,724.531246 141.231445,725.429688 C141.231445,726.308598 140.9751,727.136227 140.462402,727.912598 C139.949704,728.688969 139.209966,729.289549 138.243164,729.714355 C137.276362,730.139162 136.182623,730.351562 134.961914,730.351562 C132.94042,730.351562 131.399908,729.931645 130.340332,729.091797 C129.280756,728.251949 128.604494,727.006844 128.311523,725.356445 Z M154.517578,728.081055 C153.541011,728.911137 152.601079,729.497069 151.697754,729.838867 C150.794429,730.180666 149.8252,730.351562 148.790039,730.351562 C147.081046,730.351562 145.767583,729.934086 144.849609,729.099121 C143.931636,728.264156 143.472656,727.197272 143.472656,725.898438 C143.472656,725.136715 143.645994,724.440921 143.992676,723.811035 C144.339357,723.181149 144.793454,722.675783 145.35498,722.294922 C145.916507,721.914061 146.548825,721.625978 147.251953,721.430664 C147.769534,721.293945 148.550776,721.16211 149.595703,721.035156 C151.72462,720.781249 153.291987,720.478517 154.297852,720.126953 C154.307617,719.765623 154.3125,719.536133 154.3125,719.438477 C154.3125,718.364252 154.063479,717.607424 153.56543,717.167969 C152.891598,716.572263 151.890632,716.274414 150.5625,716.274414 C149.322259,716.274414 148.406741,716.491697 147.815918,716.92627 C147.225095,717.360842 146.788087,718.129877 146.504883,719.233398 L143.926758,718.881836 C144.161134,717.778315 144.546872,716.88721 145.083984,716.208496 C145.621096,715.529782 146.397456,715.007326 147.413086,714.641113 C148.428716,714.274901 149.605462,714.091797 150.943359,714.091797 C152.271491,714.091797 153.350582,714.248045 154.180664,714.560547 C155.010746,714.873048 155.621092,715.266111 156.011719,715.739746 C156.402346,716.213381 156.67578,716.81152 156.832031,717.53418 C156.919922,717.983401 156.963867,718.793939 156.963867,719.96582 L156.963867,723.481445 C156.963867,725.932629 157.020019,727.482907 157.132324,728.132324 C157.244629,728.781742 157.466795,729.404294 157.798828,730 L155.044922,730 C154.771483,729.453122 154.595704,728.81348 154.517578,728.081055 Z M154.297852,722.192383 C153.340816,722.58301 151.905283,722.915038 149.991211,723.188477 C148.907221,723.344727 148.140627,723.520507 147.691406,723.71582 C147.242185,723.911134 146.895509,724.196775 146.651367,724.572754 C146.407225,724.948732 146.285156,725.366209 146.285156,725.825195 C146.285156,726.528324 146.551267,727.114255 147.083496,727.583008 C147.615725,728.05176 148.394526,728.286133 149.419922,728.286133 C150.435552,728.286133 151.338863,728.063967 152.129883,727.619629 C152.920902,727.175291 153.501951,726.567387 153.873047,725.795898 C154.156251,725.200192 154.297852,724.321295 154.297852,723.15918 L154.297852,722.192383 Z M161.050781,730 L161.050781,714.443359 L163.40918,714.443359 L163.40918,716.625977 C163.897463,715.864254 164.546871,715.251467 165.357422,714.787598 C166.167973,714.323728 167.090815,714.091797 168.125977,714.091797 C169.278326,714.091797 170.223141,714.331052 170.960449,714.80957 C171.697758,715.288088 172.217772,715.957027 172.520508,716.816406 C173.750983,714.999991 175.352529,714.091797 177.325195,714.091797 C178.868172,714.091797 180.054683,714.519039 180.884766,715.373535 C181.714848,716.228032 182.129883,717.543936 182.129883,719.321289 L182.129883,730 L179.507812,730 L179.507812,720.200195 C179.507812,719.145503 179.422364,718.386233 179.251465,717.922363 C179.080566,717.458494 178.77051,717.084962 178.321289,716.801758 C177.872068,716.518553 177.34473,716.376953 176.739258,716.376953 C175.645502,716.376953 174.737308,716.740719 174.014648,717.468262 C173.291989,718.195804 172.930664,719.360344 172.930664,720.961914 L172.930664,730 L170.293945,730 L170.293945,719.892578 C170.293945,718.720697 170.079104,717.8418 169.649414,717.255859 C169.219724,716.669919 168.516606,716.376953 167.540039,716.376953 C166.797848,716.376953 166.11182,716.572264 165.481934,716.962891 C164.852048,717.353518 164.395509,717.924801 164.112305,718.676758 C163.8291,719.428715 163.6875,720.512688 163.6875,721.928711 L163.6875,730 L161.050781,730 Z M188.472656,730 L186.026367,730 L186.026367,708.525391 L188.663086,708.525391 L188.663086,716.186523 C189.776373,714.790032 191.197257,714.091797 192.925781,714.091797 C193.882817,714.091797 194.78857,714.284666 195.643066,714.67041 C196.497563,715.056154 197.200681,715.598141 197.752441,716.296387 C198.304202,716.994632 198.736327,717.836909 199.048828,718.823242 C199.36133,719.809575 199.517578,720.864252 199.517578,721.987305 C199.517578,724.653334 198.858405,726.71386 197.540039,728.168945 C196.221673,729.624031 194.639658,730.351562 192.793945,730.351562 C190.957999,730.351562 189.517583,729.584969 188.472656,728.051758 L188.472656,730 Z M188.443359,722.104492 C188.443359,723.969736 188.697263,725.317379 189.205078,726.147461 C190.03516,727.50489 191.158196,728.183594 192.574219,728.183594 C193.726568,728.183594 194.722652,727.68311 195.5625,726.682129 C196.402348,725.681147 196.822266,724.189463 196.822266,722.207031 C196.822266,720.175771 196.419438,718.676763 195.61377,717.709961 C194.808101,716.743159 193.83399,716.259766 192.691406,716.259766 C191.539057,716.259766 190.542973,716.760249 189.703125,717.76123 C188.863277,718.762212 188.443359,720.209951 188.443359,722.104492 Z M213.375,724.990234 L216.099609,725.327148 C215.66992,726.918953 214.874029,728.154292 213.711914,729.033203 C212.549799,729.912114 211.065439,730.351562 209.258789,730.351562 C206.983387,730.351562 205.179206,729.650886 203.846191,728.249512 C202.513177,726.848138 201.84668,724.882825 201.84668,722.353516 C201.84668,719.736315 202.520501,717.705085 203.868164,716.259766 C205.215827,714.814446 206.963856,714.091797 209.112305,714.091797 C211.192393,714.091797 212.891595,714.799798 214.209961,716.21582 C215.528327,717.631843 216.1875,719.624011 216.1875,722.192383 C216.1875,722.348634 216.182617,722.583006 216.172852,722.895508 L204.571289,722.895508 C204.668946,724.604501 205.152339,725.913081 206.021484,726.821289 C206.890629,727.729497 207.974603,728.183594 209.273438,728.183594 C210.240239,728.183594 211.065426,727.92969 211.749023,727.421875 C212.432621,726.91406 212.974607,726.103521 213.375,724.990234 Z M204.717773,720.727539 L213.404297,720.727539 C213.287109,719.418939 212.955081,718.437503 212.408203,717.783203 C211.568355,716.767573 210.479499,716.259766 209.141602,716.259766 C207.930658,716.259766 206.912602,716.665035 206.087402,717.475586 C205.262203,718.286137 204.805665,719.37011 204.717773,720.727539 Z M218.926758,731.289062 L221.490234,731.669922 C221.597657,732.460941 221.895505,733.037108 222.383789,733.398438 C223.038089,733.886721 223.931635,734.130859 225.064453,734.130859 C226.285162,734.130859 227.227536,733.886721 227.891602,733.398438 C228.555667,732.910154 229.004882,732.226567 229.239258,731.347656 C229.375977,730.810544 229.439453,729.682626 229.429688,727.963867 C228.277338,729.321296 226.841805,730 225.123047,730 C222.984364,730 221.329107,729.228523 220.157227,727.685547 C218.985346,726.14257 218.399414,724.292003 218.399414,722.133789 C218.399414,720.649407 218.667966,719.279791 219.205078,718.024902 C219.74219,716.770013 220.520991,715.800785 221.541504,715.117188 C222.562017,714.43359 223.760735,714.091797 225.137695,714.091797 C226.973642,714.091797 228.487299,714.833977 229.678711,716.318359 L229.678711,714.443359 L232.110352,714.443359 L232.110352,727.890625 C232.110352,730.312512 231.863772,732.028804 231.370605,733.039551 C230.877439,734.050298 230.096197,734.84863 229.026855,735.43457 C227.957514,736.020511 226.641609,736.313477 225.079102,736.313477 C223.223624,736.313477 221.724615,735.896 220.582031,735.061035 C219.439447,734.22607 218.887695,732.968758 218.926758,731.289062 Z M221.109375,721.943359 C221.109375,723.984385 221.514644,725.473628 222.325195,726.411133 C223.135746,727.348637 224.151361,727.817383 225.37207,727.817383 C226.583014,727.817383 227.598629,727.351079 228.418945,726.418457 C229.239262,725.485835 229.649414,724.023447 229.649414,722.03125 C229.649414,720.126944 229.227055,718.691411 228.382324,717.724609 C227.537593,716.757808 226.519537,716.274414 225.328125,716.274414 C224.156244,716.274414 223.16016,716.750484 222.339844,717.702637 C221.519527,718.65479 221.109375,720.06835 221.109375,721.943359 Z M235.113281,722.22168 C235.113281,719.340806 235.914054,717.207038 237.515625,715.820312 C238.853522,714.667963 240.484365,714.091797 242.408203,714.091797 C244.546886,714.091797 246.294915,714.792473 247.652344,716.193848 C249.009772,717.595222 249.688477,719.531238 249.688477,722.001953 C249.688477,724.003916 249.388187,725.578608 248.787598,726.726074 C248.187009,727.873541 247.312994,728.764645 246.165527,729.399414 C245.018061,730.034183 243.765632,730.351562 242.408203,730.351562 C240.230458,730.351562 238.470222,729.653327 237.127441,728.256836 C235.784661,726.860345 235.113281,724.848646 235.113281,722.22168 Z M237.823242,722.22168 C237.823242,724.213877 238.257808,725.705561 239.126953,726.696777 C239.996098,727.687993 241.089837,728.183594 242.408203,728.183594 C243.716803,728.183594 244.80566,727.685552 245.674805,726.689453 C246.54395,725.693354 246.978516,724.174815 246.978516,722.133789 C246.978516,720.209951 246.541508,718.752446 245.66748,717.76123 C244.793453,716.770015 243.707038,716.274414 242.408203,716.274414 C241.089837,716.274414 239.996098,716.767573 239.126953,717.753906 C238.257808,718.740239 237.823242,720.229482 237.823242,722.22168 Z M253.526367,730 L253.526367,726.99707 L256.529297,726.99707 L256.529297,730 L253.526367,730 Z M263.545898,730 L261.099609,730 L261.099609,708.525391 L263.736328,708.525391 L263.736328,716.186523 C264.849615,714.790032 266.270499,714.091797 267.999023,714.091797 C268.956059,714.091797 269.861812,714.284666 270.716309,714.67041 C271.570805,715.056154 272.273923,715.598141 272.825684,716.296387 C273.377444,716.994632 273.809569,717.836909 274.12207,718.823242 C274.434572,719.809575 274.59082,720.864252 274.59082,721.987305 C274.59082,724.653334 273.931647,726.71386 272.613281,728.168945 C271.294915,729.624031 269.7129,730.351562 267.867188,730.351562 C266.031241,730.351562 264.590826,729.584969 263.545898,728.051758 L263.545898,730 Z M263.516602,722.104492 C263.516602,723.969736 263.770505,725.317379 264.27832,726.147461 C265.108403,727.50489 266.231438,728.183594 267.647461,728.183594 C268.79981,728.183594 269.795894,727.68311 270.635742,726.682129 C271.47559,725.681147 271.895508,724.189463 271.895508,722.207031 C271.895508,720.175771 271.49268,718.676763 270.687012,717.709961 C269.881344,716.743159 268.907232,716.259766 267.764648,716.259766 C266.612299,716.259766 265.616215,716.760249 264.776367,717.76123 C263.936519,718.762212 263.516602,720.209951 263.516602,722.104492 Z M288.448242,724.990234 L291.172852,725.327148 C290.743162,726.918953 289.947271,728.154292 288.785156,729.033203 C287.623041,729.912114 286.138681,730.351562 284.332031,730.351562 C282.056629,730.351562 280.252448,729.650886 278.919434,728.249512 C277.586419,726.848138 276.919922,724.882825 276.919922,722.353516 C276.919922,719.736315 277.593743,717.705085 278.941406,716.259766 C280.289069,714.814446 282.037099,714.091797 284.185547,714.091797 C286.265635,714.091797 287.964837,714.799798 289.283203,716.21582 C290.601569,717.631843 291.260742,719.624011 291.260742,722.192383 C291.260742,722.348634 291.255859,722.583006 291.246094,722.895508 L279.644531,722.895508 C279.742188,724.604501 280.225582,725.913081 281.094727,726.821289 C281.963872,727.729497 283.047845,728.183594 284.34668,728.183594 C285.313481,728.183594 286.138668,727.92969 286.822266,727.421875 C287.505863,726.91406 288.04785,726.103521 288.448242,724.990234 Z M279.791016,720.727539 L288.477539,720.727539 C288.360351,719.418939 288.028323,718.437503 287.481445,717.783203 C286.641597,716.767573 285.552741,716.259766 284.214844,716.259766 C283.0039,716.259766 281.985844,716.665035 281.160645,717.475586 C280.335445,718.286137 279.878907,719.37011 279.791016,720.727539 Z" id="app.sambego.be" fill="#000000"></path>
        <g id="Desktop-App" transform="translate(19.000000, 792.000000)">
            <polygon id="Path" stroke="#000000" stroke-width="10" fill="#FFFFFF" stroke-linejoin="round" points="144.590909 155.590909 106.818182 295.772727 217.818182 295.772727 181 155.590909"></polygon>
            <rect id="Rectangle" stroke="#000000" stroke-width="10" fill="#FFFFFF" stroke-linejoin="round" x="0.590909091" y="0.954545455" width="323.318182" height="249.272727" rx="1.55"></rect>
            <rect id="Rectangle" stroke="#000000" stroke-width="10" fill="#FFFFFF" stroke-linejoin="round" x="30.1818182" y="29.4545455" width="264.272727" height="192.272727" rx="0.09"></rect>
            <path d="M232.954545,134.727273 L232.136364,134.727273 C229.116333,135.770261 226.80532,138.236057 225.960031,141.317273 C225.114742,144.398489 225.844026,147.698349 227.909091,150.136364 L227.909091,150.818182 C230.583992,153.937302 230.998682,158.40513 228.943545,161.963278 C226.888407,165.521426 222.811147,167.394765 218.772727,166.636364 L217.954545,166.636364 C214.834882,166.052654 211.627228,167.035013 209.369452,169.265587 C207.111675,171.496161 206.09051,174.691673 206.636364,177.818182 L206.636364,178.636364 C207.394765,182.674784 205.521426,186.752044 201.963278,188.807181 C198.40513,190.862319 193.937302,190.447628 190.818182,187.772727 C188.380167,185.707662 185.080308,184.978378 181.999091,185.823667 C178.917875,186.668957 176.452079,188.97997 175.409091,192 L175.409091,192.818182 C174.048346,196.69863 170.384844,199.29618 166.272727,199.29618 C162.16061,199.29618 158.497108,196.69863 157.136364,192.818182 L157.136364,192 C156.136287,188.797358 153.549391,186.340787 150.299372,185.507449 C147.049354,184.67411 143.599567,185.582814 141.181818,187.909091 L140.5,187.909091 C137.380879,190.583992 132.913052,190.998682 129.354904,188.943545 C125.796756,186.888407 123.923417,182.811147 124.681818,178.772727 L124.681818,177.954545 C125.282525,174.843037 124.299881,171.636256 122.059085,169.39546 C119.818289,167.154664 116.611508,166.172021 113.5,166.772727 L112.545455,166.772727 C108.680645,167.128885 104.97666,165.142644 103.134819,161.726327 C101.292979,158.31001 101.669291,154.123955 104.090909,151.090909 L104.090909,150.409091 C106.160941,147.989881 106.909205,144.707543 106.092208,141.630186 C105.27521,138.552829 102.9974,136.073874 100,135 L99.1818182,135 C95.3336693,133.571628 92.780219,129.900147 92.780219,125.795455 C92.780219,121.690762 95.3336693,118.019282 99.1818182,116.590909 L100,116.590909 C103.202642,115.590832 105.659213,113.003936 106.492551,109.753918 C107.32589,106.503899 106.417186,103.054112 104.090909,100.636364 C101.416008,97.5172431 101.001318,93.0494159 103.056455,89.4912676 C105.111593,85.9331193 109.188853,84.0597806 113.227273,84.8181818 L114.181818,84.8181818 C117.293326,85.4188884 120.500108,84.4362447 122.740903,82.1954489 C124.981699,79.9546531 125.964343,76.7478718 125.363636,73.6363636 L125.363636,72.8181818 C124.605235,68.7797617 126.478574,64.7025017 130.036722,62.6473643 C133.59487,60.5922269 138.062698,61.006917 141.181818,63.6818182 L141.863636,63.6818182 C144.301651,65.7468831 147.601511,66.4761675 150.682727,65.6308781 C153.763943,64.7855887 156.229739,62.4745757 157.272727,59.4545455 L157.272727,58.6363636 C158.633472,54.7559152 162.296974,52.1583655 166.409091,52.1583655 C170.521208,52.1583655 174.18471,54.7559152 175.545455,58.6363636 L175.545455,59.4545455 C176.588443,62.4745757 179.054239,64.7855887 182.135455,65.6308781 C185.216671,66.4761675 188.516531,65.7468831 190.954545,63.6818182 C194.105862,61.0711119 198.545991,60.6888019 202.097197,62.7223987 C205.648403,64.7559954 207.565849,68.7789677 206.909091,72.8181818 L206.909091,73.6363636 C206.363237,76.7628724 207.384403,79.9583847 209.642179,82.1889587 C211.899955,84.4195327 215.10761,85.4018913 218.227273,84.8181818 L219.045455,84.8181818 C223.083875,84.0597806 227.161135,85.9331193 229.216272,89.4912676 C231.271409,93.0494159 230.856719,97.5172431 228.181818,100.636364 C226.116753,103.074378 225.387469,106.374238 226.232758,109.455454 C227.078048,112.53667 229.389061,115.002466 232.409091,116.045455 L233.227273,116.045455 C237.259717,117.414738 239.949682,121.227453 239.88752,125.485584 C239.825357,129.743715 237.025241,133.476283 232.954545,134.727273 Z" id="Path" fill="#FAC863"></path>
            <circle id="Oval" fill="#FAC863" cx="166" cy="125.590909" r="42.6818182"></circle>
            <circle id="Oval" stroke="#000000" stroke-width="10" fill="#FFFFFF" stroke-linecap="round" stroke-linejoin="round" cx="166" cy="125.590909" r="23.5909091"></circle>
        </g>
        <g id="Mobile-App" transform="translate(70.000000, 6.000000)">
            <rect id="Rectangle" stroke="#000000" stroke-width="10" fill="#FFFFFF" stroke-linecap="round" stroke-linejoin="round" x="0.36" y="0.16" width="167.04" height="295.2" rx="1.69"></rect>
            <path d="M5.52,47.68 L162.24,47.68" id="Path" stroke="#000000" stroke-width="10" stroke-linecap="round" stroke-linejoin="round"></path>
            <path d="M63.48,23.32 L104.28,23.32" id="Path" stroke="#000000" stroke-width="10" stroke-linecap="round" stroke-linejoin="round"></path>
            <path d="M2.88,240.76 L164.88,240.76" id="Path" stroke="#000000" stroke-width="10" stroke-linecap="round" stroke-linejoin="round"></path>
            <circle id="Oval" fill="#FAC863" cx="83.88" cy="268.6" r="12.36"></circle>
            <path d="M145.08,156.28 L144.24,156.28 C141.529425,157.282297 139.476139,159.54093 138.735966,162.334487 C137.995792,165.128043 138.661329,168.107048 140.52,170.32 L140.52,170.92 C142.988738,173.782552 143.374703,177.894194 141.48182,181.166177 C139.588938,184.438159 135.832175,186.153183 132.12,185.44 L131.4,185.44 C128.534967,184.921264 125.597647,185.840001 123.538824,187.898824 C121.480001,189.957647 120.561264,192.894967 121.08,195.76 L121.08,196.48 C121.793183,200.192175 120.078159,203.948938 116.806177,205.84182 C113.534194,207.734703 109.422552,207.348738 106.56,204.88 L105.96,204.88 C103.767529,202.963444 100.765986,202.26169 97.9510541,203.007527 C95.136122,203.753363 92.8758409,205.849276 91.92,208.6 L91.92,209.44 C90.5831029,212.915578 87.2438333,215.208901 83.52,215.208901 C79.7961667,215.208901 76.4568971,212.915578 75.12,209.44 L75.12,208.6 C74.1641591,205.849276 71.903878,203.753363 69.0889459,203.007527 C66.2740139,202.26169 63.2724707,202.963444 61.08,204.88 C58.2174478,207.348738 54.1058055,207.734703 50.8338231,205.84182 C47.5618406,203.948938 45.8468174,200.192175 46.56,196.48 L46.56,195.76 C47.0787356,192.894967 46.1599985,189.957647 44.1011759,187.898824 C42.0423532,185.840001 39.1050332,184.921264 36.24,185.44 L35.52,185.44 C31.807825,186.153183 28.0510623,184.438159 26.1581799,181.166177 C24.2652975,177.894194 24.6512619,173.782552 27.12,170.92 L27.12,170.32 C28.9786713,168.107048 29.6442075,165.128043 28.9040345,162.334487 C28.1638614,159.54093 26.1105746,157.282297 23.4,156.28 L22.56,156.28 C19.0844223,154.943103 16.7910989,151.603833 16.7910989,147.88 C16.7910989,144.156167 19.0844223,140.816897 22.56,139.48 L23.4,139.48 C26.2208793,138.527921 28.3650984,136.208291 29.0928861,133.3214 C29.8206738,130.434509 29.0323906,127.375593 27,125.2 C24.5312619,122.337448 24.1452975,118.225806 26.0381799,114.953823 C27.9310623,111.681841 31.687825,109.966817 35.4,110.68 L36.12,110.68 C38.9850332,111.198736 41.9223532,110.279999 43.9811759,108.221176 C46.0399985,106.162353 46.9587356,103.225033 46.44,100.36 L46.44,99.64 C45.7268174,95.927825 47.4418406,92.1710623 50.7138231,90.2781799 C53.9858055,88.3852975 58.0974478,88.7712619 60.96,91.24 C63.1524707,93.156556 66.1540139,93.85831 68.9689459,93.1124733 C71.783878,92.3666366 74.0441591,90.2707241 75,87.52 L75,86.68 C76.3368971,83.2044223 79.6761667,80.9110989 83.4,80.9110989 C87.1238333,80.9110989 90.4631029,83.2044223 91.8,86.68 L91.8,87.52 C92.7558409,90.2707241 95.016122,92.3666366 97.8310541,93.1124733 C100.645986,93.85831 103.647529,93.156556 105.84,91.24 L106.44,91.24 C109.302552,88.7712619 113.414194,88.3852975 116.686177,90.2781799 C119.958159,92.1710623 121.673183,95.927825 120.96,99.64 L120.96,100.36 C120.441264,103.225033 121.360001,106.162353 123.418824,108.221176 C125.477647,110.279999 128.414967,111.198736 131.28,110.68 L132,110.68 C135.712175,109.966817 139.468938,111.681841 141.36182,114.953823 C143.254703,118.225806 142.868738,122.337448 140.4,125.2 C138.483444,127.392471 137.78169,130.394014 138.527527,133.208946 C139.273363,136.023878 141.369276,138.284159 144.12,139.24 L144.96,139.24 C148.616436,140.455572 151.093404,143.863936 151.120538,147.717038 C151.147673,151.570141 148.718953,155.013052 145.08,156.28 Z" id="Path" fill="#FAC863"></path>
            <circle id="Oval" fill="#FAC863" cx="83.88" cy="147.88" r="39"></circle>
            <circle id="Oval" stroke="#000000" stroke-width="10" fill="#FFFFFF" stroke-linecap="round" stroke-linejoin="round" cx="83.88" cy="147.88" r="21.6"></circle>
        </g>
        <path d="M99.3144531,1133.52539 L99.3144531,1112.05078 L106.711914,1112.05078 C108.381844,1112.05078 109.656246,1112.15332 110.535156,1112.3584 C111.765631,1112.6416 112.815425,1113.15429 113.68457,1113.89648 C114.817388,1114.85352 115.664548,1116.07665 116.226074,1117.56592 C116.7876,1119.05518 117.068359,1120.75683 117.068359,1122.6709 C117.068359,1124.30177 116.877932,1125.74706 116.49707,1127.00684 C116.116209,1128.26661 115.627933,1129.30908 115.032227,1130.13428 C114.43652,1130.95948 113.784672,1131.60888 113.07666,1132.08252 C112.368649,1132.55615 111.514165,1132.91504 110.513184,1133.15918 C109.512202,1133.40332 108.362311,1133.52539 107.063477,1133.52539 L99.3144531,1133.52539 Z M102.15625,1130.99121 L106.741211,1130.99121 C108.157234,1130.99121 109.268062,1130.85938 110.07373,1130.5957 C110.879399,1130.33203 111.521482,1129.96094 112,1129.48242 C112.673831,1128.80859 113.198729,1127.90284 113.574707,1126.76514 C113.950685,1125.62744 114.138672,1124.24805 114.138672,1122.62695 C114.138672,1120.38085 113.770023,1118.65479 113.032715,1117.44873 C112.295406,1116.24267 111.399419,1115.43457 110.344727,1115.02441 C109.583004,1114.73144 108.35743,1114.58496 106.667969,1114.58496 L102.15625,1114.58496 L102.15625,1130.99121 Z M131.291992,1128.51562 L134.016602,1128.85254 C133.586912,1130.44434 132.791021,1131.67968 131.628906,1132.55859 C130.466791,1133.4375 128.982431,1133.87695 127.175781,1133.87695 C124.900379,1133.87695 123.096198,1133.17628 121.763184,1131.7749 C120.430169,1130.37353 119.763672,1128.40822 119.763672,1125.87891 C119.763672,1123.26171 120.437493,1121.23048 121.785156,1119.78516 C123.132819,1118.33984 124.880849,1117.61719 127.029297,1117.61719 C129.109385,1117.61719 130.808587,1118.32519 132.126953,1119.74121 C133.445319,1121.15723 134.104492,1123.1494 134.104492,1125.71777 C134.104492,1125.87402 134.099609,1126.1084 134.089844,1126.4209 L122.488281,1126.4209 C122.585938,1128.12989 123.069332,1129.43847 123.938477,1130.34668 C124.807622,1131.25489 125.891595,1131.70898 127.19043,1131.70898 C128.157231,1131.70898 128.982418,1131.45508 129.666016,1130.94727 C130.349613,1130.43945 130.8916,1129.62891 131.291992,1128.51562 Z M122.634766,1124.25293 L131.321289,1124.25293 C131.204101,1122.94433 130.872073,1121.96289 130.325195,1121.30859 C129.485347,1120.29296 128.396491,1119.78516 127.058594,1119.78516 C125.84765,1119.78516 124.829594,1120.19043 124.004395,1121.00098 C123.179195,1121.81153 122.722657,1122.8955 122.634766,1124.25293 Z M136.272461,1128.88184 L138.879883,1128.47168 C139.026368,1129.51661 139.434079,1130.31738 140.103027,1130.87402 C140.771976,1131.43067 141.707025,1131.70898 142.908203,1131.70898 C144.119147,1131.70898 145.017575,1131.4624 145.603516,1130.96924 C146.189456,1130.47607 146.482422,1129.89746 146.482422,1129.2334 C146.482422,1128.63769 146.223635,1128.16895 145.706055,1127.82715 C145.344725,1127.59277 144.446296,1127.29492 143.010742,1126.93359 C141.077139,1126.44531 139.73682,1126.02295 138.989746,1125.6665 C138.242672,1125.31006 137.676271,1124.8169 137.290527,1124.18701 C136.904783,1123.55713 136.711914,1122.86133 136.711914,1122.09961 C136.711914,1121.40625 136.870604,1120.76416 137.187988,1120.17334 C137.505373,1119.58252 137.937497,1119.0918 138.484375,1118.70117 C138.894533,1118.39844 139.45361,1118.14209 140.161621,1117.93213 C140.869632,1117.72217 141.628902,1117.61719 142.439453,1117.61719 C143.660162,1117.61719 144.731929,1117.79297 145.654785,1118.14453 C146.577641,1118.4961 147.258787,1118.97216 147.698242,1119.57275 C148.137698,1120.17334 148.440429,1120.97656 148.606445,1121.98242 L146.02832,1122.33398 C145.911132,1121.5332 145.57178,1120.90821 145.010254,1120.45898 C144.448728,1120.00976 143.655279,1119.78516 142.629883,1119.78516 C141.418939,1119.78516 140.55469,1119.98535 140.037109,1120.38574 C139.519529,1120.78613 139.260742,1121.25488 139.260742,1121.79199 C139.260742,1122.13379 139.368163,1122.4414 139.583008,1122.71484 C139.797853,1122.99805 140.134763,1123.23242 140.59375,1123.41797 C140.857423,1123.51563 141.633783,1123.74023 142.922852,1124.0918 C144.788095,1124.58985 146.089352,1124.99756 146.82666,1125.31494 C147.563969,1125.63233 148.142576,1126.09375 148.5625,1126.69922 C148.982424,1127.30469 149.192383,1128.05664 149.192383,1128.95508 C149.192383,1129.83399 148.936038,1130.66162 148.42334,1131.43799 C147.910642,1132.21436 147.170903,1132.81494 146.204102,1133.23975 C145.2373,1133.66455 144.143561,1133.87695 142.922852,1133.87695 C140.901357,1133.87695 139.360845,1133.45704 138.30127,1132.61719 C137.241694,1131.77734 136.565431,1130.53223 136.272461,1128.88184 Z M152.341797,1133.52539 L152.341797,1112.05078 L154.978516,1112.05078 L154.978516,1124.29688 L161.21875,1117.96875 L164.631836,1117.96875 L158.68457,1123.74023 L165.232422,1133.52539 L161.980469,1133.52539 L156.838867,1125.57129 L154.978516,1127.3584 L154.978516,1133.52539 L152.341797,1133.52539 Z M173.083984,1131.16699 L173.464844,1133.49609 C172.722653,1133.65234 172.058597,1133.73047 171.472656,1133.73047 C170.51562,1133.73047 169.77344,1133.5791 169.246094,1133.27637 C168.718747,1132.97363 168.347657,1132.57569 168.132812,1132.08252 C167.917968,1131.58935 167.810547,1130.55177 167.810547,1128.96973 L167.810547,1120.01953 L165.876953,1120.01953 L165.876953,1117.96875 L167.810547,1117.96875 L167.810547,1114.11621 L170.432617,1112.53418 L170.432617,1117.96875 L173.083984,1117.96875 L173.083984,1120.01953 L170.432617,1120.01953 L170.432617,1129.11621 C170.432617,1129.86817 170.479003,1130.35156 170.571777,1130.56641 C170.664551,1130.78125 170.815917,1130.95215 171.025879,1131.0791 C171.235841,1131.20606 171.536131,1131.26953 171.926758,1131.26953 C172.219728,1131.26953 172.605466,1131.23535 173.083984,1131.16699 Z M174.680664,1125.74707 C174.680664,1122.8662 175.481437,1120.73243 177.083008,1119.3457 C178.420905,1118.19335 180.051748,1117.61719 181.975586,1117.61719 C184.114269,1117.61719 185.862298,1118.31786 187.219727,1119.71924 C188.577155,1121.12061 189.255859,1123.05663 189.255859,1125.52734 C189.255859,1127.52931 188.955569,1129.104 188.35498,1130.25146 C187.754392,1131.39893 186.880377,1132.29004 185.73291,1132.9248 C184.585443,1133.55957 183.333015,1133.87695 181.975586,1133.87695 C179.797841,1133.87695 178.037604,1133.17872 176.694824,1131.78223 C175.352044,1130.38574 174.680664,1128.37404 174.680664,1125.74707 Z M177.390625,1125.74707 C177.390625,1127.73927 177.825191,1129.23095 178.694336,1130.22217 C179.563481,1131.21338 180.65722,1131.70898 181.975586,1131.70898 C183.284186,1131.70898 184.373043,1131.21094 185.242188,1130.21484 C186.111332,1129.21875 186.545898,1127.70021 186.545898,1125.65918 C186.545898,1123.73534 186.108891,1122.27784 185.234863,1121.28662 C184.360835,1120.29541 183.274421,1119.7998 181.975586,1119.7998 C180.65722,1119.7998 179.563481,1120.29296 178.694336,1121.2793 C177.825191,1122.26563 177.390625,1123.75487 177.390625,1125.74707 Z M192.34668,1139.4873 L192.34668,1117.96875 L194.749023,1117.96875 L194.749023,1119.99023 C195.315433,1119.19921 195.955075,1118.60596 196.667969,1118.21045 C197.380863,1117.81494 198.245112,1117.61719 199.260742,1117.61719 C200.588874,1117.61719 201.760737,1117.95898 202.776367,1118.64258 C203.791997,1119.32618 204.558591,1120.29052 205.076172,1121.53564 C205.593753,1122.78077 205.852539,1124.1455 205.852539,1125.62988 C205.852539,1127.22169 205.566897,1128.65478 204.995605,1129.9292 C204.424314,1131.20362 203.594244,1132.18017 202.505371,1132.85889 C201.416498,1133.5376 200.27149,1133.87695 199.070312,1133.87695 C198.191402,1133.87695 197.402836,1133.69141 196.70459,1133.32031 C196.006344,1132.94922 195.432619,1132.48047 194.983398,1131.91406 L194.983398,1139.4873 L192.34668,1139.4873 Z M194.734375,1125.83496 C194.734375,1127.83692 195.139644,1129.3164 195.950195,1130.27344 C196.760746,1131.23047 197.742182,1131.70898 198.894531,1131.70898 C200.066412,1131.70898 201.06982,1131.21338 201.904785,1130.22217 C202.73975,1129.23095 203.157227,1127.69532 203.157227,1125.61523 C203.157227,1123.6328 202.749516,1122.14844 201.934082,1121.16211 C201.118648,1120.17578 200.144537,1119.68262 199.011719,1119.68262 C197.888666,1119.68262 196.895024,1120.20751 196.030762,1121.25732 C195.1665,1122.30713 194.734375,1123.833 194.734375,1125.83496 Z M227.517578,1131.60645 C226.541011,1132.43653 225.601079,1133.02246 224.697754,1133.36426 C223.794429,1133.70606 222.8252,1133.87695 221.790039,1133.87695 C220.081046,1133.87695 218.767583,1133.45948 217.849609,1132.62451 C216.931636,1131.78955 216.472656,1130.72266 216.472656,1129.42383 C216.472656,1128.66211 216.645994,1127.96631 216.992676,1127.33643 C217.339357,1126.70654 217.793454,1126.20117 218.35498,1125.82031 C218.916507,1125.43945 219.548825,1125.15137 220.251953,1124.95605 C220.769534,1124.81934 221.550776,1124.6875 222.595703,1124.56055 C224.72462,1124.30664 226.291987,1124.00391 227.297852,1123.65234 C227.307617,1123.29101 227.3125,1123.06152 227.3125,1122.96387 C227.3125,1121.88964 227.063479,1121.13281 226.56543,1120.69336 C225.891598,1120.09765 224.890632,1119.7998 223.5625,1119.7998 C222.322259,1119.7998 221.406741,1120.01709 220.815918,1120.45166 C220.225095,1120.88623 219.788087,1121.65527 219.504883,1122.75879 L216.926758,1122.40723 C217.161134,1121.30371 217.546872,1120.4126 218.083984,1119.73389 C218.621096,1119.05517 219.397456,1118.53272 220.413086,1118.1665 C221.428716,1117.80029 222.605462,1117.61719 223.943359,1117.61719 C225.271491,1117.61719 226.350582,1117.77344 227.180664,1118.08594 C228.010746,1118.39844 228.621092,1118.7915 229.011719,1119.26514 C229.402346,1119.73877 229.67578,1120.33691 229.832031,1121.05957 C229.919922,1121.50879 229.963867,1122.31933 229.963867,1123.49121 L229.963867,1127.00684 C229.963867,1129.45802 230.020019,1131.0083 230.132324,1131.65771 C230.244629,1132.30713 230.466795,1132.92968 230.798828,1133.52539 L228.044922,1133.52539 C227.771483,1132.97851 227.595704,1132.33887 227.517578,1131.60645 Z M227.297852,1125.71777 C226.340816,1126.1084 224.905283,1126.44043 222.991211,1126.71387 C221.907221,1126.87012 221.140627,1127.0459 220.691406,1127.24121 C220.242185,1127.43652 219.895509,1127.72217 219.651367,1128.09814 C219.407225,1128.47412 219.285156,1128.8916 219.285156,1129.35059 C219.285156,1130.05371 219.551267,1130.63965 220.083496,1131.1084 C220.615725,1131.57715 221.394526,1131.81152 222.419922,1131.81152 C223.435552,1131.81152 224.338863,1131.58936 225.129883,1131.14502 C225.920902,1130.70068 226.501951,1130.09278 226.873047,1129.32129 C227.156251,1128.72558 227.297852,1127.84669 227.297852,1126.68457 L227.297852,1125.71777 Z M234.050781,1139.4873 L234.050781,1117.96875 L236.453125,1117.96875 L236.453125,1119.99023 C237.019534,1119.19921 237.659176,1118.60596 238.37207,1118.21045 C239.084965,1117.81494 239.949214,1117.61719 240.964844,1117.61719 C242.292975,1117.61719 243.464839,1117.95898 244.480469,1118.64258 C245.496099,1119.32618 246.262693,1120.29052 246.780273,1121.53564 C247.297854,1122.78077 247.556641,1124.1455 247.556641,1125.62988 C247.556641,1127.22169 247.270999,1128.65478 246.699707,1129.9292 C246.128415,1131.20362 245.298345,1132.18017 244.209473,1132.85889 C243.1206,1133.5376 241.975592,1133.87695 240.774414,1133.87695 C239.895503,1133.87695 239.106937,1133.69141 238.408691,1133.32031 C237.710446,1132.94922 237.136721,1132.48047 236.6875,1131.91406 L236.6875,1139.4873 L234.050781,1139.4873 Z M236.438477,1125.83496 C236.438477,1127.83692 236.843746,1129.3164 237.654297,1130.27344 C238.464848,1131.23047 239.446283,1131.70898 240.598633,1131.70898 C241.770514,1131.70898 242.773922,1131.21338 243.608887,1130.22217 C244.443852,1129.23095 244.861328,1127.69532 244.861328,1125.61523 C244.861328,1123.6328 244.453617,1122.14844 243.638184,1121.16211 C242.82275,1120.17578 241.848638,1119.68262 240.71582,1119.68262 C239.592768,1119.68262 238.599125,1120.20751 237.734863,1121.25732 C236.870601,1122.30713 236.438477,1123.833 236.438477,1125.83496 Z M250.735352,1139.4873 L250.735352,1117.96875 L253.137695,1117.96875 L253.137695,1119.99023 C253.704104,1119.19921 254.343746,1118.60596 255.056641,1118.21045 C255.769535,1117.81494 256.633784,1117.61719 257.649414,1117.61719 C258.977546,1117.61719 260.149409,1117.95898 261.165039,1118.64258 C262.180669,1119.32618 262.947263,1120.29052 263.464844,1121.53564 C263.982424,1122.78077 264.241211,1124.1455 264.241211,1125.62988 C264.241211,1127.22169 263.955569,1128.65478 263.384277,1129.9292 C262.812985,1131.20362 261.982916,1132.18017 260.894043,1132.85889 C259.80517,1133.5376 258.660162,1133.87695 257.458984,1133.87695 C256.580074,1133.87695 255.791507,1133.69141 255.093262,1133.32031 C254.395016,1132.94922 253.821291,1132.48047 253.37207,1131.91406 L253.37207,1139.4873 L250.735352,1139.4873 Z M253.123047,1125.83496 C253.123047,1127.83692 253.528316,1129.3164 254.338867,1130.27344 C255.149418,1131.23047 256.130854,1131.70898 257.283203,1131.70898 C258.455084,1131.70898 259.458492,1131.21338 260.293457,1130.22217 C261.128422,1129.23095 261.545898,1127.69532 261.545898,1125.61523 C261.545898,1123.6328 261.138188,1122.14844 260.322754,1121.16211 C259.50732,1120.17578 258.533209,1119.68262 257.400391,1119.68262 C256.277338,1119.68262 255.283696,1120.20751 254.419434,1121.25732 C253.555171,1122.30713 253.123047,1123.833 253.123047,1125.83496 Z" id="Desktop-app" fill="#000000"></path>
        <path d="M83.2265625,342.313477 L83.2265625,320.838867 L87.5039062,320.838867 L92.5869141,336.043945 C93.0556664,337.459968 93.3974599,338.519528 93.6123047,339.222656 C93.8564465,338.441402 94.2373021,337.293953 94.7548828,335.780273 L99.8964844,320.838867 L103.719727,320.838867 L103.719727,342.313477 L100.980469,342.313477 L100.980469,324.339844 L94.7402344,342.313477 L92.1767578,342.313477 L85.9658203,324.032227 L85.9658203,342.313477 L83.2265625,342.313477 Z M106.986328,334.535156 C106.986328,331.654282 107.787101,329.520515 109.388672,328.133789 C110.726569,326.98144 112.357412,326.405273 114.28125,326.405273 C116.419933,326.405273 118.167962,327.10595 119.525391,328.507324 C120.882819,329.908698 121.561523,331.844714 121.561523,334.31543 C121.561523,336.317393 121.261233,337.892084 120.660645,339.039551 C120.060056,340.187017 119.186041,341.078122 118.038574,341.712891 C116.891108,342.347659 115.638679,342.665039 114.28125,342.665039 C112.103505,342.665039 110.343268,341.966804 109.000488,340.570312 C107.657708,339.173821 106.986328,337.162123 106.986328,334.535156 Z M109.696289,334.535156 C109.696289,336.527354 110.130855,338.019038 111,339.010254 C111.869145,340.00147 112.962884,340.49707 114.28125,340.49707 C115.58985,340.49707 116.678707,339.999028 117.547852,339.00293 C118.416997,338.006831 118.851562,336.488291 118.851562,334.447266 C118.851562,332.523428 118.414555,331.065923 117.540527,330.074707 C116.6665,329.083491 115.580085,328.587891 114.28125,328.587891 C112.962884,328.587891 111.869145,329.08105 111,330.067383 C110.130855,331.053716 109.696289,332.542959 109.696289,334.535156 Z M127.083984,342.313477 L124.637695,342.313477 L124.637695,320.838867 L127.274414,320.838867 L127.274414,328.5 C128.387701,327.103509 129.808585,326.405273 131.537109,326.405273 C132.494145,326.405273 133.399898,326.598143 134.254395,326.983887 C135.108891,327.369631 135.812009,327.911618 136.36377,328.609863 C136.91553,329.308109 137.347655,330.150386 137.660156,331.136719 C137.972658,332.123052 138.128906,333.177729 138.128906,334.300781 C138.128906,336.96681 137.469733,339.027336 136.151367,340.482422 C134.833001,341.937507 133.250986,342.665039 131.405273,342.665039 C129.569327,342.665039 128.128911,341.898445 127.083984,340.365234 L127.083984,342.313477 Z M127.054688,334.417969 C127.054688,336.283212 127.308591,337.630855 127.816406,338.460938 C128.646489,339.818366 129.769524,340.49707 131.185547,340.49707 C132.337896,340.49707 133.33398,339.996587 134.173828,338.995605 C135.013676,337.994624 135.433594,336.50294 135.433594,334.520508 C135.433594,332.489248 135.030766,330.990239 134.225098,330.023438 C133.41943,329.056636 132.445318,328.573242 131.302734,328.573242 C130.150385,328.573242 129.154301,329.073725 128.314453,330.074707 C127.474605,331.075689 127.054688,332.523428 127.054688,334.417969 Z M141.351562,323.871094 L141.351562,320.838867 L143.988281,320.838867 L143.988281,323.871094 L141.351562,323.871094 Z M141.351562,342.313477 L141.351562,326.756836 L143.988281,326.756836 L143.988281,342.313477 L141.351562,342.313477 Z M147.943359,342.313477 L147.943359,320.838867 L150.580078,320.838867 L150.580078,342.313477 L147.943359,342.313477 Z M165.316406,337.303711 L168.041016,337.640625 C167.611326,339.23243 166.815435,340.467769 165.65332,341.34668 C164.491205,342.22559 163.006845,342.665039 161.200195,342.665039 C158.924793,342.665039 157.120612,341.964362 155.787598,340.562988 C154.454583,339.161614 153.788086,337.196302 153.788086,334.666992 C153.788086,332.049792 154.461907,330.018562 155.80957,328.573242 C157.157233,327.127922 158.905263,326.405273 161.053711,326.405273 C163.133799,326.405273 164.833001,327.113274 166.151367,328.529297 C167.469733,329.94532 168.128906,331.937487 168.128906,334.505859 C168.128906,334.66211 168.124023,334.896483 168.114258,335.208984 L156.512695,335.208984 C156.610352,336.917977 157.093746,338.226558 157.962891,339.134766 C158.832036,340.042973 159.916009,340.49707 161.214844,340.49707 C162.181645,340.49707 163.006833,340.243167 163.69043,339.735352 C164.374027,339.227537 164.916014,338.416998 165.316406,337.303711 Z M156.65918,333.041016 L165.345703,333.041016 C165.228515,331.732415 164.896487,330.75098 164.349609,330.09668 C163.509761,329.08105 162.420905,328.573242 161.083008,328.573242 C159.872064,328.573242 158.854008,328.978512 158.028809,329.789062 C157.203609,330.599613 156.747071,331.683587 156.65918,333.041016 Z M189.837891,340.394531 C188.861323,341.224614 187.921391,341.810545 187.018066,342.152344 C186.114742,342.494142 185.145513,342.665039 184.110352,342.665039 C182.401359,342.665039 181.087895,342.247563 180.169922,341.412598 C179.251949,340.577633 178.792969,339.510749 178.792969,338.211914 C178.792969,337.450192 178.966307,336.754398 179.312988,336.124512 C179.65967,335.494626 180.113767,334.98926 180.675293,334.608398 C181.236819,334.227537 181.869137,333.939454 182.572266,333.744141 C183.089846,333.607421 183.871089,333.475587 184.916016,333.348633 C187.044933,333.094725 188.6123,332.791994 189.618164,332.44043 C189.62793,332.0791 189.632812,331.84961 189.632812,331.751953 C189.632812,330.677729 189.383792,329.920901 188.885742,329.481445 C188.211911,328.885739 187.210944,328.587891 185.882812,328.587891 C184.642572,328.587891 183.727054,328.805174 183.13623,329.239746 C182.545407,329.674319 182.1084,330.443354 181.825195,331.546875 L179.24707,331.195312 C179.481446,330.091791 179.867185,329.200687 180.404297,328.521973 C180.941409,327.843258 181.717768,327.320803 182.733398,326.95459 C183.749029,326.588377 184.925775,326.405273 186.263672,326.405273 C187.591804,326.405273 188.670894,326.561522 189.500977,326.874023 C190.331059,327.186525 190.941404,327.579587 191.332031,328.053223 C191.722658,328.526858 191.996093,329.124996 192.152344,329.847656 C192.240235,330.296877 192.28418,331.107416 192.28418,332.279297 L192.28418,335.794922 C192.28418,338.246106 192.340331,339.796383 192.452637,340.445801 C192.564942,341.095218 192.787108,341.71777 193.119141,342.313477 L190.365234,342.313477 C190.091796,341.766599 189.916016,341.126957 189.837891,340.394531 Z M189.618164,334.505859 C188.661128,334.896486 187.225596,335.228514 185.311523,335.501953 C184.227534,335.658204 183.46094,335.833983 183.011719,336.029297 C182.562498,336.22461 182.215822,336.510252 181.97168,336.88623 C181.727538,337.262209 181.605469,337.679685 181.605469,338.138672 C181.605469,338.8418 181.871579,339.427732 182.403809,339.896484 C182.936038,340.365237 183.714839,340.599609 184.740234,340.599609 C185.755864,340.599609 186.659176,340.377444 187.450195,339.933105 C188.241215,339.488767 188.822264,338.880863 189.193359,338.109375 C189.476564,337.513669 189.618164,336.634771 189.618164,335.472656 L189.618164,334.505859 Z M196.371094,348.275391 L196.371094,326.756836 L198.773438,326.756836 L198.773438,328.77832 C199.339847,327.987301 199.979489,327.394045 200.692383,326.998535 C201.405277,326.603025 202.269526,326.405273 203.285156,326.405273 C204.613288,326.405273 205.785151,326.747067 206.800781,327.430664 C207.816411,328.114261 208.583005,329.078607 209.100586,330.32373 C209.618167,331.568854 209.876953,332.933586 209.876953,334.417969 C209.876953,336.009774 209.591311,337.442865 209.02002,338.717285 C208.448728,339.991706 207.618658,340.968258 206.529785,341.646973 C205.440913,342.325687 204.295904,342.665039 203.094727,342.665039 C202.215816,342.665039 201.42725,342.479494 200.729004,342.108398 C200.030758,341.737303 199.457033,341.268558 199.007812,340.702148 L199.007812,348.275391 L196.371094,348.275391 Z M198.758789,334.623047 C198.758789,336.62501 199.164058,338.104487 199.974609,339.061523 C200.78516,340.018559 201.766596,340.49707 202.918945,340.49707 C204.090826,340.49707 205.094234,340.00147 205.929199,339.010254 C206.764164,338.019038 207.181641,336.483409 207.181641,334.40332 C207.181641,332.420889 206.77393,330.936528 205.958496,329.950195 C205.143062,328.963862 204.168951,328.470703 203.036133,328.470703 C201.91308,328.470703 200.919438,328.9956 200.055176,330.04541 C199.190914,331.09522 198.758789,332.621084 198.758789,334.623047 Z M213.055664,348.275391 L213.055664,326.756836 L215.458008,326.756836 L215.458008,328.77832 C216.024417,327.987301 216.664059,327.394045 217.376953,326.998535 C218.089847,326.603025 218.954096,326.405273 219.969727,326.405273 C221.297858,326.405273 222.469721,326.747067 223.485352,327.430664 C224.500982,328.114261 225.267576,329.078607 225.785156,330.32373 C226.302737,331.568854 226.561523,332.933586 226.561523,334.417969 C226.561523,336.009774 226.275882,337.442865 225.70459,338.717285 C225.133298,339.991706 224.303228,340.968258 223.214355,341.646973 C222.125483,342.325687 220.980475,342.665039 219.779297,342.665039 C218.900386,342.665039 218.11182,342.479494 217.413574,342.108398 C216.715329,341.737303 216.141604,341.268558 215.692383,340.702148 L215.692383,348.275391 L213.055664,348.275391 Z M215.443359,334.623047 C215.443359,336.62501 215.848629,338.104487 216.65918,339.061523 C217.469731,340.018559 218.451166,340.49707 219.603516,340.49707 C220.775396,340.49707 221.778804,340.00147 222.61377,339.010254 C223.448735,338.019038 223.866211,336.483409 223.866211,334.40332 C223.866211,332.420889 223.4585,330.936528 222.643066,329.950195 C221.827633,328.963862 220.853521,328.470703 219.720703,328.470703 C218.597651,328.470703 217.604008,328.9956 216.739746,330.04541 C215.875484,331.09522 215.443359,332.621084 215.443359,334.623047 Z" id="Mobile-app" fill="#000000"></path>
        <path d="M765.044922,728.555664 C764.068354,729.385746 763.128422,729.971678 762.225098,730.313477 C761.321773,730.655275 760.352544,730.826172 759.317383,730.826172 C757.60839,730.826172 756.294926,730.408696 755.376953,729.57373 C754.45898,728.738765 754,727.671881 754,726.373047 C754,725.611324 754.173338,724.91553 754.52002,724.285645 C754.866701,723.655759 755.320798,723.150393 755.882324,722.769531 C756.44385,722.38867 757.076168,722.100587 757.779297,721.905273 C758.296878,721.768554 759.07812,721.636719 760.123047,721.509766 C762.251964,721.255858 763.819331,720.953127 764.825195,720.601562 C764.834961,720.240233 764.839844,720.010743 764.839844,719.913086 C764.839844,718.838862 764.590823,718.082033 764.092773,717.642578 C763.418942,717.046872 762.417975,716.749023 761.089844,716.749023 C759.849603,716.749023 758.934085,716.966306 758.343262,717.400879 C757.752438,717.835451 757.315431,718.604487 757.032227,719.708008 L754.454102,719.356445 C754.688478,718.252924 755.074216,717.36182 755.611328,716.683105 C756.14844,716.004391 756.9248,715.481935 757.94043,715.115723 C758.95606,714.74951 760.132806,714.566406 761.470703,714.566406 C762.798835,714.566406 763.877926,714.722655 764.708008,715.035156 C765.53809,715.347658 766.148436,715.74072 766.539062,716.214355 C766.929689,716.687991 767.203124,717.286129 767.359375,718.008789 C767.447266,718.45801 767.491211,719.268549 767.491211,720.44043 L767.491211,723.956055 C767.491211,726.407239 767.547363,727.957516 767.659668,728.606934 C767.771973,729.256351 767.994139,729.878903 768.326172,730.474609 L765.572266,730.474609 C765.298827,729.927732 765.123047,729.28809 765.044922,728.555664 Z M764.825195,722.666992 C763.868159,723.057619 762.432627,723.389647 760.518555,723.663086 C759.434565,723.819337 758.667971,723.995116 758.21875,724.19043 C757.769529,724.385743 757.422853,724.671385 757.178711,725.047363 C756.934569,725.423342 756.8125,725.840818 756.8125,726.299805 C756.8125,727.002933 757.078611,727.588865 757.61084,728.057617 C758.143069,728.52637 758.92187,728.760742 759.947266,728.760742 C760.962896,728.760742 761.866207,728.538576 762.657227,728.094238 C763.448246,727.6499 764.029295,727.041996 764.400391,726.270508 C764.683595,725.674802 764.825195,724.795904 764.825195,723.633789 L764.825195,722.666992 Z M771.578125,736.436523 L771.578125,714.917969 L773.980469,714.917969 L773.980469,716.939453 C774.546878,716.148434 775.18652,715.555178 775.899414,715.159668 C776.612308,714.764158 777.476557,714.566406 778.492188,714.566406 C779.820319,714.566406 780.992182,714.9082 782.007812,715.591797 C783.023443,716.275394 783.790036,717.23974 784.307617,718.484863 C784.825198,719.729987 785.083984,721.094719 785.083984,722.579102 C785.083984,724.170906 784.798343,725.603998 784.227051,726.878418 C783.655759,728.152838 782.825689,729.129391 781.736816,729.808105 C780.647944,730.48682 779.502936,730.826172 778.301758,730.826172 C777.422847,730.826172 776.634281,730.640627 775.936035,730.269531 C775.237789,729.898436 774.664065,729.42969 774.214844,728.863281 L774.214844,736.436523 L771.578125,736.436523 Z M773.96582,722.78418 C773.96582,724.786143 774.37109,726.26562 775.181641,727.222656 C775.992192,728.179692 776.973627,728.658203 778.125977,728.658203 C779.297857,728.658203 780.301265,728.162603 781.13623,727.171387 C781.971196,726.180171 782.388672,724.644542 782.388672,722.564453 C782.388672,720.582021 781.980961,719.097661 781.165527,718.111328 C780.350094,717.124995 779.375982,716.631836 778.243164,716.631836 C777.120112,716.631836 776.126469,717.156733 775.262207,718.206543 C774.397945,719.256353 773.96582,720.782217 773.96582,722.78418 Z M788.277344,712.032227 L788.277344,709 L790.914062,709 L790.914062,712.032227 L788.277344,712.032227 Z M788.277344,730.474609 L788.277344,714.917969 L790.914062,714.917969 L790.914062,730.474609 L788.277344,730.474609 Z M795.674805,730.474609 L795.674805,727.47168 L798.677734,727.47168 L798.677734,730.474609 L795.674805,730.474609 Z M802.208008,725.831055 L804.81543,725.420898 C804.961915,726.465826 805.369626,727.266599 806.038574,727.823242 C806.707523,728.379886 807.642572,728.658203 808.84375,728.658203 C810.054694,728.658203 810.953122,728.411624 811.539062,727.918457 C812.125003,727.425291 812.417969,726.846683 812.417969,726.182617 C812.417969,725.586911 812.159182,725.118166 811.641602,724.776367 C811.280272,724.541991 810.381843,724.244142 808.946289,723.882812 C807.012686,723.394529 805.672367,722.97217 804.925293,722.615723 C804.178219,722.259276 803.611818,721.766116 803.226074,721.13623 C802.84033,720.506345 802.647461,719.810551 802.647461,719.048828 C802.647461,718.355465 802.806151,717.713382 803.123535,717.122559 C803.44092,716.531735 803.873044,716.041018 804.419922,715.650391 C804.83008,715.347655 805.389157,715.09131 806.097168,714.881348 C806.805179,714.671386 807.564449,714.566406 808.375,714.566406 C809.595709,714.566406 810.667476,714.742186 811.590332,715.09375 C812.513188,715.445314 813.194334,715.921384 813.633789,716.521973 C814.073244,717.122562 814.375976,717.925776 814.541992,718.931641 L811.963867,719.283203 C811.846679,718.482418 811.507327,717.857424 810.945801,717.408203 C810.384275,716.958982 809.590825,716.734375 808.56543,716.734375 C807.354486,716.734375 806.490237,716.934568 805.972656,717.334961 C805.455076,717.735354 805.196289,718.204099 805.196289,718.741211 C805.196289,719.08301 805.30371,719.390624 805.518555,719.664062 C805.7334,719.947267 806.07031,720.18164 806.529297,720.367188 C806.79297,720.464844 807.569329,720.689451 808.858398,721.041016 C810.723642,721.539065 812.024899,721.946776 812.762207,722.26416 C813.499515,722.581545 814.078123,723.042966 814.498047,723.648438 C814.917971,724.253909 815.12793,725.005855 815.12793,725.904297 C815.12793,726.783208 814.871585,727.610836 814.358887,728.387207 C813.846189,729.163578 813.10645,729.764158 812.139648,730.188965 C811.172847,730.613772 810.079108,730.826172 808.858398,730.826172 C806.836904,730.826172 805.296392,730.406254 804.236816,729.566406 C803.177241,728.726558 802.500978,727.481454 802.208008,725.831055 Z M828.414062,728.555664 C827.437495,729.385746 826.497563,729.971678 825.594238,730.313477 C824.690913,730.655275 823.721685,730.826172 822.686523,730.826172 C820.977531,730.826172 819.664067,730.408696 818.746094,729.57373 C817.82812,728.738765 817.369141,727.671881 817.369141,726.373047 C817.369141,725.611324 817.542479,724.91553 817.88916,724.285645 C818.235842,723.655759 818.689939,723.150393 819.251465,722.769531 C819.812991,722.38867 820.445309,722.100587 821.148438,721.905273 C821.666018,721.768554 822.44726,721.636719 823.492188,721.509766 C825.621104,721.255858 827.188472,720.953127 828.194336,720.601562 C828.204102,720.240233 828.208984,720.010743 828.208984,719.913086 C828.208984,718.838862 827.959963,718.082033 827.461914,717.642578 C826.788083,717.046872 825.787116,716.749023 824.458984,716.749023 C823.218744,716.749023 822.303226,716.966306 821.712402,717.400879 C821.121579,717.835451 820.684572,718.604487 820.401367,719.708008 L817.823242,719.356445 C818.057618,718.252924 818.443357,717.36182 818.980469,716.683105 C819.517581,716.004391 820.29394,715.481935 821.30957,715.115723 C822.3252,714.74951 823.501946,714.566406 824.839844,714.566406 C826.167975,714.566406 827.247066,714.722655 828.077148,715.035156 C828.907231,715.347658 829.517576,715.74072 829.908203,716.214355 C830.29883,716.687991 830.572265,717.286129 830.728516,718.008789 C830.816407,718.45801 830.860352,719.268549 830.860352,720.44043 L830.860352,723.956055 C830.860352,726.407239 830.916503,727.957516 831.028809,728.606934 C831.141114,729.256351 831.36328,729.878903 831.695312,730.474609 L828.941406,730.474609 C828.667967,729.927732 828.492188,729.28809 828.414062,728.555664 Z M828.194336,722.666992 C827.2373,723.057619 825.801767,723.389647 823.887695,723.663086 C822.803706,723.819337 822.037112,723.995116 821.587891,724.19043 C821.13867,724.385743 820.791993,724.671385 820.547852,725.047363 C820.30371,725.423342 820.181641,725.840818 820.181641,726.299805 C820.181641,727.002933 820.447751,727.588865 820.97998,728.057617 C821.51221,728.52637 822.29101,728.760742 823.316406,728.760742 C824.332036,728.760742 825.235348,728.538576 826.026367,728.094238 C826.817387,727.6499 827.398436,727.041996 827.769531,726.270508 C828.052736,725.674802 828.194336,724.795904 828.194336,723.633789 L828.194336,722.666992 Z M834.947266,730.474609 L834.947266,714.917969 L837.305664,714.917969 L837.305664,717.100586 C837.793948,716.338863 838.443355,715.726077 839.253906,715.262207 C840.064457,714.798338 840.9873,714.566406 842.022461,714.566406 C843.17481,714.566406 844.119625,714.805662 844.856934,715.28418 C845.594242,715.762698 846.114256,716.431636 846.416992,717.291016 C847.647467,715.4746 849.249014,714.566406 851.22168,714.566406 C852.764656,714.566406 853.951168,714.993648 854.78125,715.848145 C855.611332,716.702641 856.026367,718.018546 856.026367,719.795898 L856.026367,730.474609 L853.404297,730.474609 L853.404297,720.674805 C853.404297,719.620112 853.318849,718.860842 853.147949,718.396973 C852.97705,717.933103 852.666994,717.559572 852.217773,717.276367 C851.768552,716.993163 851.241214,716.851562 850.635742,716.851562 C849.541987,716.851562 848.633793,717.215328 847.911133,717.942871 C847.188473,718.670414 846.827148,719.834953 846.827148,721.436523 L846.827148,730.474609 L844.19043,730.474609 L844.19043,720.367188 C844.19043,719.195307 843.975588,718.316409 843.545898,717.730469 C843.116209,717.144528 842.413091,716.851562 841.436523,716.851562 C840.694332,716.851562 840.008304,717.046873 839.378418,717.4375 C838.748532,717.828127 838.291994,718.39941 838.008789,719.151367 C837.725585,719.903324 837.583984,720.987298 837.583984,722.40332 L837.583984,730.474609 L834.947266,730.474609 Z M862.369141,730.474609 L859.922852,730.474609 L859.922852,709 L862.55957,709 L862.55957,716.661133 C863.672857,715.264641 865.093741,714.566406 866.822266,714.566406 C867.779302,714.566406 868.685054,714.759275 869.539551,715.14502 C870.394047,715.530764 871.097165,716.07275 871.648926,716.770996 C872.200686,717.469242 872.632811,718.311519 872.945312,719.297852 C873.257814,720.284185 873.414062,721.338862 873.414062,722.461914 C873.414062,725.127943 872.754889,727.188469 871.436523,728.643555 C870.118157,730.09864 868.536142,730.826172 866.69043,730.826172 C864.854483,730.826172 863.414068,730.059578 862.369141,728.526367 L862.369141,730.474609 Z M862.339844,722.579102 C862.339844,724.444345 862.593747,725.791988 863.101562,726.62207 C863.931645,727.979499 865.05468,728.658203 866.470703,728.658203 C867.623053,728.658203 868.619136,728.15772 869.458984,727.156738 C870.298832,726.155757 870.71875,724.664072 870.71875,722.681641 C870.71875,720.65038 870.315922,719.151372 869.510254,718.18457 C868.704586,717.217769 867.730474,716.734375 866.587891,716.734375 C865.435541,716.734375 864.439457,717.234858 863.599609,718.23584 C862.759761,719.236821 862.339844,720.684561 862.339844,722.579102 Z M887.271484,725.464844 L889.996094,725.801758 C889.566404,727.393563 888.770514,728.628902 887.608398,729.507812 C886.446283,730.386723 884.961923,730.826172 883.155273,730.826172 C880.879871,730.826172 879.07569,730.125495 877.742676,728.724121 C876.409661,727.322747 875.743164,725.357435 875.743164,722.828125 C875.743164,720.210924 876.416985,718.179695 877.764648,716.734375 C879.112311,715.289055 880.860341,714.566406 883.008789,714.566406 C885.088878,714.566406 886.788079,715.274407 888.106445,716.69043 C889.424811,718.106452 890.083984,720.09862 890.083984,722.666992 C890.083984,722.823243 890.079102,723.057616 890.069336,723.370117 L878.467773,723.370117 C878.56543,725.07911 879.048824,726.387691 879.917969,727.295898 C880.787114,728.204106 881.871087,728.658203 883.169922,728.658203 C884.136724,728.658203 884.961911,728.404299 885.645508,727.896484 C886.329105,727.388669 886.871092,726.578131 887.271484,725.464844 Z M878.614258,721.202148 L887.300781,721.202148 C887.183593,719.893548 886.851565,718.912113 886.304688,718.257812 C885.46484,717.242182 884.375983,716.734375 883.038086,716.734375 C881.827142,716.734375 880.809086,717.139644 879.983887,717.950195 C879.158687,718.760746 878.702149,719.84472 878.614258,721.202148 Z M892.823242,731.763672 L895.386719,732.144531 C895.494141,732.935551 895.79199,733.511717 896.280273,733.873047 C896.934574,734.361331 897.828119,734.605469 898.960938,734.605469 C900.181647,734.605469 901.12402,734.361331 901.788086,733.873047 C902.452152,733.384763 902.901366,732.701176 903.135742,731.822266 C903.272462,731.285154 903.335938,730.157235 903.326172,728.438477 C902.173822,729.795905 900.73829,730.474609 899.019531,730.474609 C896.880849,730.474609 895.225592,729.703133 894.053711,728.160156 C892.88183,726.61718 892.295898,724.766612 892.295898,722.608398 C892.295898,721.124016 892.56445,719.754401 893.101562,718.499512 C893.638675,717.244623 894.417475,716.275394 895.437988,715.591797 C896.458501,714.9082 897.65722,714.566406 899.03418,714.566406 C900.870126,714.566406 902.383783,715.308586 903.575195,716.792969 L903.575195,714.917969 L906.006836,714.917969 L906.006836,728.365234 C906.006836,730.787121 905.760256,732.503413 905.26709,733.51416 C904.773923,734.524907 903.992681,735.323239 902.92334,735.90918 C901.853999,736.49512 900.538094,736.788086 898.975586,736.788086 C897.120108,736.788086 895.621099,736.37061 894.478516,735.535645 C893.335932,734.700679 892.784179,733.443368 892.823242,731.763672 Z M895.005859,722.417969 C895.005859,724.458995 895.411129,725.948238 896.22168,726.885742 C897.032231,727.823247 898.047845,728.291992 899.268555,728.291992 C900.479498,728.291992 901.495113,727.825688 902.31543,726.893066 C903.135746,725.960445 903.545898,724.498057 903.545898,722.505859 C903.545898,720.601553 903.123539,719.16602 902.278809,718.199219 C901.434078,717.232417 900.416022,716.749023 899.224609,716.749023 C898.052729,716.749023 897.056645,717.225093 896.236328,718.177246 C895.416012,719.129399 895.005859,720.542959 895.005859,722.417969 Z M909.009766,722.696289 C909.009766,719.815415 909.810539,717.681648 911.412109,716.294922 C912.750007,715.142572 914.38085,714.566406 916.304688,714.566406 C918.44337,714.566406 920.191399,715.267083 921.548828,716.668457 C922.906257,718.069831 923.584961,720.005847 923.584961,722.476562 C923.584961,724.478526 923.284671,726.053217 922.684082,727.200684 C922.083493,728.34815 921.209478,729.239255 920.062012,729.874023 C918.914545,730.508792 917.662116,730.826172 916.304688,730.826172 C914.126942,730.826172 912.366706,730.127937 911.023926,728.731445 C909.681146,727.334954 909.009766,725.323255 909.009766,722.696289 Z M911.719727,722.696289 C911.719727,724.688487 912.154293,726.180171 913.023438,727.171387 C913.892582,728.162603 914.986322,728.658203 916.304688,728.658203 C917.613288,728.658203 918.702144,728.160161 919.571289,727.164062 C920.440434,726.167964 920.875,724.649424 920.875,722.608398 C920.875,720.684561 920.437993,719.227056 919.563965,718.23584 C918.689937,717.244624 917.603522,716.749023 916.304688,716.749023 C914.986322,716.749023 913.892582,717.242183 913.023438,718.228516 C912.154293,719.214849 911.719727,720.704092 911.719727,722.696289 Z M927.422852,730.474609 L927.422852,727.47168 L930.425781,727.47168 L930.425781,730.474609 L927.422852,730.474609 Z M937.442383,730.474609 L934.996094,730.474609 L934.996094,709 L937.632812,709 L937.632812,716.661133 C938.746099,715.264641 940.166984,714.566406 941.895508,714.566406 C942.852544,714.566406 943.758297,714.759275 944.612793,715.14502 C945.467289,715.530764 946.170407,716.07275 946.722168,716.770996 C947.273929,717.469242 947.706053,718.311519 948.018555,719.297852 C948.331056,720.284185 948.487305,721.338862 948.487305,722.461914 C948.487305,725.127943 947.828132,727.188469 946.509766,728.643555 C945.1914,730.09864 943.609384,730.826172 941.763672,730.826172 C939.927725,730.826172 938.48731,730.059578 937.442383,728.526367 L937.442383,730.474609 Z M937.413086,722.579102 C937.413086,724.444345 937.66699,725.791988 938.174805,726.62207 C939.004887,727.979499 940.127923,728.658203 941.543945,728.658203 C942.696295,728.658203 943.692379,728.15772 944.532227,727.156738 C945.372075,726.155757 945.791992,724.664072 945.791992,722.681641 C945.791992,720.65038 945.389164,719.151372 944.583496,718.18457 C943.777828,717.217769 942.803717,716.734375 941.661133,716.734375 C940.508783,716.734375 939.5127,717.234858 938.672852,718.23584 C937.833004,719.236821 937.413086,720.684561 937.413086,722.579102 Z M962.344727,725.464844 L965.069336,725.801758 C964.639646,727.393563 963.843756,728.628902 962.681641,729.507812 C961.519525,730.386723 960.035165,730.826172 958.228516,730.826172 C955.953114,730.826172 954.148932,730.125495 952.815918,728.724121 C951.482903,727.322747 950.816406,725.357435 950.816406,722.828125 C950.816406,720.210924 951.490228,718.179695 952.837891,716.734375 C954.185554,715.289055 955.933583,714.566406 958.082031,714.566406 C960.16212,714.566406 961.861322,715.274407 963.179688,716.69043 C964.498053,718.106452 965.157227,720.09862 965.157227,722.666992 C965.157227,722.823243 965.152344,723.057616 965.142578,723.370117 L953.541016,723.370117 C953.638672,725.07911 954.122066,726.387691 954.991211,727.295898 C955.860356,728.204106 956.944329,728.658203 958.243164,728.658203 C959.209966,728.658203 960.035153,728.404299 960.71875,727.896484 C961.402347,727.388669 961.944334,726.578131 962.344727,725.464844 Z M953.6875,721.202148 L962.374023,721.202148 C962.256835,719.893548 961.924807,718.912113 961.37793,718.257812 C960.538082,717.242182 959.449225,716.734375 958.111328,716.734375 C956.900385,716.734375 955.882328,717.139644 955.057129,717.950195 C954.231929,718.760746 953.775391,719.84472 953.6875,721.202148 Z" id="api.sambego.be" fill="#000000"></path>
    </g>
</svg>