<?xml version="1.0" encoding="UTF-8"?>
<svg width="307px" height="222px" viewBox="0 0 307 222" version="1.1" xmlns="http://www.w3.org/2000/svg" xmlns:xlink="http://www.w3.org/1999/xlink">
    <!-- Generator: Sketch 52.4 (67378) - http://www.bohemiancoding.com/sketch -->
    <title>payload</title>
    <desc>Created with Sketch.</desc>
    <defs>
        <rect id="path-1" x="0" y="0" width="129" height="129" rx="5"></rect>
    </defs>
    <g id="Page-1" stroke="none" stroke-width="1" fill="none" fill-rule="evenodd">
        <rect id="Rectangle-6" stroke="#979797" stroke-width="2" fill="#FFFFFF" x="1" y="1" width="305" height="220" rx="5"></rect>
        <text id="NAME-Sam-SURNAME-Bel" font-family="Helvetica" font-size="14" font-weight="normal" fill="#000000">
            <tspan x="165" y="27">NAME</tspan>
            <tspan x="165" y="44">Sam </tspan>
            <tspan x="165" y="61"></tspan>
            <tspan x="165" y="78">SURNAME</tspan>
            <tspan x="165" y="95">Bellen</tspan>
            <tspan x="165" y="112"></tspan>
            <tspan x="165" y="129">NATIONALITY</tspan>
            <tspan x="165" y="146">Belgian</tspan>
            <tspan x="165" y="163"></tspan>
            <tspan x="165" y="180">PASSPORT NR.</tspan>
            <tspan x="165" y="197">abcd1234</tspan>
        </text>
        <g id="Me" transform="translate(13.000000, 13.000000)">
            <mask id="mask-2" fill="white">
                <use xlink:href="#path-1"></use>
            </mask>
            <use id="Mask" fill="#D8D8D8" xlink:href="#path-1"></use>
            <g mask="url(#mask-2)">
                <g transform="translate(15.000000, 13.000000)">
                    <g>
                        <g id="Body" transform="translate(1.424460, 4.979381)" fill="#FCE4DB" stroke="#241808" stroke-width="2">
                            <path d="M0.20816511,132.57603 C0.20816511,132.57603 -0.258611402,70.0756078 9.3249003,31.9108187 C15.6859165,6.57909817 32.1125085,-1.44629915 50.8281339,0.706489751 C65.0379487,2.34099197 79.3956733,13.9251195 83.4566821,28.7151258 C87.5176908,43.5051322 93.0601113,132.576031 93.0601113,132.576031 L0.20816511,132.57603 Z"></path>
                        </g>
                        <g id="Face">
                            <g id="Sweater" transform="translate(1.424460, 89.628866)" stroke-width="2">
                                <path d="M0.345183842,46.8711582 L1.77538449,0.48690501 C1.77538449,0.48690501 38.3478235,19.7268526 89.3951974,0.486905011 C90.1947678,0.185543915 90.4288953,6.22966295 90.4288953,6.22966295 L93.3371199,47.5847329 L0.345183842,46.8711582 Z" id="Path-67" stroke="#241808" fill="#000000" stroke-linecap="round" stroke-linejoin="round"></path>
                                <path d="M1.42446043,7.11340206 C1.42446043,7.11340206 39.3611855,25.4601661 90.0437289,6.1196355" id="Path-66" stroke="#241808"></path>
                                <g id="Fibers-dark" opacity="0.46020154" transform="translate(6.410072, 14.226804)" stroke-linecap="round">
                                    <path d="M0.335555444,0.499912815 L0.268750303,2.41140896" id="Path-65" stroke="#241808" stroke-linejoin="round"></path>
                                    <path d="M4.73753705,4.01193451 L4.80633044,5.73041442" id="Path-68" stroke="#241808" stroke-linejoin="round"></path>
                                    <polyline id="Path-69" stroke="#241808" stroke-linejoin="round" points="2.3047165 22.3846175 2.3047165 22.079207 2.3047165 22.0458462"></polyline>
                                    <path d="M8.82458013,30.1898603 L8.72437242,28.3450858" id="Path-70" stroke="#241808" stroke-linejoin="round"></path>
                                    <path d="M11.7966136,13.2600332 L11.9616382,11.40811" id="Path-71" stroke="#241808" stroke-linejoin="round"></path>
                                    <path d="M15.0708608,23.1471507 L15.0040557,22.164992" id="Path-72" stroke="#241808" stroke-linejoin="round"></path>
                                    <path d="M23.2978344,20.048565 L22.8985941,18.3690061" id="Path-73" stroke="#241808" stroke-linejoin="round"></path>
                                    <polyline id="Path-74" stroke="#241808" stroke-linejoin="round" points="22.0162096 8.51802951 22.0162096 8.1911728 22.0162096 8.15781197 22.0162096 8.08592732 22.0162096 8.05256649 22.0162096 7.98068185 22.0162096 7.94732102 22.0162096 7.87543637 22.0162096 7.80355173 22.0162096 7.73683006 22.0162096 7.66494542 22.0162096 7.52117613 22.0162096 7.4878153 22.0162096 7.38256982 22.0162096 7.34920899 22.0162096 7.31584816 22.0162096 7.28248733 22.0162096 7.2491265 22.0162096 7.21576567 22.0162096 7.18240484 22.0162096 7.11568318 22.0162096 7.08232235 22.0162096 7.01560069 22.0162096 6.98223986 22.0162096 6.94887903 22.0162096 6.9155182 22.0162096 6.88215737 22.0162096 6.84879654 22.0162096 6.81543571 22.0162096 6.78207487 22.0162096 6.74871404 22.0162096 6.71535321 22.0162096 6.68199238 22.0162096 6.64863155 22.0162096 6.68159523"></polyline>
                                    <path d="M33.0322977,7.91674026 L32.8986875,6.84561931" id="Path-75" stroke="#241808" stroke-linejoin="round"></path>
                                    <path d="M44.5736811,7.19233366 L44.639691,6.82536452" id="Path-76" stroke="#241808" stroke-linejoin="round"></path>
                                    <path d="M55.0911167,10.0303871 L55.0577141,8.38816056" id="Path-77" stroke="#241808" stroke-linejoin="round"></path>
                                    <path d="M60.9111169,18.4678971 L60.8443118,16.6429803" id="Path-78" stroke="#241808" stroke-linejoin="round"></path>
                                    <path d="M56.3775133,28.423722 C56.2995739,27.9223829 56.2216346,27.4210438 56.1436953,26.9197046" id="Path-79" stroke="#241808" stroke-linejoin="round"></path>
                                    <path d="M67.4277993,28.3379371 L67.2552194,26.3037207" id="Path-80" stroke="#241808" stroke-linejoin="round"></path>
                                    <path d="M70.925128,15.1278426 C70.6116475,14.7325432 70.2981671,14.3372439 69.9846866,13.9419445" id="Path-81" stroke="#241808" stroke-linejoin="round"></path>
                                    <path d="M66.8142259,8.51445513 L66.4416282,6.32534922" id="Path-82" stroke="#241808" stroke-linejoin="round"></path>
                                    <path d="M76.1482561,6.83251327 L75.5871725,4.56119675" id="Path-83" stroke="#241808" stroke-linejoin="round"></path>
                                    <path d="M80.255977,15.3371421 L79.2725894,13.5070622" id="Path-84" stroke="#241808" stroke-linejoin="round"></path>
                                    <path d="M79.8805957,26.2242902 L79.1214825,24.5633974" id="Path-85" stroke="#241808" stroke-linejoin="round"></path>
                                    <path d="M75.0217147,29.1997585 C74.8092372,28.5128166 74.5967598,27.8258748 74.3842823,27.1389329" id="Path-86" stroke="#241808" stroke-linejoin="round"></path>
                                    <path d="" id="Path-87" stroke="#979797" stroke-linejoin="round"></path>
                                    <path d="M26.4075438,26.2642014 L27.8273154,29.7778737" id="Path-104" stroke="#241808"></path>
                                    <path d="M49.9620679,29.3177364 C50.4037746,28.2281373 50.8454814,27.1385382 51.2871881,26.0489391" id="Path-105" stroke="#241808"></path>
                                    <polyline id="Path-106" stroke="#241808" points="39.6758511 29.745983 39.6758511 30.6913147 39.6758511 30.7858478 39.6758511 30.880381 39.6758511 30.9749142"></polyline>
                                </g>
                                <g id="Fibers-light" opacity="0.25928442" transform="translate(4.985612, 13.515464)" stroke="#FFFDFD" stroke-linecap="round">
                                    <path d="M14.6442621,6.63199079 L14.5078683,4.85115789" id="Path-88" stroke-linejoin="round"></path>
                                    <path d="M7.67664499,12.9439393 L7.23724213,11.346591" id="Path-89" stroke-linejoin="round"></path>
                                    <path d="M8.65128427,21.6177552 L8.44569941,19.2944116" id="Path-90" stroke-linejoin="round"></path>
                                    <path d="M2.66466882,29.4440471 C2.58672949,28.9555492 2.50879016,28.4670513 2.43085083,27.9785535" id="Path-91" stroke-linejoin="round"></path>
                                    <path d="M21.6500536,30.6819722 L21.3331268,29.0468943" id="Path-92" stroke-linejoin="round"></path>
                                    <path d="M20.1397803,15.7267886 L19.834783,13.8069522" id="Path-93" stroke-linejoin="round"></path>
                                    <polyline id="Path-94" stroke-linejoin="round" points="28.1834373 14.1290431 28.1834373 13.7410249 28.1834373 13.6246591 28.1834373 13.3919276 28.1834373 13.2755618 28.1834373 13.2036772 28.1834373 13.1317925 28.1834373 13.0984317 28.1834373 12.9931862 28.1834373 12.9213016 28.1834373 12.8545799 28.1834373 12.7878583 28.1834373 12.7544974 28.1834373 12.7211366 28.1834373 12.6877758 28.1834373 12.654415 28.1834373 12.6210541 28.1834373 12.5876933 28.1834373 12.5543325 28.1834373 12.5209716 28.1834373 12.5539353 28.1834373 12.586899 28.1834373 12.6198627"></polyline>
                                    <path d="M56.1020215,20.0466189 L55.7854923,17.9611699" id="Path-95" stroke-linejoin="round"></path>
                                    <polyline id="Path-96" stroke-linejoin="round" points="63.7730808 26.1921604 63.7730808 25.4113582 63.7730808 25.3394735 63.7730808 25.2231078 63.7730808 25.1512231 63.7730808 25.0348574 63.7730808 25.0014965 63.7730808 24.8851308 63.7730808 24.7798853 63.7730808 24.6635195 63.7730808 24.6301587 63.7730808 24.5967979 63.7730808 24.5249132 63.7730808 24.4915524 63.7730808 24.3863069 63.7730808 24.3529461 63.7730808 24.3195853 63.7730808 24.2862244 63.7730808 24.2528636 63.7730808 24.2195028 63.7730808 24.3354714"></polyline>
                                    <path d="M71.2811038,23.5304428 L70.981276,21.0267919" id="Path-97" stroke-linejoin="round"></path>
                                    <path d="M76.9635173,20.7348846 L76.8466083,18.8384803" id="Path-98" stroke-linejoin="round"></path>
                                    <path d="M66.2866243,15.0417001 L66.1812471,12.7000875" id="Path-99" stroke-linejoin="round"></path>
                                    <path d="M80.7288618,2.53853748 C80.6620567,1.81373373 80.5952515,1.08892998 80.5284464,0.364126224" id="Path-100" stroke-linejoin="round"></path>
                                    <polyline id="Path-101" stroke-linejoin="round" points="74.4758211 12.1210388 74.4758211 11.8104654 74.4758211 11.7771045 74.4758211 11.7437437 74.4758211 11.7103829 74.4758211 11.6770221 74.4758211 11.6436612 74.4758211 11.6103004 74.4758211 11.5435787 74.4758211 11.5102179 74.4758211 11.4768571 74.4758211 11.4434962 74.4758211 11.4101354 74.4758211 11.3767746 74.4758211 11.3434138 74.4758211 11.3100529 74.4758211 11.2766921 74.4758211 11.2433313 74.4758211 11.2099704 74.4758211 11.1766096 74.4758211 11.1432488 74.4758211 11.1098879 74.4758211 11.0431663 74.4758211 11.0098055 74.4758211 10.9764446 74.4758211 10.9430838 74.4758211 10.909723 74.4758211 10.8763621 74.4758211 10.8430013 74.4758211 10.8096405 74.4758211 10.7762796 74.4758211 10.7429188 74.4758211 10.709558 74.4758211 10.6761971 74.4758211 10.6428363 74.4758211 10.6094755 74.4758211 10.5761147 74.4758211 10.5427538 74.4758211 10.509393 74.4758211 10.4760322 74.4758211 10.4426713 74.4758211 10.4093105 74.4758211 10.3759497"></polyline>
                                    <path d="M82.461819,32.1260195 L82.3230393,29.5655758" id="Path-102" stroke-linejoin="round"></path>
                                    <polyline id="Path-103" points="0.702392487 13.0871392 0.702392487 14.0017191 0.702392487 14.0962523 0.702392487 14.301264 0.702392487 14.4903303 0.702392487 14.5848634 0.702392487 14.8844083 0.702392487 14.9789415 0.702392487 15.0734746 0.702392487 15.3730195 0.702392487 15.4675526 0.702392487 15.5620858 0.702392487 15.656619 0.702392487 15.7511521 0.702392487 16.0347516 0.702392487 16.1292848 0.702392487 16.2238179 0.702392487 16.4128843 0.702392487 16.6019506 0.702392487 16.6964837 0.702392487 16.7910169 0.702392487 16.8855501 0.702392487 16.9800832 0.702392487 17.0746164 0.702392487 17.1691496 0.702392487 17.2636827"></polyline>
                                </g>
                            </g>
                            <g id="Eyes" transform="translate(7.122302, 27.030928)" stroke="#241808">
                                <ellipse id="Oval" stroke-width="2" fill="#FFFFFF" cx="15.6690647" cy="17.7835052" rx="15.6690647" ry="15.6494845"></ellipse>
                                <ellipse id="Oval" stroke-width="2" fill="#FFFFFF" cx="66.2374101" cy="16.3411754" rx="15.6690647" ry="15.6494845"></ellipse>
                                <path d="M65.881295,20.628866 C67.6513875,20.628866 69.0863309,19.1957156 69.0863309,17.4278351 C69.0863309,15.6599545 67.6513875,14.2268041 65.881295,14.2268041 C64.1112025,14.2268041 62.676259,15.6599545 62.676259,17.4278351 C62.676259,19.1957156 64.1112025,20.628866 65.881295,20.628866 Z" id="Oval-2" fill="#241808"></path>
                                <path d="M16.0251799,21.3402062 C17.7952723,21.3402062 19.2302158,19.9070558 19.2302158,18.1391753 C19.2302158,16.3712947 17.7952723,14.9381443 16.0251799,14.9381443 C14.2550874,14.9381443 12.8201439,16.3712947 12.8201439,18.1391753 C12.8201439,19.9070558 14.2550874,21.3402062 16.0251799,21.3402062 Z" id="Oval-2" fill="#241808"></path>
                            </g>
                            <g id="Nose" transform="translate(35.611511, 60.463918)" fill="#241808">
                                <path d="M3.09053527,2.58036614 C0.521257335,-0.755747317 19.2338851,-0.478998925 21.7488879,1.28025232 C24.2638907,3.03950356 20.9729155,6.81598274 12.4749806,11.023456 C7.83151767,7.77534087 5.6598132,5.91647959 3.09053527,2.58036614 Z" id="Path-12"></path>
                            </g>
                            <path d="M28.5634261,82.4885664 C35.5141588,83.642261 42.1890971,83.7608263 48.0364823,83.642261 C61.8286619,83.3626019 74.1508937,80.1748734 74.1508937,80.1748734 C74.1508937,80.1748734 89.4609082,76.1958774 89.4609159,69.4612894 C89.4609205,65.3876961 96.2389362,78.401659 98.6070718,87.4857053 C98.866836,88.4821473 93.943832,86.1806898 94.2213613,87.142683 C95.596564,91.909516 93.0579254,98.1452998 91.1604795,100.763735 C89.2630335,103.38217 85.1399682,104.418908 81.3406078,104.917851 C77.5412474,105.416793 71.9520686,104.679275 68.6205018,104.917851 C65.0635954,105.172563 61.7789848,102.086245 60.4883609,102.086245 C55.6476048,102.086245 62.7434285,105.228294 57.9832474,105.339259 C50.8570757,105.505378 45.980241,101.844826 40.286258,102.086245 C36.286729,102.255821 47.0176544,107.286458 40.286258,106.670805 C33.5548616,106.055152 29.5598033,104.173889 27.1919692,104.418908 C20.5543156,105.105761 22.8744838,104.418908 18.1892796,104.418908 C13.5040754,104.418908 12.2376974,101.311974 5.65924635,97.0851008 C3.96165129,95.9943396 0.91484989,87.2818796 4.10234237,81.4975612 C4.89015624,80.0679213 -0.345366869,83.9143985 0.212020983,82.4885664 C2.76458355,75.9589555 5.65924639,66.0882989 5.65924639,66.0882989 C13.0598713,71.3020053 7.97860929,79.071863 28.5634261,82.4885664 Z" id="Path-111" stroke="#241808" stroke-width="2" fill="#9A8056"></path>
                            <path d="M39.8848921,89.628866 C39.8848921,89.628866 48.3814849,94.5111161 54.9585619,89.7494816" id="Mouth" stroke="#241808" stroke-width="2" stroke-linecap="round"></path>
                            <path d="M16.5428291,22.2166186 C16.5428291,22.2166186 25.2151843,9.61195837 52.959462,6.97331407" id="Path-113" stroke="#979797"></path>
                            <path d="M20.8828741,10.2344041 C33.2583367,2.37325143 18.8264328,16.7919752 18.8264328,16.7919752 C18.8264328,16.7919752 36.0144705,0.489257748 42.8021295,0.489257748 C49.5897885,0.489257748 40.0520449,5.07793754 40.0520449,5.07793754 C40.0520449,5.07793754 57.6594769,-0.271994824 71.4722178,4.13855384 C85.2849586,8.5491025 66.4167319,5.67180589 66.4167319,5.67180589 C66.4167319,5.67180589 64.7276023,3.89099583 75.9085504,9.7935937 C87.0894985,15.6961916 89.5275903,21.2915951 91.2054212,25.0240258 C94.5784209,32.5274563 80.0746559,19.9137224 80.5493058,22.2285806 C81.0239557,24.5434389 90.4189948,35.489891 86.5016164,33.4889862 C82.5842379,31.4880813 69.5316258,23.1177748 65.9123152,26.107472 C62.2930046,29.0971692 78.4085817,29.2389314 73.2928845,30.4932785 C70.536641,31.1690976 61.9588725,31.2997852 54.879455,28.6267784 C48.8191929,26.3385786 47.9714972,25.9048262 47.6046291,26.8842684 C46.8091967,29.0078658 49.0313663,27.16445 50.490514,30.4932785 C51.9496617,33.8221071 58.2152724,35.219321 49.3431966,35.219321 C40.4711207,35.219321 23.2640873,21.9622175 19.5497822,28.6267784 C15.8354771,35.2913393 11.5806033,32.8862448 11.5806033,32.8862448 C11.5806033,32.8862448 8.50741141,18.0955567 20.8828741,10.2344041 Z" id="Path-112" stroke="#241808" stroke-width="2" fill="#9A8056"></path>
                            <path d="M26.6345561,21.3447569 C26.6345561,21.3447569 31.0377996,11.2326988 55.7597266,9.9260043" id="Path-114" stroke="#000000" opacity="0.2"></path>
                            <path d="M42.1981782,22.4307408 C42.1981782,22.4307408 52.359172,13.1302326 71.3750222,16.0422128" id="Path-115" stroke="#000000" opacity="0.2"></path>
                            <path d="M35.768674,10.0522815 C35.768674,10.0522815 49.2686529,3.13205131 60.0607219,5.29876866" id="Path-116" stroke="#000000" opacity="0.2"></path>
                            <path d="M59.2075592,22.9567127 C59.2075592,22.9567127 66.3912765,16.2541388 78.1992241,23.0478519" id="Path-117" stroke="#000000" opacity="0.2"></path>
                        </g>
                    </g>
                </g>
            </g>
        </g>
        <text id="EXPIRY-DATE-15/11/20" font-family="Helvetica" font-size="14" font-weight="normal" fill="#000000">
            <tspan x="18" y="189">EXPIRY DATE</tspan>
            <tspan x="18" y="206">15/11/2018</tspan>
        </text>
    </g>
</svg>