<?xml version="1.0" encoding="UTF-8"?>
<svg width="1015px" height="1069px" viewBox="0 0 1015 1069" version="1.1" xmlns="http://www.w3.org/2000/svg" xmlns:xlink="http://www.w3.org/1999/xlink">
    <!-- Generator: Sketch 52.4 (67378) - http://www.bohemiancoding.com/sketch -->
    <title>Slice</title>
    <desc>Created with Sketch.</desc>
    <g id="Page-1" stroke="none" stroke-width="1" fill="none" fill-rule="evenodd">
        <g id="Browser" transform="translate(0.000000, 355.000000)">
            <rect id="Rectangle" fill="#FFFFFF" x="7.8" y="8.3" width="345" height="270"></rect>
            <path d="M352.8,285.8 L7.8,285.8 C3.65786438,285.8 0.3,282.442136 0.3,278.3 L0.3,8.3 C0.3,4.15786438 3.65786438,0.8 7.8,0.8 L352.8,0.8 C356.942136,0.8 360.3,4.15786438 360.3,8.3 L360.3,278.3 C360.3,282.442136 356.942136,285.8 352.8,285.8 Z M15.3,270.8 L345.3,270.8 L345.3,15.8 L15.3,15.8 L15.3,270.8 Z" id="Shape" fill="#000000" fill-rule="nonzero"></path>
            <path d="M352.8,60.8 L7.8,60.8 C3.65786438,60.8 0.3,57.4421356 0.3,53.3 C0.3,49.1578644 3.65786438,45.8 7.8,45.8 L352.8,45.8 C356.942136,45.8 360.3,49.1578644 360.3,53.3 C360.3,57.4421356 356.942136,60.8 352.8,60.8 Z" id="Path" fill="#000000"></path>
            <circle id="Oval" fill="#000000" cx="30.3" cy="30.8" r="7.5"></circle>
            <circle id="Oval" fill="#000000" cx="60.3" cy="30.8" r="7.5"></circle>
            <circle id="Oval" fill="#000000" cx="90.3" cy="30.8" r="7.5"></circle>
            <path d="M240.3,195.8 L120.3,195.8 C116.157864,195.8 112.8,192.442136 112.8,188.3 L112.8,158.3 C112.8,154.157864 116.157864,150.8 120.3,150.8 L240.3,150.8 C244.442136,150.8 247.8,154.157864 247.8,158.3 L247.8,188.3 C247.8,192.442136 244.442136,195.8 240.3,195.8 Z M127.8,180.8 L232.8,180.8 L232.8,165.8 L127.8,165.8 L127.8,180.8 Z" id="Shape" fill="#000000" fill-rule="nonzero"></path>
            <rect id="Rectangle" fill="#FAC863" x="15.45" y="60.8" width="329.85" height="37.8"></rect>
        </g>
        <g id="Server" transform="translate(704.000000, 369.000000)">
            <rect id="Rectangle" fill="#FAC863" x="68.3478261" y="79.0869565" width="177.913043" height="158.347826"></rect>
            <path d="M246.26087,243.826087 L68.3478261,243.826087 C64.745969,243.826087 61.826087,240.906205 61.826087,237.304348 L61.826087,79.0869565 C61.826087,75.4850995 64.745969,72.5652174 68.3478261,72.5652174 L246.26087,72.5652174 C249.862727,72.5652174 252.782609,75.4850995 252.782609,79.0869565 L252.782609,237.565217 C252.642514,241.064808 249.763262,243.82889 246.26087,243.826087 Z M74.8695652,230.782609 L239.73913,230.782609 L239.73913,85.6086957 L74.8695652,85.6086957 L74.8695652,230.782609 Z" id="Shape" fill="#000000" fill-rule="nonzero"></path>
            <rect id="Rectangle" fill="#FFFFFF" x="51.1304348" y="129.043478" width="212.217391" height="58.6956522"></rect>
            <path d="M263.347826,194.26087 L51.1304348,194.26087 C47.5577158,194.191477 44.6780883,191.311849 44.6086957,187.73913 L44.6086957,129.043478 C44.6086957,125.441621 47.5285777,122.521739 51.1304348,122.521739 L263.347826,122.521739 C266.949683,122.521739 269.869565,125.441621 269.869565,129.043478 L269.869565,187.73913 C269.869565,191.340987 266.949683,194.26087 263.347826,194.26087 Z M57.6521739,181.217391 L256.826087,181.217391 L256.826087,135.565217 L57.6521739,135.565217 L57.6521739,181.217391 Z" id="Shape" fill="#000000" fill-rule="nonzero"></path>
            <rect id="Rectangle" fill="#FFFFFF" x="51.1304348" y="38.6521739" width="212.217391" height="58.6956522"></rect>
            <path d="M263.347826,103.869565 L51.1304348,103.869565 C47.5577158,103.800173 44.6780883,100.920545 44.6086957,97.3478261 L44.6086957,38.6521739 C44.6086957,35.0503168 47.5285777,32.1304348 51.1304348,32.1304348 L263.347826,32.1304348 C266.949683,32.1304348 269.869565,35.0503168 269.869565,38.6521739 L269.869565,97.3478261 C269.869565,100.949683 266.949683,103.869565 263.347826,103.869565 Z M57.6521739,90.826087 L256.826087,90.826087 L256.826087,45.173913 L57.6521739,45.173913 L57.6521739,90.826087 Z" id="Shape" fill="#000000" fill-rule="nonzero"></path>
            <rect id="Rectangle" fill="#FFFFFF" x="51.1304348" y="219.304348" width="212.217391" height="58.6956522"></rect>
            <path d="M263.347826,284.521739 L51.1304348,284.521739 C47.5285777,284.521739 44.6086957,281.601857 44.6086957,278 L44.6086957,219.304348 C44.6780883,215.731629 47.5577158,212.852001 51.1304348,212.782609 L263.347826,212.782609 C266.949683,212.782609 269.869565,215.702491 269.869565,219.304348 L269.869565,278 C269.869565,281.601857 266.949683,284.521739 263.347826,284.521739 Z M57.6521739,271.478261 L256.826087,271.478261 L256.826087,225.826087 L57.6521739,225.826087 L57.6521739,271.478261 Z" id="Shape" fill="#000000" fill-rule="nonzero"></path>
            <path d="M45,259.347826 L7.17391304,259.347826 C3.6011941,259.278433 0.721566597,256.398806 0.652173913,252.826087 C0.652173913,249.22423 3.57205598,246.304348 7.17391304,246.304348 L45,246.304348 C48.6018571,246.304348 51.5217391,249.22423 51.5217391,252.826087 C51.4523464,256.398806 48.5727189,259.278433 45,259.347826 Z" id="Path" fill="#000000"></path>
            <path d="M304.043478,259.347826 L266.347826,259.347826 C262.745969,259.347826 259.826087,256.427944 259.826087,252.826087 C259.826087,249.22423 262.745969,246.304348 266.347826,246.304348 L304.043478,246.304348 C307.645335,246.304348 310.565217,249.22423 310.565217,252.826087 C310.565217,256.427944 307.645335,259.347826 304.043478,259.347826 Z" id="Path" fill="#000000"></path>
            <rect id="Rectangle" fill="#000000" x="31.826087" y="240.956522" width="16.4347826" height="23.3478261"></rect>
            <rect id="Rectangle" fill="#000000" x="266.347826" y="240.956522" width="16.4347826" height="23.3478261"></rect>
            <path d="M228.913043,163.217391 L154.173913,163.217391 C150.572056,163.217391 147.652174,160.297509 147.652174,156.695652 C147.652174,153.093795 150.572056,150.173913 154.173913,150.173913 L228.913043,150.173913 C232.514901,150.173913 235.434783,153.093795 235.434783,156.695652 C235.434783,160.297509 232.514901,163.217391 228.913043,163.217391 Z" id="Path" fill="#FAC863"></path>
            <path d="M231.391304,255.826087 L156.782609,255.826087 C153.180752,255.826087 150.26087,252.906205 150.26087,249.304348 C150.26087,245.702491 153.180752,242.782609 156.782609,242.782609 L231.391304,242.782609 C234.993161,242.782609 237.913043,245.702491 237.913043,249.304348 C237.913043,252.906205 234.993161,255.826087 231.391304,255.826087 Z" id="Path" fill="#FAC863"></path>
            <path d="M228.913043,74.2608696 L154.173913,74.2608696 C150.572056,74.2608696 147.652174,71.3409875 147.652174,67.7391304 C147.652174,64.1372734 150.572056,61.2173913 154.173913,61.2173913 L228.913043,61.2173913 C232.485762,61.286784 235.36539,64.1664115 235.434783,67.7391304 C235.434783,69.4688032 234.747673,71.1276331 233.524609,72.3506964 C232.301546,73.5737597 230.642716,74.2608696 228.913043,74.2608696 Z" id="Path" fill="#FAC863"></path>
            <circle id="Oval" fill="#000000" cx="121.826087" cy="68" r="8.08695652"></circle>
            <circle id="Oval" fill="#000000" cx="121.826087" cy="157.478261" r="8.08695652"></circle>
            <circle id="Oval" fill="#000000" cx="121.826087" cy="247.73913" r="8.08695652"></circle>
            <polygon id="Path" fill="#FFFFFF" points="236.869565 38.1304348 181.956522 38.1304348 194.347826 7.2173913 224.478261 7.2173913"></polygon>
            <path d="M236.869565,44.6521739 L181.956522,44.6521739 C179.769782,44.6542162 177.721701,43.5814118 176.478261,41.7826087 C175.503643,39.9013438 175.503643,37.6638736 176.478261,35.7826087 L188.869565,4.73913043 C189.875946,2.23209168 192.298567,0.582648061 195,0.565217391 L224.478261,0.565217391 C227.179694,0.582648061 229.602315,2.23209168 230.608696,4.73913043 L242.869565,35.7826087 C243.915165,37.6459489 243.915165,39.9192685 242.869565,41.7826087 C241.563972,43.78637 239.248927,44.8935652 236.869565,44.6521739 Z M191.608696,31.6086957 L227.217391,31.6086957 L220.043478,13.6086957 L198.652174,13.6086957 L191.608696,31.6086957 Z" id="Shape" fill="#000000" fill-rule="nonzero"></path>
        </g>
        <g id="Server" transform="translate(704.000000, 0.000000)">
            <rect id="Rectangle" fill="#FAC863" x="68.3478261" y="79.0869565" width="177.913043" height="158.347826"></rect>
            <path d="M246.26087,243.826087 L68.3478261,243.826087 C64.745969,243.826087 61.826087,240.906205 61.826087,237.304348 L61.826087,79.0869565 C61.826087,75.4850995 64.745969,72.5652174 68.3478261,72.5652174 L246.26087,72.5652174 C249.862727,72.5652174 252.782609,75.4850995 252.782609,79.0869565 L252.782609,237.565217 C252.642514,241.064808 249.763262,243.82889 246.26087,243.826087 Z M74.8695652,230.782609 L239.73913,230.782609 L239.73913,85.6086957 L74.8695652,85.6086957 L74.8695652,230.782609 Z" id="Shape" fill="#000000" fill-rule="nonzero"></path>
            <rect id="Rectangle" fill="#FFFFFF" x="51.1304348" y="129.043478" width="212.217391" height="58.6956522"></rect>
            <path d="M263.347826,194.26087 L51.1304348,194.26087 C47.5577158,194.191477 44.6780883,191.311849 44.6086957,187.73913 L44.6086957,129.043478 C44.6086957,125.441621 47.5285777,122.521739 51.1304348,122.521739 L263.347826,122.521739 C266.949683,122.521739 269.869565,125.441621 269.869565,129.043478 L269.869565,187.73913 C269.869565,191.340987 266.949683,194.26087 263.347826,194.26087 Z M57.6521739,181.217391 L256.826087,181.217391 L256.826087,135.565217 L57.6521739,135.565217 L57.6521739,181.217391 Z" id="Shape" fill="#000000" fill-rule="nonzero"></path>
            <rect id="Rectangle" fill="#FFFFFF" x="51.1304348" y="38.6521739" width="212.217391" height="58.6956522"></rect>
            <path d="M263.347826,103.869565 L51.1304348,103.869565 C47.5577158,103.800173 44.6780883,100.920545 44.6086957,97.3478261 L44.6086957,38.6521739 C44.6086957,35.0503168 47.5285777,32.1304348 51.1304348,32.1304348 L263.347826,32.1304348 C266.949683,32.1304348 269.869565,35.0503168 269.869565,38.6521739 L269.869565,97.3478261 C269.869565,100.949683 266.949683,103.869565 263.347826,103.869565 Z M57.6521739,90.826087 L256.826087,90.826087 L256.826087,45.173913 L57.6521739,45.173913 L57.6521739,90.826087 Z" id="Shape" fill="#000000" fill-rule="nonzero"></path>
            <rect id="Rectangle" fill="#FFFFFF" x="51.1304348" y="219.304348" width="212.217391" height="58.6956522"></rect>
            <path d="M263.347826,284.521739 L51.1304348,284.521739 C47.5285777,284.521739 44.6086957,281.601857 44.6086957,278 L44.6086957,219.304348 C44.6780883,215.731629 47.5577158,212.852001 51.1304348,212.782609 L263.347826,212.782609 C266.949683,212.782609 269.869565,215.702491 269.869565,219.304348 L269.869565,278 C269.869565,281.601857 266.949683,284.521739 263.347826,284.521739 Z M57.6521739,271.478261 L256.826087,271.478261 L256.826087,225.826087 L57.6521739,225.826087 L57.6521739,271.478261 Z" id="Shape" fill="#000000" fill-rule="nonzero"></path>
            <path d="M45,259.347826 L7.17391304,259.347826 C3.6011941,259.278433 0.721566597,256.398806 0.652173913,252.826087 C0.652173913,249.22423 3.57205598,246.304348 7.17391304,246.304348 L45,246.304348 C48.6018571,246.304348 51.5217391,249.22423 51.5217391,252.826087 C51.4523464,256.398806 48.5727189,259.278433 45,259.347826 Z" id="Path" fill="#000000"></path>
            <path d="M304.043478,259.347826 L266.347826,259.347826 C262.745969,259.347826 259.826087,256.427944 259.826087,252.826087 C259.826087,249.22423 262.745969,246.304348 266.347826,246.304348 L304.043478,246.304348 C307.645335,246.304348 310.565217,249.22423 310.565217,252.826087 C310.565217,256.427944 307.645335,259.347826 304.043478,259.347826 Z" id="Path" fill="#000000"></path>
            <rect id="Rectangle" fill="#000000" x="31.826087" y="240.956522" width="16.4347826" height="23.3478261"></rect>
            <rect id="Rectangle" fill="#000000" x="266.347826" y="240.956522" width="16.4347826" height="23.3478261"></rect>
            <path d="M228.913043,163.217391 L154.173913,163.217391 C150.572056,163.217391 147.652174,160.297509 147.652174,156.695652 C147.652174,153.093795 150.572056,150.173913 154.173913,150.173913 L228.913043,150.173913 C232.514901,150.173913 235.434783,153.093795 235.434783,156.695652 C235.434783,160.297509 232.514901,163.217391 228.913043,163.217391 Z" id="Path" fill="#FAC863"></path>
            <path d="M231.391304,255.826087 L156.782609,255.826087 C153.180752,255.826087 150.26087,252.906205 150.26087,249.304348 C150.26087,245.702491 153.180752,242.782609 156.782609,242.782609 L231.391304,242.782609 C234.993161,242.782609 237.913043,245.702491 237.913043,249.304348 C237.913043,252.906205 234.993161,255.826087 231.391304,255.826087 Z" id="Path" fill="#FAC863"></path>
            <path d="M228.913043,74.2608696 L154.173913,74.2608696 C150.572056,74.2608696 147.652174,71.3409875 147.652174,67.7391304 C147.652174,64.1372734 150.572056,61.2173913 154.173913,61.2173913 L228.913043,61.2173913 C232.485762,61.286784 235.36539,64.1664115 235.434783,67.7391304 C235.434783,69.4688032 234.747673,71.1276331 233.524609,72.3506964 C232.301546,73.5737597 230.642716,74.2608696 228.913043,74.2608696 Z" id="Path" fill="#FAC863"></path>
            <circle id="Oval" fill="#000000" cx="121.826087" cy="68" r="8.08695652"></circle>
            <circle id="Oval" fill="#000000" cx="121.826087" cy="157.478261" r="8.08695652"></circle>
            <circle id="Oval" fill="#000000" cx="121.826087" cy="247.73913" r="8.08695652"></circle>
            <polygon id="Path" fill="#FFFFFF" points="236.869565 38.1304348 181.956522 38.1304348 194.347826 7.2173913 224.478261 7.2173913"></polygon>
            <path d="M236.869565,44.6521739 L181.956522,44.6521739 C179.769782,44.6542162 177.721701,43.5814118 176.478261,41.7826087 C175.503643,39.9013438 175.503643,37.6638736 176.478261,35.7826087 L188.869565,4.73913043 C189.875946,2.23209168 192.298567,0.582648061 195,0.565217391 L224.478261,0.565217391 C227.179694,0.582648061 229.602315,2.23209168 230.608696,4.73913043 L242.869565,35.7826087 C243.915165,37.6459489 243.915165,39.9192685 242.869565,41.7826087 C241.563972,43.78637 239.248927,44.8935652 236.869565,44.6521739 Z M191.608696,31.6086957 L227.217391,31.6086957 L220.043478,13.6086957 L198.652174,13.6086957 L191.608696,31.6086957 Z" id="Shape" fill="#000000" fill-rule="nonzero"></path>
        </g>
        <g id="Server" transform="translate(704.000000, 739.000000)">
            <rect id="Rectangle" fill="#FAC863" x="68.3478261" y="79.0869565" width="177.913043" height="158.347826"></rect>
            <path d="M246.26087,243.826087 L68.3478261,243.826087 C64.745969,243.826087 61.826087,240.906205 61.826087,237.304348 L61.826087,79.0869565 C61.826087,75.4850995 64.745969,72.5652174 68.3478261,72.5652174 L246.26087,72.5652174 C249.862727,72.5652174 252.782609,75.4850995 252.782609,79.0869565 L252.782609,237.565217 C252.642514,241.064808 249.763262,243.82889 246.26087,243.826087 Z M74.8695652,230.782609 L239.73913,230.782609 L239.73913,85.6086957 L74.8695652,85.6086957 L74.8695652,230.782609 Z" id="Shape" fill="#000000" fill-rule="nonzero"></path>
            <rect id="Rectangle" fill="#FFFFFF" x="51.1304348" y="129.043478" width="212.217391" height="58.6956522"></rect>
            <path d="M263.347826,194.26087 L51.1304348,194.26087 C47.5577158,194.191477 44.6780883,191.311849 44.6086957,187.73913 L44.6086957,129.043478 C44.6086957,125.441621 47.5285777,122.521739 51.1304348,122.521739 L263.347826,122.521739 C266.949683,122.521739 269.869565,125.441621 269.869565,129.043478 L269.869565,187.73913 C269.869565,191.340987 266.949683,194.26087 263.347826,194.26087 Z M57.6521739,181.217391 L256.826087,181.217391 L256.826087,135.565217 L57.6521739,135.565217 L57.6521739,181.217391 Z" id="Shape" fill="#000000" fill-rule="nonzero"></path>
            <rect id="Rectangle" fill="#FFFFFF" x="51.1304348" y="38.6521739" width="212.217391" height="58.6956522"></rect>
            <path d="M263.347826,103.869565 L51.1304348,103.869565 C47.5577158,103.800173 44.6780883,100.920545 44.6086957,97.3478261 L44.6086957,38.6521739 C44.6086957,35.0503168 47.5285777,32.1304348 51.1304348,32.1304348 L263.347826,32.1304348 C266.949683,32.1304348 269.869565,35.0503168 269.869565,38.6521739 L269.869565,97.3478261 C269.869565,100.949683 266.949683,103.869565 263.347826,103.869565 Z M57.6521739,90.826087 L256.826087,90.826087 L256.826087,45.173913 L57.6521739,45.173913 L57.6521739,90.826087 Z" id="Shape" fill="#000000" fill-rule="nonzero"></path>
            <rect id="Rectangle" fill="#FFFFFF" x="51.1304348" y="219.304348" width="212.217391" height="58.6956522"></rect>
            <path d="M263.347826,284.521739 L51.1304348,284.521739 C47.5285777,284.521739 44.6086957,281.601857 44.6086957,278 L44.6086957,219.304348 C44.6780883,215.731629 47.5577158,212.852001 51.1304348,212.782609 L263.347826,212.782609 C266.949683,212.782609 269.869565,215.702491 269.869565,219.304348 L269.869565,278 C269.869565,281.601857 266.949683,284.521739 263.347826,284.521739 Z M57.6521739,271.478261 L256.826087,271.478261 L256.826087,225.826087 L57.6521739,225.826087 L57.6521739,271.478261 Z" id="Shape" fill="#000000" fill-rule="nonzero"></path>
            <path d="M45,259.347826 L7.17391304,259.347826 C3.6011941,259.278433 0.721566597,256.398806 0.652173913,252.826087 C0.652173913,249.22423 3.57205598,246.304348 7.17391304,246.304348 L45,246.304348 C48.6018571,246.304348 51.5217391,249.22423 51.5217391,252.826087 C51.4523464,256.398806 48.5727189,259.278433 45,259.347826 Z" id="Path" fill="#000000"></path>
            <path d="M304.043478,259.347826 L266.347826,259.347826 C262.745969,259.347826 259.826087,256.427944 259.826087,252.826087 C259.826087,249.22423 262.745969,246.304348 266.347826,246.304348 L304.043478,246.304348 C307.645335,246.304348 310.565217,249.22423 310.565217,252.826087 C310.565217,256.427944 307.645335,259.347826 304.043478,259.347826 Z" id="Path" fill="#000000"></path>
            <rect id="Rectangle" fill="#000000" x="31.826087" y="240.956522" width="16.4347826" height="23.3478261"></rect>
            <rect id="Rectangle" fill="#000000" x="266.347826" y="240.956522" width="16.4347826" height="23.3478261"></rect>
            <path d="M228.913043,163.217391 L154.173913,163.217391 C150.572056,163.217391 147.652174,160.297509 147.652174,156.695652 C147.652174,153.093795 150.572056,150.173913 154.173913,150.173913 L228.913043,150.173913 C232.514901,150.173913 235.434783,153.093795 235.434783,156.695652 C235.434783,160.297509 232.514901,163.217391 228.913043,163.217391 Z" id="Path" fill="#FAC863"></path>
            <path d="M231.391304,255.826087 L156.782609,255.826087 C153.180752,255.826087 150.26087,252.906205 150.26087,249.304348 C150.26087,245.702491 153.180752,242.782609 156.782609,242.782609 L231.391304,242.782609 C234.993161,242.782609 237.913043,245.702491 237.913043,249.304348 C237.913043,252.906205 234.993161,255.826087 231.391304,255.826087 Z" id="Path" fill="#FAC863"></path>
            <path d="M228.913043,74.2608696 L154.173913,74.2608696 C150.572056,74.2608696 147.652174,71.3409875 147.652174,67.7391304 C147.652174,64.1372734 150.572056,61.2173913 154.173913,61.2173913 L228.913043,61.2173913 C232.485762,61.286784 235.36539,64.1664115 235.434783,67.7391304 C235.434783,69.4688032 234.747673,71.1276331 233.524609,72.3506964 C232.301546,73.5737597 230.642716,74.2608696 228.913043,74.2608696 Z" id="Path" fill="#FAC863"></path>
            <circle id="Oval" fill="#000000" cx="121.826087" cy="68" r="8.08695652"></circle>
            <circle id="Oval" fill="#000000" cx="121.826087" cy="157.478261" r="8.08695652"></circle>
            <circle id="Oval" fill="#000000" cx="121.826087" cy="247.73913" r="8.08695652"></circle>
            <polygon id="Path" fill="#FFFFFF" points="236.869565 38.1304348 181.956522 38.1304348 194.347826 7.2173913 224.478261 7.2173913"></polygon>
            <path d="M236.869565,44.6521739 L181.956522,44.6521739 C179.769782,44.6542162 177.721701,43.5814118 176.478261,41.7826087 C175.503643,39.9013438 175.503643,37.6638736 176.478261,35.7826087 L188.869565,4.73913043 C189.875946,2.23209168 192.298567,0.582648061 195,0.565217391 L224.478261,0.565217391 C227.179694,0.582648061 229.602315,2.23209168 230.608696,4.73913043 L242.869565,35.7826087 C243.915165,37.6459489 243.915165,39.9192685 242.869565,41.7826087 C241.563972,43.78637 239.248927,44.8935652 236.869565,44.6521739 Z M191.608696,31.6086957 L227.217391,31.6086957 L220.043478,13.6086957 L198.652174,13.6086957 L191.608696,31.6086957 Z" id="Shape" fill="#000000" fill-rule="nonzero"></path>
        </g>
        <path id="Line" d="M444.037943,507 L625.5,507 L625.5,488.221159 C625.5,486.442162 626.942162,485 628.721159,485 C629.221228,485 629.71443,485.116429 630.161705,485.340067 L677.718681,509.118555 C679.309865,509.914146 679.954819,511.84901 679.159228,513.440193 C678.847536,514.063576 678.342064,514.569048 677.718681,514.88074 L630.161705,538.659228 C628.570522,539.454819 626.635659,538.809865 625.840067,537.218681 C625.616429,536.771406 625.5,536.278204 625.5,535.778135 L625.5,517 L444.037943,517 C441.69313,529.522838 430.70332,539 417.5,539 C402.588312,539 390.5,526.911688 390.5,512 C390.5,497.088312 402.588312,485 417.5,485 C430.70332,485 441.69313,494.477162 444.037943,507 Z M400.5,512 C400.5,521.388841 408.111159,529 417.5,529 C426.888841,529 434.5,521.388841 434.5,512 C434.5,502.611159 426.888841,495 417.5,495 C408.111159,495 400.5,502.611159 400.5,512 Z" fill="#000000" fill-rule="nonzero"></path>
        <path id="Line" d="M433.077524,371.940916 L636.396728,174.901843 L623.327982,161.416563 C622.089926,160.139047 622.121915,158.099773 623.399431,156.861717 C623.758536,156.513704 624.193735,156.254079 624.670564,156.103404 L675.369866,140.082688 C677.066186,139.54666 678.875863,140.487263 679.411891,142.183583 C679.621893,142.848156 679.610681,143.562914 679.379939,144.220573 L661.77693,194.392443 C661.187961,196.071117 659.349673,196.954496 657.670999,196.365527 C657.19913,196.19997 656.772288,195.926823 656.424275,195.567718 L643.356021,182.082946 L440.036817,379.122019 C447.067992,389.746622 445.771531,404.200401 436.290091,413.388978 C425.581854,423.766459 408.488502,423.498328 398.111022,412.790091 C387.733541,402.081854 388.001672,384.988502 398.709909,374.611022 C408.191349,365.422444 422.67868,364.579962 433.077524,371.940916 Z M429.298953,381.761084 C422.732398,375.422868 412.272599,375.392694 405.669202,381.792125 C398.926979,388.326094 398.758155,399.088575 405.292125,405.830798 C411.826094,412.573021 422.588575,412.741845 429.330798,406.207875 C435.934195,399.808445 436.232105,389.352845 430.102967,382.590724 C429.955411,382.469794 429.813221,382.339174 429.677256,382.198875 C429.541291,382.058577 429.415195,381.91236 429.298953,381.761084 Z" fill="#000000" fill-rule="nonzero"></path>
        <path id="Line" d="M439.305756,621.930206 L645.247116,841.388952 L658.940788,828.53873 C660.238046,827.321376 662.276543,827.386151 663.493897,828.683409 C663.836091,829.048063 664.088684,829.487381 664.231673,829.966571 L679.435106,880.91692 C679.94379,882.62164 678.97421,884.415959 677.26949,884.924642 C676.601626,885.123931 675.887141,885.101228 675.233278,884.85994 L625.350938,866.452478 C623.681952,865.836592 622.828245,863.984338 623.44413,862.315351 C623.617253,861.846206 623.897228,861.42381 624.261882,861.081617 L637.95504,848.231878 L432.01368,628.773132 C421.277394,635.632561 406.84633,634.103861 397.811396,624.4759 C387.607438,613.602184 388.150384,596.515354 399.0241,586.311396 C409.897816,576.107438 426.984646,576.650384 437.188604,587.5241 C446.223538,597.152061 446.832965,611.651065 439.305756,621.930206 Z M429.698427,617.841023 C435.993315,611.366214 436.139481,601.019747 429.896528,594.367026 C423.471814,587.520612 412.713439,587.178758 405.867026,593.603472 C399.020612,600.028186 398.678758,610.786561 405.103472,617.632974 C411.346424,624.285695 421.681297,624.796693 428.542691,618.925573 C428.702776,618.718985 428.881178,618.522294 429.077825,618.33776 C429.274472,618.153225 429.482092,617.98767 429.698427,617.841023 Z" fill="#000000" fill-rule="nonzero"></path>
        <path d="M81.1289062,679.081055 C80.1523389,679.911137 79.2124069,680.497069 78.309082,680.838867 C77.4057572,681.180666 76.4365286,681.351562 75.4013672,681.351562 C73.6923743,681.351562 72.3789108,680.934086 71.4609375,680.099121 C70.5429642,679.264156 70.0839844,678.197272 70.0839844,676.898438 C70.0839844,676.136715 70.2573225,675.440921 70.6040039,674.811035 C70.9506853,674.181149 71.4047823,673.675783 71.9663086,673.294922 C72.5278348,672.914061 73.1601527,672.625978 73.8632812,672.430664 C74.380862,672.293945 75.1621042,672.16211 76.2070312,672.035156 C78.3359481,671.781249 79.9033153,671.478517 80.9091797,671.126953 C80.9189454,670.765623 80.9238281,670.536133 80.9238281,670.438477 C80.9238281,669.364252 80.6748072,668.607424 80.1767578,668.167969 C79.5029263,667.572263 78.5019598,667.274414 77.1738281,667.274414 C75.9335875,667.274414 75.0180694,667.491697 74.4272461,667.92627 C73.8364228,668.360842 73.3994155,669.129877 73.1162109,670.233398 L70.5380859,669.881836 C70.7724621,668.778315 71.1582004,667.88721 71.6953125,667.208496 C72.2324246,666.529782 73.008784,666.007326 74.0244141,665.641113 C75.0400441,665.274901 76.2167902,665.091797 77.5546875,665.091797 C78.8828191,665.091797 79.9619099,665.248045 80.7919922,665.560547 C81.6220745,665.873048 82.2324199,666.266111 82.6230469,666.739746 C83.0136738,667.213381 83.2871086,667.81152 83.4433594,668.53418 C83.5312504,668.983401 83.5751953,669.793939 83.5751953,670.96582 L83.5751953,674.481445 C83.5751953,676.932629 83.6313471,678.482907 83.7436523,679.132324 C83.8559576,679.781742 84.0781233,680.404294 84.4101562,681 L81.65625,681 C81.3828111,680.453122 81.2070316,679.81348 81.1289062,679.081055 Z M80.9091797,673.192383 C79.9521437,673.58301 78.5166111,673.915038 76.6025391,674.188477 C75.5185493,674.344727 74.7519554,674.520507 74.3027344,674.71582 C73.8535134,674.911134 73.5068372,675.196775 73.2626953,675.572754 C73.0185535,675.948732 72.8964844,676.366209 72.8964844,676.825195 C72.8964844,677.528324 73.162595,678.114255 73.6948242,678.583008 C74.2270534,679.05176 75.0058542,679.286133 76.03125,679.286133 C77.0468801,679.286133 77.9501914,679.063967 78.7412109,678.619629 C79.5322305,678.175291 80.1132794,677.567387 80.484375,676.795898 C80.7675795,676.200192 80.9091797,675.321295 80.9091797,674.15918 L80.9091797,673.192383 Z M87.6621094,686.961914 L87.6621094,665.443359 L90.0644531,665.443359 L90.0644531,667.464844 C90.6308622,666.673824 91.2705042,666.080568 91.9833984,665.685059 C92.6962926,665.289549 93.5605418,665.091797 94.5761719,665.091797 C95.9043035,665.091797 97.0761668,665.43359 98.0917969,666.117188 C99.107427,666.800785 99.8740208,667.76513 100.391602,669.010254 C100.909182,670.255377 101.167969,671.62011 101.167969,673.104492 C101.167969,674.696297 100.882327,676.129388 100.311035,677.403809 C99.7397432,678.678229 98.9096734,679.654782 97.8208008,680.333496 C96.7319281,681.01221 95.5869201,681.351562 94.3857422,681.351562 C93.5068315,681.351562 92.7182652,681.166017 92.0200195,680.794922 C91.3217739,680.423826 90.7480491,679.955081 90.2988281,679.388672 L90.2988281,686.961914 L87.6621094,686.961914 Z M90.0498047,673.30957 C90.0498047,675.311533 90.4550741,676.791011 91.265625,677.748047 C92.0761759,678.705083 93.0576114,679.183594 94.2099609,679.183594 C95.3818418,679.183594 96.3852497,678.687993 97.2202148,677.696777 C98.05518,676.705561 98.4726562,675.169932 98.4726562,673.089844 C98.4726562,671.107412 98.0649455,669.623052 97.2495117,668.636719 C96.434078,667.650386 95.4599666,667.157227 94.3271484,667.157227 C93.2040959,667.157227 92.2104535,667.682124 91.3461914,668.731934 C90.4819293,669.781744 90.0498047,671.307607 90.0498047,673.30957 Z M104.34668,686.961914 L104.34668,665.443359 L106.749023,665.443359 L106.749023,667.464844 C107.315433,666.673824 107.955075,666.080568 108.667969,665.685059 C109.380863,665.289549 110.245112,665.091797 111.260742,665.091797 C112.588874,665.091797 113.760737,665.43359 114.776367,666.117188 C115.791997,666.800785 116.558591,667.76513 117.076172,669.010254 C117.593753,670.255377 117.852539,671.62011 117.852539,673.104492 C117.852539,674.696297 117.566897,676.129388 116.995605,677.403809 C116.424314,678.678229 115.594244,679.654782 114.505371,680.333496 C113.416498,681.01221 112.27149,681.351562 111.070312,681.351562 C110.191402,681.351562 109.402836,681.166017 108.70459,680.794922 C108.006344,680.423826 107.432619,679.955081 106.983398,679.388672 L106.983398,686.961914 L104.34668,686.961914 Z M106.734375,673.30957 C106.734375,675.311533 107.139644,676.791011 107.950195,677.748047 C108.760746,678.705083 109.742182,679.183594 110.894531,679.183594 C112.066412,679.183594 113.06982,678.687993 113.904785,677.696777 C114.73975,676.705561 115.157227,675.169932 115.157227,673.089844 C115.157227,671.107412 114.749516,669.623052 113.934082,668.636719 C113.118648,667.650386 112.144537,667.157227 111.011719,667.157227 C109.888666,667.157227 108.895024,667.682124 108.030762,668.731934 C107.1665,669.781744 106.734375,671.307607 106.734375,673.30957 Z M121.77832,681 L121.77832,677.99707 L124.78125,677.99707 L124.78125,681 L121.77832,681 Z M128.311523,676.356445 L130.918945,675.946289 C131.06543,676.991216 131.473141,677.791989 132.14209,678.348633 C132.811039,678.905276 133.746088,679.183594 134.947266,679.183594 C136.158209,679.183594 137.056638,678.937014 137.642578,678.443848 C138.228519,677.950681 138.521484,677.372074 138.521484,676.708008 C138.521484,676.112302 138.262698,675.643556 137.745117,675.301758 C137.383787,675.067382 136.485359,674.769533 135.049805,674.408203 C133.116201,673.919919 131.775883,673.49756 131.028809,673.141113 C130.281735,672.784666 129.715334,672.291507 129.32959,671.661621 C128.943846,671.031735 128.750977,670.335941 128.750977,669.574219 C128.750977,668.880856 128.909666,668.238772 129.227051,667.647949 C129.544435,667.057126 129.97656,666.566408 130.523438,666.175781 C130.933596,665.873045 131.492672,665.6167 132.200684,665.406738 C132.908695,665.196776 133.667965,665.091797 134.478516,665.091797 C135.699225,665.091797 136.770991,665.267576 137.693848,665.619141 C138.616704,665.970705 139.297849,666.446774 139.737305,667.047363 C140.17676,667.647952 140.479491,668.451167 140.645508,669.457031 L138.067383,669.808594 C137.950195,669.007808 137.610843,668.382815 137.049316,667.933594 C136.48779,667.484373 135.694341,667.259766 134.668945,667.259766 C133.458002,667.259766 132.593753,667.459959 132.076172,667.860352 C131.558591,668.260744 131.299805,668.72949 131.299805,669.266602 C131.299805,669.6084 131.407225,669.916014 131.62207,670.189453 C131.836915,670.472658 132.173826,670.70703 132.632812,670.892578 C132.896486,670.990235 133.672845,671.214842 134.961914,671.566406 C136.827158,672.064456 138.128414,672.472166 138.865723,672.789551 C139.603031,673.106935 140.181639,673.568356 140.601562,674.173828 C141.021486,674.7793 141.231445,675.531246 141.231445,676.429688 C141.231445,677.308598 140.9751,678.136227 140.462402,678.912598 C139.949704,679.688969 139.209966,680.289549 138.243164,680.714355 C137.276362,681.139162 136.182623,681.351562 134.961914,681.351562 C132.94042,681.351562 131.399908,680.931645 130.340332,680.091797 C129.280756,679.251949 128.604494,678.006844 128.311523,676.356445 Z M154.517578,679.081055 C153.541011,679.911137 152.601079,680.497069 151.697754,680.838867 C150.794429,681.180666 149.8252,681.351562 148.790039,681.351562 C147.081046,681.351562 145.767583,680.934086 144.849609,680.099121 C143.931636,679.264156 143.472656,678.197272 143.472656,676.898438 C143.472656,676.136715 143.645994,675.440921 143.992676,674.811035 C144.339357,674.181149 144.793454,673.675783 145.35498,673.294922 C145.916507,672.914061 146.548825,672.625978 147.251953,672.430664 C147.769534,672.293945 148.550776,672.16211 149.595703,672.035156 C151.72462,671.781249 153.291987,671.478517 154.297852,671.126953 C154.307617,670.765623 154.3125,670.536133 154.3125,670.438477 C154.3125,669.364252 154.063479,668.607424 153.56543,668.167969 C152.891598,667.572263 151.890632,667.274414 150.5625,667.274414 C149.322259,667.274414 148.406741,667.491697 147.815918,667.92627 C147.225095,668.360842 146.788087,669.129877 146.504883,670.233398 L143.926758,669.881836 C144.161134,668.778315 144.546872,667.88721 145.083984,667.208496 C145.621096,666.529782 146.397456,666.007326 147.413086,665.641113 C148.428716,665.274901 149.605462,665.091797 150.943359,665.091797 C152.271491,665.091797 153.350582,665.248045 154.180664,665.560547 C155.010746,665.873048 155.621092,666.266111 156.011719,666.739746 C156.402346,667.213381 156.67578,667.81152 156.832031,668.53418 C156.919922,668.983401 156.963867,669.793939 156.963867,670.96582 L156.963867,674.481445 C156.963867,676.932629 157.020019,678.482907 157.132324,679.132324 C157.244629,679.781742 157.466795,680.404294 157.798828,681 L155.044922,681 C154.771483,680.453122 154.595704,679.81348 154.517578,679.081055 Z M154.297852,673.192383 C153.340816,673.58301 151.905283,673.915038 149.991211,674.188477 C148.907221,674.344727 148.140627,674.520507 147.691406,674.71582 C147.242185,674.911134 146.895509,675.196775 146.651367,675.572754 C146.407225,675.948732 146.285156,676.366209 146.285156,676.825195 C146.285156,677.528324 146.551267,678.114255 147.083496,678.583008 C147.615725,679.05176 148.394526,679.286133 149.419922,679.286133 C150.435552,679.286133 151.338863,679.063967 152.129883,678.619629 C152.920902,678.175291 153.501951,677.567387 153.873047,676.795898 C154.156251,676.200192 154.297852,675.321295 154.297852,674.15918 L154.297852,673.192383 Z M161.050781,681 L161.050781,665.443359 L163.40918,665.443359 L163.40918,667.625977 C163.897463,666.864254 164.546871,666.251467 165.357422,665.787598 C166.167973,665.323728 167.090815,665.091797 168.125977,665.091797 C169.278326,665.091797 170.223141,665.331052 170.960449,665.80957 C171.697758,666.288088 172.217772,666.957027 172.520508,667.816406 C173.750983,665.999991 175.352529,665.091797 177.325195,665.091797 C178.868172,665.091797 180.054683,665.519039 180.884766,666.373535 C181.714848,667.228032 182.129883,668.543936 182.129883,670.321289 L182.129883,681 L179.507812,681 L179.507812,671.200195 C179.507812,670.145503 179.422364,669.386233 179.251465,668.922363 C179.080566,668.458494 178.77051,668.084962 178.321289,667.801758 C177.872068,667.518553 177.34473,667.376953 176.739258,667.376953 C175.645502,667.376953 174.737308,667.740719 174.014648,668.468262 C173.291989,669.195804 172.930664,670.360344 172.930664,671.961914 L172.930664,681 L170.293945,681 L170.293945,670.892578 C170.293945,669.720697 170.079104,668.8418 169.649414,668.255859 C169.219724,667.669919 168.516606,667.376953 167.540039,667.376953 C166.797848,667.376953 166.11182,667.572264 165.481934,667.962891 C164.852048,668.353518 164.395509,668.924801 164.112305,669.676758 C163.8291,670.428715 163.6875,671.512688 163.6875,672.928711 L163.6875,681 L161.050781,681 Z M188.472656,681 L186.026367,681 L186.026367,659.525391 L188.663086,659.525391 L188.663086,667.186523 C189.776373,665.790032 191.197257,665.091797 192.925781,665.091797 C193.882817,665.091797 194.78857,665.284666 195.643066,665.67041 C196.497563,666.056154 197.200681,666.598141 197.752441,667.296387 C198.304202,667.994632 198.736327,668.836909 199.048828,669.823242 C199.36133,670.809575 199.517578,671.864252 199.517578,672.987305 C199.517578,675.653334 198.858405,677.71386 197.540039,679.168945 C196.221673,680.624031 194.639658,681.351562 192.793945,681.351562 C190.957999,681.351562 189.517583,680.584969 188.472656,679.051758 L188.472656,681 Z M188.443359,673.104492 C188.443359,674.969736 188.697263,676.317379 189.205078,677.147461 C190.03516,678.50489 191.158196,679.183594 192.574219,679.183594 C193.726568,679.183594 194.722652,678.68311 195.5625,677.682129 C196.402348,676.681147 196.822266,675.189463 196.822266,673.207031 C196.822266,671.175771 196.419438,669.676763 195.61377,668.709961 C194.808101,667.743159 193.83399,667.259766 192.691406,667.259766 C191.539057,667.259766 190.542973,667.760249 189.703125,668.76123 C188.863277,669.762212 188.443359,671.209951 188.443359,673.104492 Z M213.375,675.990234 L216.099609,676.327148 C215.66992,677.918953 214.874029,679.154292 213.711914,680.033203 C212.549799,680.912114 211.065439,681.351562 209.258789,681.351562 C206.983387,681.351562 205.179206,680.650886 203.846191,679.249512 C202.513177,677.848138 201.84668,675.882825 201.84668,673.353516 C201.84668,670.736315 202.520501,668.705085 203.868164,667.259766 C205.215827,665.814446 206.963856,665.091797 209.112305,665.091797 C211.192393,665.091797 212.891595,665.799798 214.209961,667.21582 C215.528327,668.631843 216.1875,670.624011 216.1875,673.192383 C216.1875,673.348634 216.182617,673.583006 216.172852,673.895508 L204.571289,673.895508 C204.668946,675.604501 205.152339,676.913081 206.021484,677.821289 C206.890629,678.729497 207.974603,679.183594 209.273438,679.183594 C210.240239,679.183594 211.065426,678.92969 211.749023,678.421875 C212.432621,677.91406 212.974607,677.103521 213.375,675.990234 Z M204.717773,671.727539 L213.404297,671.727539 C213.287109,670.418939 212.955081,669.437503 212.408203,668.783203 C211.568355,667.767573 210.479499,667.259766 209.141602,667.259766 C207.930658,667.259766 206.912602,667.665035 206.087402,668.475586 C205.262203,669.286137 204.805665,670.37011 204.717773,671.727539 Z M218.926758,682.289062 L221.490234,682.669922 C221.597657,683.460941 221.895505,684.037108 222.383789,684.398438 C223.038089,684.886721 223.931635,685.130859 225.064453,685.130859 C226.285162,685.130859 227.227536,684.886721 227.891602,684.398438 C228.555667,683.910154 229.004882,683.226567 229.239258,682.347656 C229.375977,681.810544 229.439453,680.682626 229.429688,678.963867 C228.277338,680.321296 226.841805,681 225.123047,681 C222.984364,681 221.329107,680.228523 220.157227,678.685547 C218.985346,677.14257 218.399414,675.292003 218.399414,673.133789 C218.399414,671.649407 218.667966,670.279791 219.205078,669.024902 C219.74219,667.770013 220.520991,666.800785 221.541504,666.117188 C222.562017,665.43359 223.760735,665.091797 225.137695,665.091797 C226.973642,665.091797 228.487299,665.833977 229.678711,667.318359 L229.678711,665.443359 L232.110352,665.443359 L232.110352,678.890625 C232.110352,681.312512 231.863772,683.028804 231.370605,684.039551 C230.877439,685.050298 230.096197,685.84863 229.026855,686.43457 C227.957514,687.020511 226.641609,687.313477 225.079102,687.313477 C223.223624,687.313477 221.724615,686.896 220.582031,686.061035 C219.439447,685.22607 218.887695,683.968758 218.926758,682.289062 Z M221.109375,672.943359 C221.109375,674.984385 221.514644,676.473628 222.325195,677.411133 C223.135746,678.348637 224.151361,678.817383 225.37207,678.817383 C226.583014,678.817383 227.598629,678.351079 228.418945,677.418457 C229.239262,676.485835 229.649414,675.023447 229.649414,673.03125 C229.649414,671.126944 229.227055,669.691411 228.382324,668.724609 C227.537593,667.757808 226.519537,667.274414 225.328125,667.274414 C224.156244,667.274414 223.16016,667.750484 222.339844,668.702637 C221.519527,669.65479 221.109375,671.06835 221.109375,672.943359 Z M235.113281,673.22168 C235.113281,670.340806 235.914054,668.207038 237.515625,666.820312 C238.853522,665.667963 240.484365,665.091797 242.408203,665.091797 C244.546886,665.091797 246.294915,665.792473 247.652344,667.193848 C249.009772,668.595222 249.688477,670.531238 249.688477,673.001953 C249.688477,675.003916 249.388187,676.578608 248.787598,677.726074 C248.187009,678.873541 247.312994,679.764645 246.165527,680.399414 C245.018061,681.034183 243.765632,681.351562 242.408203,681.351562 C240.230458,681.351562 238.470222,680.653327 237.127441,679.256836 C235.784661,677.860345 235.113281,675.848646 235.113281,673.22168 Z M237.823242,673.22168 C237.823242,675.213877 238.257808,676.705561 239.126953,677.696777 C239.996098,678.687993 241.089837,679.183594 242.408203,679.183594 C243.716803,679.183594 244.80566,678.685552 245.674805,677.689453 C246.54395,676.693354 246.978516,675.174815 246.978516,673.133789 C246.978516,671.209951 246.541508,669.752446 245.66748,668.76123 C244.793453,667.770015 243.707038,667.274414 242.408203,667.274414 C241.089837,667.274414 239.996098,667.767573 239.126953,668.753906 C238.257808,669.740239 237.823242,671.229482 237.823242,673.22168 Z M253.526367,681 L253.526367,677.99707 L256.529297,677.99707 L256.529297,681 L253.526367,681 Z M263.545898,681 L261.099609,681 L261.099609,659.525391 L263.736328,659.525391 L263.736328,667.186523 C264.849615,665.790032 266.270499,665.091797 267.999023,665.091797 C268.956059,665.091797 269.861812,665.284666 270.716309,665.67041 C271.570805,666.056154 272.273923,666.598141 272.825684,667.296387 C273.377444,667.994632 273.809569,668.836909 274.12207,669.823242 C274.434572,670.809575 274.59082,671.864252 274.59082,672.987305 C274.59082,675.653334 273.931647,677.71386 272.613281,679.168945 C271.294915,680.624031 269.7129,681.351562 267.867188,681.351562 C266.031241,681.351562 264.590826,680.584969 263.545898,679.051758 L263.545898,681 Z M263.516602,673.104492 C263.516602,674.969736 263.770505,676.317379 264.27832,677.147461 C265.108403,678.50489 266.231438,679.183594 267.647461,679.183594 C268.79981,679.183594 269.795894,678.68311 270.635742,677.682129 C271.47559,676.681147 271.895508,675.189463 271.895508,673.207031 C271.895508,671.175771 271.49268,669.676763 270.687012,668.709961 C269.881344,667.743159 268.907232,667.259766 267.764648,667.259766 C266.612299,667.259766 265.616215,667.760249 264.776367,668.76123 C263.936519,669.762212 263.516602,671.209951 263.516602,673.104492 Z M288.448242,675.990234 L291.172852,676.327148 C290.743162,677.918953 289.947271,679.154292 288.785156,680.033203 C287.623041,680.912114 286.138681,681.351562 284.332031,681.351562 C282.056629,681.351562 280.252448,680.650886 278.919434,679.249512 C277.586419,677.848138 276.919922,675.882825 276.919922,673.353516 C276.919922,670.736315 277.593743,668.705085 278.941406,667.259766 C280.289069,665.814446 282.037099,665.091797 284.185547,665.091797 C286.265635,665.091797 287.964837,665.799798 289.283203,667.21582 C290.601569,668.631843 291.260742,670.624011 291.260742,673.192383 C291.260742,673.348634 291.255859,673.583006 291.246094,673.895508 L279.644531,673.895508 C279.742188,675.604501 280.225582,676.913081 281.094727,677.821289 C281.963872,678.729497 283.047845,679.183594 284.34668,679.183594 C285.313481,679.183594 286.138668,678.92969 286.822266,678.421875 C287.505863,677.91406 288.04785,677.103521 288.448242,675.990234 Z M279.791016,671.727539 L288.477539,671.727539 C288.360351,670.418939 288.028323,669.437503 287.481445,668.783203 C286.641597,667.767573 285.552741,667.259766 284.214844,667.259766 C283.0039,667.259766 281.985844,667.665035 281.160645,668.475586 C280.335445,669.286137 279.878907,670.37011 279.791016,671.727539 Z" id="app.sambego.be" fill="#000000"></path>
        <path d="M771.128906,322.081055 C770.152339,322.911137 769.212407,323.497069 768.309082,323.838867 C767.405757,324.180666 766.436529,324.351562 765.401367,324.351562 C763.692374,324.351562 762.378911,323.934086 761.460938,323.099121 C760.542964,322.264156 760.083984,321.197272 760.083984,319.898438 C760.083984,319.136715 760.257322,318.440921 760.604004,317.811035 C760.950685,317.181149 761.404782,316.675783 761.966309,316.294922 C762.527835,315.914061 763.160153,315.625978 763.863281,315.430664 C764.380862,315.293945 765.162104,315.16211 766.207031,315.035156 C768.335948,314.781249 769.903315,314.478517 770.90918,314.126953 C770.918945,313.765623 770.923828,313.536133 770.923828,313.438477 C770.923828,312.364252 770.674807,311.607424 770.176758,311.167969 C769.502926,310.572263 768.50196,310.274414 767.173828,310.274414 C765.933588,310.274414 765.018069,310.491697 764.427246,310.92627 C763.836423,311.360842 763.399415,312.129877 763.116211,313.233398 L760.538086,312.881836 C760.772462,311.778315 761.1582,310.88721 761.695312,310.208496 C762.232425,309.529782 763.008784,309.007326 764.024414,308.641113 C765.040044,308.274901 766.21679,308.091797 767.554688,308.091797 C768.882819,308.091797 769.96191,308.248045 770.791992,308.560547 C771.622074,308.873048 772.23242,309.266111 772.623047,309.739746 C773.013674,310.213381 773.287109,310.81152 773.443359,311.53418 C773.53125,311.983401 773.575195,312.793939 773.575195,313.96582 L773.575195,317.481445 C773.575195,319.932629 773.631347,321.482907 773.743652,322.132324 C773.855958,322.781742 774.078123,323.404294 774.410156,324 L771.65625,324 C771.382811,323.453122 771.207032,322.81348 771.128906,322.081055 Z M770.90918,316.192383 C769.952144,316.58301 768.516611,316.915038 766.602539,317.188477 C765.518549,317.344727 764.751955,317.520507 764.302734,317.71582 C763.853513,317.911134 763.506837,318.196775 763.262695,318.572754 C763.018553,318.948732 762.896484,319.366209 762.896484,319.825195 C762.896484,320.528324 763.162595,321.114255 763.694824,321.583008 C764.227053,322.05176 765.005854,322.286133 766.03125,322.286133 C767.04688,322.286133 767.950191,322.063967 768.741211,321.619629 C769.532231,321.175291 770.113279,320.567387 770.484375,319.795898 C770.76758,319.200192 770.90918,318.321295 770.90918,317.15918 L770.90918,316.192383 Z M777.662109,329.961914 L777.662109,308.443359 L780.064453,308.443359 L780.064453,310.464844 C780.630862,309.673824 781.270504,309.080568 781.983398,308.685059 C782.696293,308.289549 783.560542,308.091797 784.576172,308.091797 C785.904304,308.091797 787.076167,308.43359 788.091797,309.117188 C789.107427,309.800785 789.874021,310.76513 790.391602,312.010254 C790.909182,313.255377 791.167969,314.62011 791.167969,316.104492 C791.167969,317.696297 790.882327,319.129388 790.311035,320.403809 C789.739743,321.678229 788.909673,322.654782 787.820801,323.333496 C786.731928,324.01221 785.58692,324.351562 784.385742,324.351562 C783.506832,324.351562 782.718265,324.166017 782.02002,323.794922 C781.321774,323.423826 780.748049,322.955081 780.298828,322.388672 L780.298828,329.961914 L777.662109,329.961914 Z M780.049805,316.30957 C780.049805,318.311533 780.455074,319.791011 781.265625,320.748047 C782.076176,321.705083 783.057611,322.183594 784.209961,322.183594 C785.381842,322.183594 786.38525,321.687993 787.220215,320.696777 C788.05518,319.705561 788.472656,318.169932 788.472656,316.089844 C788.472656,314.107412 788.064945,312.623052 787.249512,311.636719 C786.434078,310.650386 785.459967,310.157227 784.327148,310.157227 C783.204096,310.157227 782.210454,310.682124 781.346191,311.731934 C780.481929,312.781744 780.049805,314.307607 780.049805,316.30957 Z M794.361328,305.557617 L794.361328,302.525391 L796.998047,302.525391 L796.998047,305.557617 L794.361328,305.557617 Z M794.361328,324 L794.361328,308.443359 L796.998047,308.443359 L796.998047,324 L794.361328,324 Z M801.758789,324 L801.758789,320.99707 L804.761719,320.99707 L804.761719,324 L801.758789,324 Z M808.291992,319.356445 L810.899414,318.946289 C811.045899,319.991216 811.45361,320.791989 812.122559,321.348633 C812.791507,321.905276 813.726556,322.183594 814.927734,322.183594 C816.138678,322.183594 817.037106,321.937014 817.623047,321.443848 C818.208987,320.950681 818.501953,320.372074 818.501953,319.708008 C818.501953,319.112302 818.243167,318.643556 817.725586,318.301758 C817.364256,318.067382 816.465827,317.769533 815.030273,317.408203 C813.09667,316.919919 811.756351,316.49756 811.009277,316.141113 C810.262203,315.784666 809.695803,315.291507 809.310059,314.661621 C808.924314,314.031735 808.731445,313.335941 808.731445,312.574219 C808.731445,311.880856 808.890135,311.238772 809.20752,310.647949 C809.524904,310.057126 809.957029,309.566408 810.503906,309.175781 C810.914065,308.873045 811.473141,308.6167 812.181152,308.406738 C812.889164,308.196776 813.648433,308.091797 814.458984,308.091797 C815.679694,308.091797 816.75146,308.267576 817.674316,308.619141 C818.597173,308.970705 819.278318,309.446774 819.717773,310.047363 C820.157229,310.647952 820.45996,311.451167 820.625977,312.457031 L818.047852,312.808594 C817.930663,312.007808 817.591311,311.382815 817.029785,310.933594 C816.468259,310.484373 815.67481,310.259766 814.649414,310.259766 C813.438471,310.259766 812.574221,310.459959 812.056641,310.860352 C811.53906,311.260744 811.280273,311.72949 811.280273,312.266602 C811.280273,312.6084 811.387694,312.916014 811.602539,313.189453 C811.817384,313.472658 812.154295,313.70703 812.613281,313.892578 C812.876954,313.990235 813.653314,314.214842 814.942383,314.566406 C816.807627,315.064456 818.108883,315.472166 818.846191,315.789551 C819.5835,316.106935 820.162107,316.568356 820.582031,317.173828 C821.001955,317.7793 821.211914,318.531246 821.211914,319.429688 C821.211914,320.308598 820.955569,321.136227 820.442871,321.912598 C819.930173,322.688969 819.190435,323.289549 818.223633,323.714355 C817.256831,324.139162 816.163092,324.351562 814.942383,324.351562 C812.920888,324.351562 811.380376,323.931645 810.320801,323.091797 C809.261225,322.251949 808.584962,321.006844 808.291992,319.356445 Z M834.498047,322.081055 C833.521479,322.911137 832.581547,323.497069 831.678223,323.838867 C830.774898,324.180666 829.805669,324.351562 828.770508,324.351562 C827.061515,324.351562 825.748051,323.934086 824.830078,323.099121 C823.912105,322.264156 823.453125,321.197272 823.453125,319.898438 C823.453125,319.136715 823.626463,318.440921 823.973145,317.811035 C824.319826,317.181149 824.773923,316.675783 825.335449,316.294922 C825.896975,315.914061 826.529293,315.625978 827.232422,315.430664 C827.750003,315.293945 828.531245,315.16211 829.576172,315.035156 C831.705089,314.781249 833.272456,314.478517 834.27832,314.126953 C834.288086,313.765623 834.292969,313.536133 834.292969,313.438477 C834.292969,312.364252 834.043948,311.607424 833.545898,311.167969 C832.872067,310.572263 831.8711,310.274414 830.542969,310.274414 C829.302728,310.274414 828.38721,310.491697 827.796387,310.92627 C827.205563,311.360842 826.768556,312.129877 826.485352,313.233398 L823.907227,312.881836 C824.141603,311.778315 824.527341,310.88721 825.064453,310.208496 C825.601565,309.529782 826.377925,309.007326 827.393555,308.641113 C828.409185,308.274901 829.585931,308.091797 830.923828,308.091797 C832.25196,308.091797 833.331051,308.248045 834.161133,308.560547 C834.991215,308.873048 835.601561,309.266111 835.992188,309.739746 C836.382814,310.213381 836.656249,310.81152 836.8125,311.53418 C836.900391,311.983401 836.944336,312.793939 836.944336,313.96582 L836.944336,317.481445 C836.944336,319.932629 837.000488,321.482907 837.112793,322.132324 C837.225098,322.781742 837.447264,323.404294 837.779297,324 L835.025391,324 C834.751952,323.453122 834.576172,322.81348 834.498047,322.081055 Z M834.27832,316.192383 C833.321284,316.58301 831.885752,316.915038 829.97168,317.188477 C828.88769,317.344727 828.121096,317.520507 827.671875,317.71582 C827.222654,317.911134 826.875978,318.196775 826.631836,318.572754 C826.387694,318.948732 826.265625,319.366209 826.265625,319.825195 C826.265625,320.528324 826.531736,321.114255 827.063965,321.583008 C827.596194,322.05176 828.374995,322.286133 829.400391,322.286133 C830.416021,322.286133 831.319332,322.063967 832.110352,321.619629 C832.901371,321.175291 833.48242,320.567387 833.853516,319.795898 C834.13672,319.200192 834.27832,318.321295 834.27832,317.15918 L834.27832,316.192383 Z M841.03125,324 L841.03125,308.443359 L843.389648,308.443359 L843.389648,310.625977 C843.877932,309.864254 844.52734,309.251467 845.337891,308.787598 C846.148442,308.323728 847.071284,308.091797 848.106445,308.091797 C849.258795,308.091797 850.20361,308.331052 850.940918,308.80957 C851.678226,309.288088 852.198241,309.957027 852.500977,310.816406 C853.731451,308.999991 855.332998,308.091797 857.305664,308.091797 C858.848641,308.091797 860.035152,308.519039 860.865234,309.373535 C861.695317,310.228032 862.110352,311.543936 862.110352,313.321289 L862.110352,324 L859.488281,324 L859.488281,314.200195 C859.488281,313.145503 859.402833,312.386233 859.231934,311.922363 C859.061034,311.458494 858.750979,311.084962 858.301758,310.801758 C857.852537,310.518553 857.325198,310.376953 856.719727,310.376953 C855.625971,310.376953 854.717777,310.740719 853.995117,311.468262 C853.272457,312.195804 852.911133,313.360344 852.911133,314.961914 L852.911133,324 L850.274414,324 L850.274414,313.892578 C850.274414,312.720697 850.059572,311.8418 849.629883,311.255859 C849.200193,310.669919 848.497075,310.376953 847.520508,310.376953 C846.778317,310.376953 846.092288,310.572264 845.462402,310.962891 C844.832516,311.353518 844.375978,311.924801 844.092773,312.676758 C843.809569,313.428715 843.667969,314.512688 843.667969,315.928711 L843.667969,324 L841.03125,324 Z M868.453125,324 L866.006836,324 L866.006836,302.525391 L868.643555,302.525391 L868.643555,310.186523 C869.756842,308.790032 871.177726,308.091797 872.90625,308.091797 C873.863286,308.091797 874.769039,308.284666 875.623535,308.67041 C876.478032,309.056154 877.18115,309.598141 877.73291,310.296387 C878.284671,310.994632 878.716795,311.836909 879.029297,312.823242 C879.341798,313.809575 879.498047,314.864252 879.498047,315.987305 C879.498047,318.653334 878.838874,320.71386 877.520508,322.168945 C876.202142,323.624031 874.620126,324.351562 872.774414,324.351562 C870.938467,324.351562 869.498052,323.584969 868.453125,322.051758 L868.453125,324 Z M868.423828,316.104492 C868.423828,317.969736 868.677732,319.317379 869.185547,320.147461 C870.015629,321.50489 871.138665,322.183594 872.554688,322.183594 C873.707037,322.183594 874.703121,321.68311 875.542969,320.682129 C876.382817,319.681147 876.802734,318.189463 876.802734,316.207031 C876.802734,314.175771 876.399906,312.676763 875.594238,311.709961 C874.78857,310.743159 873.814459,310.259766 872.671875,310.259766 C871.519525,310.259766 870.523442,310.760249 869.683594,311.76123 C868.843746,312.762212 868.423828,314.209951 868.423828,316.104492 Z M893.355469,318.990234 L896.080078,319.327148 C895.650388,320.918953 894.854498,322.154292 893.692383,323.033203 C892.530268,323.912114 891.045907,324.351562 889.239258,324.351562 C886.963856,324.351562 885.159675,323.650886 883.82666,322.249512 C882.493646,320.848138 881.827148,318.882825 881.827148,316.353516 C881.827148,313.736315 882.50097,311.705085 883.848633,310.259766 C885.196296,308.814446 886.944325,308.091797 889.092773,308.091797 C891.172862,308.091797 892.872064,308.799798 894.19043,310.21582 C895.508796,311.631843 896.167969,313.624011 896.167969,316.192383 C896.167969,316.348634 896.163086,316.583006 896.15332,316.895508 L884.551758,316.895508 C884.649415,318.604501 885.132808,319.913081 886.001953,320.821289 C886.871098,321.729497 887.955072,322.183594 889.253906,322.183594 C890.220708,322.183594 891.045895,321.92969 891.729492,321.421875 C892.413089,320.91406 892.955076,320.103521 893.355469,318.990234 Z M884.698242,314.727539 L893.384766,314.727539 C893.267578,313.418939 892.93555,312.437503 892.388672,311.783203 C891.548824,310.767573 890.459968,310.259766 889.12207,310.259766 C887.911127,310.259766 886.893071,310.665035 886.067871,311.475586 C885.242672,312.286137 884.786133,313.37011 884.698242,314.727539 Z M898.907227,325.289062 L901.470703,325.669922 C901.578126,326.460941 901.875974,327.037108 902.364258,327.398438 C903.018558,327.886721 903.912104,328.130859 905.044922,328.130859 C906.265631,328.130859 907.208004,327.886721 907.87207,327.398438 C908.536136,326.910154 908.98535,326.226567 909.219727,325.347656 C909.356446,324.810544 909.419922,323.682626 909.410156,321.963867 C908.257807,323.321296 906.822274,324 905.103516,324 C902.964833,324 901.309576,323.228523 900.137695,321.685547 C898.965814,320.14257 898.379883,318.292003 898.379883,316.133789 C898.379883,314.649407 898.648435,313.279791 899.185547,312.024902 C899.722659,310.770013 900.50146,309.800785 901.521973,309.117188 C902.542486,308.43359 903.741204,308.091797 905.118164,308.091797 C906.954111,308.091797 908.467767,308.833977 909.65918,310.318359 L909.65918,308.443359 L912.09082,308.443359 L912.09082,321.890625 C912.09082,324.312512 911.844241,326.028804 911.351074,327.039551 C910.857908,328.050298 910.076666,328.84863 909.007324,329.43457 C907.937983,330.020511 906.622078,330.313477 905.05957,330.313477 C903.204092,330.313477 901.705084,329.896 900.5625,329.061035 C899.419916,328.22607 898.868164,326.968758 898.907227,325.289062 Z M901.089844,315.943359 C901.089844,317.984385 901.495113,319.473628 902.305664,320.411133 C903.116215,321.348637 904.13183,321.817383 905.352539,321.817383 C906.563483,321.817383 907.579097,321.351079 908.399414,320.418457 C909.219731,319.485835 909.629883,318.023447 909.629883,316.03125 C909.629883,314.126944 909.207524,312.691411 908.362793,311.724609 C907.518062,310.757808 906.500006,310.274414 905.308594,310.274414 C904.136713,310.274414 903.140629,310.750484 902.320312,311.702637 C901.499996,312.65479 901.089844,314.06835 901.089844,315.943359 Z M915.09375,316.22168 C915.09375,313.340806 915.894523,311.207038 917.496094,309.820312 C918.833991,308.667963 920.464834,308.091797 922.388672,308.091797 C924.527354,308.091797 926.275384,308.792473 927.632812,310.193848 C928.990241,311.595222 929.668945,313.531238 929.668945,316.001953 C929.668945,318.003916 929.368655,319.578608 928.768066,320.726074 C928.167477,321.873541 927.293463,322.764645 926.145996,323.399414 C924.998529,324.034183 923.746101,324.351562 922.388672,324.351562 C920.210927,324.351562 918.45069,323.653327 917.10791,322.256836 C915.76513,320.860345 915.09375,318.848646 915.09375,316.22168 Z M917.803711,316.22168 C917.803711,318.213877 918.238277,319.705561 919.107422,320.696777 C919.976567,321.687993 921.070306,322.183594 922.388672,322.183594 C923.697272,322.183594 924.786128,321.685552 925.655273,320.689453 C926.524418,319.693354 926.958984,318.174815 926.958984,316.133789 C926.958984,314.209951 926.521977,312.752446 925.647949,311.76123 C924.773921,310.770015 923.687506,310.274414 922.388672,310.274414 C921.070306,310.274414 919.976567,310.767573 919.107422,311.753906 C918.238277,312.740239 917.803711,314.229482 917.803711,316.22168 Z M933.506836,324 L933.506836,320.99707 L936.509766,320.99707 L936.509766,324 L933.506836,324 Z M943.526367,324 L941.080078,324 L941.080078,302.525391 L943.716797,302.525391 L943.716797,310.186523 C944.830084,308.790032 946.250968,308.091797 947.979492,308.091797 C948.936528,308.091797 949.842281,308.284666 950.696777,308.67041 C951.551274,309.056154 952.254392,309.598141 952.806152,310.296387 C953.357913,310.994632 953.790037,311.836909 954.102539,312.823242 C954.415041,313.809575 954.571289,314.864252 954.571289,315.987305 C954.571289,318.653334 953.912116,320.71386 952.59375,322.168945 C951.275384,323.624031 949.693369,324.351562 947.847656,324.351562 C946.01171,324.351562 944.571294,323.584969 943.526367,322.051758 L943.526367,324 Z M943.49707,316.104492 C943.49707,317.969736 943.750974,319.317379 944.258789,320.147461 C945.088871,321.50489 946.211907,322.183594 947.62793,322.183594 C948.780279,322.183594 949.776363,321.68311 950.616211,320.682129 C951.456059,319.681147 951.875977,318.189463 951.875977,316.207031 C951.875977,314.175771 951.473149,312.676763 950.66748,311.709961 C949.861812,310.743159 948.887701,310.259766 947.745117,310.259766 C946.592768,310.259766 945.596684,310.760249 944.756836,311.76123 C943.916988,312.762212 943.49707,314.209951 943.49707,316.104492 Z M968.428711,318.990234 L971.15332,319.327148 C970.723631,320.918953 969.92774,322.154292 968.765625,323.033203 C967.60351,323.912114 966.11915,324.351562 964.3125,324.351562 C962.037098,324.351562 960.232917,323.650886 958.899902,322.249512 C957.566888,320.848138 956.900391,318.882825 956.900391,316.353516 C956.900391,313.736315 957.574212,311.705085 958.921875,310.259766 C960.269538,308.814446 962.017567,308.091797 964.166016,308.091797 C966.246104,308.091797 967.945306,308.799798 969.263672,310.21582 C970.582038,311.631843 971.241211,313.624011 971.241211,316.192383 C971.241211,316.348634 971.236328,316.583006 971.226562,316.895508 L959.625,316.895508 C959.722657,318.604501 960.20605,319.913081 961.075195,320.821289 C961.94434,321.729497 963.028314,322.183594 964.327148,322.183594 C965.29395,322.183594 966.119137,321.92969 966.802734,321.421875 C967.486332,320.91406 968.028318,320.103521 968.428711,318.990234 Z M959.771484,314.727539 L968.458008,314.727539 C968.34082,313.418939 968.008792,312.437503 967.461914,311.783203 C966.622066,310.767573 965.53321,310.259766 964.195312,310.259766 C962.984369,310.259766 961.966313,310.665035 961.141113,311.475586 C960.315914,312.286137 959.859375,313.37011 959.771484,314.727539 Z" id="api.sambego.be" fill="#000000"></path>
        <path d="M765.172852,694 L765.172852,691.714844 C763.961908,693.472665 762.316417,694.351562 760.236328,694.351562 C759.318355,694.351562 758.46143,694.175783 757.665527,693.824219 C756.869625,693.472654 756.278811,693.030764 755.893066,692.498535 C755.507322,691.966306 755.236329,691.314457 755.080078,690.542969 C754.972656,690.025388 754.918945,689.205084 754.918945,688.082031 L754.918945,678.443359 L757.555664,678.443359 L757.555664,687.071289 C757.555664,688.448249 757.609374,689.375974 757.716797,689.854492 C757.882813,690.547855 758.234372,691.092283 758.771484,691.487793 C759.308596,691.883303 759.972652,692.081055 760.763672,692.081055 C761.554691,692.081055 762.296872,691.87842 762.990234,691.473145 C763.683597,691.067869 764.174315,690.516117 764.462402,689.817871 C764.75049,689.119625 764.894531,688.106452 764.894531,686.77832 L764.894531,678.443359 L767.53125,678.443359 L767.53125,694 L765.172852,694 Z M770.607422,689.356445 L773.214844,688.946289 C773.361329,689.991216 773.76904,690.791989 774.437988,691.348633 C775.106937,691.905276 776.041986,692.183594 777.243164,692.183594 C778.454108,692.183594 779.352536,691.937014 779.938477,691.443848 C780.524417,690.950681 780.817383,690.372074 780.817383,689.708008 C780.817383,689.112302 780.558596,688.643556 780.041016,688.301758 C779.679686,688.067382 778.781257,687.769533 777.345703,687.408203 C775.4121,686.919919 774.071781,686.49756 773.324707,686.141113 C772.577633,685.784666 772.011232,685.291507 771.625488,684.661621 C771.239744,684.031735 771.046875,683.335941 771.046875,682.574219 C771.046875,681.880856 771.205565,681.238772 771.522949,680.647949 C771.840334,680.057126 772.272458,679.566408 772.819336,679.175781 C773.229494,678.873045 773.788571,678.6167 774.496582,678.406738 C775.204593,678.196776 775.963863,678.091797 776.774414,678.091797 C777.995123,678.091797 779.06689,678.267576 779.989746,678.619141 C780.912602,678.970705 781.593748,679.446774 782.033203,680.047363 C782.472658,680.647952 782.77539,681.451167 782.941406,682.457031 L780.363281,682.808594 C780.246093,682.007808 779.906741,681.382815 779.345215,680.933594 C778.783689,680.484373 777.99024,680.259766 776.964844,680.259766 C775.7539,680.259766 774.889651,680.459959 774.37207,680.860352 C773.85449,681.260744 773.595703,681.72949 773.595703,682.266602 C773.595703,682.6084 773.703124,682.916014 773.917969,683.189453 C774.132814,683.472658 774.469724,683.70703 774.928711,683.892578 C775.192384,683.990235 775.968744,684.214842 777.257812,684.566406 C779.123056,685.064456 780.424313,685.472166 781.161621,685.789551 C781.898929,686.106935 782.477537,686.568356 782.897461,687.173828 C783.317385,687.7793 783.527344,688.531246 783.527344,689.429688 C783.527344,690.308598 783.270999,691.136227 782.758301,691.912598 C782.245603,692.688969 781.505864,693.289549 780.539062,693.714355 C779.572261,694.139162 778.478522,694.351562 777.257812,694.351562 C775.236318,694.351562 773.695806,693.931645 772.63623,693.091797 C771.576655,692.251949 770.900392,691.006844 770.607422,689.356445 Z M797.311523,688.990234 L800.036133,689.327148 C799.606443,690.918953 798.810553,692.154292 797.648438,693.033203 C796.486322,693.912114 795.001962,694.351562 793.195312,694.351562 C790.91991,694.351562 789.115729,693.650886 787.782715,692.249512 C786.4497,690.848138 785.783203,688.882825 785.783203,686.353516 C785.783203,683.736315 786.457025,681.705085 787.804688,680.259766 C789.15235,678.814446 790.90038,678.091797 793.048828,678.091797 C795.128917,678.091797 796.828118,678.799798 798.146484,680.21582 C799.46485,681.631843 800.124023,683.624011 800.124023,686.192383 C800.124023,686.348634 800.119141,686.583006 800.109375,686.895508 L788.507812,686.895508 C788.605469,688.604501 789.088863,689.913081 789.958008,690.821289 C790.827153,691.729497 791.911126,692.183594 793.209961,692.183594 C794.176763,692.183594 795.00195,691.92969 795.685547,691.421875 C796.369144,690.91406 796.911131,690.103521 797.311523,688.990234 Z M788.654297,684.727539 L797.34082,684.727539 C797.223632,683.418939 796.891604,682.437503 796.344727,681.783203 C795.504879,680.767573 794.416022,680.259766 793.078125,680.259766 C791.867181,680.259766 790.849125,680.665035 790.023926,681.475586 C789.198726,682.286137 788.742188,683.37011 788.654297,684.727539 Z M803.317383,694 L803.317383,678.443359 L805.69043,678.443359 L805.69043,680.801758 C806.295901,679.698237 806.854978,678.970705 807.367676,678.619141 C807.880374,678.267576 808.444333,678.091797 809.05957,678.091797 C809.948247,678.091797 810.851558,678.374997 811.769531,678.941406 L810.861328,681.387695 C810.216794,681.006834 809.572269,680.816406 808.927734,680.816406 C808.35156,680.816406 807.833987,680.989744 807.375,681.336426 C806.916013,681.683107 806.588868,682.164059 806.393555,682.779297 C806.100584,683.716802 805.954102,684.742182 805.954102,685.855469 L805.954102,694 L803.317383,694 Z M812.428711,694 L812.428711,690.99707 L815.431641,690.99707 L815.431641,694 L812.428711,694 Z M818.961914,689.356445 L821.569336,688.946289 C821.715821,689.991216 822.123532,690.791989 822.79248,691.348633 C823.461429,691.905276 824.396478,692.183594 825.597656,692.183594 C826.8086,692.183594 827.707028,691.937014 828.292969,691.443848 C828.878909,690.950681 829.171875,690.372074 829.171875,689.708008 C829.171875,689.112302 828.913089,688.643556 828.395508,688.301758 C828.034178,688.067382 827.135749,687.769533 825.700195,687.408203 C823.766592,686.919919 822.426273,686.49756 821.679199,686.141113 C820.932125,685.784666 820.365725,685.291507 819.97998,684.661621 C819.594236,684.031735 819.401367,683.335941 819.401367,682.574219 C819.401367,681.880856 819.560057,681.238772 819.877441,680.647949 C820.194826,680.057126 820.62695,679.566408 821.173828,679.175781 C821.583986,678.873045 822.143063,678.6167 822.851074,678.406738 C823.559086,678.196776 824.318355,678.091797 825.128906,678.091797 C826.349615,678.091797 827.421382,678.267576 828.344238,678.619141 C829.267094,678.970705 829.94824,679.446774 830.387695,680.047363 C830.827151,680.647952 831.129882,681.451167 831.295898,682.457031 L828.717773,682.808594 C828.600585,682.007808 828.261233,681.382815 827.699707,680.933594 C827.138181,680.484373 826.344732,680.259766 825.319336,680.259766 C824.108392,680.259766 823.244143,680.459959 822.726562,680.860352 C822.208982,681.260744 821.950195,681.72949 821.950195,682.266602 C821.950195,682.6084 822.057616,682.916014 822.272461,683.189453 C822.487306,683.472658 822.824216,683.70703 823.283203,683.892578 C823.546876,683.990235 824.323236,684.214842 825.612305,684.566406 C827.477548,685.064456 828.778805,685.472166 829.516113,685.789551 C830.253422,686.106935 830.832029,686.568356 831.251953,687.173828 C831.671877,687.7793 831.881836,688.531246 831.881836,689.429688 C831.881836,690.308598 831.625491,691.136227 831.112793,691.912598 C830.600095,692.688969 829.860356,693.289549 828.893555,693.714355 C827.926753,694.139162 826.833014,694.351562 825.612305,694.351562 C823.59081,694.351562 822.050298,693.931645 820.990723,693.091797 C819.931147,692.251949 819.254884,691.006844 818.961914,689.356445 Z M845.167969,692.081055 C844.191401,692.911137 843.251469,693.497069 842.348145,693.838867 C841.44482,694.180666 840.475591,694.351562 839.44043,694.351562 C837.731437,694.351562 836.417973,693.934086 835.5,693.099121 C834.582027,692.264156 834.123047,691.197272 834.123047,689.898438 C834.123047,689.136715 834.296385,688.440921 834.643066,687.811035 C834.989748,687.181149 835.443845,686.675783 836.005371,686.294922 C836.566897,685.914061 837.199215,685.625978 837.902344,685.430664 C838.419924,685.293945 839.201167,685.16211 840.246094,685.035156 C842.375011,684.781249 843.942378,684.478517 844.948242,684.126953 C844.958008,683.765623 844.962891,683.536133 844.962891,683.438477 C844.962891,682.364252 844.71387,681.607424 844.21582,681.167969 C843.541989,680.572263 842.541022,680.274414 841.212891,680.274414 C839.97265,680.274414 839.057132,680.491697 838.466309,680.92627 C837.875485,681.360842 837.438478,682.129877 837.155273,683.233398 L834.577148,682.881836 C834.811525,681.778315 835.197263,680.88721 835.734375,680.208496 C836.271487,679.529782 837.047846,679.007326 838.063477,678.641113 C839.079107,678.274901 840.255853,678.091797 841.59375,678.091797 C842.921882,678.091797 844.000972,678.248045 844.831055,678.560547 C845.661137,678.873048 846.271482,679.266111 846.662109,679.739746 C847.052736,680.213381 847.326171,680.81152 847.482422,681.53418 C847.570313,681.983401 847.614258,682.793939 847.614258,683.96582 L847.614258,687.481445 C847.614258,689.932629 847.67041,691.482907 847.782715,692.132324 C847.89502,692.781742 848.117186,693.404294 848.449219,694 L845.695312,694 C845.421874,693.453122 845.246094,692.81348 845.167969,692.081055 Z M844.948242,686.192383 C843.991206,686.58301 842.555674,686.915038 840.641602,687.188477 C839.557612,687.344727 838.791018,687.520507 838.341797,687.71582 C837.892576,687.911134 837.5459,688.196775 837.301758,688.572754 C837.057616,688.948732 836.935547,689.366209 836.935547,689.825195 C836.935547,690.528324 837.201657,691.114255 837.733887,691.583008 C838.266116,692.05176 839.044917,692.286133 840.070312,692.286133 C841.085943,692.286133 841.989254,692.063967 842.780273,691.619629 C843.571293,691.175291 844.152342,690.567387 844.523438,689.795898 C844.806642,689.200192 844.948242,688.321295 844.948242,687.15918 L844.948242,686.192383 Z M851.701172,694 L851.701172,678.443359 L854.05957,678.443359 L854.05957,680.625977 C854.547854,679.864254 855.197262,679.251467 856.007812,678.787598 C856.818363,678.323728 857.741206,678.091797 858.776367,678.091797 C859.928717,678.091797 860.873531,678.331052 861.61084,678.80957 C862.348148,679.288088 862.868163,679.957027 863.170898,680.816406 C864.401373,678.999991 866.00292,678.091797 867.975586,678.091797 C869.518562,678.091797 870.705074,678.519039 871.535156,679.373535 C872.365239,680.228032 872.780273,681.543936 872.780273,683.321289 L872.780273,694 L870.158203,694 L870.158203,684.200195 C870.158203,683.145503 870.072755,682.386233 869.901855,681.922363 C869.730956,681.458494 869.420901,681.084962 868.97168,680.801758 C868.522459,680.518553 867.99512,680.376953 867.389648,680.376953 C866.295893,680.376953 865.387699,680.740719 864.665039,681.468262 C863.942379,682.195804 863.581055,683.360344 863.581055,684.961914 L863.581055,694 L860.944336,694 L860.944336,683.892578 C860.944336,682.720697 860.729494,681.8418 860.299805,681.255859 C859.870115,680.669919 859.166997,680.376953 858.19043,680.376953 C857.448238,680.376953 856.76221,680.572264 856.132324,680.962891 C855.502438,681.353518 855.0459,681.924801 854.762695,682.676758 C854.479491,683.428715 854.337891,684.512688 854.337891,685.928711 L854.337891,694 L851.701172,694 Z M879.123047,694 L876.676758,694 L876.676758,672.525391 L879.313477,672.525391 L879.313477,680.186523 C880.426763,678.790032 881.847648,678.091797 883.576172,678.091797 C884.533208,678.091797 885.438961,678.284666 886.293457,678.67041 C887.147953,679.056154 887.851071,679.598141 888.402832,680.296387 C888.954593,680.994632 889.386717,681.836909 889.699219,682.823242 C890.01172,683.809575 890.167969,684.864252 890.167969,685.987305 C890.167969,688.653334 889.508796,690.71386 888.19043,692.168945 C886.872064,693.624031 885.290048,694.351562 883.444336,694.351562 C881.608389,694.351562 880.167974,693.584969 879.123047,692.051758 L879.123047,694 Z M879.09375,686.104492 C879.09375,687.969736 879.347654,689.317379 879.855469,690.147461 C880.685551,691.50489 881.808587,692.183594 883.224609,692.183594 C884.376959,692.183594 885.373043,691.68311 886.212891,690.682129 C887.052739,689.681147 887.472656,688.189463 887.472656,686.207031 C887.472656,684.175771 887.069828,682.676763 886.26416,681.709961 C885.458492,680.743159 884.484381,680.259766 883.341797,680.259766 C882.189447,680.259766 881.193364,680.760249 880.353516,681.76123 C879.513668,682.762212 879.09375,684.209951 879.09375,686.104492 Z M904.025391,688.990234 L906.75,689.327148 C906.32031,690.918953 905.52442,692.154292 904.362305,693.033203 C903.20019,693.912114 901.715829,694.351562 899.90918,694.351562 C897.633778,694.351562 895.829597,693.650886 894.496582,692.249512 C893.163568,690.848138 892.49707,688.882825 892.49707,686.353516 C892.49707,683.736315 893.170892,681.705085 894.518555,680.259766 C895.866218,678.814446 897.614247,678.091797 899.762695,678.091797 C901.842784,678.091797 903.541986,678.799798 904.860352,680.21582 C906.178718,681.631843 906.837891,683.624011 906.837891,686.192383 C906.837891,686.348634 906.833008,686.583006 906.823242,686.895508 L895.22168,686.895508 C895.319336,688.604501 895.80273,689.913081 896.671875,690.821289 C897.54102,691.729497 898.624994,692.183594 899.923828,692.183594 C900.89063,692.183594 901.715817,691.92969 902.399414,691.421875 C903.083011,690.91406 903.624998,690.103521 904.025391,688.990234 Z M895.368164,684.727539 L904.054688,684.727539 C903.937499,683.418939 903.605471,682.437503 903.058594,681.783203 C902.218746,680.767573 901.12989,680.259766 899.791992,680.259766 C898.581049,680.259766 897.562992,680.665035 896.737793,681.475586 C895.912594,682.286137 895.456055,683.37011 895.368164,684.727539 Z M909.577148,695.289062 L912.140625,695.669922 C912.248047,696.460941 912.545896,697.037108 913.03418,697.398438 C913.68848,697.886721 914.582026,698.130859 915.714844,698.130859 C916.935553,698.130859 917.877926,697.886721 918.541992,697.398438 C919.206058,696.910154 919.655272,696.226567 919.889648,695.347656 C920.026368,694.810544 920.089844,693.682626 920.080078,691.963867 C918.927729,693.321296 917.492196,694 915.773438,694 C913.634755,694 911.979498,693.228523 910.807617,691.685547 C909.635736,690.14257 909.049805,688.292003 909.049805,686.133789 C909.049805,684.649407 909.318357,683.279791 909.855469,682.024902 C910.392581,680.770013 911.171382,679.800785 912.191895,679.117188 C913.212407,678.43359 914.411126,678.091797 915.788086,678.091797 C917.624033,678.091797 919.137689,678.833977 920.329102,680.318359 L920.329102,678.443359 L922.760742,678.443359 L922.760742,691.890625 C922.760742,694.312512 922.514163,696.028804 922.020996,697.039551 C921.52783,698.050298 920.746587,698.84863 919.677246,699.43457 C918.607905,700.020511 917.292,700.313477 915.729492,700.313477 C913.874014,700.313477 912.375006,699.896 911.232422,699.061035 C910.089838,698.22607 909.538086,696.968758 909.577148,695.289062 Z M911.759766,685.943359 C911.759766,687.984385 912.165035,689.473628 912.975586,690.411133 C913.786137,691.348637 914.801752,691.817383 916.022461,691.817383 C917.233404,691.817383 918.249019,691.351079 919.069336,690.418457 C919.889653,689.485835 920.299805,688.023447 920.299805,686.03125 C920.299805,684.126944 919.877446,682.691411 919.032715,681.724609 C918.187984,680.757808 917.169928,680.274414 915.978516,680.274414 C914.806635,680.274414 913.810551,680.750484 912.990234,681.702637 C912.169918,682.65479 911.759766,684.06835 911.759766,685.943359 Z M925.763672,686.22168 C925.763672,683.340806 926.564445,681.207038 928.166016,679.820312 C929.503913,678.667963 931.134756,678.091797 933.058594,678.091797 C935.197276,678.091797 936.945306,678.792473 938.302734,680.193848 C939.660163,681.595222 940.338867,683.531238 940.338867,686.001953 C940.338867,688.003916 940.038577,689.578608 939.437988,690.726074 C938.837399,691.873541 937.963385,692.764645 936.815918,693.399414 C935.668451,694.034183 934.416022,694.351562 933.058594,694.351562 C930.880848,694.351562 929.120612,693.653327 927.777832,692.256836 C926.435052,690.860345 925.763672,688.848646 925.763672,686.22168 Z M928.473633,686.22168 C928.473633,688.213877 928.908199,689.705561 929.777344,690.696777 C930.646489,691.687993 931.740228,692.183594 933.058594,692.183594 C934.367194,692.183594 935.45605,691.685552 936.325195,690.689453 C937.19434,689.693354 937.628906,688.174815 937.628906,686.133789 C937.628906,684.209951 937.191899,682.752446 936.317871,681.76123 C935.443843,680.770015 934.357428,680.274414 933.058594,680.274414 C931.740228,680.274414 930.646489,680.767573 929.777344,681.753906 C928.908199,682.740239 928.473633,684.229482 928.473633,686.22168 Z M944.176758,694 L944.176758,690.99707 L947.179688,690.99707 L947.179688,694 L944.176758,694 Z M954.196289,694 L951.75,694 L951.75,672.525391 L954.386719,672.525391 L954.386719,680.186523 C955.500006,678.790032 956.92089,678.091797 958.649414,678.091797 C959.60645,678.091797 960.512203,678.284666 961.366699,678.67041 C962.221196,679.056154 962.924314,679.598141 963.476074,680.296387 C964.027835,680.994632 964.459959,681.836909 964.772461,682.823242 C965.084963,683.809575 965.241211,684.864252 965.241211,685.987305 C965.241211,688.653334 964.582038,690.71386 963.263672,692.168945 C961.945306,693.624031 960.36329,694.351562 958.517578,694.351562 C956.681631,694.351562 955.241216,693.584969 954.196289,692.051758 L954.196289,694 Z M954.166992,686.104492 C954.166992,687.969736 954.420896,689.317379 954.928711,690.147461 C955.758793,691.50489 956.881829,692.183594 958.297852,692.183594 C959.450201,692.183594 960.446285,691.68311 961.286133,690.682129 C962.125981,689.681147 962.545898,688.189463 962.545898,686.207031 C962.545898,684.175771 962.14307,682.676763 961.337402,681.709961 C960.531734,680.743159 959.557623,680.259766 958.415039,680.259766 C957.26269,680.259766 956.266606,680.760249 955.426758,681.76123 C954.58691,682.762212 954.166992,684.209951 954.166992,686.104492 Z M979.098633,688.990234 L981.823242,689.327148 C981.393553,690.918953 980.597662,692.154292 979.435547,693.033203 C978.273432,693.912114 976.789072,694.351562 974.982422,694.351562 C972.70702,694.351562 970.902839,693.650886 969.569824,692.249512 C968.23681,690.848138 967.570312,688.882825 967.570312,686.353516 C967.570312,683.736315 968.244134,681.705085 969.591797,680.259766 C970.93946,678.814446 972.687489,678.091797 974.835938,678.091797 C976.916026,678.091797 978.615228,678.799798 979.933594,680.21582 C981.25196,681.631843 981.911133,683.624011 981.911133,686.192383 C981.911133,686.348634 981.90625,686.583006 981.896484,686.895508 L970.294922,686.895508 C970.392579,688.604501 970.875972,689.913081 971.745117,690.821289 C972.614262,691.729497 973.698236,692.183594 974.99707,692.183594 C975.963872,692.183594 976.789059,691.92969 977.472656,691.421875 C978.156253,690.91406 978.69824,690.103521 979.098633,688.990234 Z M970.441406,684.727539 L979.12793,684.727539 C979.010742,683.418939 978.678714,682.437503 978.131836,681.783203 C977.291988,680.767573 976.203132,680.259766 974.865234,680.259766 C973.654291,680.259766 972.636235,680.665035 971.811035,681.475586 C970.985836,682.286137 970.529297,683.37011 970.441406,684.727539 Z" id="user.sambego.be" fill="#000000"></path>
        <path d="M760.977539,1068.96191 L760.977539,1047.44336 L763.379883,1047.44336 L763.379883,1049.46484 C763.946292,1048.67382 764.585934,1048.08057 765.298828,1047.68506 C766.011722,1047.28955 766.875971,1047.0918 767.891602,1047.0918 C769.219733,1047.0918 770.391596,1047.43359 771.407227,1048.11719 C772.422857,1048.80078 773.189451,1049.76513 773.707031,1051.01025 C774.224612,1052.25538 774.483398,1053.62011 774.483398,1055.10449 C774.483398,1056.6963 774.197757,1058.12939 773.626465,1059.40381 C773.055173,1060.67823 772.225103,1061.65478 771.13623,1062.3335 C770.047358,1063.01221 768.90235,1063.35156 767.701172,1063.35156 C766.822261,1063.35156 766.033695,1063.16602 765.335449,1062.79492 C764.637204,1062.42383 764.063479,1061.95508 763.614258,1061.38867 L763.614258,1068.96191 L760.977539,1068.96191 Z M763.365234,1055.30957 C763.365234,1057.31153 763.770504,1058.79101 764.581055,1059.74805 C765.391606,1060.70508 766.373041,1061.18359 767.525391,1061.18359 C768.697271,1061.18359 769.700679,1060.68799 770.535645,1059.69678 C771.37061,1058.70556 771.788086,1057.16993 771.788086,1055.08984 C771.788086,1053.10741 771.380375,1051.62305 770.564941,1050.63672 C769.749508,1049.65039 768.775396,1049.15723 767.642578,1049.15723 C766.519526,1049.15723 765.525883,1049.68212 764.661621,1050.73193 C763.797359,1051.78174 763.365234,1053.30761 763.365234,1055.30957 Z M787.813477,1061.08105 C786.836909,1061.91114 785.896977,1062.49707 784.993652,1062.83887 C784.090328,1063.18067 783.121099,1063.35156 782.085938,1063.35156 C780.376945,1063.35156 779.063481,1062.93409 778.145508,1062.09912 C777.227534,1061.26416 776.768555,1060.19727 776.768555,1058.89844 C776.768555,1058.13671 776.941893,1057.44092 777.288574,1056.81104 C777.635256,1056.18115 778.089353,1055.67578 778.650879,1055.29492 C779.212405,1054.91406 779.844723,1054.62598 780.547852,1054.43066 C781.065432,1054.29394 781.846674,1054.16211 782.891602,1054.03516 C785.020518,1053.78125 786.587886,1053.47852 787.59375,1053.12695 C787.603516,1052.76562 787.608398,1052.53613 787.608398,1052.43848 C787.608398,1051.36425 787.359377,1050.60742 786.861328,1050.16797 C786.187497,1049.57226 785.18653,1049.27441 783.858398,1049.27441 C782.618158,1049.27441 781.70264,1049.4917 781.111816,1049.92627 C780.520993,1050.36084 780.083986,1051.12988 779.800781,1052.2334 L777.222656,1051.88184 C777.457032,1050.77831 777.842771,1049.88721 778.379883,1049.2085 C778.916995,1048.52978 779.693354,1048.00733 780.708984,1047.64111 C781.724614,1047.2749 782.90136,1047.0918 784.239258,1047.0918 C785.567389,1047.0918 786.64648,1047.24805 787.476562,1047.56055 C788.306645,1047.87305 788.91699,1048.26611 789.307617,1048.73975 C789.698244,1049.21338 789.971679,1049.81152 790.12793,1050.53418 C790.215821,1050.9834 790.259766,1051.79394 790.259766,1052.96582 L790.259766,1056.48145 C790.259766,1058.93263 790.315917,1060.48291 790.428223,1061.13232 C790.540528,1061.78174 790.762694,1062.40429 791.094727,1063 L788.34082,1063 C788.067381,1062.45312 787.891602,1061.81348 787.813477,1061.08105 Z M787.59375,1055.19238 C786.636714,1055.58301 785.201181,1055.91504 783.287109,1056.18848 C782.20312,1056.34473 781.436526,1056.52051 780.987305,1056.71582 C780.538084,1056.91113 780.191407,1057.19678 779.947266,1057.57275 C779.703124,1057.94873 779.581055,1058.36621 779.581055,1058.8252 C779.581055,1059.52832 779.847165,1060.11426 780.379395,1060.58301 C780.911624,1061.05176 781.690425,1061.28613 782.71582,1061.28613 C783.73145,1061.28613 784.634762,1061.06397 785.425781,1060.61963 C786.216801,1060.17529 786.79785,1059.56739 787.168945,1058.7959 C787.45215,1058.20019 787.59375,1057.32129 787.59375,1056.15918 L787.59375,1055.19238 Z M794.229492,1068.99121 L793.936523,1066.51562 C794.512698,1066.67188 795.015623,1066.75 795.445312,1066.75 C796.031253,1066.75 796.499998,1066.65234 796.851562,1066.45703 C797.203127,1066.26172 797.49121,1065.98828 797.71582,1065.63672 C797.881837,1065.37305 798.150389,1064.71876 798.521484,1063.67383 C798.570313,1063.52734 798.648437,1063.3125 798.755859,1063.0293 L792.852539,1047.44336 L795.694336,1047.44336 L798.931641,1056.45215 C799.351565,1057.59473 799.727537,1058.79589 800.05957,1060.05566 C800.362306,1058.84472 800.723631,1057.66309 801.143555,1056.51074 L804.46875,1047.44336 L807.105469,1047.44336 L801.1875,1063.26367 C800.552731,1064.97266 800.059572,1066.14941 799.708008,1066.79395 C799.239255,1067.66309 798.702151,1068.30029 798.09668,1068.70557 C797.491208,1069.11084 796.768559,1069.31348 795.928711,1069.31348 C795.420896,1069.31348 794.854495,1069.20606 794.229492,1068.99121 Z M807.867188,1063 L807.867188,1059.99707 L810.870117,1059.99707 L810.870117,1063 L807.867188,1063 Z M814.400391,1058.35645 L817.007812,1057.94629 C817.154298,1058.99122 817.562008,1059.79199 818.230957,1060.34863 C818.899906,1060.90528 819.834955,1061.18359 821.036133,1061.18359 C822.247076,1061.18359 823.145505,1060.93701 823.731445,1060.44385 C824.317386,1059.95068 824.610352,1059.37207 824.610352,1058.70801 C824.610352,1058.1123 824.351565,1057.64356 823.833984,1057.30176 C823.472654,1057.06738 822.574226,1056.76953 821.138672,1056.4082 C819.205068,1055.91992 817.86475,1055.49756 817.117676,1055.14111 C816.370602,1054.78467 815.804201,1054.29151 815.418457,1053.66162 C815.032713,1053.03174 814.839844,1052.33594 814.839844,1051.57422 C814.839844,1050.88086 814.998534,1050.23877 815.315918,1049.64795 C815.633302,1049.05713 816.065427,1048.56641 816.612305,1048.17578 C817.022463,1047.87305 817.581539,1047.6167 818.289551,1047.40674 C818.997562,1047.19678 819.756832,1047.0918 820.567383,1047.0918 C821.788092,1047.0918 822.859859,1047.26758 823.782715,1047.61914 C824.705571,1047.9707 825.386717,1048.44677 825.826172,1049.04736 C826.265627,1049.64795 826.568359,1050.45117 826.734375,1051.45703 L824.15625,1051.80859 C824.039062,1051.00781 823.69971,1050.38281 823.138184,1049.93359 C822.576657,1049.48437 821.783208,1049.25977 820.757812,1049.25977 C819.546869,1049.25977 818.68262,1049.45996 818.165039,1049.86035 C817.647458,1050.26074 817.388672,1050.72949 817.388672,1051.2666 C817.388672,1051.6084 817.496093,1051.91601 817.710938,1052.18945 C817.925782,1052.47266 818.262693,1052.70703 818.72168,1052.89258 C818.985353,1052.99023 819.761712,1053.21484 821.050781,1053.56641 C822.916025,1054.06446 824.217281,1054.47217 824.95459,1054.78955 C825.691898,1055.10694 826.270506,1055.56836 826.69043,1056.17383 C827.110354,1056.7793 827.320312,1057.53125 827.320312,1058.42969 C827.320312,1059.3086 827.063967,1060.13623 826.55127,1060.9126 C826.038572,1061.68897 825.298833,1062.28955 824.332031,1062.71436 C823.36523,1063.13916 822.27149,1063.35156 821.050781,1063.35156 C819.029287,1063.35156 817.488775,1062.93164 816.429199,1062.0918 C815.369624,1061.25195 814.693361,1060.00684 814.400391,1058.35645 Z M840.606445,1061.08105 C839.629878,1061.91114 838.689946,1062.49707 837.786621,1062.83887 C836.883296,1063.18067 835.914068,1063.35156 834.878906,1063.35156 C833.169913,1063.35156 831.85645,1062.93409 830.938477,1062.09912 C830.020503,1061.26416 829.561523,1060.19727 829.561523,1058.89844 C829.561523,1058.13671 829.734862,1057.44092 830.081543,1056.81104 C830.428224,1056.18115 830.882321,1055.67578 831.443848,1055.29492 C832.005374,1054.91406 832.637692,1054.62598 833.34082,1054.43066 C833.858401,1054.29394 834.639643,1054.16211 835.68457,1054.03516 C837.813487,1053.78125 839.380854,1053.47852 840.386719,1053.12695 C840.396484,1052.76562 840.401367,1052.53613 840.401367,1052.43848 C840.401367,1051.36425 840.152346,1050.60742 839.654297,1050.16797 C838.980465,1049.57226 837.979499,1049.27441 836.651367,1049.27441 C835.411127,1049.27441 834.495608,1049.4917 833.904785,1049.92627 C833.313962,1050.36084 832.876955,1051.12988 832.59375,1052.2334 L830.015625,1051.88184 C830.250001,1050.77831 830.63574,1049.88721 831.172852,1049.2085 C831.709964,1048.52978 832.486323,1048.00733 833.501953,1047.64111 C834.517583,1047.2749 835.694329,1047.0918 837.032227,1047.0918 C838.360358,1047.0918 839.439449,1047.24805 840.269531,1047.56055 C841.099614,1047.87305 841.709959,1048.26611 842.100586,1048.73975 C842.491213,1049.21338 842.764648,1049.81152 842.920898,1050.53418 C843.00879,1050.9834 843.052734,1051.79394 843.052734,1052.96582 L843.052734,1056.48145 C843.052734,1058.93263 843.108886,1060.48291 843.221191,1061.13232 C843.333497,1061.78174 843.555662,1062.40429 843.887695,1063 L841.133789,1063 C840.86035,1062.45312 840.684571,1061.81348 840.606445,1061.08105 Z M840.386719,1055.19238 C839.429683,1055.58301 837.99415,1055.91504 836.080078,1056.18848 C834.996088,1056.34473 834.229494,1056.52051 833.780273,1056.71582 C833.331052,1056.91113 832.984376,1057.19678 832.740234,1057.57275 C832.496093,1057.94873 832.374023,1058.36621 832.374023,1058.8252 C832.374023,1059.52832 832.640134,1060.11426 833.172363,1060.58301 C833.704593,1061.05176 834.483393,1061.28613 835.508789,1061.28613 C836.524419,1061.28613 837.42773,1061.06397 838.21875,1060.61963 C839.00977,1060.17529 839.590818,1059.56739 839.961914,1058.7959 C840.245119,1058.20019 840.386719,1057.32129 840.386719,1056.15918 L840.386719,1055.19238 Z M847.139648,1063 L847.139648,1047.44336 L849.498047,1047.44336 L849.498047,1049.62598 C849.986331,1048.86425 850.635738,1048.25147 851.446289,1047.7876 C852.25684,1047.32373 853.179682,1047.0918 854.214844,1047.0918 C855.367193,1047.0918 856.312008,1047.33105 857.049316,1047.80957 C857.786625,1048.28809 858.306639,1048.95703 858.609375,1049.81641 C859.83985,1047.99999 861.441396,1047.0918 863.414062,1047.0918 C864.957039,1047.0918 866.143551,1047.51904 866.973633,1048.37354 C867.803715,1049.22803 868.21875,1050.54394 868.21875,1052.32129 L868.21875,1063 L865.59668,1063 L865.59668,1053.2002 C865.59668,1052.1455 865.511231,1051.38623 865.340332,1050.92236 C865.169433,1050.45849 864.859377,1050.08496 864.410156,1049.80176 C863.960935,1049.51855 863.433597,1049.37695 862.828125,1049.37695 C861.73437,1049.37695 860.826175,1049.74072 860.103516,1050.46826 C859.380856,1051.1958 859.019531,1052.36034 859.019531,1053.96191 L859.019531,1063 L856.382812,1063 L856.382812,1052.89258 C856.382812,1051.7207 856.167971,1050.8418 855.738281,1050.25586 C855.308592,1049.66992 854.605474,1049.37695 853.628906,1049.37695 C852.886715,1049.37695 852.200687,1049.57226 851.570801,1049.96289 C850.940915,1050.35352 850.484376,1050.9248 850.201172,1051.67676 C849.917967,1052.42871 849.776367,1053.51269 849.776367,1054.92871 L849.776367,1063 L847.139648,1063 Z M874.561523,1063 L872.115234,1063 L872.115234,1041.52539 L874.751953,1041.52539 L874.751953,1049.18652 C875.86524,1047.79003 877.286124,1047.0918 879.014648,1047.0918 C879.971684,1047.0918 880.877437,1047.28467 881.731934,1047.67041 C882.58643,1048.05615 883.289548,1048.59814 883.841309,1049.29639 C884.393069,1049.99463 884.825194,1050.83691 885.137695,1051.82324 C885.450197,1052.80958 885.606445,1053.86425 885.606445,1054.9873 C885.606445,1057.65333 884.947272,1059.71386 883.628906,1061.16895 C882.31054,1062.62403 880.728525,1063.35156 878.882812,1063.35156 C877.046866,1063.35156 875.606451,1062.58497 874.561523,1061.05176 L874.561523,1063 Z M874.532227,1055.10449 C874.532227,1056.96974 874.78613,1058.31738 875.293945,1059.14746 C876.124028,1060.50489 877.247063,1061.18359 878.663086,1061.18359 C879.815435,1061.18359 880.811519,1060.68311 881.651367,1059.68213 C882.491215,1058.68115 882.911133,1057.18946 882.911133,1055.20703 C882.911133,1053.17577 882.508305,1051.67676 881.702637,1050.70996 C880.896969,1049.74316 879.922857,1049.25977 878.780273,1049.25977 C877.627924,1049.25977 876.63184,1049.76025 875.791992,1050.76123 C874.952144,1051.76221 874.532227,1053.20995 874.532227,1055.10449 Z M899.463867,1057.99023 L902.188477,1058.32715 C901.758787,1059.91895 900.962896,1061.15429 899.800781,1062.0332 C898.638666,1062.91211 897.154306,1063.35156 895.347656,1063.35156 C893.072254,1063.35156 891.268073,1062.65089 889.935059,1061.24951 C888.602044,1059.84814 887.935547,1057.88283 887.935547,1055.35352 C887.935547,1052.73632 888.609368,1050.70509 889.957031,1049.25977 C891.304694,1047.81445 893.052724,1047.0918 895.201172,1047.0918 C897.28126,1047.0918 898.980462,1047.7998 900.298828,1049.21582 C901.617194,1050.63184 902.276367,1052.62401 902.276367,1055.19238 C902.276367,1055.34863 902.271484,1055.58301 902.261719,1055.89551 L890.660156,1055.89551 C890.757813,1057.6045 891.241207,1058.91308 892.110352,1059.82129 C892.979497,1060.7295 894.06347,1061.18359 895.362305,1061.18359 C896.329106,1061.18359 897.154293,1060.92969 897.837891,1060.42188 C898.521488,1059.91406 899.063475,1059.10352 899.463867,1057.99023 Z M890.806641,1053.72754 L899.493164,1053.72754 C899.375976,1052.41894 899.043948,1051.4375 898.49707,1050.7832 C897.657222,1049.76757 896.568366,1049.25977 895.230469,1049.25977 C894.019525,1049.25977 893.001469,1049.66504 892.17627,1050.47559 C891.35107,1051.28614 890.894532,1052.37011 890.806641,1053.72754 Z M905.015625,1064.28906 L907.579102,1064.66992 C907.686524,1065.46094 907.984373,1066.03711 908.472656,1066.39844 C909.126956,1066.88672 910.020502,1067.13086 911.15332,1067.13086 C912.37403,1067.13086 913.316403,1066.88672 913.980469,1066.39844 C914.644535,1065.91015 915.093749,1065.22657 915.328125,1064.34766 C915.464844,1063.81054 915.52832,1062.68263 915.518555,1060.96387 C914.366205,1062.3213 912.930673,1063 911.211914,1063 C909.073231,1063 907.417975,1062.22852 906.246094,1060.68555 C905.074213,1059.14257 904.488281,1057.292 904.488281,1055.13379 C904.488281,1053.64941 904.756833,1052.27979 905.293945,1051.0249 C905.831057,1049.77001 906.609858,1048.80078 907.630371,1048.11719 C908.650884,1047.43359 909.849602,1047.0918 911.226562,1047.0918 C913.062509,1047.0918 914.576166,1047.83398 915.767578,1049.31836 L915.767578,1047.44336 L918.199219,1047.44336 L918.199219,1060.89062 C918.199219,1063.31251 917.952639,1065.0288 917.459473,1066.03955 C916.966306,1067.0503 916.185064,1067.84863 915.115723,1068.43457 C914.046381,1069.02051 912.730477,1069.31348 911.167969,1069.31348 C909.312491,1069.31348 907.813482,1068.896 906.670898,1068.06104 C905.528315,1067.22607 904.976562,1065.96876 905.015625,1064.28906 Z M907.198242,1054.94336 C907.198242,1056.98439 907.603512,1058.47363 908.414062,1059.41113 C909.224613,1060.34864 910.240228,1060.81738 911.460938,1060.81738 C912.671881,1060.81738 913.687496,1060.35108 914.507812,1059.41846 C915.328129,1058.48584 915.738281,1057.02345 915.738281,1055.03125 C915.738281,1053.12694 915.315922,1051.69141 914.471191,1050.72461 C913.626461,1049.75781 912.608404,1049.27441 911.416992,1049.27441 C910.245111,1049.27441 909.249028,1049.75048 908.428711,1050.70264 C907.608394,1051.65479 907.198242,1053.06835 907.198242,1054.94336 Z M921.202148,1055.22168 C921.202148,1052.34081 922.002922,1050.20704 923.604492,1048.82031 C924.94239,1047.66796 926.573233,1047.0918 928.49707,1047.0918 C930.635753,1047.0918 932.383782,1047.79247 933.741211,1049.19385 C935.09864,1050.59522 935.777344,1052.53124 935.777344,1055.00195 C935.777344,1057.00392 935.477054,1058.57861 934.876465,1059.72607 C934.275876,1060.87354 933.401861,1061.76465 932.254395,1062.39941 C931.106928,1063.03418 929.854499,1063.35156 928.49707,1063.35156 C926.319325,1063.35156 924.559089,1062.65333 923.216309,1061.25684 C921.873528,1059.86034 921.202148,1057.84865 921.202148,1055.22168 Z M923.912109,1055.22168 C923.912109,1057.21388 924.346675,1058.70556 925.21582,1059.69678 C926.084965,1060.68799 927.178704,1061.18359 928.49707,1061.18359 C929.805671,1061.18359 930.894527,1060.68555 931.763672,1059.68945 C932.632817,1058.69335 933.067383,1057.17481 933.067383,1055.13379 C933.067383,1053.20995 932.630375,1051.75245 931.756348,1050.76123 C930.88232,1049.77001 929.795905,1049.27441 928.49707,1049.27441 C927.178704,1049.27441 926.084965,1049.76757 925.21582,1050.75391 C924.346675,1051.74024 923.912109,1053.22948 923.912109,1055.22168 Z M939.615234,1063 L939.615234,1059.99707 L942.618164,1059.99707 L942.618164,1063 L939.615234,1063 Z M949.634766,1063 L947.188477,1063 L947.188477,1041.52539 L949.825195,1041.52539 L949.825195,1049.18652 C950.938482,1047.79003 952.359366,1047.0918 954.087891,1047.0918 C955.044927,1047.0918 955.950679,1047.28467 956.805176,1047.67041 C957.659672,1048.05615 958.36279,1048.59814 958.914551,1049.29639 C959.466311,1049.99463 959.898436,1050.83691 960.210938,1051.82324 C960.523439,1052.80958 960.679688,1053.86425 960.679688,1054.9873 C960.679688,1057.65333 960.020514,1059.71386 958.702148,1061.16895 C957.383782,1062.62403 955.801767,1063.35156 953.956055,1063.35156 C952.120108,1063.35156 950.679693,1062.58497 949.634766,1061.05176 L949.634766,1063 Z M949.605469,1055.10449 C949.605469,1056.96974 949.859372,1058.31738 950.367188,1059.14746 C951.19727,1060.50489 952.320305,1061.18359 953.736328,1061.18359 C954.888678,1061.18359 955.884761,1060.68311 956.724609,1059.68213 C957.564457,1058.68115 957.984375,1057.18946 957.984375,1055.20703 C957.984375,1053.17577 957.581547,1051.67676 956.775879,1050.70996 C955.970211,1049.74316 954.996099,1049.25977 953.853516,1049.25977 C952.701166,1049.25977 951.705082,1049.76025 950.865234,1050.76123 C950.025386,1051.76221 949.605469,1053.20995 949.605469,1055.10449 Z M974.537109,1057.99023 L977.261719,1058.32715 C976.832029,1059.91895 976.036139,1061.15429 974.874023,1062.0332 C973.711908,1062.91211 972.227548,1063.35156 970.420898,1063.35156 C968.145496,1063.35156 966.341315,1062.65089 965.008301,1061.24951 C963.675286,1059.84814 963.008789,1057.88283 963.008789,1055.35352 C963.008789,1052.73632 963.68261,1050.70509 965.030273,1049.25977 C966.377936,1047.81445 968.125966,1047.0918 970.274414,1047.0918 C972.354503,1047.0918 974.053704,1047.7998 975.37207,1049.21582 C976.690436,1050.63184 977.349609,1052.62401 977.349609,1055.19238 C977.349609,1055.34863 977.344727,1055.58301 977.334961,1055.89551 L965.733398,1055.89551 C965.831055,1057.6045 966.314449,1058.91308 967.183594,1059.82129 C968.052739,1060.7295 969.136712,1061.18359 970.435547,1061.18359 C971.402349,1061.18359 972.227536,1060.92969 972.911133,1060.42188 C973.59473,1059.91406 974.136717,1059.10352 974.537109,1057.99023 Z M965.879883,1053.72754 L974.566406,1053.72754 C974.449218,1052.41894 974.11719,1051.4375 973.570312,1050.7832 C972.730465,1049.76757 971.641608,1049.25977 970.303711,1049.25977 C969.092767,1049.25977 968.074711,1049.66504 967.249512,1050.47559 C966.424312,1051.28614 965.967774,1052.37011 965.879883,1053.72754 Z" id="pay.sambego.be" fill="#000000"></path>
    </g>
</svg>