<?xml version="1.0" encoding="UTF-8"?>
<svg width="1656px" height="318px" viewBox="0 0 1656 318" version="1.1" xmlns="http://www.w3.org/2000/svg" xmlns:xlink="http://www.w3.org/1999/xlink">
    <!-- Generator: Sketch 52.4 (67378) - http://www.bohemiancoding.com/sketch -->
    <title>2</title>
    <desc>Created with Sketch.</desc>
    <defs>
        <path d="M1140.17676,106 L1137.54004,106 L1137.54004,89.1982422 C1136.90527,89.803714 1136.07276,90.4091767 1135.04248,91.0146484 C1134.0122,91.6201202 1133.08692,92.0742172 1132.2666,92.3769531 L1132.2666,89.828125 C1133.74122,89.1347622 1135.03027,88.2949268 1136.13379,87.3085938 C1137.23731,86.3222607 1138.01855,85.365239 1138.47754,84.4375 L1140.17676,84.4375 L1140.17676,106 Z M1160.78711,103.46582 L1160.78711,106 L1146.59277,106 C1146.57324,105.365231 1146.67578,104.754886 1146.90039,104.168945 C1147.26172,103.202144 1147.84033,102.250005 1148.63623,101.3125 C1149.43213,100.374995 1150.58202,99.2910218 1152.08594,98.0605469 C1154.41993,96.1464748 1155.99707,94.6303767 1156.81738,93.512207 C1157.6377,92.3940374 1158.04785,91.336919 1158.04785,90.3408203 C1158.04785,89.2958932 1157.67432,88.4145544 1156.92725,87.6967773 C1156.18017,86.9790003 1155.20606,86.6201172 1154.00488,86.6201172 C1152.73535,86.6201172 1151.71973,87.0009728 1150.95801,87.7626953 C1150.19629,88.5244179 1149.81055,89.5790948 1149.80078,90.9267578 L1147.09082,90.6484375 C1147.27637,88.626943 1147.9746,87.0864311 1149.18555,86.0268555 C1150.39649,84.9672799 1152.02245,84.4375 1154.06348,84.4375 C1156.12403,84.4375 1157.75488,85.0087833 1158.95605,86.1513672 C1160.15723,87.293951 1160.75781,88.7099525 1160.75781,90.3994141 C1160.75781,91.2587934 1160.58203,92.1035115 1160.23047,92.9335938 C1159.8789,93.763676 1159.29541,94.6376907 1158.47998,95.5556641 C1157.66455,96.4736374 1156.30958,97.7333904 1154.41504,99.3349609 C1152.833,100.663093 1151.81739,101.563962 1151.36816,102.037598 C1150.91894,102.511233 1150.54785,102.987302 1150.25488,103.46582 L1160.78711,103.46582 Z M1163.62891,100.331055 L1166.26562,99.9794922 C1166.56836,101.47364 1167.08349,102.55029 1167.81104,103.209473 C1168.53858,103.868656 1169.4248,104.198242 1170.46973,104.198242 C1171.70997,104.198242 1172.75732,103.768559 1173.61182,102.90918 C1174.46631,102.0498 1174.89355,100.985358 1174.89355,99.7158203 C1174.89355,98.5048768 1174.49805,97.5063516 1173.70703,96.7202148 C1172.91601,95.9340781 1171.91016,95.5410156 1170.68945,95.5410156 C1170.1914,95.5410156 1169.57129,95.6386709 1168.8291,95.8339844 L1169.12207,93.5195312 C1169.29785,93.5390626 1169.43945,93.5488281 1169.54688,93.5488281 C1170.66993,93.5488281 1171.68066,93.2558623 1172.5791,92.6699219 C1173.47754,92.0839814 1173.92676,91.1806702 1173.92676,89.9599609 C1173.92676,88.9931592 1173.59961,88.192386 1172.94531,87.5576172 C1172.29101,86.9228484 1171.44629,86.6054688 1170.41113,86.6054688 C1169.38574,86.6054688 1168.53125,86.9277312 1167.84766,87.5722656 C1167.16406,88.2168001 1166.72461,89.1835873 1166.5293,90.4726562 L1163.89258,90.0039062 C1164.21485,88.2363193 1164.94726,86.8667041 1166.08984,85.8950195 C1167.23243,84.923335 1168.65331,84.4375 1170.35254,84.4375 C1171.52442,84.4375 1172.60351,84.6889623 1173.58984,85.1918945 C1174.57618,85.6948267 1175.33056,86.380855 1175.85303,87.25 C1176.37549,88.119145 1176.63672,89.0419873 1176.63672,90.0185547 C1176.63672,90.9462937 1176.3877,91.7910118 1175.88965,92.5527344 C1175.3916,93.3144569 1174.6543,93.9199196 1173.67773,94.3691406 C1174.94727,94.6621108 1175.93359,95.2700149 1176.63672,96.1928711 C1177.33985,97.1157273 1177.69141,98.2705009 1177.69141,99.6572266 C1177.69141,101.532236 1177.00782,103.121576 1175.64062,104.425293 C1174.27343,105.72901 1172.54493,106.380859 1170.45508,106.380859 C1168.5703,106.380859 1167.00538,105.819342 1165.76025,104.696289 C1164.51513,103.573237 1163.80469,102.118173 1163.62891,100.331055 Z M1188.75098,106 L1188.75098,100.858398 L1179.43457,100.858398 L1179.43457,98.4414062 L1189.23438,84.5253906 L1191.3877,84.5253906 L1191.3877,98.4414062 L1194.28809,98.4414062 L1194.28809,100.858398 L1191.3877,100.858398 L1191.3877,106 L1188.75098,106 Z M1188.75098,98.4414062 L1188.75098,88.7587891 L1182.02734,98.4414062 L1188.75098,98.4414062 Z M1196.9834,100.375 L1199.75195,100.140625 C1199.95703,101.488288 1200.4331,102.501461 1201.18018,103.180176 C1201.92725,103.85889 1202.82812,104.198242 1203.88281,104.198242 C1205.15235,104.198242 1206.22656,103.719731 1207.10547,102.762695 C1207.98438,101.805659 1208.42383,100.536141 1208.42383,98.9541016 C1208.42383,97.4501878 1208.00147,96.2636762 1207.15674,95.3945312 C1206.31201,94.5253863 1205.20606,94.0908203 1203.83887,94.0908203 C1202.98925,94.0908203 1202.22266,94.2836895 1201.53906,94.6694336 C1200.85547,95.0551777 1200.31836,95.555661 1199.92773,96.1708984 L1197.45215,95.8486328 L1199.53223,84.8183594 L1210.21094,84.8183594 L1210.21094,87.3378906 L1201.6416,87.3378906 L1200.48438,93.109375 C1201.77344,92.210933 1203.12597,91.7617188 1204.54199,91.7617188 C1206.417,91.7617188 1207.99902,92.4111263 1209.28809,93.7099609 C1210.57715,95.0087956 1211.22168,96.6787007 1211.22168,98.7197266 C1211.22168,100.663096 1210.65528,102.342766 1209.52246,103.758789 C1208.1455,105.497079 1206.26564,106.366211 1203.88281,106.366211 C1201.92968,106.366211 1200.33546,105.819341 1199.1001,104.725586 C1197.86474,103.63183 1197.15918,102.18165 1196.9834,100.375 Z" id="path-1"></path>
        <path d="M1130.24512,133.375 L1133.01367,133.140625 C1133.21875,134.488288 1133.69482,135.501461 1134.44189,136.180176 C1135.18897,136.85889 1136.08984,137.198242 1137.14453,137.198242 C1138.41407,137.198242 1139.48828,136.719731 1140.36719,135.762695 C1141.2461,134.805659 1141.68555,133.536141 1141.68555,131.954102 C1141.68555,130.450188 1141.26319,129.263676 1140.41846,128.394531 C1139.57373,127.525386 1138.46778,127.09082 1137.10059,127.09082 C1136.25097,127.09082 1135.48438,127.283689 1134.80078,127.669434 C1134.11718,128.055178 1133.58008,128.555661 1133.18945,129.170898 L1130.71387,128.848633 L1132.79395,117.818359 L1143.47266,117.818359 L1143.47266,120.337891 L1134.90332,120.337891 L1133.74609,126.109375 C1135.03516,125.210933 1136.38769,124.761719 1137.80371,124.761719 C1139.67872,124.761719 1141.26074,125.411126 1142.5498,126.709961 C1143.83887,128.008796 1144.4834,129.678701 1144.4834,131.719727 C1144.4834,133.663096 1143.917,135.342766 1142.78418,136.758789 C1141.40722,138.497079 1139.52736,139.366211 1137.14453,139.366211 C1135.1914,139.366211 1133.59717,138.819341 1132.36182,137.725586 C1131.12646,136.63183 1130.4209,135.18165 1130.24512,133.375 Z M1160.61133,122.78418 L1157.98926,122.989258 C1157.75488,121.954096 1157.42285,121.202151 1156.99316,120.733398 C1156.28027,119.981442 1155.40137,119.605469 1154.35645,119.605469 C1153.5166,119.605469 1152.7793,119.839841 1152.14453,120.308594 C1151.31445,120.914066 1150.66016,121.797846 1150.18164,122.959961 C1149.70312,124.122076 1149.4541,125.777333 1149.43457,127.925781 C1150.06934,126.95898 1150.8457,126.241213 1151.76367,125.772461 C1152.68165,125.303709 1153.64355,125.069336 1154.64941,125.069336 C1156.40724,125.069336 1157.9038,125.716302 1159.13916,127.010254 C1160.37452,128.304206 1160.99219,129.976552 1160.99219,132.027344 C1160.99219,133.375007 1160.70166,134.627436 1160.12061,135.784668 C1159.53955,136.9419 1158.74122,137.828122 1157.72559,138.443359 C1156.70996,139.058597 1155.55762,139.366211 1154.26855,139.366211 C1152.07128,139.366211 1150.2793,138.558114 1148.89258,136.941895 C1147.50585,135.325676 1146.8125,132.662128 1146.8125,128.951172 C1146.8125,124.80076 1147.57909,121.783213 1149.1123,119.898438 C1150.4502,118.257804 1152.25194,117.4375 1154.51758,117.4375 C1156.20704,117.4375 1157.5913,117.911128 1158.67041,118.858398 C1159.74952,119.805669 1160.39648,121.114249 1160.61133,122.78418 Z M1149.84473,132.041992 C1149.84473,132.9502 1150.0376,133.819332 1150.42334,134.649414 C1150.80908,135.479496 1151.34863,136.111814 1152.04199,136.546387 C1152.73536,136.980959 1153.46289,137.198242 1154.22461,137.198242 C1155.3379,137.198242 1156.29492,136.749028 1157.0957,135.850586 C1157.89649,134.952144 1158.29688,133.731453 1158.29688,132.188477 C1158.29688,130.704094 1157.90137,129.534672 1157.11035,128.680176 C1156.31933,127.825679 1155.32325,127.398438 1154.12207,127.398438 C1152.93066,127.398438 1151.91993,127.825679 1151.08984,128.680176 C1150.25976,129.534672 1149.84473,130.655267 1149.84473,132.041992 Z M1163.62891,133.331055 L1166.26562,132.979492 C1166.56836,134.47364 1167.08349,135.55029 1167.81104,136.209473 C1168.53858,136.868656 1169.4248,137.198242 1170.46973,137.198242 C1171.70997,137.198242 1172.75732,136.768559 1173.61182,135.90918 C1174.46631,135.0498 1174.89355,133.985358 1174.89355,132.71582 C1174.89355,131.504877 1174.49805,130.506352 1173.70703,129.720215 C1172.91601,128.934078 1171.91016,128.541016 1170.68945,128.541016 C1170.1914,128.541016 1169.57129,128.638671 1168.8291,128.833984 L1169.12207,126.519531 C1169.29785,126.539063 1169.43945,126.548828 1169.54688,126.548828 C1170.66993,126.548828 1171.68066,126.255862 1172.5791,125.669922 C1173.47754,125.083981 1173.92676,124.18067 1173.92676,122.959961 C1173.92676,121.993159 1173.59961,121.192386 1172.94531,120.557617 C1172.29101,119.922848 1171.44629,119.605469 1170.41113,119.605469 C1169.38574,119.605469 1168.53125,119.927731 1167.84766,120.572266 C1167.16406,121.2168 1166.72461,122.183587 1166.5293,123.472656 L1163.89258,123.003906 C1164.21485,121.236319 1164.94726,119.866704 1166.08984,118.89502 C1167.23243,117.923335 1168.65331,117.4375 1170.35254,117.4375 C1171.52442,117.4375 1172.60351,117.688962 1173.58984,118.191895 C1174.57618,118.694827 1175.33056,119.380855 1175.85303,120.25 C1176.37549,121.119145 1176.63672,122.041987 1176.63672,123.018555 C1176.63672,123.946294 1176.3877,124.791012 1175.88965,125.552734 C1175.3916,126.314457 1174.6543,126.91992 1173.67773,127.369141 C1174.94727,127.662111 1175.93359,128.270015 1176.63672,129.192871 C1177.33985,130.115727 1177.69141,131.270501 1177.69141,132.657227 C1177.69141,134.532236 1177.00782,136.121576 1175.64062,137.425293 C1174.27343,138.72901 1172.54493,139.380859 1170.45508,139.380859 C1168.5703,139.380859 1167.00538,138.819342 1165.76025,137.696289 C1164.51513,136.573237 1163.80469,135.118173 1163.62891,133.331055 Z M1188.75098,139 L1188.75098,133.858398 L1179.43457,133.858398 L1179.43457,131.441406 L1189.23438,117.525391 L1191.3877,117.525391 L1191.3877,131.441406 L1194.28809,131.441406 L1194.28809,133.858398 L1191.3877,133.858398 L1191.3877,139 L1188.75098,139 Z M1188.75098,131.441406 L1188.75098,121.758789 L1182.02734,131.441406 L1188.75098,131.441406 Z M1196.9834,133.375 L1199.75195,133.140625 C1199.95703,134.488288 1200.4331,135.501461 1201.18018,136.180176 C1201.92725,136.85889 1202.82812,137.198242 1203.88281,137.198242 C1205.15235,137.198242 1206.22656,136.719731 1207.10547,135.762695 C1207.98438,134.805659 1208.42383,133.536141 1208.42383,131.954102 C1208.42383,130.450188 1208.00147,129.263676 1207.15674,128.394531 C1206.31201,127.525386 1205.20606,127.09082 1203.83887,127.09082 C1202.98925,127.09082 1202.22266,127.283689 1201.53906,127.669434 C1200.85547,128.055178 1200.31836,128.555661 1199.92773,129.170898 L1197.45215,128.848633 L1199.53223,117.818359 L1210.21094,117.818359 L1210.21094,120.337891 L1201.6416,120.337891 L1200.48438,126.109375 C1201.77344,125.210933 1203.12597,124.761719 1204.54199,124.761719 C1206.417,124.761719 1207.99902,125.411126 1209.28809,126.709961 C1210.57715,128.008796 1211.22168,129.678701 1211.22168,131.719727 C1211.22168,133.663096 1210.65528,135.342766 1209.52246,136.758789 C1208.1455,138.497079 1206.26564,139.366211 1203.88281,139.366211 C1201.92968,139.366211 1200.33546,138.819341 1199.1001,137.725586 C1197.86474,136.63183 1197.15918,135.18165 1196.9834,133.375 Z" id="path-2"></path>
        <path d="M1130.25977,166.331055 L1132.89648,165.979492 C1133.19922,167.47364 1133.71435,168.55029 1134.44189,169.209473 C1135.16944,169.868656 1136.05566,170.198242 1137.10059,170.198242 C1138.34083,170.198242 1139.38818,169.768559 1140.24268,168.90918 C1141.09717,168.0498 1141.52441,166.985358 1141.52441,165.71582 C1141.52441,164.504877 1141.12891,163.506352 1140.33789,162.720215 C1139.54687,161.934078 1138.54102,161.541016 1137.32031,161.541016 C1136.82226,161.541016 1136.20215,161.638671 1135.45996,161.833984 L1135.75293,159.519531 C1135.92871,159.539063 1136.07031,159.548828 1136.17773,159.548828 C1137.30079,159.548828 1138.31152,159.255862 1139.20996,158.669922 C1140.1084,158.083981 1140.55762,157.18067 1140.55762,155.959961 C1140.55762,154.993159 1140.23047,154.192386 1139.57617,153.557617 C1138.92187,152.922848 1138.07715,152.605469 1137.04199,152.605469 C1136.0166,152.605469 1135.16211,152.927731 1134.47852,153.572266 C1133.79492,154.2168 1133.35547,155.183587 1133.16016,156.472656 L1130.52344,156.003906 C1130.8457,154.236319 1131.57812,152.866704 1132.7207,151.89502 C1133.86329,150.923335 1135.28417,150.4375 1136.9834,150.4375 C1138.15528,150.4375 1139.23437,150.688962 1140.2207,151.191895 C1141.20704,151.694827 1141.96142,152.380855 1142.48389,153.25 C1143.00635,154.119145 1143.26758,155.041987 1143.26758,156.018555 C1143.26758,156.946294 1143.01856,157.791012 1142.52051,158.552734 C1142.02246,159.314457 1141.28516,159.91992 1140.30859,160.369141 C1141.57813,160.662111 1142.56445,161.270015 1143.26758,162.192871 C1143.97071,163.115727 1144.32227,164.270501 1144.32227,165.657227 C1144.32227,167.532236 1143.63868,169.121576 1142.27148,170.425293 C1140.90429,171.72901 1139.17579,172.380859 1137.08594,172.380859 C1135.20116,172.380859 1133.63624,171.819342 1132.39111,170.696289 C1131.14599,169.573237 1130.43555,168.118173 1130.25977,166.331055 Z M1155.38184,172 L1155.38184,166.858398 L1146.06543,166.858398 L1146.06543,164.441406 L1155.86523,150.525391 L1158.01855,150.525391 L1158.01855,164.441406 L1160.91895,164.441406 L1160.91895,166.858398 L1158.01855,166.858398 L1158.01855,172 L1155.38184,172 Z M1155.38184,164.441406 L1155.38184,154.758789 L1148.6582,164.441406 L1155.38184,164.441406 Z M1163.61426,166.375 L1166.38281,166.140625 C1166.58789,167.488288 1167.06396,168.501461 1167.81104,169.180176 C1168.55811,169.85889 1169.45898,170.198242 1170.51367,170.198242 C1171.78321,170.198242 1172.85742,169.719731 1173.73633,168.762695 C1174.61524,167.805659 1175.05469,166.536141 1175.05469,164.954102 C1175.05469,163.450188 1174.63233,162.263676 1173.7876,161.394531 C1172.94287,160.525386 1171.83692,160.09082 1170.46973,160.09082 C1169.62011,160.09082 1168.85352,160.283689 1168.16992,160.669434 C1167.48632,161.055178 1166.94922,161.555661 1166.55859,162.170898 L1164.08301,161.848633 L1166.16309,150.818359 L1176.8418,150.818359 L1176.8418,153.337891 L1168.27246,153.337891 L1167.11523,159.109375 C1168.4043,158.210933 1169.75683,157.761719 1171.17285,157.761719 C1173.04786,157.761719 1174.62988,158.411126 1175.91895,159.709961 C1177.20801,161.008796 1177.85254,162.678701 1177.85254,164.719727 C1177.85254,166.663096 1177.28614,168.342766 1176.15332,169.758789 C1174.77636,171.497079 1172.8965,172.366211 1170.51367,172.366211 C1168.56054,172.366211 1166.96631,171.819341 1165.73096,170.725586 C1164.4956,169.63183 1163.79004,168.18165 1163.61426,166.375 Z M1180.31348,166.331055 L1182.9502,165.979492 C1183.25293,167.47364 1183.76806,168.55029 1184.49561,169.209473 C1185.22315,169.868656 1186.10937,170.198242 1187.1543,170.198242 C1188.39454,170.198242 1189.44189,169.768559 1190.29639,168.90918 C1191.15088,168.0498 1191.57812,166.985358 1191.57812,165.71582 C1191.57812,164.504877 1191.18262,163.506352 1190.3916,162.720215 C1189.60058,161.934078 1188.59473,161.541016 1187.37402,161.541016 C1186.87597,161.541016 1186.25586,161.638671 1185.51367,161.833984 L1185.80664,159.519531 C1185.98242,159.539063 1186.12402,159.548828 1186.23145,159.548828 C1187.3545,159.548828 1188.36523,159.255862 1189.26367,158.669922 C1190.16211,158.083981 1190.61133,157.18067 1190.61133,155.959961 C1190.61133,154.993159 1190.28418,154.192386 1189.62988,153.557617 C1188.97558,152.922848 1188.13086,152.605469 1187.0957,152.605469 C1186.07031,152.605469 1185.21582,152.927731 1184.53223,153.572266 C1183.84863,154.2168 1183.40918,155.183587 1183.21387,156.472656 L1180.57715,156.003906 C1180.89942,154.236319 1181.63183,152.866704 1182.77441,151.89502 C1183.917,150.923335 1185.33788,150.4375 1187.03711,150.4375 C1188.20899,150.4375 1189.28808,150.688962 1190.27441,151.191895 C1191.26075,151.694827 1192.01513,152.380855 1192.5376,153.25 C1193.06006,154.119145 1193.32129,155.041987 1193.32129,156.018555 C1193.32129,156.946294 1193.07227,157.791012 1192.57422,158.552734 C1192.07617,159.314457 1191.33887,159.91992 1190.3623,160.369141 C1191.63184,160.662111 1192.61816,161.270015 1193.32129,162.192871 C1194.02442,163.115727 1194.37598,164.270501 1194.37598,165.657227 C1194.37598,167.532236 1193.69239,169.121576 1192.3252,170.425293 C1190.958,171.72901 1189.2295,172.380859 1187.13965,172.380859 C1185.25487,172.380859 1183.68995,171.819342 1182.44482,170.696289 C1181.1997,169.573237 1180.48926,168.118173 1180.31348,166.331055 Z M1205.43555,172 L1205.43555,166.858398 L1196.11914,166.858398 L1196.11914,164.441406 L1205.91895,150.525391 L1208.07227,150.525391 L1208.07227,164.441406 L1210.97266,164.441406 L1210.97266,166.858398 L1208.07227,166.858398 L1208.07227,172 L1205.43555,172 Z M1205.43555,164.441406 L1205.43555,154.758789 L1198.71191,164.441406 L1205.43555,164.441406 Z" id="path-3"></path>
        <path d="M1130.25977,199.331055 L1132.89648,198.979492 C1133.19922,200.47364 1133.71435,201.55029 1134.44189,202.209473 C1135.16944,202.868656 1136.05566,203.198242 1137.10059,203.198242 C1138.34083,203.198242 1139.38818,202.768559 1140.24268,201.90918 C1141.09717,201.0498 1141.52441,199.985358 1141.52441,198.71582 C1141.52441,197.504877 1141.12891,196.506352 1140.33789,195.720215 C1139.54687,194.934078 1138.54102,194.541016 1137.32031,194.541016 C1136.82226,194.541016 1136.20215,194.638671 1135.45996,194.833984 L1135.75293,192.519531 C1135.92871,192.539063 1136.07031,192.548828 1136.17773,192.548828 C1137.30079,192.548828 1138.31152,192.255862 1139.20996,191.669922 C1140.1084,191.083981 1140.55762,190.18067 1140.55762,188.959961 C1140.55762,187.993159 1140.23047,187.192386 1139.57617,186.557617 C1138.92187,185.922848 1138.07715,185.605469 1137.04199,185.605469 C1136.0166,185.605469 1135.16211,185.927731 1134.47852,186.572266 C1133.79492,187.2168 1133.35547,188.183587 1133.16016,189.472656 L1130.52344,189.003906 C1130.8457,187.236319 1131.57812,185.866704 1132.7207,184.89502 C1133.86329,183.923335 1135.28417,183.4375 1136.9834,183.4375 C1138.15528,183.4375 1139.23437,183.688962 1140.2207,184.191895 C1141.20704,184.694827 1141.96142,185.380855 1142.48389,186.25 C1143.00635,187.119145 1143.26758,188.041987 1143.26758,189.018555 C1143.26758,189.946294 1143.01856,190.791012 1142.52051,191.552734 C1142.02246,192.314457 1141.28516,192.91992 1140.30859,193.369141 C1141.57813,193.662111 1142.56445,194.270015 1143.26758,195.192871 C1143.97071,196.115727 1144.32227,197.270501 1144.32227,198.657227 C1144.32227,200.532236 1143.63868,202.121576 1142.27148,203.425293 C1140.90429,204.72901 1139.17579,205.380859 1137.08594,205.380859 C1135.20116,205.380859 1133.63624,204.819342 1132.39111,203.696289 C1131.14599,202.573237 1130.43555,201.118173 1130.25977,199.331055 Z M1155.38184,205 L1155.38184,199.858398 L1146.06543,199.858398 L1146.06543,197.441406 L1155.86523,183.525391 L1158.01855,183.525391 L1158.01855,197.441406 L1160.91895,197.441406 L1160.91895,199.858398 L1158.01855,199.858398 L1158.01855,205 L1155.38184,205 Z M1155.38184,197.441406 L1155.38184,187.758789 L1148.6582,197.441406 L1155.38184,197.441406 Z M1163.61426,199.375 L1166.38281,199.140625 C1166.58789,200.488288 1167.06396,201.501461 1167.81104,202.180176 C1168.55811,202.85889 1169.45898,203.198242 1170.51367,203.198242 C1171.78321,203.198242 1172.85742,202.719731 1173.73633,201.762695 C1174.61524,200.805659 1175.05469,199.536141 1175.05469,197.954102 C1175.05469,196.450188 1174.63233,195.263676 1173.7876,194.394531 C1172.94287,193.525386 1171.83692,193.09082 1170.46973,193.09082 C1169.62011,193.09082 1168.85352,193.283689 1168.16992,193.669434 C1167.48632,194.055178 1166.94922,194.555661 1166.55859,195.170898 L1164.08301,194.848633 L1166.16309,183.818359 L1176.8418,183.818359 L1176.8418,186.337891 L1168.27246,186.337891 L1167.11523,192.109375 C1168.4043,191.210933 1169.75683,190.761719 1171.17285,190.761719 C1173.04786,190.761719 1174.62988,191.411126 1175.91895,192.709961 C1177.20801,194.008796 1177.85254,195.678701 1177.85254,197.719727 C1177.85254,199.663096 1177.28614,201.342766 1176.15332,202.758789 C1174.77636,204.497079 1172.8965,205.366211 1170.51367,205.366211 C1168.56054,205.366211 1166.96631,204.819341 1165.73096,203.725586 C1164.4956,202.63183 1163.79004,201.18165 1163.61426,199.375 Z M1193.98047,188.78418 L1191.3584,188.989258 C1191.12402,187.954096 1190.79199,187.202151 1190.3623,186.733398 C1189.64941,185.981442 1188.77051,185.605469 1187.72559,185.605469 C1186.88574,185.605469 1186.14844,185.839841 1185.51367,186.308594 C1184.68359,186.914066 1184.0293,187.797846 1183.55078,188.959961 C1183.07226,190.122076 1182.82324,191.777333 1182.80371,193.925781 C1183.43848,192.95898 1184.21484,192.241213 1185.13281,191.772461 C1186.05079,191.303709 1187.01269,191.069336 1188.01855,191.069336 C1189.77638,191.069336 1191.27294,191.716302 1192.5083,193.010254 C1193.74366,194.304206 1194.36133,195.976552 1194.36133,198.027344 C1194.36133,199.375007 1194.0708,200.627436 1193.48975,201.784668 C1192.90869,202.9419 1192.11036,203.828122 1191.09473,204.443359 C1190.0791,205.058597 1188.92676,205.366211 1187.6377,205.366211 C1185.44042,205.366211 1183.64844,204.558114 1182.26172,202.941895 C1180.87499,201.325676 1180.18164,198.662128 1180.18164,194.951172 C1180.18164,190.80076 1180.94823,187.783213 1182.48145,185.898438 C1183.81934,184.257804 1185.62108,183.4375 1187.88672,183.4375 C1189.57618,183.4375 1190.96044,183.911128 1192.03955,184.858398 C1193.11866,185.805669 1193.76562,187.114249 1193.98047,188.78418 Z M1183.21387,198.041992 C1183.21387,198.9502 1183.40674,199.819332 1183.79248,200.649414 C1184.17822,201.479496 1184.71777,202.111814 1185.41113,202.546387 C1186.1045,202.980959 1186.83203,203.198242 1187.59375,203.198242 C1188.70704,203.198242 1189.66406,202.749028 1190.46484,201.850586 C1191.26563,200.952144 1191.66602,199.731453 1191.66602,198.188477 C1191.66602,196.704094 1191.27051,195.534672 1190.47949,194.680176 C1189.68847,193.825679 1188.69239,193.398438 1187.49121,193.398438 C1186.2998,193.398438 1185.28907,193.825679 1184.45898,194.680176 C1183.6289,195.534672 1183.21387,196.655267 1183.21387,198.041992 Z M1205.43555,205 L1205.43555,199.858398 L1196.11914,199.858398 L1196.11914,197.441406 L1205.91895,183.525391 L1208.07227,183.525391 L1208.07227,197.441406 L1210.97266,197.441406 L1210.97266,199.858398 L1208.07227,199.858398 L1208.07227,205 L1205.43555,205 Z M1205.43555,197.441406 L1205.43555,187.758789 L1198.71191,197.441406 L1205.43555,197.441406 Z" id="path-4"></path>
    </defs>
    <g id="Page-1" stroke="none" stroke-width="1" fill="none" fill-rule="evenodd">
        <g id="2">
            <path d="M376.537943,145 L558,145 L558,126.221159 C558,124.442162 559.442162,123 561.221159,123 C561.721228,123 562.21443,123.116429 562.661705,123.340067 L610.218681,147.118555 C611.809865,147.914146 612.454819,149.84901 611.659228,151.440193 C611.347536,152.063576 610.842064,152.569048 610.218681,152.88074 L562.661705,176.659228 C561.070522,177.454819 559.135659,176.809865 558.340067,175.218681 C558.116429,174.771406 558,174.278204 558,173.778135 L558,155 L376.537943,155 C374.19313,167.522838 363.20332,177 350,177 C335.088312,177 323,164.911688 323,150 C323,135.088312 335.088312,123 350,123 C363.20332,123 374.19313,132.477162 376.537943,145 Z M333,150 C333,159.388841 340.611159,167 350,167 C359.388841,167 367,159.388841 367,150 C367,140.611159 359.388841,133 350,133 C340.611159,133 333,140.611159 333,150 Z" id="Line" fill="#000000" fill-rule="nonzero" transform="translate(467.500000, 150.000000) scale(-1, 1) translate(-467.500000, -150.000000) "></path>
            <path d="M1078.03794,145 L1259.5,145 L1259.5,126.221159 C1259.5,124.442162 1260.94216,123 1262.72116,123 C1263.22123,123 1263.71443,123.116429 1264.16171,123.340067 L1311.71868,147.118555 C1313.30986,147.914146 1313.95482,149.84901 1313.15923,151.440193 C1312.84754,152.063576 1312.34206,152.569048 1311.71868,152.88074 L1264.16171,176.659228 C1262.57052,177.454819 1260.63566,176.809865 1259.84007,175.218681 C1259.61643,174.771406 1259.5,174.278204 1259.5,173.778135 L1259.5,155 L1078.03794,155 C1075.69313,167.522838 1064.70332,177 1051.5,177 C1036.58831,177 1024.5,164.911688 1024.5,150 C1024.5,135.088312 1036.58831,123 1051.5,123 C1064.70332,123 1075.69313,132.477162 1078.03794,145 Z M1034.5,150 C1034.5,159.388841 1042.11116,167 1051.5,167 C1060.88884,167 1068.5,159.388841 1068.5,150 C1068.5,140.611159 1060.88884,133 1051.5,133 C1042.11116,133 1034.5,140.611159 1034.5,150 Z" id="Line" fill="#000000" fill-rule="nonzero" transform="translate(1169.000000, 150.000000) scale(-1, 1) translate(-1169.000000, -150.000000) "></path>
            <g id="User">
                <circle id="Oval" fill="#FFFFFF" cx="150" cy="150" r="143.877551"></circle>
                <path d="M150,300 C67.1572875,300 1.11022302e-14,232.842712 0,150 C-1.11022302e-14,67.1572875 67.1572875,2.22044605e-14 150,0 C232.842712,-2.22044605e-14 300,67.1572875 300,150 C300,189.782473 284.196474,227.93556 256.066017,256.066017 C227.93556,284.196474 189.782473,300 150,300 Z M150,12.5 C74.0608469,12.5 12.5,74.0608469 12.5,150 C12.5,225.939153 74.0608469,287.5 150,287.5 C225.939153,287.5 287.5,225.939153 287.5,150 C287.5,74.0608469 225.939153,12.5 150,12.5 Z" id="Shape" fill="#000000" fill-rule="nonzero"></path>
                <circle id="Oval" fill="#F99157" cx="150" cy="150" r="119.387755"></circle>
                <circle id="Oval" fill="#FFFFFF" cx="151.020408" cy="100" r="40.8163265"></circle>
                <path d="M80.5052967,183.311689 C89.6791053,152.006314 118.493531,130.52242 151.185969,130.612527 C184.77802,130.612527 217.121296,156.401479 221.991519,183.810026 C226.861742,211.218574 192.145793,216.326531 151.185969,216.326531 C110.226145,216.326531 73.262401,212.589001 80.5052967,183.311689 Z" id="Path" fill="#FFFFFF"></path>
            </g>
            <g id="Browser" transform="translate(640.000000, 1.000000)">
                <rect id="Rectangle" fill="#FFFFFF" x="7.8" y="8.3" width="345" height="270"></rect>
                <path d="M352.8,285.8 L7.8,285.8 C3.65786438,285.8 0.3,282.442136 0.3,278.3 L0.3,8.3 C0.3,4.15786438 3.65786438,0.8 7.8,0.8 L352.8,0.8 C356.942136,0.8 360.3,4.15786438 360.3,8.3 L360.3,278.3 C360.3,282.442136 356.942136,285.8 352.8,285.8 Z M15.3,270.8 L345.3,270.8 L345.3,15.8 L15.3,15.8 L15.3,270.8 Z" id="Shape" fill="#000000" fill-rule="nonzero"></path>
                <path d="M352.8,60.8 L7.8,60.8 C3.65786438,60.8 0.3,57.4421356 0.3,53.3 C0.3,49.1578644 3.65786438,45.8 7.8,45.8 L352.8,45.8 C356.942136,45.8 360.3,49.1578644 360.3,53.3 C360.3,57.4421356 356.942136,60.8 352.8,60.8 Z" id="Path" fill="#000000"></path>
                <circle id="Oval" fill="#000000" cx="30.3" cy="30.8" r="7.5"></circle>
                <circle id="Oval" fill="#000000" cx="60.3" cy="30.8" r="7.5"></circle>
                <circle id="Oval" fill="#000000" cx="90.3" cy="30.8" r="7.5"></circle>
                <path d="M240.3,195.8 L120.3,195.8 C116.157864,195.8 112.8,192.442136 112.8,188.3 L112.8,158.3 C112.8,154.157864 116.157864,150.8 120.3,150.8 L240.3,150.8 C244.442136,150.8 247.8,154.157864 247.8,158.3 L247.8,188.3 C247.8,192.442136 244.442136,195.8 240.3,195.8 Z M127.8,180.8 L232.8,180.8 L232.8,165.8 L127.8,165.8 L127.8,180.8 Z" id="Shape" fill="#000000" fill-rule="nonzero"></path>
                <rect id="Rectangle" fill="#F99157" x="15.45" y="60.8" width="329.85" height="37.8"></rect>
            </g>
            <g id="Server" transform="translate(1345.000000, 4.000000)">
                <rect id="Rectangle" fill="#F99157" x="68.3478261" y="79.0869565" width="177.913043" height="158.347826"></rect>
                <path d="M246.26087,243.826087 L68.3478261,243.826087 C64.745969,243.826087 61.826087,240.906205 61.826087,237.304348 L61.826087,79.0869565 C61.826087,75.4850995 64.745969,72.5652174 68.3478261,72.5652174 L246.26087,72.5652174 C249.862727,72.5652174 252.782609,75.4850995 252.782609,79.0869565 L252.782609,237.565217 C252.642514,241.064808 249.763262,243.82889 246.26087,243.826087 Z M74.8695652,230.782609 L239.73913,230.782609 L239.73913,85.6086957 L74.8695652,85.6086957 L74.8695652,230.782609 Z" id="Shape" fill="#000000" fill-rule="nonzero"></path>
                <rect id="Rectangle" fill="#FFFFFF" x="51.1304348" y="129.043478" width="212.217391" height="58.6956522"></rect>
                <path d="M263.347826,194.26087 L51.1304348,194.26087 C47.5577158,194.191477 44.6780883,191.311849 44.6086957,187.73913 L44.6086957,129.043478 C44.6086957,125.441621 47.5285777,122.521739 51.1304348,122.521739 L263.347826,122.521739 C266.949683,122.521739 269.869565,125.441621 269.869565,129.043478 L269.869565,187.73913 C269.869565,191.340987 266.949683,194.26087 263.347826,194.26087 Z M57.6521739,181.217391 L256.826087,181.217391 L256.826087,135.565217 L57.6521739,135.565217 L57.6521739,181.217391 Z" id="Shape" fill="#000000" fill-rule="nonzero"></path>
                <rect id="Rectangle" fill="#FFFFFF" x="51.1304348" y="38.6521739" width="212.217391" height="58.6956522"></rect>
                <path d="M263.347826,103.869565 L51.1304348,103.869565 C47.5577158,103.800173 44.6780883,100.920545 44.6086957,97.3478261 L44.6086957,38.6521739 C44.6086957,35.0503168 47.5285777,32.1304348 51.1304348,32.1304348 L263.347826,32.1304348 C266.949683,32.1304348 269.869565,35.0503168 269.869565,38.6521739 L269.869565,97.3478261 C269.869565,100.949683 266.949683,103.869565 263.347826,103.869565 Z M57.6521739,90.826087 L256.826087,90.826087 L256.826087,45.173913 L57.6521739,45.173913 L57.6521739,90.826087 Z" id="Shape" fill="#000000" fill-rule="nonzero"></path>
                <rect id="Rectangle" fill="#FFFFFF" x="51.1304348" y="219.304348" width="212.217391" height="58.6956522"></rect>
                <path d="M263.347826,284.521739 L51.1304348,284.521739 C47.5285777,284.521739 44.6086957,281.601857 44.6086957,278 L44.6086957,219.304348 C44.6780883,215.731629 47.5577158,212.852001 51.1304348,212.782609 L263.347826,212.782609 C266.949683,212.782609 269.869565,215.702491 269.869565,219.304348 L269.869565,278 C269.869565,281.601857 266.949683,284.521739 263.347826,284.521739 Z M57.6521739,271.478261 L256.826087,271.478261 L256.826087,225.826087 L57.6521739,225.826087 L57.6521739,271.478261 Z" id="Shape" fill="#000000" fill-rule="nonzero"></path>
                <path d="M45,259.347826 L7.17391304,259.347826 C3.6011941,259.278433 0.721566597,256.398806 0.652173913,252.826087 C0.652173913,249.22423 3.57205598,246.304348 7.17391304,246.304348 L45,246.304348 C48.6018571,246.304348 51.5217391,249.22423 51.5217391,252.826087 C51.4523464,256.398806 48.5727189,259.278433 45,259.347826 Z" id="Path" fill="#000000"></path>
                <path d="M304.043478,259.347826 L266.347826,259.347826 C262.745969,259.347826 259.826087,256.427944 259.826087,252.826087 C259.826087,249.22423 262.745969,246.304348 266.347826,246.304348 L304.043478,246.304348 C307.645335,246.304348 310.565217,249.22423 310.565217,252.826087 C310.565217,256.427944 307.645335,259.347826 304.043478,259.347826 Z" id="Path" fill="#000000"></path>
                <rect id="Rectangle" fill="#000000" x="31.826087" y="240.956522" width="16.4347826" height="23.3478261"></rect>
                <rect id="Rectangle" fill="#000000" x="266.347826" y="240.956522" width="16.4347826" height="23.3478261"></rect>
                <path d="M228.913043,163.217391 L154.173913,163.217391 C150.572056,163.217391 147.652174,160.297509 147.652174,156.695652 C147.652174,153.093795 150.572056,150.173913 154.173913,150.173913 L228.913043,150.173913 C232.514901,150.173913 235.434783,153.093795 235.434783,156.695652 C235.434783,160.297509 232.514901,163.217391 228.913043,163.217391 Z" id="Path" fill="#F99157"></path>
                <path d="M231.391304,255.826087 L156.782609,255.826087 C153.180752,255.826087 150.26087,252.906205 150.26087,249.304348 C150.26087,245.702491 153.180752,242.782609 156.782609,242.782609 L231.391304,242.782609 C234.993161,242.782609 237.913043,245.702491 237.913043,249.304348 C237.913043,252.906205 234.993161,255.826087 231.391304,255.826087 Z" id="Path" fill="#F99157"></path>
                <path d="M228.913043,74.2608696 L154.173913,74.2608696 C150.572056,74.2608696 147.652174,71.3409875 147.652174,67.7391304 C147.652174,64.1372734 150.572056,61.2173913 154.173913,61.2173913 L228.913043,61.2173913 C232.485762,61.286784 235.36539,64.1664115 235.434783,67.7391304 C235.434783,69.4688032 234.747673,71.1276331 233.524609,72.3506964 C232.301546,73.5737597 230.642716,74.2608696 228.913043,74.2608696 Z" id="Path" fill="#F99157"></path>
                <circle id="Oval" fill="#000000" cx="121.826087" cy="68" r="8.08695652"></circle>
                <circle id="Oval" fill="#000000" cx="121.826087" cy="157.478261" r="8.08695652"></circle>
                <circle id="Oval" fill="#000000" cx="121.826087" cy="247.73913" r="8.08695652"></circle>
                <polygon id="Path" fill="#FFFFFF" points="236.869565 38.1304348 181.956522 38.1304348 194.347826 7.2173913 224.478261 7.2173913"></polygon>
                <path d="M236.869565,44.6521739 L181.956522,44.6521739 C179.769782,44.6542162 177.721701,43.5814118 176.478261,41.7826087 C175.503643,39.9013438 175.503643,37.6638736 176.478261,35.7826087 L188.869565,4.73913043 C189.875946,2.23209168 192.298567,0.582648061 195,0.565217391 L224.478261,0.565217391 C227.179694,0.582648061 229.602315,2.23209168 230.608696,4.73913043 L242.869565,35.7826087 C243.915165,37.6459489 243.915165,39.9192685 242.869565,41.7826087 C241.563972,43.78637 239.248927,44.8935652 236.869565,44.6521739 Z M191.608696,31.6086957 L227.217391,31.6086957 L220.043478,13.6086957 L198.652174,13.6086957 L191.608696,31.6086957 Z" id="Shape" fill="#000000" fill-rule="nonzero"></path>
            </g>
            <g id="Auth" transform="translate(1331.000000, 62.000000)">
                <path d="M38.2173913,150.347826 C10.0621733,129.96537 -1.71013464,93.7347748 9.08695652,60.6956522 L27.0869565,5.2173913 L143.695652,5.2173913 L161.695652,60.6956522 C172.406229,93.7347967 160.650458,129.9145 132.565217,150.347826 L85.3478261,184.608696 L38.2173913,150.347826 Z" id="Path" fill="#F99157"></path>
                <path d="M85.3478261,190 L35.6086957,153.913043 C5.89333244,132.406281 -6.51555014,94.1602066 4.91304348,59.3043478 L23.8695652,0.869565217 L146.826087,0.869565217 L165.782609,59.3043478 C177.211202,94.1602066 164.80232,132.406281 135.086957,153.913043 L85.3478261,190 Z M40.7391304,146.521739 L85.3478261,178.956522 L129.956522,146.521739 C156.603789,127.222259 167.742932,92.9263489 157.521739,61.6521739 L140.130435,9.47826087 L30.2173913,9.47826087 L12.826087,61.6521739 C2.60489392,92.9263489 13.7440368,127.222259 40.3913043,146.521739 L40.7391304,146.521739 Z" id="Shape" fill="#000000" fill-rule="nonzero"></path>
            </g>
            <rect id="Rectangle" stroke="#000000" stroke-width="7" fill="#FFFFFF" x="161.5" y="202.5" width="145" height="112" rx="5"></rect>
            <g id="Backend" transform="translate(174.000000, 212.000000)">
                <path d="M45.561616,31.7888888 L42.3343433,32.6525251 C40.3297775,33.1860988 39.0536179,35.1494213 39.3797979,37.1979797 L39.9707069,40.5161615 C40.2348163,42.047994 39.5875582,43.5941183 38.3109198,44.4809434 C37.0342814,45.3677686 35.359478,45.4346794 34.0161615,44.6525251 L31.1070706,42.9707069 C29.3200347,41.9293032 27.0337834,42.4220298 25.8343433,44.1070706 L23.8797979,46.8343433 C22.9854766,48.1050711 21.4361532,48.7428747 19.9064054,48.4700535 C18.3766576,48.1972322 17.1433374,47.063161 16.7434342,45.561616 L15.8797979,42.3343433 C15.3455177,40.3346591 13.3739537,39.0728582 11.3343433,39.4252524 L8.01616149,39.9707069 C6.48432904,40.2348163 4.93820471,39.5875582 4.05137956,38.3109198 C3.16455442,37.0342814 3.09764364,35.359478 3.87979786,34.0161615 L5.56161604,31.1070706 C6.60301977,29.3200347 6.11029318,27.0337834 4.4252524,25.8343433 L1.69797968,23.8797979 C0.427251838,22.9854766 -0.210551761,21.4361532 0.0622695026,19.9064054 C0.335090766,18.3766576 1.46916201,17.1433374 2.97070695,16.7434342 L6.19797968,15.8797979 C8.20254546,15.3462242 9.47870509,13.3829017 9.15252513,11.3343433 L8.56161604,8.06161604 C8.29750668,6.52978358 8.94476479,4.98365925 10.2214032,4.09683411 C11.4980416,3.21000896 13.172845,3.14309818 14.5161615,3.9252524 L17.4252524,5.60707058 C19.2268357,6.61676265 21.4997224,6.10732253 22.6979797,4.4252524 L24.6525251,1.69797968 C25.5468464,0.427251838 27.0961698,-0.210551761 28.6259176,0.0622695026 C30.1556654,0.335090766 31.3889856,1.46916201 31.7888888,2.97070695 L32.6525251,6.24343422 C33.1868053,8.24311839 35.1583693,9.50491937 37.1979797,9.15252513 L40.5161615,8.56161604 C42.047994,8.29750668 43.5941183,8.94476479 44.4809434,10.2214032 C45.3677686,11.4980416 45.4346794,13.172845 44.6525251,14.5161615 L42.9707069,17.4252524 C41.9293032,19.2122882 42.4220298,21.4985396 44.1070706,22.6979797 L46.8343433,24.6525251 C48.1050711,25.5468464 48.7428747,27.0961698 48.4700535,28.6259176 C48.1972322,30.1556654 47.063161,31.3889856 45.561616,31.7888888 Z" id="Path" stroke="#000000" stroke-width="5" fill="#FFFFFF" stroke-linecap="round" stroke-linejoin="round"></path>
                <circle id="Oval" stroke="#000000" stroke-width="5" fill="#FFFFFF" stroke-linecap="round" stroke-linejoin="round" cx="24.6818182" cy="24.6818182" r="9.68181818"></circle>
                <circle id="Oval" fill="#F99157" cx="25.0454545" cy="24.0454545" r="3.04545455"></circle>
                <path d="M113.444523,63.3949777 L113.035432,63.3949777 C111.532792,63.8509028 110.371895,65.0501164 109.964989,66.5667657 C109.558083,68.0834149 109.962805,69.7026722 111.035432,70.8495231 L111.30816,71.1677049 C112.938172,72.6122061 113.31449,75.0099161 112.205375,76.8843196 C111.09626,78.7587232 108.813451,79.5829852 106.762705,78.8495231 L106.353614,78.8495231 C104.855339,78.5564006 103.309981,79.0350054 102.239643,80.1236401 C101.169305,81.2122748 100.716959,82.7655217 101.035432,84.258614 L101.035432,84.6222504 C101.718366,86.6517138 100.89228,88.8826001 99.0522848,89.9778351 C97.2122901,91.0730701 94.8574245,90.7356077 93.3990688,89.1677049 L93.1263415,88.8040686 C91.9802905,87.7089068 90.3464771,87.2899035 88.8148157,87.6983466 C87.2831543,88.1067896 86.0749111,89.2836746 85.6263415,90.8040686 L85.6263415,91.2131595 C85.1195243,93.235384 83.3020182,94.6535917 81.2172506,94.6535917 C79.1324831,94.6535917 77.314977,93.235384 76.8081597,91.2131595 L76.8081597,90.8040686 C76.4135332,89.170645 75.1499228,87.8882005 73.522516,87.4694525 C71.8951092,87.0507046 70.1694426,87.5639784 69.0354325,88.8040686 L68.7172506,89.0767958 C67.258895,90.6446986 64.9040294,90.982161 63.0640346,89.886926 C61.2240399,88.791691 60.3979532,86.5608047 61.080887,84.5313413 L61.080887,84.258614 C61.4543685,82.7236655 61.0041182,81.1048819 59.8917231,79.9832169 C58.779328,78.8615518 57.1643366,78.3978833 55.6263415,78.758614 L55.2172506,78.758614 C53.1665051,79.4920761 50.8836954,78.6678141 49.7745808,76.7934106 C48.6654663,74.919007 49.0417838,72.521297 50.6717961,71.0767958 L50.9445234,70.758614 C52.0171511,69.6117631 52.4218723,67.9925058 52.0149664,66.4758566 C51.6080605,64.9592073 50.4471642,63.7599937 48.9445234,63.3040686 L48.5354325,63.3040686 C46.4672145,62.8327167 45,60.9934995 45,58.8722504 C45,56.7510012 46.4672145,54.9117841 48.5354325,54.4404322 L48.9445234,54.4404322 C50.4471642,53.984507 51.6080605,52.7852934 52.0149664,51.2686442 C52.4218723,49.751995 52.0171511,48.1327377 50.9445234,46.9858867 L50.6717961,46.6677049 C49.0417838,45.2232037 48.6654663,42.8254938 49.7745808,40.9510902 C50.8836954,39.0766866 53.1665051,38.2524247 55.2172506,38.9858867 L55.6263415,38.9858867 C57.1546564,39.3401857 58.7576419,38.8813232 59.8669826,37.7719824 C60.9763234,36.6626416 61.4351859,35.0596561 61.080887,33.5313413 L61.080887,33.1222504 C60.3979532,31.092787 61.2240399,28.8619006 63.0640346,27.7666657 C64.9040294,26.6714307 67.258895,27.0088931 68.7172506,28.5767958 L69.0354325,28.8495231 C70.1822834,29.9221509 71.8015407,30.3268721 73.3181899,29.9199662 C74.8348392,29.5130603 76.0340527,28.352164 76.4899779,26.8495231 L76.4899779,26.4404322 C76.9967952,24.4182077 78.8143012,23 80.8990688,23 C82.9838364,23 84.8013425,24.4182077 85.3081597,26.4404322 L85.3081597,26.8495231 C85.7640849,28.352164 86.9632985,29.5130603 88.4799477,29.9199662 C89.996597,30.3268721 91.6158543,29.9221509 92.7627052,28.8495231 L93.080887,28.5767958 C94.5392427,27.0088931 96.8941083,26.6714307 98.734103,27.7666657 C100.574098,28.8619006 101.400184,31.092787 100.717251,33.1222504 L100.717251,33.5313413 C100.362952,35.0596561 100.821814,36.6626416 101.931155,37.7719824 C103.040496,38.8813232 104.643481,39.3401857 106.171796,38.9858867 L107.126342,38.8040686 C109.177087,38.0706065 111.459897,38.8948684 112.569011,40.769272 C113.678126,42.6436756 113.301808,45.0413856 111.671796,46.4858867 L111.399069,46.8040686 C110.326441,47.9509195 109.92172,49.5701768 110.328626,51.086826 C110.735532,52.6034753 111.896428,53.8026888 113.399069,54.258614 L113.80816,54.258614 C116.331097,54.3590294 118.294939,56.4856769 118.194523,59.008614 C118.094108,61.5315512 115.967461,63.4953931 113.444523,63.3949777 Z" id="Path" stroke="#000000" stroke-width="5" fill="#FFFFFF" stroke-linecap="round" stroke-linejoin="round"></path>
                <circle id="Oval" fill="#F99157" cx="80.6818182" cy="59.6818182" r="20.6818182"></circle>
                <circle id="Oval" stroke="#000000" stroke-width="5" fill="#FFFFFF" stroke-linecap="round" stroke-linejoin="round" cx="80.4545455" cy="59.4545455" r="11.4545455"></circle>
                <path d="M38.8908142,72.0861181 L32.6635415,72.8588454 C32.0815488,72.9097281 31.5428482,73.1872405 31.1635415,73.6315727 L26.9362688,78.1770272 C26.3005639,78.8496814 25.3357111,79.0986843 24.4538881,78.8176638 C23.5720651,78.5366433 22.9291943,77.7752889 22.7999051,76.8588454 L22.0726324,70.7224818 C21.983157,70.1523644 21.712163,69.6263173 21.2999051,69.2224818 L16.7544506,64.995209 C16.0817964,64.3595042 15.8327935,63.3946513 16.113814,62.5128284 C16.3948345,61.6310054 17.156189,60.9881345 18.0726324,60.8588454 L24.2999051,60.1315727 C24.8569915,60.0423125 25.3686368,59.770501 25.7544506,59.3588454 L29.9817233,54.8133909 C30.6007803,54.1009712 31.5843154,53.8251149 32.4835645,54.1116887 C33.3828135,54.3982626 34.0253844,55.1923285 34.118087,56.1315727 L34.8908142,62.3588454 C34.938535,62.9289955 35.2178077,63.4546852 35.6635415,63.8133909 L40.208996,68.0406636 C40.8275899,68.6819688 41.041695,69.612343 40.7656451,70.4595308 C40.4895951,71.3067187 39.7684748,71.9323565 38.8908142,72.0861181 Z" id="Path" stroke="#000000" stroke-width="5" stroke-linecap="round" stroke-linejoin="round"></path>
                <circle id="Oval" fill="#F99157" cx="28.0454545" cy="67.0454545" r="3.04545455"></circle>
            </g>
            <rect id="Rectangle" stroke="#000000" stroke-width="7" fill="#FFFFFF" x="1110" y="62" width="124" height="162" rx="5"></rect>
            <g id="12345" fill="#000000">
                <use xlink:href="#path-1"></use>
                <use xlink:href="#path-1"></use>
            </g>
            <g id="56345" fill="#000000">
                <use xlink:href="#path-2"></use>
                <use xlink:href="#path-2"></use>
            </g>
            <g id="34534" fill="#000000">
                <use xlink:href="#path-3"></use>
                <use xlink:href="#path-3"></use>
            </g>
            <g id="34564" fill="#000000">
                <use xlink:href="#path-4"></use>
                <use xlink:href="#path-4"></use>
            </g>
        </g>
    </g>
</svg>