<?xml version="1.0" encoding="UTF-8"?>
<svg width="1656px" height="318px" viewBox="0 0 1656 318" version="1.1" xmlns="http://www.w3.org/2000/svg" xmlns:xlink="http://www.w3.org/1999/xlink">
    <!-- Generator: Sketch 52.4 (67378) - http://www.bohemiancoding.com/sketch -->
    <title>3</title>
    <desc>Created with Sketch.</desc>
    <defs>
        <path d="M438.176758,106 L435.540039,106 L435.540039,89.1982422 C434.90527,89.803714 434.072759,90.4091767 433.04248,91.0146484 C432.012202,91.6201202 431.086918,92.0742172 430.266602,92.3769531 L430.266602,89.828125 C431.741218,89.1347622 433.030268,88.2949268 434.133789,87.3085938 C435.23731,86.3222607 436.018552,85.365239 436.477539,84.4375 L438.176758,84.4375 L438.176758,106 Z M458.787109,103.46582 L458.787109,106 L444.592773,106 C444.573242,105.365231 444.67578,104.754886 444.900391,104.168945 C445.261721,103.202144 445.840328,102.250005 446.63623,101.3125 C447.432133,100.374995 448.582024,99.2910218 450.085938,98.0605469 C452.419934,96.1464748 453.997066,94.6303767 454.817383,93.512207 C455.637699,92.3940374 456.047852,91.336919 456.047852,90.3408203 C456.047852,89.2958932 455.67432,88.4145544 454.927246,87.6967773 C454.180172,86.9790003 453.206061,86.6201172 452.004883,86.6201172 C450.735345,86.6201172 449.71973,87.0009728 448.958008,87.7626953 C448.196285,88.5244179 447.810547,89.5790948 447.800781,90.9267578 L445.09082,90.6484375 C445.276368,88.626943 445.974603,87.0864311 447.185547,86.0268555 C448.39649,84.9672799 450.022451,84.4375 452.063477,84.4375 C454.124034,84.4375 455.754877,85.0087833 456.956055,86.1513672 C458.157233,87.293951 458.757812,88.7099525 458.757812,90.3994141 C458.757812,91.2587934 458.582033,92.1035115 458.230469,92.9335938 C457.878904,93.763676 457.295414,94.6376907 456.47998,95.5556641 C455.664547,96.4736374 454.30958,97.7333904 452.415039,99.3349609 C450.833,100.663093 449.817385,101.563962 449.368164,102.037598 C448.918943,102.511233 448.547853,102.987302 448.254883,103.46582 L458.787109,103.46582 Z M461.628906,100.331055 L464.265625,99.9794922 C464.568361,101.47364 465.083492,102.55029 465.811035,103.209473 C466.538578,103.868656 467.424799,104.198242 468.469727,104.198242 C469.709967,104.198242 470.75732,103.768559 471.611816,102.90918 C472.466313,102.0498 472.893555,100.985358 472.893555,99.7158203 C472.893555,98.5048768 472.498051,97.5063516 471.707031,96.7202148 C470.916012,95.9340781 469.910162,95.5410156 468.689453,95.5410156 C468.191404,95.5410156 467.571293,95.6386709 466.829102,95.8339844 L467.12207,93.5195312 C467.297852,93.5390626 467.439453,93.5488281 467.546875,93.5488281 C468.669927,93.5488281 469.68066,93.2558623 470.579102,92.6699219 C471.477544,92.0839814 471.926758,91.1806702 471.926758,89.9599609 C471.926758,88.9931592 471.599613,88.192386 470.945312,87.5576172 C470.291012,86.9228484 469.446294,86.6054688 468.411133,86.6054688 C467.385737,86.6054688 466.531253,86.9277312 465.847656,87.5722656 C465.164059,88.2168001 464.72461,89.1835873 464.529297,90.4726562 L461.892578,90.0039062 C462.214845,88.2363193 462.94726,86.8667041 464.089844,85.8950195 C465.232428,84.923335 466.653312,84.4375 468.352539,84.4375 C469.52442,84.4375 470.603511,84.6889623 471.589844,85.1918945 C472.576177,85.6948267 473.330564,86.380855 473.853027,87.25 C474.375491,88.119145 474.636719,89.0419873 474.636719,90.0185547 C474.636719,90.9462937 474.387698,91.7910118 473.889648,92.5527344 C473.391599,93.3144569 472.654302,93.9199196 471.677734,94.3691406 C472.947272,94.6621108 473.93359,95.2700149 474.636719,96.1928711 C475.339847,97.1157273 475.691406,98.2705009 475.691406,99.6572266 C475.691406,101.532236 475.007819,103.121576 473.640625,104.425293 C472.273431,105.72901 470.544932,106.380859 468.455078,106.380859 C466.570303,106.380859 465.005377,105.819342 463.760254,104.696289 C462.51513,103.573237 461.804688,102.118173 461.628906,100.331055 Z M486.750977,106 L486.750977,100.858398 L477.43457,100.858398 L477.43457,98.4414062 L487.234375,84.5253906 L489.387695,84.5253906 L489.387695,98.4414062 L492.288086,98.4414062 L492.288086,100.858398 L489.387695,100.858398 L489.387695,106 L486.750977,106 Z M486.750977,98.4414062 L486.750977,88.7587891 L480.027344,98.4414062 L486.750977,98.4414062 Z M494.983398,100.375 L497.751953,100.140625 C497.957032,101.488288 498.433102,102.501461 499.180176,103.180176 C499.92725,103.85889 500.82812,104.198242 501.882812,104.198242 C503.15235,104.198242 504.226558,103.719731 505.105469,102.762695 C505.984379,101.805659 506.423828,100.536141 506.423828,98.9541016 C506.423828,97.4501878 506.001469,96.2636762 505.156738,95.3945312 C504.312007,94.5253863 503.206062,94.0908203 501.838867,94.0908203 C500.989254,94.0908203 500.22266,94.2836895 499.539062,94.6694336 C498.855465,95.0551777 498.318361,95.555661 497.927734,96.1708984 L495.452148,95.8486328 L497.532227,84.8183594 L508.210938,84.8183594 L508.210938,87.3378906 L499.641602,87.3378906 L498.484375,93.109375 C499.773444,92.210933 501.125969,91.7617188 502.541992,91.7617188 C504.417002,91.7617188 505.999017,92.4111263 507.288086,93.7099609 C508.577155,95.0087956 509.22168,96.6787007 509.22168,98.7197266 C509.22168,100.663096 508.655279,102.342766 507.522461,103.758789 C506.145501,105.497079 504.265637,106.366211 501.882812,106.366211 C499.929678,106.366211 498.335455,105.819341 497.100098,104.725586 C495.86474,103.63183 495.159181,102.18165 494.983398,100.375 Z" id="path-1"></path>
        <path d="M428.245117,133.375 L431.013672,133.140625 C431.218751,134.488288 431.69482,135.501461 432.441895,136.180176 C433.188969,136.85889 434.089838,137.198242 435.144531,137.198242 C436.414069,137.198242 437.488277,136.719731 438.367188,135.762695 C439.246098,134.805659 439.685547,133.536141 439.685547,131.954102 C439.685547,130.450188 439.263188,129.263676 438.418457,128.394531 C437.573726,127.525386 436.46778,127.09082 435.100586,127.09082 C434.250972,127.09082 433.484378,127.283689 432.800781,127.669434 C432.117184,128.055178 431.58008,128.555661 431.189453,129.170898 L428.713867,128.848633 L430.793945,117.818359 L441.472656,117.818359 L441.472656,120.337891 L432.90332,120.337891 L431.746094,126.109375 C433.035163,125.210933 434.387688,124.761719 435.803711,124.761719 C437.67872,124.761719 439.260736,125.411126 440.549805,126.709961 C441.838874,128.008796 442.483398,129.678701 442.483398,131.719727 C442.483398,133.663096 441.916998,135.342766 440.78418,136.758789 C439.40722,138.497079 437.527356,139.366211 435.144531,139.366211 C433.191396,139.366211 431.597174,138.819341 430.361816,137.725586 C429.126459,136.63183 428.420899,135.18165 428.245117,133.375 Z M458.611328,122.78418 L455.989258,122.989258 C455.754882,121.954096 455.422854,121.202151 454.993164,120.733398 C454.28027,119.981442 453.401372,119.605469 452.356445,119.605469 C451.516597,119.605469 450.7793,119.839841 450.144531,120.308594 C449.314449,120.914066 448.660159,121.797846 448.181641,122.959961 C447.703123,124.122076 447.454102,125.777333 447.43457,127.925781 C448.069339,126.95898 448.845699,126.241213 449.763672,125.772461 C450.681645,125.303709 451.64355,125.069336 452.649414,125.069336 C454.407235,125.069336 455.903802,125.716302 457.13916,127.010254 C458.374518,128.304206 458.992188,129.976552 458.992188,132.027344 C458.992188,133.375007 458.701663,134.627436 458.120605,135.784668 C457.539548,136.9419 456.741216,137.828122 455.725586,138.443359 C454.709956,139.058597 453.557624,139.366211 452.268555,139.366211 C450.071278,139.366211 448.279304,138.558114 446.892578,136.941895 C445.505852,135.325676 444.8125,132.662128 444.8125,128.951172 C444.8125,124.80076 445.579094,121.783213 447.112305,119.898438 C448.450202,118.257804 450.251942,117.4375 452.517578,117.4375 C454.20704,117.4375 455.591303,117.911128 456.67041,118.858398 C457.749517,119.805669 458.396483,121.114249 458.611328,122.78418 Z M447.844727,132.041992 C447.844727,132.9502 448.037596,133.819332 448.42334,134.649414 C448.809084,135.479496 449.348629,136.111814 450.041992,136.546387 C450.735355,136.980959 451.462887,137.198242 452.224609,137.198242 C453.337896,137.198242 454.294918,136.749028 455.095703,135.850586 C455.896488,134.952144 456.296875,133.731453 456.296875,132.188477 C456.296875,130.704094 455.901371,129.534672 455.110352,128.680176 C454.319332,127.825679 453.323248,127.398438 452.12207,127.398438 C450.930658,127.398438 449.919926,127.825679 449.089844,128.680176 C448.259761,129.534672 447.844727,130.655267 447.844727,132.041992 Z M461.628906,133.331055 L464.265625,132.979492 C464.568361,134.47364 465.083492,135.55029 465.811035,136.209473 C466.538578,136.868656 467.424799,137.198242 468.469727,137.198242 C469.709967,137.198242 470.75732,136.768559 471.611816,135.90918 C472.466313,135.0498 472.893555,133.985358 472.893555,132.71582 C472.893555,131.504877 472.498051,130.506352 471.707031,129.720215 C470.916012,128.934078 469.910162,128.541016 468.689453,128.541016 C468.191404,128.541016 467.571293,128.638671 466.829102,128.833984 L467.12207,126.519531 C467.297852,126.539063 467.439453,126.548828 467.546875,126.548828 C468.669927,126.548828 469.68066,126.255862 470.579102,125.669922 C471.477544,125.083981 471.926758,124.18067 471.926758,122.959961 C471.926758,121.993159 471.599613,121.192386 470.945312,120.557617 C470.291012,119.922848 469.446294,119.605469 468.411133,119.605469 C467.385737,119.605469 466.531253,119.927731 465.847656,120.572266 C465.164059,121.2168 464.72461,122.183587 464.529297,123.472656 L461.892578,123.003906 C462.214845,121.236319 462.94726,119.866704 464.089844,118.89502 C465.232428,117.923335 466.653312,117.4375 468.352539,117.4375 C469.52442,117.4375 470.603511,117.688962 471.589844,118.191895 C472.576177,118.694827 473.330564,119.380855 473.853027,120.25 C474.375491,121.119145 474.636719,122.041987 474.636719,123.018555 C474.636719,123.946294 474.387698,124.791012 473.889648,125.552734 C473.391599,126.314457 472.654302,126.91992 471.677734,127.369141 C472.947272,127.662111 473.93359,128.270015 474.636719,129.192871 C475.339847,130.115727 475.691406,131.270501 475.691406,132.657227 C475.691406,134.532236 475.007819,136.121576 473.640625,137.425293 C472.273431,138.72901 470.544932,139.380859 468.455078,139.380859 C466.570303,139.380859 465.005377,138.819342 463.760254,137.696289 C462.51513,136.573237 461.804688,135.118173 461.628906,133.331055 Z M486.750977,139 L486.750977,133.858398 L477.43457,133.858398 L477.43457,131.441406 L487.234375,117.525391 L489.387695,117.525391 L489.387695,131.441406 L492.288086,131.441406 L492.288086,133.858398 L489.387695,133.858398 L489.387695,139 L486.750977,139 Z M486.750977,131.441406 L486.750977,121.758789 L480.027344,131.441406 L486.750977,131.441406 Z M494.983398,133.375 L497.751953,133.140625 C497.957032,134.488288 498.433102,135.501461 499.180176,136.180176 C499.92725,136.85889 500.82812,137.198242 501.882812,137.198242 C503.15235,137.198242 504.226558,136.719731 505.105469,135.762695 C505.984379,134.805659 506.423828,133.536141 506.423828,131.954102 C506.423828,130.450188 506.001469,129.263676 505.156738,128.394531 C504.312007,127.525386 503.206062,127.09082 501.838867,127.09082 C500.989254,127.09082 500.22266,127.283689 499.539062,127.669434 C498.855465,128.055178 498.318361,128.555661 497.927734,129.170898 L495.452148,128.848633 L497.532227,117.818359 L508.210938,117.818359 L508.210938,120.337891 L499.641602,120.337891 L498.484375,126.109375 C499.773444,125.210933 501.125969,124.761719 502.541992,124.761719 C504.417002,124.761719 505.999017,125.411126 507.288086,126.709961 C508.577155,128.008796 509.22168,129.678701 509.22168,131.719727 C509.22168,133.663096 508.655279,135.342766 507.522461,136.758789 C506.145501,138.497079 504.265637,139.366211 501.882812,139.366211 C499.929678,139.366211 498.335455,138.819341 497.100098,137.725586 C495.86474,136.63183 495.159181,135.18165 494.983398,133.375 Z" id="path-2"></path>
        <path d="M428.259766,166.331055 L430.896484,165.979492 C431.19922,167.47364 431.714352,168.55029 432.441895,169.209473 C433.169437,169.868656 434.055659,170.198242 435.100586,170.198242 C436.340827,170.198242 437.388179,169.768559 438.242676,168.90918 C439.097172,168.0498 439.524414,166.985358 439.524414,165.71582 C439.524414,164.504877 439.12891,163.506352 438.337891,162.720215 C437.546871,161.934078 436.541022,161.541016 435.320312,161.541016 C434.822263,161.541016 434.202152,161.638671 433.459961,161.833984 L433.75293,159.519531 C433.928712,159.539063 434.070312,159.548828 434.177734,159.548828 C435.300787,159.548828 436.311519,159.255862 437.209961,158.669922 C438.108403,158.083981 438.557617,157.18067 438.557617,155.959961 C438.557617,154.993159 438.230472,154.192386 437.576172,153.557617 C436.921872,152.922848 436.077154,152.605469 435.041992,152.605469 C434.016596,152.605469 433.162113,152.927731 432.478516,153.572266 C431.794918,154.2168 431.35547,155.183587 431.160156,156.472656 L428.523438,156.003906 C428.845705,154.236319 429.578119,152.866704 430.720703,151.89502 C431.863287,150.923335 433.284171,150.4375 434.983398,150.4375 C436.155279,150.4375 437.23437,150.688962 438.220703,151.191895 C439.207036,151.694827 439.961423,152.380855 440.483887,153.25 C441.00635,154.119145 441.267578,155.041987 441.267578,156.018555 C441.267578,156.946294 441.018557,157.791012 440.520508,158.552734 C440.022458,159.314457 439.285161,159.91992 438.308594,160.369141 C439.578131,160.662111 440.56445,161.270015 441.267578,162.192871 C441.970707,163.115727 442.322266,164.270501 442.322266,165.657227 C442.322266,167.532236 441.638679,169.121576 440.271484,170.425293 C438.90429,171.72901 437.175792,172.380859 435.085938,172.380859 C433.201162,172.380859 431.636237,171.819342 430.391113,170.696289 C429.14599,169.573237 428.435548,168.118173 428.259766,166.331055 Z M453.381836,172 L453.381836,166.858398 L444.06543,166.858398 L444.06543,164.441406 L453.865234,150.525391 L456.018555,150.525391 L456.018555,164.441406 L458.918945,164.441406 L458.918945,166.858398 L456.018555,166.858398 L456.018555,172 L453.381836,172 Z M453.381836,164.441406 L453.381836,154.758789 L446.658203,164.441406 L453.381836,164.441406 Z M461.614258,166.375 L464.382812,166.140625 C464.587892,167.488288 465.063961,168.501461 465.811035,169.180176 C466.558109,169.85889 467.458979,170.198242 468.513672,170.198242 C469.783209,170.198242 470.857417,169.719731 471.736328,168.762695 C472.615239,167.805659 473.054688,166.536141 473.054688,164.954102 C473.054688,163.450188 472.632328,162.263676 471.787598,161.394531 C470.942867,160.525386 469.836921,160.09082 468.469727,160.09082 C467.620113,160.09082 466.853519,160.283689 466.169922,160.669434 C465.486325,161.055178 464.949221,161.555661 464.558594,162.170898 L462.083008,161.848633 L464.163086,150.818359 L474.841797,150.818359 L474.841797,153.337891 L466.272461,153.337891 L465.115234,159.109375 C466.404303,158.210933 467.756829,157.761719 469.172852,157.761719 C471.047861,157.761719 472.629876,158.411126 473.918945,159.709961 C475.208014,161.008796 475.852539,162.678701 475.852539,164.719727 C475.852539,166.663096 475.286138,168.342766 474.15332,169.758789 C472.77636,171.497079 470.896496,172.366211 468.513672,172.366211 C466.560537,172.366211 464.966315,171.819341 463.730957,170.725586 C462.495599,169.63183 461.79004,168.18165 461.614258,166.375 Z M478.313477,166.331055 L480.950195,165.979492 C481.252931,167.47364 481.768063,168.55029 482.495605,169.209473 C483.223148,169.868656 484.10937,170.198242 485.154297,170.198242 C486.394537,170.198242 487.44189,169.768559 488.296387,168.90918 C489.150883,168.0498 489.578125,166.985358 489.578125,165.71582 C489.578125,164.504877 489.182621,163.506352 488.391602,162.720215 C487.600582,161.934078 486.594733,161.541016 485.374023,161.541016 C484.875974,161.541016 484.255863,161.638671 483.513672,161.833984 L483.806641,159.519531 C483.982423,159.539063 484.124023,159.548828 484.231445,159.548828 C485.354498,159.548828 486.36523,159.255862 487.263672,158.669922 C488.162114,158.083981 488.611328,157.18067 488.611328,155.959961 C488.611328,154.993159 488.284183,154.192386 487.629883,153.557617 C486.975583,152.922848 486.130865,152.605469 485.095703,152.605469 C484.070307,152.605469 483.215824,152.927731 482.532227,153.572266 C481.848629,154.2168 481.409181,155.183587 481.213867,156.472656 L478.577148,156.003906 C478.899416,154.236319 479.63183,152.866704 480.774414,151.89502 C481.916998,150.923335 483.337882,150.4375 485.037109,150.4375 C486.20899,150.4375 487.288081,150.688962 488.274414,151.191895 C489.260747,151.694827 490.015134,152.380855 490.537598,153.25 C491.060061,154.119145 491.321289,155.041987 491.321289,156.018555 C491.321289,156.946294 491.072268,157.791012 490.574219,158.552734 C490.076169,159.314457 489.338872,159.91992 488.362305,160.369141 C489.631842,160.662111 490.618161,161.270015 491.321289,162.192871 C492.024418,163.115727 492.375977,164.270501 492.375977,165.657227 C492.375977,167.532236 491.69239,169.121576 490.325195,170.425293 C488.958001,171.72901 487.229503,172.380859 485.139648,172.380859 C483.254873,172.380859 481.689948,171.819342 480.444824,170.696289 C479.199701,169.573237 478.489259,168.118173 478.313477,166.331055 Z M503.435547,172 L503.435547,166.858398 L494.119141,166.858398 L494.119141,164.441406 L503.918945,150.525391 L506.072266,150.525391 L506.072266,164.441406 L508.972656,164.441406 L508.972656,166.858398 L506.072266,166.858398 L506.072266,172 L503.435547,172 Z M503.435547,164.441406 L503.435547,154.758789 L496.711914,164.441406 L503.435547,164.441406 Z" id="path-3"></path>
        <path d="M428.259766,199.331055 L430.896484,198.979492 C431.19922,200.47364 431.714352,201.55029 432.441895,202.209473 C433.169437,202.868656 434.055659,203.198242 435.100586,203.198242 C436.340827,203.198242 437.388179,202.768559 438.242676,201.90918 C439.097172,201.0498 439.524414,199.985358 439.524414,198.71582 C439.524414,197.504877 439.12891,196.506352 438.337891,195.720215 C437.546871,194.934078 436.541022,194.541016 435.320312,194.541016 C434.822263,194.541016 434.202152,194.638671 433.459961,194.833984 L433.75293,192.519531 C433.928712,192.539063 434.070312,192.548828 434.177734,192.548828 C435.300787,192.548828 436.311519,192.255862 437.209961,191.669922 C438.108403,191.083981 438.557617,190.18067 438.557617,188.959961 C438.557617,187.993159 438.230472,187.192386 437.576172,186.557617 C436.921872,185.922848 436.077154,185.605469 435.041992,185.605469 C434.016596,185.605469 433.162113,185.927731 432.478516,186.572266 C431.794918,187.2168 431.35547,188.183587 431.160156,189.472656 L428.523438,189.003906 C428.845705,187.236319 429.578119,185.866704 430.720703,184.89502 C431.863287,183.923335 433.284171,183.4375 434.983398,183.4375 C436.155279,183.4375 437.23437,183.688962 438.220703,184.191895 C439.207036,184.694827 439.961423,185.380855 440.483887,186.25 C441.00635,187.119145 441.267578,188.041987 441.267578,189.018555 C441.267578,189.946294 441.018557,190.791012 440.520508,191.552734 C440.022458,192.314457 439.285161,192.91992 438.308594,193.369141 C439.578131,193.662111 440.56445,194.270015 441.267578,195.192871 C441.970707,196.115727 442.322266,197.270501 442.322266,198.657227 C442.322266,200.532236 441.638679,202.121576 440.271484,203.425293 C438.90429,204.72901 437.175792,205.380859 435.085938,205.380859 C433.201162,205.380859 431.636237,204.819342 430.391113,203.696289 C429.14599,202.573237 428.435548,201.118173 428.259766,199.331055 Z M453.381836,205 L453.381836,199.858398 L444.06543,199.858398 L444.06543,197.441406 L453.865234,183.525391 L456.018555,183.525391 L456.018555,197.441406 L458.918945,197.441406 L458.918945,199.858398 L456.018555,199.858398 L456.018555,205 L453.381836,205 Z M453.381836,197.441406 L453.381836,187.758789 L446.658203,197.441406 L453.381836,197.441406 Z M461.614258,199.375 L464.382812,199.140625 C464.587892,200.488288 465.063961,201.501461 465.811035,202.180176 C466.558109,202.85889 467.458979,203.198242 468.513672,203.198242 C469.783209,203.198242 470.857417,202.719731 471.736328,201.762695 C472.615239,200.805659 473.054688,199.536141 473.054688,197.954102 C473.054688,196.450188 472.632328,195.263676 471.787598,194.394531 C470.942867,193.525386 469.836921,193.09082 468.469727,193.09082 C467.620113,193.09082 466.853519,193.283689 466.169922,193.669434 C465.486325,194.055178 464.949221,194.555661 464.558594,195.170898 L462.083008,194.848633 L464.163086,183.818359 L474.841797,183.818359 L474.841797,186.337891 L466.272461,186.337891 L465.115234,192.109375 C466.404303,191.210933 467.756829,190.761719 469.172852,190.761719 C471.047861,190.761719 472.629876,191.411126 473.918945,192.709961 C475.208014,194.008796 475.852539,195.678701 475.852539,197.719727 C475.852539,199.663096 475.286138,201.342766 474.15332,202.758789 C472.77636,204.497079 470.896496,205.366211 468.513672,205.366211 C466.560537,205.366211 464.966315,204.819341 463.730957,203.725586 C462.495599,202.63183 461.79004,201.18165 461.614258,199.375 Z M491.980469,188.78418 L489.358398,188.989258 C489.124022,187.954096 488.791994,187.202151 488.362305,186.733398 C487.64941,185.981442 486.770513,185.605469 485.725586,185.605469 C484.885738,185.605469 484.148441,185.839841 483.513672,186.308594 C482.68359,186.914066 482.029299,187.797846 481.550781,188.959961 C481.072263,190.122076 480.823242,191.777333 480.803711,193.925781 C481.43848,192.95898 482.214839,192.241213 483.132812,191.772461 C484.050786,191.303709 485.01269,191.069336 486.018555,191.069336 C487.776376,191.069336 489.272943,191.716302 490.508301,193.010254 C491.743659,194.304206 492.361328,195.976552 492.361328,198.027344 C492.361328,199.375007 492.070804,200.627436 491.489746,201.784668 C490.908689,202.9419 490.110357,203.828122 489.094727,204.443359 C488.079096,205.058597 486.926764,205.366211 485.637695,205.366211 C483.440419,205.366211 481.648444,204.558114 480.261719,202.941895 C478.874993,201.325676 478.181641,198.662128 478.181641,194.951172 C478.181641,190.80076 478.948235,187.783213 480.481445,185.898438 C481.819343,184.257804 483.621082,183.4375 485.886719,183.4375 C487.57618,183.4375 488.960444,183.911128 490.039551,184.858398 C491.118658,185.805669 491.765624,187.114249 491.980469,188.78418 Z M481.213867,198.041992 C481.213867,198.9502 481.406736,199.819332 481.79248,200.649414 C482.178225,201.479496 482.71777,202.111814 483.411133,202.546387 C484.104496,202.980959 484.832027,203.198242 485.59375,203.198242 C486.707037,203.198242 487.664058,202.749028 488.464844,201.850586 C489.265629,200.952144 489.666016,199.731453 489.666016,198.188477 C489.666016,196.704094 489.270512,195.534672 488.479492,194.680176 C487.688473,193.825679 486.692389,193.398438 485.491211,193.398438 C484.299799,193.398438 483.289067,193.825679 482.458984,194.680176 C481.628902,195.534672 481.213867,196.655267 481.213867,198.041992 Z M503.435547,205 L503.435547,199.858398 L494.119141,199.858398 L494.119141,197.441406 L503.918945,183.525391 L506.072266,183.525391 L506.072266,197.441406 L508.972656,197.441406 L508.972656,199.858398 L506.072266,199.858398 L506.072266,205 L503.435547,205 Z M503.435547,197.441406 L503.435547,187.758789 L496.711914,197.441406 L503.435547,197.441406 Z" id="path-4"></path>
    </defs>
    <g id="Page-1" stroke="none" stroke-width="1" fill="none" fill-rule="evenodd">
        <g id="3">
            <path d="M376.537943,145 L558,145 L558,126.221159 C558,124.442162 559.442162,123 561.221159,123 C561.721228,123 562.21443,123.116429 562.661705,123.340067 L610.218681,147.118555 C611.809865,147.914146 612.454819,149.84901 611.659228,151.440193 C611.347536,152.063576 610.842064,152.569048 610.218681,152.88074 L562.661705,176.659228 C561.070522,177.454819 559.135659,176.809865 558.340067,175.218681 C558.116429,174.771406 558,174.278204 558,173.778135 L558,155 L376.537943,155 C374.19313,167.522838 363.20332,177 350,177 C335.088312,177 323,164.911688 323,150 C323,135.088312 335.088312,123 350,123 C363.20332,123 374.19313,132.477162 376.537943,145 Z M333,150 C333,159.388841 340.611159,167 350,167 C359.388841,167 367,159.388841 367,150 C367,140.611159 359.388841,133 350,133 C340.611159,133 333,140.611159 333,150 Z" id="Line" fill="#000000" fill-rule="nonzero" transform="translate(467.500000, 150.000000) scale(-1, 1) translate(-467.500000, -150.000000) "></path>
            <path d="M1078.03794,145 L1259.5,145 L1259.5,126.221159 C1259.5,124.442162 1260.94216,123 1262.72116,123 C1263.22123,123 1263.71443,123.116429 1264.16171,123.340067 L1311.71868,147.118555 C1313.30986,147.914146 1313.95482,149.84901 1313.15923,151.440193 C1312.84754,152.063576 1312.34206,152.569048 1311.71868,152.88074 L1264.16171,176.659228 C1262.57052,177.454819 1260.63566,176.809865 1259.84007,175.218681 C1259.61643,174.771406 1259.5,174.278204 1259.5,173.778135 L1259.5,155 L1078.03794,155 C1075.69313,167.522838 1064.70332,177 1051.5,177 C1036.58831,177 1024.5,164.911688 1024.5,150 C1024.5,135.088312 1036.58831,123 1051.5,123 C1064.70332,123 1075.69313,132.477162 1078.03794,145 Z M1034.5,150 C1034.5,159.388841 1042.11116,167 1051.5,167 C1060.88884,167 1068.5,159.388841 1068.5,150 C1068.5,140.611159 1060.88884,133 1051.5,133 C1042.11116,133 1034.5,140.611159 1034.5,150 Z" id="Line" fill="#000000" fill-rule="nonzero" transform="translate(1169.000000, 150.000000) scale(-1, 1) translate(-1169.000000, -150.000000) "></path>
            <g id="User">
                <circle id="Oval" fill="#FFFFFF" cx="150" cy="150" r="143.877551"></circle>
                <path d="M150,300 C67.1572875,300 1.11022302e-14,232.842712 0,150 C-1.11022302e-14,67.1572875 67.1572875,2.22044605e-14 150,0 C232.842712,-2.22044605e-14 300,67.1572875 300,150 C300,189.782473 284.196474,227.93556 256.066017,256.066017 C227.93556,284.196474 189.782473,300 150,300 Z M150,12.5 C74.0608469,12.5 12.5,74.0608469 12.5,150 C12.5,225.939153 74.0608469,287.5 150,287.5 C225.939153,287.5 287.5,225.939153 287.5,150 C287.5,74.0608469 225.939153,12.5 150,12.5 Z" id="Shape" fill="#000000" fill-rule="nonzero"></path>
                <circle id="Oval" fill="#F99157" cx="150" cy="150" r="119.387755"></circle>
                <circle id="Oval" fill="#FFFFFF" cx="151.020408" cy="100" r="40.8163265"></circle>
                <path d="M80.5052967,183.311689 C89.6791053,152.006314 118.493531,130.52242 151.185969,130.612527 C184.77802,130.612527 217.121296,156.401479 221.991519,183.810026 C226.861742,211.218574 192.145793,216.326531 151.185969,216.326531 C110.226145,216.326531 73.262401,212.589001 80.5052967,183.311689 Z" id="Path" fill="#FFFFFF"></path>
            </g>
            <g id="Browser" transform="translate(640.000000, 1.000000)">
                <rect id="Rectangle" fill="#FFFFFF" x="7.8" y="8.3" width="345" height="270"></rect>
                <path d="M352.8,285.8 L7.8,285.8 C3.65786438,285.8 0.3,282.442136 0.3,278.3 L0.3,8.3 C0.3,4.15786438 3.65786438,0.8 7.8,0.8 L352.8,0.8 C356.942136,0.8 360.3,4.15786438 360.3,8.3 L360.3,278.3 C360.3,282.442136 356.942136,285.8 352.8,285.8 Z M15.3,270.8 L345.3,270.8 L345.3,15.8 L15.3,15.8 L15.3,270.8 Z" id="Shape" fill="#000000" fill-rule="nonzero"></path>
                <path d="M352.8,60.8 L7.8,60.8 C3.65786438,60.8 0.3,57.4421356 0.3,53.3 C0.3,49.1578644 3.65786438,45.8 7.8,45.8 L352.8,45.8 C356.942136,45.8 360.3,49.1578644 360.3,53.3 C360.3,57.4421356 356.942136,60.8 352.8,60.8 Z" id="Path" fill="#000000"></path>
                <circle id="Oval" fill="#000000" cx="30.3" cy="30.8" r="7.5"></circle>
                <circle id="Oval" fill="#000000" cx="60.3" cy="30.8" r="7.5"></circle>
                <circle id="Oval" fill="#000000" cx="90.3" cy="30.8" r="7.5"></circle>
                <path d="M240.3,195.8 L120.3,195.8 C116.157864,195.8 112.8,192.442136 112.8,188.3 L112.8,158.3 C112.8,154.157864 116.157864,150.8 120.3,150.8 L240.3,150.8 C244.442136,150.8 247.8,154.157864 247.8,158.3 L247.8,188.3 C247.8,192.442136 244.442136,195.8 240.3,195.8 Z M127.8,180.8 L232.8,180.8 L232.8,165.8 L127.8,165.8 L127.8,180.8 Z" id="Shape" fill="#000000" fill-rule="nonzero"></path>
                <rect id="Rectangle" fill="#F99157" x="15.45" y="60.8" width="329.85" height="37.8"></rect>
            </g>
            <g id="Server" transform="translate(1345.000000, 4.000000)">
                <rect id="Rectangle" fill="#F99157" x="68.3478261" y="79.0869565" width="177.913043" height="158.347826"></rect>
                <path d="M246.26087,243.826087 L68.3478261,243.826087 C64.745969,243.826087 61.826087,240.906205 61.826087,237.304348 L61.826087,79.0869565 C61.826087,75.4850995 64.745969,72.5652174 68.3478261,72.5652174 L246.26087,72.5652174 C249.862727,72.5652174 252.782609,75.4850995 252.782609,79.0869565 L252.782609,237.565217 C252.642514,241.064808 249.763262,243.82889 246.26087,243.826087 Z M74.8695652,230.782609 L239.73913,230.782609 L239.73913,85.6086957 L74.8695652,85.6086957 L74.8695652,230.782609 Z" id="Shape" fill="#000000" fill-rule="nonzero"></path>
                <rect id="Rectangle" fill="#FFFFFF" x="51.1304348" y="129.043478" width="212.217391" height="58.6956522"></rect>
                <path d="M263.347826,194.26087 L51.1304348,194.26087 C47.5577158,194.191477 44.6780883,191.311849 44.6086957,187.73913 L44.6086957,129.043478 C44.6086957,125.441621 47.5285777,122.521739 51.1304348,122.521739 L263.347826,122.521739 C266.949683,122.521739 269.869565,125.441621 269.869565,129.043478 L269.869565,187.73913 C269.869565,191.340987 266.949683,194.26087 263.347826,194.26087 Z M57.6521739,181.217391 L256.826087,181.217391 L256.826087,135.565217 L57.6521739,135.565217 L57.6521739,181.217391 Z" id="Shape" fill="#000000" fill-rule="nonzero"></path>
                <rect id="Rectangle" fill="#FFFFFF" x="51.1304348" y="38.6521739" width="212.217391" height="58.6956522"></rect>
                <path d="M263.347826,103.869565 L51.1304348,103.869565 C47.5577158,103.800173 44.6780883,100.920545 44.6086957,97.3478261 L44.6086957,38.6521739 C44.6086957,35.0503168 47.5285777,32.1304348 51.1304348,32.1304348 L263.347826,32.1304348 C266.949683,32.1304348 269.869565,35.0503168 269.869565,38.6521739 L269.869565,97.3478261 C269.869565,100.949683 266.949683,103.869565 263.347826,103.869565 Z M57.6521739,90.826087 L256.826087,90.826087 L256.826087,45.173913 L57.6521739,45.173913 L57.6521739,90.826087 Z" id="Shape" fill="#000000" fill-rule="nonzero"></path>
                <rect id="Rectangle" fill="#FFFFFF" x="51.1304348" y="219.304348" width="212.217391" height="58.6956522"></rect>
                <path d="M263.347826,284.521739 L51.1304348,284.521739 C47.5285777,284.521739 44.6086957,281.601857 44.6086957,278 L44.6086957,219.304348 C44.6780883,215.731629 47.5577158,212.852001 51.1304348,212.782609 L263.347826,212.782609 C266.949683,212.782609 269.869565,215.702491 269.869565,219.304348 L269.869565,278 C269.869565,281.601857 266.949683,284.521739 263.347826,284.521739 Z M57.6521739,271.478261 L256.826087,271.478261 L256.826087,225.826087 L57.6521739,225.826087 L57.6521739,271.478261 Z" id="Shape" fill="#000000" fill-rule="nonzero"></path>
                <path d="M45,259.347826 L7.17391304,259.347826 C3.6011941,259.278433 0.721566597,256.398806 0.652173913,252.826087 C0.652173913,249.22423 3.57205598,246.304348 7.17391304,246.304348 L45,246.304348 C48.6018571,246.304348 51.5217391,249.22423 51.5217391,252.826087 C51.4523464,256.398806 48.5727189,259.278433 45,259.347826 Z" id="Path" fill="#000000"></path>
                <path d="M304.043478,259.347826 L266.347826,259.347826 C262.745969,259.347826 259.826087,256.427944 259.826087,252.826087 C259.826087,249.22423 262.745969,246.304348 266.347826,246.304348 L304.043478,246.304348 C307.645335,246.304348 310.565217,249.22423 310.565217,252.826087 C310.565217,256.427944 307.645335,259.347826 304.043478,259.347826 Z" id="Path" fill="#000000"></path>
                <rect id="Rectangle" fill="#000000" x="31.826087" y="240.956522" width="16.4347826" height="23.3478261"></rect>
                <rect id="Rectangle" fill="#000000" x="266.347826" y="240.956522" width="16.4347826" height="23.3478261"></rect>
                <path d="M228.913043,163.217391 L154.173913,163.217391 C150.572056,163.217391 147.652174,160.297509 147.652174,156.695652 C147.652174,153.093795 150.572056,150.173913 154.173913,150.173913 L228.913043,150.173913 C232.514901,150.173913 235.434783,153.093795 235.434783,156.695652 C235.434783,160.297509 232.514901,163.217391 228.913043,163.217391 Z" id="Path" fill="#F99157"></path>
                <path d="M231.391304,255.826087 L156.782609,255.826087 C153.180752,255.826087 150.26087,252.906205 150.26087,249.304348 C150.26087,245.702491 153.180752,242.782609 156.782609,242.782609 L231.391304,242.782609 C234.993161,242.782609 237.913043,245.702491 237.913043,249.304348 C237.913043,252.906205 234.993161,255.826087 231.391304,255.826087 Z" id="Path" fill="#F99157"></path>
                <path d="M228.913043,74.2608696 L154.173913,74.2608696 C150.572056,74.2608696 147.652174,71.3409875 147.652174,67.7391304 C147.652174,64.1372734 150.572056,61.2173913 154.173913,61.2173913 L228.913043,61.2173913 C232.485762,61.286784 235.36539,64.1664115 235.434783,67.7391304 C235.434783,69.4688032 234.747673,71.1276331 233.524609,72.3506964 C232.301546,73.5737597 230.642716,74.2608696 228.913043,74.2608696 Z" id="Path" fill="#F99157"></path>
                <circle id="Oval" fill="#000000" cx="121.826087" cy="68" r="8.08695652"></circle>
                <circle id="Oval" fill="#000000" cx="121.826087" cy="157.478261" r="8.08695652"></circle>
                <circle id="Oval" fill="#000000" cx="121.826087" cy="247.73913" r="8.08695652"></circle>
                <polygon id="Path" fill="#FFFFFF" points="236.869565 38.1304348 181.956522 38.1304348 194.347826 7.2173913 224.478261 7.2173913"></polygon>
                <path d="M236.869565,44.6521739 L181.956522,44.6521739 C179.769782,44.6542162 177.721701,43.5814118 176.478261,41.7826087 C175.503643,39.9013438 175.503643,37.6638736 176.478261,35.7826087 L188.869565,4.73913043 C189.875946,2.23209168 192.298567,0.582648061 195,0.565217391 L224.478261,0.565217391 C227.179694,0.582648061 229.602315,2.23209168 230.608696,4.73913043 L242.869565,35.7826087 C243.915165,37.6459489 243.915165,39.9192685 242.869565,41.7826087 C241.563972,43.78637 239.248927,44.8935652 236.869565,44.6521739 Z M191.608696,31.6086957 L227.217391,31.6086957 L220.043478,13.6086957 L198.652174,13.6086957 L191.608696,31.6086957 Z" id="Shape" fill="#000000" fill-rule="nonzero"></path>
            </g>
            <g id="Auth" transform="translate(1331.000000, 62.000000)">
                <path d="M38.2173913,150.347826 C10.0621733,129.96537 -1.71013464,93.7347748 9.08695652,60.6956522 L27.0869565,5.2173913 L143.695652,5.2173913 L161.695652,60.6956522 C172.406229,93.7347967 160.650458,129.9145 132.565217,150.347826 L85.3478261,184.608696 L38.2173913,150.347826 Z" id="Path" fill="#F99157"></path>
                <path d="M85.3478261,190 L35.6086957,153.913043 C5.89333244,132.406281 -6.51555014,94.1602066 4.91304348,59.3043478 L23.8695652,0.869565217 L146.826087,0.869565217 L165.782609,59.3043478 C177.211202,94.1602066 164.80232,132.406281 135.086957,153.913043 L85.3478261,190 Z M40.7391304,146.521739 L85.3478261,178.956522 L129.956522,146.521739 C156.603789,127.222259 167.742932,92.9263489 157.521739,61.6521739 L140.130435,9.47826087 L30.2173913,9.47826087 L12.826087,61.6521739 C2.60489392,92.9263489 13.7440368,127.222259 40.3913043,146.521739 L40.7391304,146.521739 Z" id="Shape" fill="#000000" fill-rule="nonzero"></path>
            </g>
            <rect id="Rectangle" stroke="#000000" stroke-width="7" fill="#FFFFFF" x="161.5" y="202.5" width="145" height="112" rx="5"></rect>
            <g id="Backend" transform="translate(174.000000, 212.000000)">
                <path d="M45.561616,31.7888888 L42.3343433,32.6525251 C40.3297775,33.1860988 39.0536179,35.1494213 39.3797979,37.1979797 L39.9707069,40.5161615 C40.2348163,42.047994 39.5875582,43.5941183 38.3109198,44.4809434 C37.0342814,45.3677686 35.359478,45.4346794 34.0161615,44.6525251 L31.1070706,42.9707069 C29.3200347,41.9293032 27.0337834,42.4220298 25.8343433,44.1070706 L23.8797979,46.8343433 C22.9854766,48.1050711 21.4361532,48.7428747 19.9064054,48.4700535 C18.3766576,48.1972322 17.1433374,47.063161 16.7434342,45.561616 L15.8797979,42.3343433 C15.3455177,40.3346591 13.3739537,39.0728582 11.3343433,39.4252524 L8.01616149,39.9707069 C6.48432904,40.2348163 4.93820471,39.5875582 4.05137956,38.3109198 C3.16455442,37.0342814 3.09764364,35.359478 3.87979786,34.0161615 L5.56161604,31.1070706 C6.60301977,29.3200347 6.11029318,27.0337834 4.4252524,25.8343433 L1.69797968,23.8797979 C0.427251838,22.9854766 -0.210551761,21.4361532 0.0622695026,19.9064054 C0.335090766,18.3766576 1.46916201,17.1433374 2.97070695,16.7434342 L6.19797968,15.8797979 C8.20254546,15.3462242 9.47870509,13.3829017 9.15252513,11.3343433 L8.56161604,8.06161604 C8.29750668,6.52978358 8.94476479,4.98365925 10.2214032,4.09683411 C11.4980416,3.21000896 13.172845,3.14309818 14.5161615,3.9252524 L17.4252524,5.60707058 C19.2268357,6.61676265 21.4997224,6.10732253 22.6979797,4.4252524 L24.6525251,1.69797968 C25.5468464,0.427251838 27.0961698,-0.210551761 28.6259176,0.0622695026 C30.1556654,0.335090766 31.3889856,1.46916201 31.7888888,2.97070695 L32.6525251,6.24343422 C33.1868053,8.24311839 35.1583693,9.50491937 37.1979797,9.15252513 L40.5161615,8.56161604 C42.047994,8.29750668 43.5941183,8.94476479 44.4809434,10.2214032 C45.3677686,11.4980416 45.4346794,13.172845 44.6525251,14.5161615 L42.9707069,17.4252524 C41.9293032,19.2122882 42.4220298,21.4985396 44.1070706,22.6979797 L46.8343433,24.6525251 C48.1050711,25.5468464 48.7428747,27.0961698 48.4700535,28.6259176 C48.1972322,30.1556654 47.063161,31.3889856 45.561616,31.7888888 Z" id="Path" stroke="#000000" stroke-width="5" fill="#FFFFFF" stroke-linecap="round" stroke-linejoin="round"></path>
                <circle id="Oval" stroke="#000000" stroke-width="5" fill="#FFFFFF" stroke-linecap="round" stroke-linejoin="round" cx="24.6818182" cy="24.6818182" r="9.68181818"></circle>
                <circle id="Oval" fill="#F99157" cx="25.0454545" cy="24.0454545" r="3.04545455"></circle>
                <path d="M113.444523,63.3949777 L113.035432,63.3949777 C111.532792,63.8509028 110.371895,65.0501164 109.964989,66.5667657 C109.558083,68.0834149 109.962805,69.7026722 111.035432,70.8495231 L111.30816,71.1677049 C112.938172,72.6122061 113.31449,75.0099161 112.205375,76.8843196 C111.09626,78.7587232 108.813451,79.5829852 106.762705,78.8495231 L106.353614,78.8495231 C104.855339,78.5564006 103.309981,79.0350054 102.239643,80.1236401 C101.169305,81.2122748 100.716959,82.7655217 101.035432,84.258614 L101.035432,84.6222504 C101.718366,86.6517138 100.89228,88.8826001 99.0522848,89.9778351 C97.2122901,91.0730701 94.8574245,90.7356077 93.3990688,89.1677049 L93.1263415,88.8040686 C91.9802905,87.7089068 90.3464771,87.2899035 88.8148157,87.6983466 C87.2831543,88.1067896 86.0749111,89.2836746 85.6263415,90.8040686 L85.6263415,91.2131595 C85.1195243,93.235384 83.3020182,94.6535917 81.2172506,94.6535917 C79.1324831,94.6535917 77.314977,93.235384 76.8081597,91.2131595 L76.8081597,90.8040686 C76.4135332,89.170645 75.1499228,87.8882005 73.522516,87.4694525 C71.8951092,87.0507046 70.1694426,87.5639784 69.0354325,88.8040686 L68.7172506,89.0767958 C67.258895,90.6446986 64.9040294,90.982161 63.0640346,89.886926 C61.2240399,88.791691 60.3979532,86.5608047 61.080887,84.5313413 L61.080887,84.258614 C61.4543685,82.7236655 61.0041182,81.1048819 59.8917231,79.9832169 C58.779328,78.8615518 57.1643366,78.3978833 55.6263415,78.758614 L55.2172506,78.758614 C53.1665051,79.4920761 50.8836954,78.6678141 49.7745808,76.7934106 C48.6654663,74.919007 49.0417838,72.521297 50.6717961,71.0767958 L50.9445234,70.758614 C52.0171511,69.6117631 52.4218723,67.9925058 52.0149664,66.4758566 C51.6080605,64.9592073 50.4471642,63.7599937 48.9445234,63.3040686 L48.5354325,63.3040686 C46.4672145,62.8327167 45,60.9934995 45,58.8722504 C45,56.7510012 46.4672145,54.9117841 48.5354325,54.4404322 L48.9445234,54.4404322 C50.4471642,53.984507 51.6080605,52.7852934 52.0149664,51.2686442 C52.4218723,49.751995 52.0171511,48.1327377 50.9445234,46.9858867 L50.6717961,46.6677049 C49.0417838,45.2232037 48.6654663,42.8254938 49.7745808,40.9510902 C50.8836954,39.0766866 53.1665051,38.2524247 55.2172506,38.9858867 L55.6263415,38.9858867 C57.1546564,39.3401857 58.7576419,38.8813232 59.8669826,37.7719824 C60.9763234,36.6626416 61.4351859,35.0596561 61.080887,33.5313413 L61.080887,33.1222504 C60.3979532,31.092787 61.2240399,28.8619006 63.0640346,27.7666657 C64.9040294,26.6714307 67.258895,27.0088931 68.7172506,28.5767958 L69.0354325,28.8495231 C70.1822834,29.9221509 71.8015407,30.3268721 73.3181899,29.9199662 C74.8348392,29.5130603 76.0340527,28.352164 76.4899779,26.8495231 L76.4899779,26.4404322 C76.9967952,24.4182077 78.8143012,23 80.8990688,23 C82.9838364,23 84.8013425,24.4182077 85.3081597,26.4404322 L85.3081597,26.8495231 C85.7640849,28.352164 86.9632985,29.5130603 88.4799477,29.9199662 C89.996597,30.3268721 91.6158543,29.9221509 92.7627052,28.8495231 L93.080887,28.5767958 C94.5392427,27.0088931 96.8941083,26.6714307 98.734103,27.7666657 C100.574098,28.8619006 101.400184,31.092787 100.717251,33.1222504 L100.717251,33.5313413 C100.362952,35.0596561 100.821814,36.6626416 101.931155,37.7719824 C103.040496,38.8813232 104.643481,39.3401857 106.171796,38.9858867 L107.126342,38.8040686 C109.177087,38.0706065 111.459897,38.8948684 112.569011,40.769272 C113.678126,42.6436756 113.301808,45.0413856 111.671796,46.4858867 L111.399069,46.8040686 C110.326441,47.9509195 109.92172,49.5701768 110.328626,51.086826 C110.735532,52.6034753 111.896428,53.8026888 113.399069,54.258614 L113.80816,54.258614 C116.331097,54.3590294 118.294939,56.4856769 118.194523,59.008614 C118.094108,61.5315512 115.967461,63.4953931 113.444523,63.3949777 Z" id="Path" stroke="#000000" stroke-width="5" fill="#FFFFFF" stroke-linecap="round" stroke-linejoin="round"></path>
                <circle id="Oval" fill="#F99157" cx="80.6818182" cy="59.6818182" r="20.6818182"></circle>
                <circle id="Oval" stroke="#000000" stroke-width="5" fill="#FFFFFF" stroke-linecap="round" stroke-linejoin="round" cx="80.4545455" cy="59.4545455" r="11.4545455"></circle>
                <path d="M38.8908142,72.0861181 L32.6635415,72.8588454 C32.0815488,72.9097281 31.5428482,73.1872405 31.1635415,73.6315727 L26.9362688,78.1770272 C26.3005639,78.8496814 25.3357111,79.0986843 24.4538881,78.8176638 C23.5720651,78.5366433 22.9291943,77.7752889 22.7999051,76.8588454 L22.0726324,70.7224818 C21.983157,70.1523644 21.712163,69.6263173 21.2999051,69.2224818 L16.7544506,64.995209 C16.0817964,64.3595042 15.8327935,63.3946513 16.113814,62.5128284 C16.3948345,61.6310054 17.156189,60.9881345 18.0726324,60.8588454 L24.2999051,60.1315727 C24.8569915,60.0423125 25.3686368,59.770501 25.7544506,59.3588454 L29.9817233,54.8133909 C30.6007803,54.1009712 31.5843154,53.8251149 32.4835645,54.1116887 C33.3828135,54.3982626 34.0253844,55.1923285 34.118087,56.1315727 L34.8908142,62.3588454 C34.938535,62.9289955 35.2178077,63.4546852 35.6635415,63.8133909 L40.208996,68.0406636 C40.8275899,68.6819688 41.041695,69.612343 40.7656451,70.4595308 C40.4895951,71.3067187 39.7684748,71.9323565 38.8908142,72.0861181 Z" id="Path" stroke="#000000" stroke-width="5" stroke-linecap="round" stroke-linejoin="round"></path>
                <circle id="Oval" fill="#F99157" cx="28.0454545" cy="67.0454545" r="3.04545455"></circle>
            </g>
            <rect id="Rectangle" stroke="#000000" stroke-width="7" fill="#FFFFFF" x="406" y="62" width="124" height="162" rx="5"></rect>
            <g id="12345" fill="#000000">
                <use xlink:href="#path-1"></use>
                <use xlink:href="#path-1"></use>
            </g>
            <g id="56345" fill="#000000">
                <use xlink:href="#path-2"></use>
                <use xlink:href="#path-2"></use>
            </g>
            <g id="34534" fill="#000000">
                <use xlink:href="#path-3"></use>
                <use xlink:href="#path-3"></use>
            </g>
            <g id="34564" fill="#000000">
                <use xlink:href="#path-4"></use>
                <use xlink:href="#path-4"></use>
            </g>
        </g>
    </g>
</svg>