<?xml version="1.0" encoding="UTF-8"?>
<svg width="1656px" height="318px" viewBox="0 0 1656 318" version="1.1" xmlns="http://www.w3.org/2000/svg" xmlns:xlink="http://www.w3.org/1999/xlink">
    <!-- Generator: Sketch 52.4 (67378) - http://www.bohemiancoding.com/sketch -->
    <title>5</title>
    <desc>Created with Sketch.</desc>
    <defs>
        <path d="M1129.18262,138 L1129.18262,116.525391 L1136.14062,116.525391 C1138.77736,116.525391 1140.49609,116.632811 1141.29688,116.847656 C1142.52735,117.169923 1143.55761,117.8706 1144.3877,118.949707 C1145.21778,120.028814 1145.63281,121.422843 1145.63281,123.131836 C1145.63281,124.450202 1145.39356,125.558589 1144.91504,126.457031 C1144.43652,127.355473 1143.82862,128.061033 1143.09131,128.57373 C1142.354,129.086428 1141.6045,129.42578 1140.84277,129.591797 C1139.80761,129.796876 1138.3086,129.899414 1136.3457,129.899414 L1133.51855,129.899414 L1133.51855,138 L1129.18262,138 Z M1133.51855,120.158203 L1133.51855,126.251953 L1135.8916,126.251953 C1137.60059,126.251953 1138.74316,126.13965 1139.31934,125.915039 C1139.89551,125.690429 1140.34717,125.33887 1140.67432,124.860352 C1141.00147,124.381834 1141.16504,123.825198 1141.16504,123.19043 C1141.16504,122.409176 1140.93555,121.764651 1140.47656,121.256836 C1140.01758,120.749021 1139.43653,120.431641 1138.7334,120.304688 C1138.21582,120.207031 1137.17579,120.158203 1135.61328,120.158203 L1133.51855,120.158203 Z M1159.40234,138 L1159.40234,135.670898 C1158.83593,136.500981 1158.09131,137.155271 1157.16846,137.633789 C1156.2456,138.112307 1155.27149,138.351562 1154.24609,138.351562 C1153.20117,138.351562 1152.26368,138.122073 1151.43359,137.663086 C1150.60351,137.204099 1150.00293,136.559574 1149.63184,135.729492 C1149.26074,134.89941 1149.0752,133.75196 1149.0752,132.287109 L1149.0752,122.443359 L1153.19141,122.443359 L1153.19141,129.591797 C1153.19141,131.779308 1153.26709,133.119626 1153.41846,133.612793 C1153.56982,134.105959 1153.8457,134.496581 1154.24609,134.784668 C1154.64649,135.072755 1155.15429,135.216797 1155.76953,135.216797 C1156.47266,135.216797 1157.10254,135.023928 1157.65918,134.638184 C1158.21582,134.252439 1158.59668,133.773929 1158.80176,133.202637 C1159.00684,132.631345 1159.10938,131.232433 1159.10938,129.005859 L1159.10938,122.443359 L1163.22559,122.443359 L1163.22559,138 L1159.40234,138 Z M1167.3125,138 L1167.3125,116.525391 L1171.42871,116.525391 L1171.42871,124.259766 C1172.69825,122.814446 1174.20214,122.091797 1175.94043,122.091797 C1177.83497,122.091797 1179.40234,122.777825 1180.64258,124.149902 C1181.88282,125.52198 1182.50293,127.492175 1182.50293,130.060547 C1182.50293,132.71681 1181.87061,134.762688 1180.60596,136.198242 C1179.3413,137.633796 1177.80567,138.351562 1175.99902,138.351562 C1175.11035,138.351562 1174.23389,138.129397 1173.36963,137.685059 C1172.50537,137.24072 1171.76075,136.583989 1171.13574,135.714844 L1171.13574,138 L1167.3125,138 Z M1171.39941,129.884766 C1171.39941,131.496102 1171.65332,132.687496 1172.16113,133.458984 C1172.87403,134.55274 1173.82128,135.099609 1175.00293,135.099609 C1175.91114,135.099609 1176.68506,134.71143 1177.32471,133.935059 C1177.96436,133.158688 1178.28418,131.935555 1178.28418,130.265625 C1178.28418,128.488272 1177.96192,127.206547 1177.31738,126.42041 C1176.67285,125.634273 1175.84766,125.241211 1174.8418,125.241211 C1173.85546,125.241211 1173.03516,125.624508 1172.38086,126.391113 C1171.72656,127.157719 1171.39941,128.322258 1171.39941,129.884766 Z M1185.81348,138 L1185.81348,116.525391 L1189.92969,116.525391 L1189.92969,138 L1185.81348,138 Z M1194.14844,120.333984 L1194.14844,116.525391 L1198.26465,116.525391 L1198.26465,120.333984 L1194.14844,120.333984 Z M1194.14844,138 L1194.14844,122.443359 L1198.26465,122.443359 L1198.26465,138 L1194.14844,138 Z M1216.04785,127.042969 L1211.99023,127.775391 C1211.85351,126.96484 1211.54346,126.354494 1211.06006,125.944336 C1210.57666,125.534178 1209.94922,125.329102 1209.17773,125.329102 C1208.15234,125.329102 1207.33448,125.683102 1206.72412,126.391113 C1206.11377,127.099125 1205.80859,128.283195 1205.80859,129.943359 C1205.80859,131.789072 1206.11865,133.09277 1206.73877,133.854492 C1207.35889,134.616215 1208.1914,134.99707 1209.23633,134.99707 C1210.01758,134.99707 1210.65722,134.774905 1211.15527,134.330566 C1211.65332,133.886228 1212.00488,133.122076 1212.20996,132.038086 L1216.25293,132.726562 C1215.83301,134.582041 1215.02735,135.983394 1213.83594,136.930664 C1212.64453,137.877934 1211.04786,138.351562 1209.0459,138.351562 C1206.7705,138.351562 1204.95655,137.633796 1203.604,136.198242 C1202.25146,134.762688 1201.5752,132.775403 1201.5752,130.236328 C1201.5752,127.667956 1202.2539,125.668464 1203.61133,124.237793 C1204.96876,122.807122 1206.80468,122.091797 1209.11914,122.091797 C1211.01368,122.091797 1212.52001,122.499508 1213.63818,123.314941 C1214.75635,124.130375 1215.55957,125.373039 1216.04785,127.042969 Z" id="path-1"></path>
        <path d="M1129.24121,171 L1129.24121,149.525391 L1133.57715,149.525391 L1133.57715,159.061523 L1142.33691,149.525391 L1148.16699,149.525391 L1140.08105,157.889648 L1148.60645,171 L1142.99609,171 L1137.09277,160.921875 L1133.57715,164.510742 L1133.57715,171 L1129.24121,171 Z M1159.82715,166.048828 L1163.92871,166.737305 C1163.40136,168.241218 1162.56885,169.386227 1161.43115,170.172363 C1160.29345,170.9585 1158.87013,171.351562 1157.16113,171.351562 C1154.45604,171.351562 1152.45411,170.467782 1151.15527,168.700195 C1150.12988,167.284173 1149.61719,165.497081 1149.61719,163.338867 C1149.61719,160.760729 1150.29101,158.741707 1151.63867,157.281738 C1152.98633,155.82177 1154.69042,155.091797 1156.75098,155.091797 C1159.06544,155.091797 1160.89159,155.855949 1162.22949,157.384277 C1163.56739,158.912605 1164.20703,161.25389 1164.14844,164.408203 L1153.83594,164.408203 C1153.86523,165.628912 1154.19726,166.57861 1154.83203,167.257324 C1155.4668,167.936039 1156.25781,168.275391 1157.20508,168.275391 C1157.84961,168.275391 1158.3916,168.099611 1158.83105,167.748047 C1159.27051,167.396483 1159.60254,166.830082 1159.82715,166.048828 Z M1160.06152,161.888672 C1160.03223,160.69726 1159.72461,159.791507 1159.13867,159.171387 C1158.55273,158.551266 1157.83985,158.241211 1157,158.241211 C1156.10156,158.241211 1155.35938,158.568356 1154.77344,159.222656 C1154.1875,159.876956 1153.89941,160.765619 1153.90918,161.888672 L1160.06152,161.888672 Z M1165.55469,155.443359 L1169.93457,155.443359 L1173.65527,166.488281 L1177.28809,155.443359 L1181.55078,155.443359 L1176.05762,170.414062 L1175.07617,173.124023 C1174.71484,174.032231 1174.37061,174.725584 1174.04346,175.204102 C1173.71631,175.68262 1173.34033,176.070799 1172.91553,176.368652 C1172.49072,176.666505 1171.96826,176.898437 1171.34814,177.064453 C1170.72802,177.23047 1170.02735,177.313477 1169.24609,177.313477 C1168.45507,177.313477 1167.67871,177.23047 1166.91699,177.064453 L1166.55078,173.841797 C1167.19532,173.968751 1167.77636,174.032227 1168.29395,174.032227 C1169.25098,174.032227 1169.95898,173.751468 1170.41797,173.189941 C1170.87696,172.628415 1171.22851,171.91309 1171.47266,171.043945 L1165.55469,155.443359 Z" id="path-2"></path>
    </defs>
    <g id="Page-1" stroke="none" stroke-width="1" fill="none" fill-rule="evenodd">
        <g id="5">
            <path d="M376.537943,145 L558,145 L558,126.221159 C558,124.442162 559.442162,123 561.221159,123 C561.721228,123 562.21443,123.116429 562.661705,123.340067 L610.218681,147.118555 C611.809865,147.914146 612.454819,149.84901 611.659228,151.440193 C611.347536,152.063576 610.842064,152.569048 610.218681,152.88074 L562.661705,176.659228 C561.070522,177.454819 559.135659,176.809865 558.340067,175.218681 C558.116429,174.771406 558,174.278204 558,173.778135 L558,155 L376.537943,155 C374.19313,167.522838 363.20332,177 350,177 C335.088312,177 323,164.911688 323,150 C323,135.088312 335.088312,123 350,123 C363.20332,123 374.19313,132.477162 376.537943,145 Z M333,150 C333,159.388841 340.611159,167 350,167 C359.388841,167 367,159.388841 367,150 C367,140.611159 359.388841,133 350,133 C340.611159,133 333,140.611159 333,150 Z" id="Line" fill="#000000" fill-rule="nonzero"></path>
            <path d="M1078.03794,145 L1259.5,145 L1259.5,126.221159 C1259.5,124.442162 1260.94216,123 1262.72116,123 C1263.22123,123 1263.71443,123.116429 1264.16171,123.340067 L1311.71868,147.118555 C1313.30986,147.914146 1313.95482,149.84901 1313.15923,151.440193 C1312.84754,152.063576 1312.34206,152.569048 1311.71868,152.88074 L1264.16171,176.659228 C1262.57052,177.454819 1260.63566,176.809865 1259.84007,175.218681 C1259.61643,174.771406 1259.5,174.278204 1259.5,173.778135 L1259.5,155 L1078.03794,155 C1075.69313,167.522838 1064.70332,177 1051.5,177 C1036.58831,177 1024.5,164.911688 1024.5,150 C1024.5,135.088312 1036.58831,123 1051.5,123 C1064.70332,123 1075.69313,132.477162 1078.03794,145 Z M1034.5,150 C1034.5,159.388841 1042.11116,167 1051.5,167 C1060.88884,167 1068.5,159.388841 1068.5,150 C1068.5,140.611159 1060.88884,133 1051.5,133 C1042.11116,133 1034.5,140.611159 1034.5,150 Z" id="Line" fill="#000000" fill-rule="nonzero"></path>
            <g id="User">
                <circle id="Oval" fill="#FFFFFF" cx="150" cy="150" r="143.877551"></circle>
                <path d="M150,300 C67.1572875,300 1.11022302e-14,232.842712 0,150 C-1.11022302e-14,67.1572875 67.1572875,2.22044605e-14 150,0 C232.842712,-2.22044605e-14 300,67.1572875 300,150 C300,189.782473 284.196474,227.93556 256.066017,256.066017 C227.93556,284.196474 189.782473,300 150,300 Z M150,12.5 C74.0608469,12.5 12.5,74.0608469 12.5,150 C12.5,225.939153 74.0608469,287.5 150,287.5 C225.939153,287.5 287.5,225.939153 287.5,150 C287.5,74.0608469 225.939153,12.5 150,12.5 Z" id="Shape" fill="#000000" fill-rule="nonzero"></path>
                <circle id="Oval" fill="#F99157" cx="150" cy="150" r="119.387755"></circle>
                <circle id="Oval" fill="#FFFFFF" cx="151.020408" cy="100" r="40.8163265"></circle>
                <path d="M80.5052967,183.311689 C89.6791053,152.006314 118.493531,130.52242 151.185969,130.612527 C184.77802,130.612527 217.121296,156.401479 221.991519,183.810026 C226.861742,211.218574 192.145793,216.326531 151.185969,216.326531 C110.226145,216.326531 73.262401,212.589001 80.5052967,183.311689 Z" id="Path" fill="#FFFFFF"></path>
            </g>
            <g id="Browser" transform="translate(640.000000, 1.000000)">
                <rect id="Rectangle" fill="#FFFFFF" x="7.8" y="8.3" width="345" height="270"></rect>
                <path d="M352.8,285.8 L7.8,285.8 C3.65786438,285.8 0.3,282.442136 0.3,278.3 L0.3,8.3 C0.3,4.15786438 3.65786438,0.8 7.8,0.8 L352.8,0.8 C356.942136,0.8 360.3,4.15786438 360.3,8.3 L360.3,278.3 C360.3,282.442136 356.942136,285.8 352.8,285.8 Z M15.3,270.8 L345.3,270.8 L345.3,15.8 L15.3,15.8 L15.3,270.8 Z" id="Shape" fill="#000000" fill-rule="nonzero"></path>
                <path d="M352.8,60.8 L7.8,60.8 C3.65786438,60.8 0.3,57.4421356 0.3,53.3 C0.3,49.1578644 3.65786438,45.8 7.8,45.8 L352.8,45.8 C356.942136,45.8 360.3,49.1578644 360.3,53.3 C360.3,57.4421356 356.942136,60.8 352.8,60.8 Z" id="Path" fill="#000000"></path>
                <circle id="Oval" fill="#000000" cx="30.3" cy="30.8" r="7.5"></circle>
                <circle id="Oval" fill="#000000" cx="60.3" cy="30.8" r="7.5"></circle>
                <circle id="Oval" fill="#000000" cx="90.3" cy="30.8" r="7.5"></circle>
                <path d="M240.3,195.8 L120.3,195.8 C116.157864,195.8 112.8,192.442136 112.8,188.3 L112.8,158.3 C112.8,154.157864 116.157864,150.8 120.3,150.8 L240.3,150.8 C244.442136,150.8 247.8,154.157864 247.8,158.3 L247.8,188.3 C247.8,192.442136 244.442136,195.8 240.3,195.8 Z M127.8,180.8 L232.8,180.8 L232.8,165.8 L127.8,165.8 L127.8,180.8 Z" id="Shape" fill="#000000" fill-rule="nonzero"></path>
                <rect id="Rectangle" fill="#F99157" x="15.45" y="60.8" width="329.85" height="37.8"></rect>
            </g>
            <g id="Server" transform="translate(1345.000000, 4.000000)">
                <rect id="Rectangle" fill="#F99157" x="68.3478261" y="79.0869565" width="177.913043" height="158.347826"></rect>
                <path d="M246.26087,243.826087 L68.3478261,243.826087 C64.745969,243.826087 61.826087,240.906205 61.826087,237.304348 L61.826087,79.0869565 C61.826087,75.4850995 64.745969,72.5652174 68.3478261,72.5652174 L246.26087,72.5652174 C249.862727,72.5652174 252.782609,75.4850995 252.782609,79.0869565 L252.782609,237.565217 C252.642514,241.064808 249.763262,243.82889 246.26087,243.826087 Z M74.8695652,230.782609 L239.73913,230.782609 L239.73913,85.6086957 L74.8695652,85.6086957 L74.8695652,230.782609 Z" id="Shape" fill="#000000" fill-rule="nonzero"></path>
                <rect id="Rectangle" fill="#FFFFFF" x="51.1304348" y="129.043478" width="212.217391" height="58.6956522"></rect>
                <path d="M263.347826,194.26087 L51.1304348,194.26087 C47.5577158,194.191477 44.6780883,191.311849 44.6086957,187.73913 L44.6086957,129.043478 C44.6086957,125.441621 47.5285777,122.521739 51.1304348,122.521739 L263.347826,122.521739 C266.949683,122.521739 269.869565,125.441621 269.869565,129.043478 L269.869565,187.73913 C269.869565,191.340987 266.949683,194.26087 263.347826,194.26087 Z M57.6521739,181.217391 L256.826087,181.217391 L256.826087,135.565217 L57.6521739,135.565217 L57.6521739,181.217391 Z" id="Shape" fill="#000000" fill-rule="nonzero"></path>
                <rect id="Rectangle" fill="#FFFFFF" x="51.1304348" y="38.6521739" width="212.217391" height="58.6956522"></rect>
                <path d="M263.347826,103.869565 L51.1304348,103.869565 C47.5577158,103.800173 44.6780883,100.920545 44.6086957,97.3478261 L44.6086957,38.6521739 C44.6086957,35.0503168 47.5285777,32.1304348 51.1304348,32.1304348 L263.347826,32.1304348 C266.949683,32.1304348 269.869565,35.0503168 269.869565,38.6521739 L269.869565,97.3478261 C269.869565,100.949683 266.949683,103.869565 263.347826,103.869565 Z M57.6521739,90.826087 L256.826087,90.826087 L256.826087,45.173913 L57.6521739,45.173913 L57.6521739,90.826087 Z" id="Shape" fill="#000000" fill-rule="nonzero"></path>
                <rect id="Rectangle" fill="#FFFFFF" x="51.1304348" y="219.304348" width="212.217391" height="58.6956522"></rect>
                <path d="M263.347826,284.521739 L51.1304348,284.521739 C47.5285777,284.521739 44.6086957,281.601857 44.6086957,278 L44.6086957,219.304348 C44.6780883,215.731629 47.5577158,212.852001 51.1304348,212.782609 L263.347826,212.782609 C266.949683,212.782609 269.869565,215.702491 269.869565,219.304348 L269.869565,278 C269.869565,281.601857 266.949683,284.521739 263.347826,284.521739 Z M57.6521739,271.478261 L256.826087,271.478261 L256.826087,225.826087 L57.6521739,225.826087 L57.6521739,271.478261 Z" id="Shape" fill="#000000" fill-rule="nonzero"></path>
                <path d="M45,259.347826 L7.17391304,259.347826 C3.6011941,259.278433 0.721566597,256.398806 0.652173913,252.826087 C0.652173913,249.22423 3.57205598,246.304348 7.17391304,246.304348 L45,246.304348 C48.6018571,246.304348 51.5217391,249.22423 51.5217391,252.826087 C51.4523464,256.398806 48.5727189,259.278433 45,259.347826 Z" id="Path" fill="#000000"></path>
                <path d="M304.043478,259.347826 L266.347826,259.347826 C262.745969,259.347826 259.826087,256.427944 259.826087,252.826087 C259.826087,249.22423 262.745969,246.304348 266.347826,246.304348 L304.043478,246.304348 C307.645335,246.304348 310.565217,249.22423 310.565217,252.826087 C310.565217,256.427944 307.645335,259.347826 304.043478,259.347826 Z" id="Path" fill="#000000"></path>
                <rect id="Rectangle" fill="#000000" x="31.826087" y="240.956522" width="16.4347826" height="23.3478261"></rect>
                <rect id="Rectangle" fill="#000000" x="266.347826" y="240.956522" width="16.4347826" height="23.3478261"></rect>
                <path d="M228.913043,163.217391 L154.173913,163.217391 C150.572056,163.217391 147.652174,160.297509 147.652174,156.695652 C147.652174,153.093795 150.572056,150.173913 154.173913,150.173913 L228.913043,150.173913 C232.514901,150.173913 235.434783,153.093795 235.434783,156.695652 C235.434783,160.297509 232.514901,163.217391 228.913043,163.217391 Z" id="Path" fill="#F99157"></path>
                <path d="M231.391304,255.826087 L156.782609,255.826087 C153.180752,255.826087 150.26087,252.906205 150.26087,249.304348 C150.26087,245.702491 153.180752,242.782609 156.782609,242.782609 L231.391304,242.782609 C234.993161,242.782609 237.913043,245.702491 237.913043,249.304348 C237.913043,252.906205 234.993161,255.826087 231.391304,255.826087 Z" id="Path" fill="#F99157"></path>
                <path d="M228.913043,74.2608696 L154.173913,74.2608696 C150.572056,74.2608696 147.652174,71.3409875 147.652174,67.7391304 C147.652174,64.1372734 150.572056,61.2173913 154.173913,61.2173913 L228.913043,61.2173913 C232.485762,61.286784 235.36539,64.1664115 235.434783,67.7391304 C235.434783,69.4688032 234.747673,71.1276331 233.524609,72.3506964 C232.301546,73.5737597 230.642716,74.2608696 228.913043,74.2608696 Z" id="Path" fill="#F99157"></path>
                <circle id="Oval" fill="#000000" cx="121.826087" cy="68" r="8.08695652"></circle>
                <circle id="Oval" fill="#000000" cx="121.826087" cy="157.478261" r="8.08695652"></circle>
                <circle id="Oval" fill="#000000" cx="121.826087" cy="247.73913" r="8.08695652"></circle>
                <polygon id="Path" fill="#FFFFFF" points="236.869565 38.1304348 181.956522 38.1304348 194.347826 7.2173913 224.478261 7.2173913"></polygon>
                <path d="M236.869565,44.6521739 L181.956522,44.6521739 C179.769782,44.6542162 177.721701,43.5814118 176.478261,41.7826087 C175.503643,39.9013438 175.503643,37.6638736 176.478261,35.7826087 L188.869565,4.73913043 C189.875946,2.23209168 192.298567,0.582648061 195,0.565217391 L224.478261,0.565217391 C227.179694,0.582648061 229.602315,2.23209168 230.608696,4.73913043 L242.869565,35.7826087 C243.915165,37.6459489 243.915165,39.9192685 242.869565,41.7826087 C241.563972,43.78637 239.248927,44.8935652 236.869565,44.6521739 Z M191.608696,31.6086957 L227.217391,31.6086957 L220.043478,13.6086957 L198.652174,13.6086957 L191.608696,31.6086957 Z" id="Shape" fill="#000000" fill-rule="nonzero"></path>
            </g>
            <rect id="Rectangle" stroke="#000000" stroke-width="7" fill="#FFFFFF" x="161.5" y="202.5" width="145" height="112" rx="5"></rect>
            <g id="Backend" transform="translate(174.000000, 212.000000)">
                <path d="M45.561616,31.7888888 L42.3343433,32.6525251 C40.3297775,33.1860988 39.0536179,35.1494213 39.3797979,37.1979797 L39.9707069,40.5161615 C40.2348163,42.047994 39.5875582,43.5941183 38.3109198,44.4809434 C37.0342814,45.3677686 35.359478,45.4346794 34.0161615,44.6525251 L31.1070706,42.9707069 C29.3200347,41.9293032 27.0337834,42.4220298 25.8343433,44.1070706 L23.8797979,46.8343433 C22.9854766,48.1050711 21.4361532,48.7428747 19.9064054,48.4700535 C18.3766576,48.1972322 17.1433374,47.063161 16.7434342,45.561616 L15.8797979,42.3343433 C15.3455177,40.3346591 13.3739537,39.0728582 11.3343433,39.4252524 L8.01616149,39.9707069 C6.48432904,40.2348163 4.93820471,39.5875582 4.05137956,38.3109198 C3.16455442,37.0342814 3.09764364,35.359478 3.87979786,34.0161615 L5.56161604,31.1070706 C6.60301977,29.3200347 6.11029318,27.0337834 4.4252524,25.8343433 L1.69797968,23.8797979 C0.427251838,22.9854766 -0.210551761,21.4361532 0.0622695026,19.9064054 C0.335090766,18.3766576 1.46916201,17.1433374 2.97070695,16.7434342 L6.19797968,15.8797979 C8.20254546,15.3462242 9.47870509,13.3829017 9.15252513,11.3343433 L8.56161604,8.06161604 C8.29750668,6.52978358 8.94476479,4.98365925 10.2214032,4.09683411 C11.4980416,3.21000896 13.172845,3.14309818 14.5161615,3.9252524 L17.4252524,5.60707058 C19.2268357,6.61676265 21.4997224,6.10732253 22.6979797,4.4252524 L24.6525251,1.69797968 C25.5468464,0.427251838 27.0961698,-0.210551761 28.6259176,0.0622695026 C30.1556654,0.335090766 31.3889856,1.46916201 31.7888888,2.97070695 L32.6525251,6.24343422 C33.1868053,8.24311839 35.1583693,9.50491937 37.1979797,9.15252513 L40.5161615,8.56161604 C42.047994,8.29750668 43.5941183,8.94476479 44.4809434,10.2214032 C45.3677686,11.4980416 45.4346794,13.172845 44.6525251,14.5161615 L42.9707069,17.4252524 C41.9293032,19.2122882 42.4220298,21.4985396 44.1070706,22.6979797 L46.8343433,24.6525251 C48.1050711,25.5468464 48.7428747,27.0961698 48.4700535,28.6259176 C48.1972322,30.1556654 47.063161,31.3889856 45.561616,31.7888888 Z" id="Path" stroke="#000000" stroke-width="5" fill="#FFFFFF" stroke-linecap="round" stroke-linejoin="round"></path>
                <circle id="Oval" stroke="#000000" stroke-width="5" fill="#FFFFFF" stroke-linecap="round" stroke-linejoin="round" cx="24.6818182" cy="24.6818182" r="9.68181818"></circle>
                <circle id="Oval" fill="#F99157" cx="25.0454545" cy="24.0454545" r="3.04545455"></circle>
                <path d="M113.444523,63.3949777 L113.035432,63.3949777 C111.532792,63.8509028 110.371895,65.0501164 109.964989,66.5667657 C109.558083,68.0834149 109.962805,69.7026722 111.035432,70.8495231 L111.30816,71.1677049 C112.938172,72.6122061 113.31449,75.0099161 112.205375,76.8843196 C111.09626,78.7587232 108.813451,79.5829852 106.762705,78.8495231 L106.353614,78.8495231 C104.855339,78.5564006 103.309981,79.0350054 102.239643,80.1236401 C101.169305,81.2122748 100.716959,82.7655217 101.035432,84.258614 L101.035432,84.6222504 C101.718366,86.6517138 100.89228,88.8826001 99.0522848,89.9778351 C97.2122901,91.0730701 94.8574245,90.7356077 93.3990688,89.1677049 L93.1263415,88.8040686 C91.9802905,87.7089068 90.3464771,87.2899035 88.8148157,87.6983466 C87.2831543,88.1067896 86.0749111,89.2836746 85.6263415,90.8040686 L85.6263415,91.2131595 C85.1195243,93.235384 83.3020182,94.6535917 81.2172506,94.6535917 C79.1324831,94.6535917 77.314977,93.235384 76.8081597,91.2131595 L76.8081597,90.8040686 C76.4135332,89.170645 75.1499228,87.8882005 73.522516,87.4694525 C71.8951092,87.0507046 70.1694426,87.5639784 69.0354325,88.8040686 L68.7172506,89.0767958 C67.258895,90.6446986 64.9040294,90.982161 63.0640346,89.886926 C61.2240399,88.791691 60.3979532,86.5608047 61.080887,84.5313413 L61.080887,84.258614 C61.4543685,82.7236655 61.0041182,81.1048819 59.8917231,79.9832169 C58.779328,78.8615518 57.1643366,78.3978833 55.6263415,78.758614 L55.2172506,78.758614 C53.1665051,79.4920761 50.8836954,78.6678141 49.7745808,76.7934106 C48.6654663,74.919007 49.0417838,72.521297 50.6717961,71.0767958 L50.9445234,70.758614 C52.0171511,69.6117631 52.4218723,67.9925058 52.0149664,66.4758566 C51.6080605,64.9592073 50.4471642,63.7599937 48.9445234,63.3040686 L48.5354325,63.3040686 C46.4672145,62.8327167 45,60.9934995 45,58.8722504 C45,56.7510012 46.4672145,54.9117841 48.5354325,54.4404322 L48.9445234,54.4404322 C50.4471642,53.984507 51.6080605,52.7852934 52.0149664,51.2686442 C52.4218723,49.751995 52.0171511,48.1327377 50.9445234,46.9858867 L50.6717961,46.6677049 C49.0417838,45.2232037 48.6654663,42.8254938 49.7745808,40.9510902 C50.8836954,39.0766866 53.1665051,38.2524247 55.2172506,38.9858867 L55.6263415,38.9858867 C57.1546564,39.3401857 58.7576419,38.8813232 59.8669826,37.7719824 C60.9763234,36.6626416 61.4351859,35.0596561 61.080887,33.5313413 L61.080887,33.1222504 C60.3979532,31.092787 61.2240399,28.8619006 63.0640346,27.7666657 C64.9040294,26.6714307 67.258895,27.0088931 68.7172506,28.5767958 L69.0354325,28.8495231 C70.1822834,29.9221509 71.8015407,30.3268721 73.3181899,29.9199662 C74.8348392,29.5130603 76.0340527,28.352164 76.4899779,26.8495231 L76.4899779,26.4404322 C76.9967952,24.4182077 78.8143012,23 80.8990688,23 C82.9838364,23 84.8013425,24.4182077 85.3081597,26.4404322 L85.3081597,26.8495231 C85.7640849,28.352164 86.9632985,29.5130603 88.4799477,29.9199662 C89.996597,30.3268721 91.6158543,29.9221509 92.7627052,28.8495231 L93.080887,28.5767958 C94.5392427,27.0088931 96.8941083,26.6714307 98.734103,27.7666657 C100.574098,28.8619006 101.400184,31.092787 100.717251,33.1222504 L100.717251,33.5313413 C100.362952,35.0596561 100.821814,36.6626416 101.931155,37.7719824 C103.040496,38.8813232 104.643481,39.3401857 106.171796,38.9858867 L107.126342,38.8040686 C109.177087,38.0706065 111.459897,38.8948684 112.569011,40.769272 C113.678126,42.6436756 113.301808,45.0413856 111.671796,46.4858867 L111.399069,46.8040686 C110.326441,47.9509195 109.92172,49.5701768 110.328626,51.086826 C110.735532,52.6034753 111.896428,53.8026888 113.399069,54.258614 L113.80816,54.258614 C116.331097,54.3590294 118.294939,56.4856769 118.194523,59.008614 C118.094108,61.5315512 115.967461,63.4953931 113.444523,63.3949777 Z" id="Path" stroke="#000000" stroke-width="5" fill="#FFFFFF" stroke-linecap="round" stroke-linejoin="round"></path>
                <circle id="Oval" fill="#F99157" cx="80.6818182" cy="59.6818182" r="20.6818182"></circle>
                <circle id="Oval" stroke="#000000" stroke-width="5" fill="#FFFFFF" stroke-linecap="round" stroke-linejoin="round" cx="80.4545455" cy="59.4545455" r="11.4545455"></circle>
                <path d="M38.8908142,72.0861181 L32.6635415,72.8588454 C32.0815488,72.9097281 31.5428482,73.1872405 31.1635415,73.6315727 L26.9362688,78.1770272 C26.3005639,78.8496814 25.3357111,79.0986843 24.4538881,78.8176638 C23.5720651,78.5366433 22.9291943,77.7752889 22.7999051,76.8588454 L22.0726324,70.7224818 C21.983157,70.1523644 21.712163,69.6263173 21.2999051,69.2224818 L16.7544506,64.995209 C16.0817964,64.3595042 15.8327935,63.3946513 16.113814,62.5128284 C16.3948345,61.6310054 17.156189,60.9881345 18.0726324,60.8588454 L24.2999051,60.1315727 C24.8569915,60.0423125 25.3686368,59.770501 25.7544506,59.3588454 L29.9817233,54.8133909 C30.6007803,54.1009712 31.5843154,53.8251149 32.4835645,54.1116887 C33.3828135,54.3982626 34.0253844,55.1923285 34.118087,56.1315727 L34.8908142,62.3588454 C34.938535,62.9289955 35.2178077,63.4546852 35.6635415,63.8133909 L40.208996,68.0406636 C40.8275899,68.6819688 41.041695,69.612343 40.7656451,70.4595308 C40.4895951,71.3067187 39.7684748,71.9323565 38.8908142,72.0861181 Z" id="Path" stroke="#000000" stroke-width="5" stroke-linecap="round" stroke-linejoin="round"></path>
                <circle id="Oval" fill="#F99157" cx="28.0454545" cy="67.0454545" r="3.04545455"></circle>
            </g>
            <rect id="Rectangle" stroke="#000000" stroke-width="7" fill="#FFFFFF" x="1106.5" y="65.5" width="124" height="162" rx="5"></rect>
            <g id="Public" fill="#000000">
                <use xlink:href="#path-1"></use>
                <use xlink:href="#path-1"></use>
            </g>
            <g id="Key" fill="#000000">
                <use xlink:href="#path-2"></use>
                <use xlink:href="#path-2"></use>
            </g>
        </g>
    </g>
</svg>