<?xml version="1.0" standalone="no"?>
<!DOCTYPE svg PUBLIC "-//W3C//DTD SVG 20010904//EN"
 "http://www.w3.org/TR/2001/REC-SVG-20010904/DTD/svg10.dtd">
<svg version="1.0" xmlns="http://www.w3.org/2000/svg"
 width="260.000000pt" height="260.000000pt" viewBox="0 0 260.000000 260.000000"
 preserveAspectRatio="xMidYMid meet">
<metadata>
Created by potrace 1.11, written by Peter Selinger 2001-2013
</metadata>
<g transform="translate(0.000000,260.000000) scale(0.100000,-0.100000)"
fill="#000000" stroke="none">
<path d="M0 1300 l0 -1300 1300 0 1300 0 0 1300 0 1300 -1300 0 -1300 0 0
-1300z m750 138 c0 -117 -5 -220 -11 -243 -28 -100 -152 -151 -268 -110 -45
16 -101 51 -101 64 0 4 15 25 34 46 l33 39 32 -27 c41 -34 101 -37 131 -7 18
18 20 33 20 180 l0 160 -95 0 -95 0 0 50 0 50 160 0 160 0 0 -202z m275 7 c54
-166 63 -187 72 -165 6 14 36 101 68 193 l58 168 59 -3 60 -3 61 -192 c34
-105 64 -189 67 -186 3 2 32 88 65 191 l61 187 62 3 c34 2 62 1 62 -2 0 -3
-41 -129 -90 -281 l-91 -275 -69 0 -68 0 -57 173 c-31 94 -59 179 -62 187 -3
8 -33 -68 -67 -170 l-63 -185 -71 -3 -71 -3 -87 268 c-48 147 -89 274 -92 281
-3 10 11 12 64 10 l68 -3 61 -190z m1195 140 l0 -55 -90 0 -90 0 0 -225 0
-225 -65 0 -65 0 0 225 0 224 -87 3 -88 3 -3 53 -3 52 245 0 246 0 0 -55z"/>
</g>
</svg>
