<?xml version="1.0" encoding="UTF-8"?>
<svg width="1671px" height="777px" viewBox="0 0 1671 777" version="1.1" xmlns="http://www.w3.org/2000/svg" xmlns:xlink="http://www.w3.org/1999/xlink">
    <!-- Generator: Sketch 52.4 (67378) - http://www.bohemiancoding.com/sketch -->
    <title>9</title>
    <desc>Created with Sketch.</desc>
    <g id="Page-1" stroke="none" stroke-width="1" fill="none" fill-rule="evenodd">
        <g id="9">
            <path d="M387.037943,374 L568.5,374 L568.5,355.221159 C568.5,353.442162 569.942162,352 571.721159,352 C572.221228,352 572.71443,352.116429 573.161705,352.340067 L620.718681,376.118555 C622.309865,376.914146 622.954819,378.84901 622.159228,380.440193 C621.847536,381.063576 621.342064,381.569048 620.718681,381.88074 L573.161705,405.659228 C571.570522,406.454819 569.635659,405.809865 568.840067,404.218681 C568.616429,403.771406 568.5,403.278204 568.5,402.778135 L568.5,384 L387.037943,384 C384.69313,396.522838 373.70332,406 360.5,406 C345.588312,406 333.5,393.911688 333.5,379 C333.5,364.088312 345.588312,352 360.5,352 C373.70332,352 384.69313,361.477162 387.037943,374 Z M343.5,379 C343.5,388.388841 351.111159,396 360.5,396 C369.888841,396 377.5,388.388841 377.5,379 C377.5,369.611159 369.888841,362 360.5,362 C351.111159,362 343.5,369.611159 343.5,379 Z" id="Line" fill="#000000" fill-rule="nonzero"></path>
            <path d="M1085.8732,287.715621 L1279.07837,167.242123 L1269.1422,151.307338 C1268.20091,149.79777 1268.66159,147.810953 1270.17115,146.869659 C1270.59549,146.605065 1271.0756,146.4429 1271.57346,146.396008 L1324.5095,141.410127 C1326.28065,141.243307 1327.8517,142.54388 1328.01852,144.315039 C1328.08387,145.00893 1327.92241,145.705302 1327.55836,146.299629 L1299.78544,191.639983 C1298.8562,193.157001 1296.87312,193.633491 1295.3561,192.704252 C1294.92967,192.443046 1294.56992,192.086144 1294.30532,191.661811 L1284.36952,175.727624 L1091.16435,296.201122 C1095.80068,308.068052 1091.48979,321.924774 1080.28611,328.910851 C1067.6328,336.800851 1050.97915,332.939423 1043.08915,320.28611 C1035.19915,307.632796 1039.06058,290.97915 1051.71389,283.089149 C1062.91757,276.103073 1077.25748,278.330044 1085.8732,287.715621 Z M1079.97773,296.323483 C1074.8493,288.902876 1064.74005,286.751468 1057.00504,291.57465 C1049.03814,296.542428 1046.60687,307.028057 1051.57465,314.994958 C1056.54243,322.961859 1067.02806,325.393128 1074.99496,320.42535 C1082.72997,315.602169 1085.24691,305.577676 1080.84038,297.706921 C1080.6631,297.504833 1080.49983,297.285736 1080.35295,297.050187 C1080.20607,296.814638 1080.08119,296.571603 1079.97773,296.323483 Z" id="Line" fill="#000000" fill-rule="nonzero" transform="translate(1183.514538, 237.199678) scale(-1, -1) translate(-1183.514538, -237.199678) "></path>
            <g id="Authorization-Server" transform="translate(1373.000000, 0.000000)">
                <rect id="Rectangle" fill="#EC5F67" x="63.16" y="99.84" width="163.68" height="145.68"></rect>
                <path d="M226.84,251.52 L63.04,251.52 C59.7530986,251.456159 57.1038413,248.806901 57.04,245.52 L57.04,99.84 C57.04,96.5262915 59.7262915,93.84 63.04,93.84 L226.84,93.84 C230.153708,93.84 232.84,96.5262915 232.84,99.84 L232.84,245.52 C232.84,248.833708 230.153708,251.52 226.84,251.52 Z M69.04,239.52 L220.84,239.52 L220.84,105.84 L69.04,105.84 L69.04,239.52 Z" id="Shape" fill="#000000" fill-rule="nonzero"></path>
                <rect id="Rectangle" fill="#FFFFFF" x="47.32" y="145.68" width="195.24" height="54"></rect>
                <path d="M242.56,205.68 L47.32,205.68 C44.0330986,205.616159 41.3838413,202.966901 41.32,199.68 L41.32,145.68 C41.32,142.366292 44.0062915,139.68 47.32,139.68 L242.56,139.68 C245.873708,139.68 248.56,142.366292 248.56,145.68 L248.56,199.68 C248.56,202.993708 245.873708,205.68 242.56,205.68 Z M53.32,193.68 L236.56,193.68 L236.56,151.68 L53.32,151.68 L53.32,193.68 Z" id="Shape" fill="#000000" fill-rule="nonzero"></path>
                <rect id="Rectangle" fill="#FFFFFF" x="47.32" y="62.52" width="195.24" height="54"></rect>
                <path d="M242.56,122.52 L47.32,122.52 C44.0062915,122.52 41.32,119.833708 41.32,116.52 L41.32,62.52 C41.32,59.2062915 44.0062915,56.52 47.32,56.52 L242.56,56.52 C245.873708,56.52 248.56,59.2062915 248.56,62.52 L248.56,117 C248.309218,120.124932 245.694962,122.530047 242.56,122.52 Z M53.32,110.52 L236.56,110.52 L236.56,69 L53.32,69 L53.32,110.52 Z" id="Shape" fill="#000000" fill-rule="nonzero"></path>
                <rect id="Rectangle" fill="#FFFFFF" x="47.32" y="228.72" width="195.24" height="54"></rect>
                <path d="M242.56,288.72 L47.32,288.72 C44.0062915,288.72 41.32,286.033708 41.32,282.72 L41.32,228.72 C41.3838413,225.433099 44.0330986,222.783841 47.32,222.72 L242.56,222.72 C245.873708,222.72 248.56,225.406292 248.56,228.72 L248.56,282.72 C248.56,286.033708 245.873708,288.72 242.56,288.72 Z M53.32,276.72 L236.56,276.72 L236.56,234.72 L53.32,234.72 L53.32,276.72 Z" id="Shape" fill="#000000" fill-rule="nonzero"></path>
                <path d="M41.68,265.56 L6.88,265.56 C3.59309857,265.496159 0.943841269,262.846901 0.88,259.56 C0.88,256.246292 3.5662915,253.56 6.88,253.56 L41.68,253.56 C44.9937085,253.56 47.68,256.246292 47.68,259.56 C47.6161587,262.846901 44.9669014,265.496159 41.68,265.56 Z" id="Path" fill="#000000"></path>
                <path d="M280,265.56 L245.32,265.56 C242.006292,265.56 239.32,262.873708 239.32,259.56 C239.32,256.246292 242.006292,253.56 245.32,253.56 L280,253.56 C283.313708,253.56 286,256.246292 286,259.56 C286,262.873708 283.313708,265.56 280,265.56 Z" id="Path" fill="#000000"></path>
                <rect id="Rectangle" fill="#000000" x="29.44" y="248.64" width="15.12" height="21.48"></rect>
                <rect id="Rectangle" fill="#000000" x="245.32" y="248.64" width="15.12" height="21.48"></rect>
                <path d="M210.88,177 L142.12,177 C138.806292,177 136.12,174.313708 136.12,171 C136.12,167.686292 138.806292,165 142.12,165 L210.88,165 C214.193708,165 216.88,167.686292 216.88,171 C216.88,174.313708 214.193708,177 210.88,177 Z" id="Path" fill="#EC5F67"></path>
                <path d="M213.16,262.32 L144.52,262.32 C141.206292,262.32 138.52,259.633708 138.52,256.32 C138.52,253.006292 141.206292,250.32 144.52,250.32 L213.16,250.32 C216.473708,250.32 219.16,253.006292 219.16,256.32 C219.16,259.633708 216.473708,262.32 213.16,262.32 Z" id="Path" fill="#EC5F67"></path>
                <path d="M210.88,94.8 L142.12,94.8 C138.806292,94.8 136.12,92.1137085 136.12,88.8 C136.12,85.4862915 138.806292,82.8 142.12,82.8 L210.88,82.8 C214.166901,82.8638413 216.816159,85.5130986 216.88,88.8 C216.88,90.3912989 216.247859,91.9174224 215.122641,93.0426407 C213.997422,94.167859 212.471299,94.8 210.88,94.8 Z" id="Path" fill="#EC5F67"></path>
                <circle id="Oval" fill="#000000" cx="112.36" cy="89.52" r="7.44"></circle>
                <circle id="Oval" fill="#000000" cx="112.36" cy="171.84" r="7.44"></circle>
                <circle id="Oval" fill="#000000" cx="112.36" cy="254.88" r="7.44"></circle>
                <polygon id="Path" fill="#FFFFFF" points="218.2 62.04 167.68 62.04 179.08 33.6 206.8 33.6"></polygon>
                <path d="M218.2,68.04 L167.68,68.04 C165.668199,68.0418789 163.783965,67.0548989 162.64,65.4 C161.743351,63.6692363 161.743351,61.6107637 162.64,59.88 L174.04,31.32 C174.97685,29.0387565 177.214154,27.5630883 179.68,27.6 L206.8,27.6 C209.265846,27.5630883 211.50315,29.0387565 212.44,31.32 L223.72,59.88 C224.681952,61.594273 224.681952,63.685727 223.72,65.4 C222.518854,67.2434604 220.389013,68.26208 218.2,68.04 Z M176.56,56.04 L209.32,56.04 L202.72,39.6 L183.04,39.6 L176.56,56.04 Z" id="Shape" fill="#000000" fill-rule="nonzero"></path>
                <polygon id="Path" fill="#FFFFFF" points="213.16 6.72 151.6 51.48 175.12 123.96 251.32 123.96 274.84 51.48"></polygon>
                <path d="M251.2,129.96 L175.12,129.96 C172.486284,129.975948 170.150081,128.272466 169.36,125.76 L145.36,53.76 C144.548665,51.0748789 145.628715,48.1783818 148,46.68 L209.68,1.92 C211.77554,0.339968051 214.66446,0.339968051 216.76,1.92 L278.32,46.68 C280.247018,48.3379344 280.920106,51.0302846 280,53.4 L256,125.4 C255.459309,127.745091 253.569719,129.540201 251.2,129.96 Z M179.2,117.96 L246.64,117.96 L268,53.76 L213.4,14.16 L158.92,53.76 L179.2,117.96 Z" id="Shape" fill="#000000" fill-rule="nonzero"></path>
                <polygon id="Path" fill="#EC5F67" points="213.16 31.08 174.52 59.16 189.28 104.76 237.16 104.76 251.92 59.16"></polygon>
            </g>
            <g id="User" transform="translate(0.000000, 229.000000)">
                <circle id="Oval" fill="#FFFFFF" cx="150" cy="150" r="143.877551"></circle>
                <path d="M150,300 C67.1572875,300 1.11022302e-14,232.842712 0,150 C-1.11022302e-14,67.1572875 67.1572875,2.22044605e-14 150,0 C232.842712,-2.22044605e-14 300,67.1572875 300,150 C300,189.782473 284.196474,227.93556 256.066017,256.066017 C227.93556,284.196474 189.782473,300 150,300 Z M150,12.5 C74.0608469,12.5 12.5,74.0608469 12.5,150 C12.5,225.939153 74.0608469,287.5 150,287.5 C225.939153,287.5 287.5,225.939153 287.5,150 C287.5,74.0608469 225.939153,12.5 150,12.5 Z" id="Shape" fill="#000000" fill-rule="nonzero"></path>
                <circle id="Oval" fill="#EC5F67" cx="150" cy="150" r="119.387755"></circle>
                <circle id="Oval" fill="#FFFFFF" cx="151.020408" cy="100" r="40.8163265"></circle>
                <path d="M80.5052967,183.311689 C89.6791053,152.006314 118.493531,130.52242 151.185969,130.612527 C184.77802,130.612527 217.121296,156.401479 221.991519,183.810026 C226.861742,211.218574 192.145793,216.326531 151.185969,216.326531 C110.226145,216.326531 73.262401,212.589001 80.5052967,183.311689 Z" id="Path" fill="#FFFFFF"></path>
            </g>
            <g id="Browser" transform="translate(640.000000, 230.000000)">
                <rect id="Rectangle" fill="#FFFFFF" x="7.8" y="8.3" width="345" height="270"></rect>
                <path d="M352.8,285.8 L7.8,285.8 C3.65786438,285.8 0.3,282.442136 0.3,278.3 L0.3,8.3 C0.3,4.15786438 3.65786438,0.8 7.8,0.8 L352.8,0.8 C356.942136,0.8 360.3,4.15786438 360.3,8.3 L360.3,278.3 C360.3,282.442136 356.942136,285.8 352.8,285.8 Z M15.3,270.8 L345.3,270.8 L345.3,15.8 L15.3,15.8 L15.3,270.8 Z" id="Shape" fill="#000000" fill-rule="nonzero"></path>
                <path d="M352.8,60.8 L7.8,60.8 C3.65786438,60.8 0.3,57.4421356 0.3,53.3 C0.3,49.1578644 3.65786438,45.8 7.8,45.8 L352.8,45.8 C356.942136,45.8 360.3,49.1578644 360.3,53.3 C360.3,57.4421356 356.942136,60.8 352.8,60.8 Z" id="Path" fill="#000000"></path>
                <circle id="Oval" fill="#000000" cx="30.3" cy="30.8" r="7.5"></circle>
                <circle id="Oval" fill="#000000" cx="60.3" cy="30.8" r="7.5"></circle>
                <circle id="Oval" fill="#000000" cx="90.3" cy="30.8" r="7.5"></circle>
                <path d="M240.3,195.8 L120.3,195.8 C116.157864,195.8 112.8,192.442136 112.8,188.3 L112.8,158.3 C112.8,154.157864 116.157864,150.8 120.3,150.8 L240.3,150.8 C244.442136,150.8 247.8,154.157864 247.8,158.3 L247.8,188.3 C247.8,192.442136 244.442136,195.8 240.3,195.8 Z M127.8,180.8 L232.8,180.8 L232.8,165.8 L127.8,165.8 L127.8,180.8 Z" id="Shape" fill="#000000" fill-rule="nonzero"></path>
                <rect id="Rectangle" fill="#EC5F67" x="15.45" y="60.8" width="329.85" height="37.8"></rect>
            </g>
            <g id="Server" transform="translate(1360.000000, 446.000000)">
                <rect id="Rectangle" fill="#EC5F67" x="68.3478261" y="79.0869565" width="177.913043" height="158.347826"></rect>
                <path d="M246.26087,243.826087 L68.3478261,243.826087 C64.745969,243.826087 61.826087,240.906205 61.826087,237.304348 L61.826087,79.0869565 C61.826087,75.4850995 64.745969,72.5652174 68.3478261,72.5652174 L246.26087,72.5652174 C249.862727,72.5652174 252.782609,75.4850995 252.782609,79.0869565 L252.782609,237.565217 C252.642514,241.064808 249.763262,243.82889 246.26087,243.826087 Z M74.8695652,230.782609 L239.73913,230.782609 L239.73913,85.6086957 L74.8695652,85.6086957 L74.8695652,230.782609 Z" id="Shape" fill="#000000" fill-rule="nonzero"></path>
                <rect id="Rectangle" fill="#FFFFFF" x="51.1304348" y="129.043478" width="212.217391" height="58.6956522"></rect>
                <path d="M263.347826,194.26087 L51.1304348,194.26087 C47.5577158,194.191477 44.6780883,191.311849 44.6086957,187.73913 L44.6086957,129.043478 C44.6086957,125.441621 47.5285777,122.521739 51.1304348,122.521739 L263.347826,122.521739 C266.949683,122.521739 269.869565,125.441621 269.869565,129.043478 L269.869565,187.73913 C269.869565,191.340987 266.949683,194.26087 263.347826,194.26087 Z M57.6521739,181.217391 L256.826087,181.217391 L256.826087,135.565217 L57.6521739,135.565217 L57.6521739,181.217391 Z" id="Shape" fill="#000000" fill-rule="nonzero"></path>
                <rect id="Rectangle" fill="#FFFFFF" x="51.1304348" y="38.6521739" width="212.217391" height="58.6956522"></rect>
                <path d="M263.347826,103.869565 L51.1304348,103.869565 C47.5577158,103.800173 44.6780883,100.920545 44.6086957,97.3478261 L44.6086957,38.6521739 C44.6086957,35.0503168 47.5285777,32.1304348 51.1304348,32.1304348 L263.347826,32.1304348 C266.949683,32.1304348 269.869565,35.0503168 269.869565,38.6521739 L269.869565,97.3478261 C269.869565,100.949683 266.949683,103.869565 263.347826,103.869565 Z M57.6521739,90.826087 L256.826087,90.826087 L256.826087,45.173913 L57.6521739,45.173913 L57.6521739,90.826087 Z" id="Shape" fill="#000000" fill-rule="nonzero"></path>
                <rect id="Rectangle" fill="#FFFFFF" x="51.1304348" y="219.304348" width="212.217391" height="58.6956522"></rect>
                <path d="M263.347826,284.521739 L51.1304348,284.521739 C47.5285777,284.521739 44.6086957,281.601857 44.6086957,278 L44.6086957,219.304348 C44.6780883,215.731629 47.5577158,212.852001 51.1304348,212.782609 L263.347826,212.782609 C266.949683,212.782609 269.869565,215.702491 269.869565,219.304348 L269.869565,278 C269.869565,281.601857 266.949683,284.521739 263.347826,284.521739 Z M57.6521739,271.478261 L256.826087,271.478261 L256.826087,225.826087 L57.6521739,225.826087 L57.6521739,271.478261 Z" id="Shape" fill="#000000" fill-rule="nonzero"></path>
                <path d="M45,259.347826 L7.17391304,259.347826 C3.6011941,259.278433 0.721566597,256.398806 0.652173913,252.826087 C0.652173913,249.22423 3.57205598,246.304348 7.17391304,246.304348 L45,246.304348 C48.6018571,246.304348 51.5217391,249.22423 51.5217391,252.826087 C51.4523464,256.398806 48.5727189,259.278433 45,259.347826 Z" id="Path" fill="#000000"></path>
                <path d="M304.043478,259.347826 L266.347826,259.347826 C262.745969,259.347826 259.826087,256.427944 259.826087,252.826087 C259.826087,249.22423 262.745969,246.304348 266.347826,246.304348 L304.043478,246.304348 C307.645335,246.304348 310.565217,249.22423 310.565217,252.826087 C310.565217,256.427944 307.645335,259.347826 304.043478,259.347826 Z" id="Path" fill="#000000"></path>
                <rect id="Rectangle" fill="#000000" x="31.826087" y="240.956522" width="16.4347826" height="23.3478261"></rect>
                <rect id="Rectangle" fill="#000000" x="266.347826" y="240.956522" width="16.4347826" height="23.3478261"></rect>
                <path d="M228.913043,163.217391 L154.173913,163.217391 C150.572056,163.217391 147.652174,160.297509 147.652174,156.695652 C147.652174,153.093795 150.572056,150.173913 154.173913,150.173913 L228.913043,150.173913 C232.514901,150.173913 235.434783,153.093795 235.434783,156.695652 C235.434783,160.297509 232.514901,163.217391 228.913043,163.217391 Z" id="Path" fill="#EC5F67"></path>
                <path d="M231.391304,255.826087 L156.782609,255.826087 C153.180752,255.826087 150.26087,252.906205 150.26087,249.304348 C150.26087,245.702491 153.180752,242.782609 156.782609,242.782609 L231.391304,242.782609 C234.993161,242.782609 237.913043,245.702491 237.913043,249.304348 C237.913043,252.906205 234.993161,255.826087 231.391304,255.826087 Z" id="Path" fill="#EC5F67"></path>
                <path d="M228.913043,74.2608696 L154.173913,74.2608696 C150.572056,74.2608696 147.652174,71.3409875 147.652174,67.7391304 C147.652174,64.1372734 150.572056,61.2173913 154.173913,61.2173913 L228.913043,61.2173913 C232.485762,61.286784 235.36539,64.1664115 235.434783,67.7391304 C235.434783,69.4688032 234.747673,71.1276331 233.524609,72.3506964 C232.301546,73.5737597 230.642716,74.2608696 228.913043,74.2608696 Z" id="Path" fill="#EC5F67"></path>
                <circle id="Oval" fill="#000000" cx="121.826087" cy="68" r="8.08695652"></circle>
                <circle id="Oval" fill="#000000" cx="121.826087" cy="157.478261" r="8.08695652"></circle>
                <circle id="Oval" fill="#000000" cx="121.826087" cy="247.73913" r="8.08695652"></circle>
                <polygon id="Path" fill="#FFFFFF" points="236.869565 38.1304348 181.956522 38.1304348 194.347826 7.2173913 224.478261 7.2173913"></polygon>
                <path d="M236.869565,44.6521739 L181.956522,44.6521739 C179.769782,44.6542162 177.721701,43.5814118 176.478261,41.7826087 C175.503643,39.9013438 175.503643,37.6638736 176.478261,35.7826087 L188.869565,4.73913043 C189.875946,2.23209168 192.298567,0.582648061 195,0.565217391 L224.478261,0.565217391 C227.179694,0.582648061 229.602315,2.23209168 230.608696,4.73913043 L242.869565,35.7826087 C243.915165,37.6459489 243.915165,39.9192685 242.869565,41.7826087 C241.563972,43.78637 239.248927,44.8935652 236.869565,44.6521739 Z M191.608696,31.6086957 L227.217391,31.6086957 L220.043478,13.6086957 L198.652174,13.6086957 L191.608696,31.6086957 Z" id="Shape" fill="#000000" fill-rule="nonzero"></path>
            </g>
            <g id="Auth" transform="translate(1346.000000, 504.000000)">
                <path d="M38.2173913,150.347826 C10.0621733,129.96537 -1.71013464,93.7347748 9.08695652,60.6956522 L27.0869565,5.2173913 L143.695652,5.2173913 L161.695652,60.6956522 C172.406229,93.7347967 160.650458,129.9145 132.565217,150.347826 L85.3478261,184.608696 L38.2173913,150.347826 Z" id="Path" fill="#EC5F67"></path>
                <path d="M85.3478261,190 L35.6086957,153.913043 C5.89333244,132.406281 -6.51555014,94.1602066 4.91304348,59.3043478 L23.8695652,0.869565217 L146.826087,0.869565217 L165.782609,59.3043478 C177.211202,94.1602066 164.80232,132.406281 135.086957,153.913043 L85.3478261,190 Z M40.7391304,146.521739 L85.3478261,178.956522 L129.956522,146.521739 C156.603789,127.222259 167.742932,92.9263489 157.521739,61.6521739 L140.130435,9.47826087 L30.2173913,9.47826087 L12.826087,61.6521739 C2.60489392,92.9263489 13.7440368,127.222259 40.3913043,146.521739 L40.7391304,146.521739 Z" id="Shape" fill="#000000" fill-rule="nonzero"></path>
            </g>
            <path d="M1409.04492,768.081055 C1408.06835,768.911137 1407.12842,769.497069 1406.2251,769.838867 C1405.32177,770.180666 1404.35254,770.351562 1403.31738,770.351562 C1401.60839,770.351562 1400.29493,769.934086 1399.37695,769.099121 C1398.45898,768.264156 1398,767.197272 1398,765.898438 C1398,765.136715 1398.17334,764.440921 1398.52002,763.811035 C1398.8667,763.181149 1399.3208,762.675783 1399.88232,762.294922 C1400.44385,761.914061 1401.07617,761.625978 1401.7793,761.430664 C1402.29688,761.293945 1403.07812,761.16211 1404.12305,761.035156 C1406.25196,760.781249 1407.81933,760.478517 1408.8252,760.126953 C1408.83496,759.765623 1408.83984,759.536133 1408.83984,759.438477 C1408.83984,758.364252 1408.59082,757.607424 1408.09277,757.167969 C1407.41894,756.572263 1406.41798,756.274414 1405.08984,756.274414 C1403.8496,756.274414 1402.93408,756.491697 1402.34326,756.92627 C1401.75244,757.360842 1401.31543,758.129877 1401.03223,759.233398 L1398.4541,758.881836 C1398.68848,757.778315 1399.07422,756.88721 1399.61133,756.208496 C1400.14844,755.529782 1400.9248,755.007326 1401.94043,754.641113 C1402.95606,754.274901 1404.13281,754.091797 1405.4707,754.091797 C1406.79883,754.091797 1407.87793,754.248045 1408.70801,754.560547 C1409.53809,754.873048 1410.14844,755.266111 1410.53906,755.739746 C1410.92969,756.213381 1411.20312,756.81152 1411.35938,757.53418 C1411.44727,757.983401 1411.49121,758.793939 1411.49121,759.96582 L1411.49121,763.481445 C1411.49121,765.932629 1411.54736,767.482907 1411.65967,768.132324 C1411.77197,768.781742 1411.99414,769.404294 1412.32617,770 L1409.57227,770 C1409.29883,769.453122 1409.12305,768.81348 1409.04492,768.081055 Z M1408.8252,762.192383 C1407.86816,762.58301 1406.43263,762.915038 1404.51855,763.188477 C1403.43456,763.344727 1402.66797,763.520507 1402.21875,763.71582 C1401.76953,763.911134 1401.42285,764.196775 1401.17871,764.572754 C1400.93457,764.948732 1400.8125,765.366209 1400.8125,765.825195 C1400.8125,766.528324 1401.07861,767.114255 1401.61084,767.583008 C1402.14307,768.05176 1402.92187,768.286133 1403.94727,768.286133 C1404.9629,768.286133 1405.86621,768.063967 1406.65723,767.619629 C1407.44825,767.175291 1408.0293,766.567387 1408.40039,765.795898 C1408.6836,765.200192 1408.8252,764.321295 1408.8252,763.15918 L1408.8252,762.192383 Z M1415.57812,775.961914 L1415.57812,754.443359 L1417.98047,754.443359 L1417.98047,756.464844 C1418.54688,755.673824 1419.18652,755.080568 1419.89941,754.685059 C1420.61231,754.289549 1421.47656,754.091797 1422.49219,754.091797 C1423.82032,754.091797 1424.99218,754.43359 1426.00781,755.117188 C1427.02344,755.800785 1427.79004,756.76513 1428.30762,758.010254 C1428.8252,759.255377 1429.08398,760.62011 1429.08398,762.104492 C1429.08398,763.696297 1428.79834,765.129388 1428.22705,766.403809 C1427.65576,767.678229 1426.82569,768.654782 1425.73682,769.333496 C1424.64794,770.01221 1423.50294,770.351562 1422.30176,770.351562 C1421.42285,770.351562 1420.63428,770.166017 1419.93604,769.794922 C1419.23779,769.423826 1418.66406,768.955081 1418.21484,768.388672 L1418.21484,775.961914 L1415.57812,775.961914 Z M1417.96582,762.30957 C1417.96582,764.311533 1418.37109,765.791011 1419.18164,766.748047 C1419.99219,767.705083 1420.97363,768.183594 1422.12598,768.183594 C1423.29786,768.183594 1424.30127,767.687993 1425.13623,766.696777 C1425.9712,765.705561 1426.38867,764.169932 1426.38867,762.089844 C1426.38867,760.107412 1425.98096,758.623052 1425.16553,757.636719 C1424.35009,756.650386 1423.37598,756.157227 1422.24316,756.157227 C1421.12011,756.157227 1420.12647,756.682124 1419.26221,757.731934 C1418.39794,758.781744 1417.96582,760.307607 1417.96582,762.30957 Z M1432.27734,751.557617 L1432.27734,748.525391 L1434.91406,748.525391 L1434.91406,751.557617 L1432.27734,751.557617 Z M1432.27734,770 L1432.27734,754.443359 L1434.91406,754.443359 L1434.91406,770 L1432.27734,770 Z M1439.6748,770 L1439.6748,766.99707 L1442.67773,766.99707 L1442.67773,770 L1439.6748,770 Z M1446.20801,765.356445 L1448.81543,764.946289 C1448.96191,765.991216 1449.36963,766.791989 1450.03857,767.348633 C1450.70752,767.905276 1451.64257,768.183594 1452.84375,768.183594 C1454.05469,768.183594 1454.95312,767.937014 1455.53906,767.443848 C1456.125,766.950681 1456.41797,766.372074 1456.41797,765.708008 C1456.41797,765.112302 1456.15918,764.643556 1455.6416,764.301758 C1455.28027,764.067382 1454.38184,763.769533 1452.94629,763.408203 C1451.01269,762.919919 1449.67237,762.49756 1448.92529,762.141113 C1448.17822,761.784666 1447.61182,761.291507 1447.22607,760.661621 C1446.84033,760.031735 1446.64746,759.335941 1446.64746,758.574219 C1446.64746,757.880856 1446.80615,757.238772 1447.12354,756.647949 C1447.44092,756.057126 1447.87304,755.566408 1448.41992,755.175781 C1448.83008,754.873045 1449.38916,754.6167 1450.09717,754.406738 C1450.80518,754.196776 1451.56445,754.091797 1452.375,754.091797 C1453.59571,754.091797 1454.66748,754.267576 1455.59033,754.619141 C1456.51319,754.970705 1457.19433,755.446774 1457.63379,756.047363 C1458.07324,756.647952 1458.37598,757.451167 1458.54199,758.457031 L1455.96387,758.808594 C1455.84668,758.007808 1455.50733,757.382815 1454.9458,756.933594 C1454.38427,756.484373 1453.59083,756.259766 1452.56543,756.259766 C1451.35449,756.259766 1450.49024,756.459959 1449.97266,756.860352 C1449.45508,757.260744 1449.19629,757.72949 1449.19629,758.266602 C1449.19629,758.6084 1449.30371,758.916014 1449.51855,759.189453 C1449.7334,759.472658 1450.07031,759.70703 1450.5293,759.892578 C1450.79297,759.990235 1451.56933,760.214842 1452.8584,760.566406 C1454.72364,761.064456 1456.0249,761.472166 1456.76221,761.789551 C1457.49952,762.106935 1458.07812,762.568356 1458.49805,763.173828 C1458.91797,763.7793 1459.12793,764.531246 1459.12793,765.429688 C1459.12793,766.308598 1458.87158,767.136227 1458.35889,767.912598 C1457.84619,768.688969 1457.10645,769.289549 1456.13965,769.714355 C1455.17285,770.139162 1454.07911,770.351562 1452.8584,770.351562 C1450.8369,770.351562 1449.29639,769.931645 1448.23682,769.091797 C1447.17724,768.251949 1446.50098,767.006844 1446.20801,765.356445 Z M1472.41406,768.081055 C1471.4375,768.911137 1470.49756,769.497069 1469.59424,769.838867 C1468.69091,770.180666 1467.72168,770.351562 1466.68652,770.351562 C1464.97753,770.351562 1463.66407,769.934086 1462.74609,769.099121 C1461.82812,768.264156 1461.36914,767.197272 1461.36914,765.898438 C1461.36914,765.136715 1461.54248,764.440921 1461.88916,763.811035 C1462.23584,763.181149 1462.68994,762.675783 1463.25146,762.294922 C1463.81299,761.914061 1464.44531,761.625978 1465.14844,761.430664 C1465.66602,761.293945 1466.44726,761.16211 1467.49219,761.035156 C1469.6211,760.781249 1471.18847,760.478517 1472.19434,760.126953 C1472.2041,759.765623 1472.20898,759.536133 1472.20898,759.438477 C1472.20898,758.364252 1471.95996,757.607424 1471.46191,757.167969 C1470.78808,756.572263 1469.78712,756.274414 1468.45898,756.274414 C1467.21874,756.274414 1466.30323,756.491697 1465.7124,756.92627 C1465.12158,757.360842 1464.68457,758.129877 1464.40137,759.233398 L1461.82324,758.881836 C1462.05762,757.778315 1462.44336,756.88721 1462.98047,756.208496 C1463.51758,755.529782 1464.29394,755.007326 1465.30957,754.641113 C1466.3252,754.274901 1467.50195,754.091797 1468.83984,754.091797 C1470.16798,754.091797 1471.24707,754.248045 1472.07715,754.560547 C1472.90723,754.873048 1473.51758,755.266111 1473.9082,755.739746 C1474.29883,756.213381 1474.57226,756.81152 1474.72852,757.53418 C1474.81641,757.983401 1474.86035,758.793939 1474.86035,759.96582 L1474.86035,763.481445 C1474.86035,765.932629 1474.9165,767.482907 1475.02881,768.132324 C1475.14111,768.781742 1475.36328,769.404294 1475.69531,770 L1472.94141,770 C1472.66797,769.453122 1472.49219,768.81348 1472.41406,768.081055 Z M1472.19434,762.192383 C1471.2373,762.58301 1469.80177,762.915038 1467.8877,763.188477 C1466.80371,763.344727 1466.03711,763.520507 1465.58789,763.71582 C1465.13867,763.911134 1464.79199,764.196775 1464.54785,764.572754 C1464.30371,764.948732 1464.18164,765.366209 1464.18164,765.825195 C1464.18164,766.528324 1464.44775,767.114255 1464.97998,767.583008 C1465.51221,768.05176 1466.29101,768.286133 1467.31641,768.286133 C1468.33204,768.286133 1469.23535,768.063967 1470.02637,767.619629 C1470.81739,767.175291 1471.39844,766.567387 1471.76953,765.795898 C1472.05274,765.200192 1472.19434,764.321295 1472.19434,763.15918 L1472.19434,762.192383 Z M1478.94727,770 L1478.94727,754.443359 L1481.30566,754.443359 L1481.30566,756.625977 C1481.79395,755.864254 1482.44336,755.251467 1483.25391,754.787598 C1484.06446,754.323728 1484.9873,754.091797 1486.02246,754.091797 C1487.17481,754.091797 1488.11963,754.331052 1488.85693,754.80957 C1489.59424,755.288088 1490.11426,755.957027 1490.41699,756.816406 C1491.64747,754.999991 1493.24901,754.091797 1495.22168,754.091797 C1496.76466,754.091797 1497.95117,754.519039 1498.78125,755.373535 C1499.61133,756.228032 1500.02637,757.543936 1500.02637,759.321289 L1500.02637,770 L1497.4043,770 L1497.4043,760.200195 C1497.4043,759.145503 1497.31885,758.386233 1497.14795,757.922363 C1496.97705,757.458494 1496.66699,757.084962 1496.21777,756.801758 C1495.76855,756.518553 1495.24121,756.376953 1494.63574,756.376953 C1493.54199,756.376953 1492.63379,756.740719 1491.91113,757.468262 C1491.18847,758.195804 1490.82715,759.360344 1490.82715,760.961914 L1490.82715,770 L1488.19043,770 L1488.19043,759.892578 C1488.19043,758.720697 1487.97559,757.8418 1487.5459,757.255859 C1487.11621,756.669919 1486.41309,756.376953 1485.43652,756.376953 C1484.69433,756.376953 1484.0083,756.572264 1483.37842,756.962891 C1482.74853,757.353518 1482.29199,757.924801 1482.00879,758.676758 C1481.72558,759.428715 1481.58398,760.512688 1481.58398,761.928711 L1481.58398,770 L1478.94727,770 Z M1506.36914,770 L1503.92285,770 L1503.92285,748.525391 L1506.55957,748.525391 L1506.55957,756.186523 C1507.67286,754.790032 1509.09374,754.091797 1510.82227,754.091797 C1511.7793,754.091797 1512.68505,754.284666 1513.53955,754.67041 C1514.39405,755.056154 1515.09717,755.598141 1515.64893,756.296387 C1516.20069,756.994632 1516.63281,757.836909 1516.94531,758.823242 C1517.25781,759.809575 1517.41406,760.864252 1517.41406,761.987305 C1517.41406,764.653334 1516.75489,766.71386 1515.43652,768.168945 C1514.11816,769.624031 1512.53614,770.351562 1510.69043,770.351562 C1508.85448,770.351562 1507.41407,769.584969 1506.36914,768.051758 L1506.36914,770 Z M1506.33984,762.104492 C1506.33984,763.969736 1506.59375,765.317379 1507.10156,766.147461 C1507.93164,767.50489 1509.05468,768.183594 1510.4707,768.183594 C1511.62305,768.183594 1512.61914,767.68311 1513.45898,766.682129 C1514.29883,765.681147 1514.71875,764.189463 1514.71875,762.207031 C1514.71875,760.175771 1514.31592,758.676763 1513.51025,757.709961 C1512.70459,756.743159 1511.73047,756.259766 1510.58789,756.259766 C1509.43554,756.259766 1508.43946,756.760249 1507.59961,757.76123 C1506.75976,758.762212 1506.33984,760.209951 1506.33984,762.104492 Z M1531.27148,764.990234 L1533.99609,765.327148 C1533.5664,766.918953 1532.77051,768.154292 1531.6084,769.033203 C1530.44628,769.912114 1528.96192,770.351562 1527.15527,770.351562 C1524.87987,770.351562 1523.07569,769.650886 1521.74268,768.249512 C1520.40966,766.848138 1519.74316,764.882825 1519.74316,762.353516 C1519.74316,759.736315 1520.41699,757.705085 1521.76465,756.259766 C1523.11231,754.814446 1524.86034,754.091797 1527.00879,754.091797 C1529.08888,754.091797 1530.78808,754.799798 1532.10645,756.21582 C1533.42481,757.631843 1534.08398,759.624011 1534.08398,762.192383 C1534.08398,762.348634 1534.0791,762.583006 1534.06934,762.895508 L1522.46777,762.895508 C1522.56543,764.604501 1523.04882,765.913081 1523.91797,766.821289 C1524.78711,767.729497 1525.87109,768.183594 1527.16992,768.183594 C1528.13672,768.183594 1528.96191,767.92969 1529.64551,767.421875 C1530.3291,766.91406 1530.87109,766.103521 1531.27148,764.990234 Z M1522.61426,760.727539 L1531.30078,760.727539 C1531.18359,759.418939 1530.85157,758.437503 1530.30469,757.783203 C1529.46484,756.767573 1528.37598,756.259766 1527.03809,756.259766 C1525.82714,756.259766 1524.80909,756.665035 1523.98389,757.475586 C1523.15869,758.286137 1522.70215,759.37011 1522.61426,760.727539 Z M1536.82324,771.289062 L1539.38672,771.669922 C1539.49414,772.460941 1539.79199,773.037108 1540.28027,773.398438 C1540.93457,773.886721 1541.82812,774.130859 1542.96094,774.130859 C1544.18165,774.130859 1545.12402,773.886721 1545.78809,773.398438 C1546.45215,772.910154 1546.90137,772.226567 1547.13574,771.347656 C1547.27246,770.810544 1547.33594,769.682626 1547.32617,767.963867 C1546.17382,769.321296 1544.73829,770 1543.01953,770 C1540.88085,770 1539.22559,769.228523 1538.05371,767.685547 C1536.88183,766.14257 1536.2959,764.292003 1536.2959,762.133789 C1536.2959,760.649407 1536.56445,759.279791 1537.10156,758.024902 C1537.63867,756.770013 1538.41748,755.800785 1539.43799,755.117188 C1540.4585,754.43359 1541.65722,754.091797 1543.03418,754.091797 C1544.87013,754.091797 1546.38378,754.833977 1547.5752,756.318359 L1547.5752,754.443359 L1550.00684,754.443359 L1550.00684,767.890625 C1550.00684,770.312512 1549.76026,772.028804 1549.26709,773.039551 C1548.77392,774.050298 1547.99268,774.84863 1546.92334,775.43457 C1545.854,776.020511 1544.53809,776.313477 1542.97559,776.313477 C1541.12011,776.313477 1539.6211,775.896 1538.47852,775.061035 C1537.33593,774.22607 1536.78418,772.968758 1536.82324,771.289062 Z M1539.00586,761.943359 C1539.00586,763.984385 1539.41113,765.473628 1540.22168,766.411133 C1541.03223,767.348637 1542.04785,767.817383 1543.26855,767.817383 C1544.4795,767.817383 1545.49511,767.351079 1546.31543,766.418457 C1547.13575,765.485835 1547.5459,764.023447 1547.5459,762.03125 C1547.5459,760.126944 1547.12354,758.691411 1546.27881,757.724609 C1545.43408,756.757808 1544.41602,756.274414 1543.22461,756.274414 C1542.05273,756.274414 1541.05664,756.750484 1540.23633,757.702637 C1539.41601,758.65479 1539.00586,760.06835 1539.00586,761.943359 Z M1553.00977,762.22168 C1553.00977,759.340806 1553.81054,757.207038 1555.41211,755.820312 C1556.75001,754.667963 1558.38085,754.091797 1560.30469,754.091797 C1562.44337,754.091797 1564.1914,754.792473 1565.54883,756.193848 C1566.90626,757.595222 1567.58496,759.531238 1567.58496,762.001953 C1567.58496,764.003916 1567.28467,765.578608 1566.68408,766.726074 C1566.08349,767.873541 1565.20948,768.764645 1564.06201,769.399414 C1562.91455,770.034183 1561.66212,770.351562 1560.30469,770.351562 C1558.12694,770.351562 1556.36671,769.653327 1555.02393,768.256836 C1553.68115,766.860345 1553.00977,764.848646 1553.00977,762.22168 Z M1555.71973,762.22168 C1555.71973,764.213877 1556.15429,765.705561 1557.02344,766.696777 C1557.89258,767.687993 1558.98632,768.183594 1560.30469,768.183594 C1561.61329,768.183594 1562.70214,767.685552 1563.57129,766.689453 C1564.44043,765.693354 1564.875,764.174815 1564.875,762.133789 C1564.875,760.209951 1564.43799,758.752446 1563.56396,757.76123 C1562.68994,756.770015 1561.60352,756.274414 1560.30469,756.274414 C1558.98632,756.274414 1557.89258,756.767573 1557.02344,757.753906 C1556.15429,758.740239 1555.71973,760.229482 1555.71973,762.22168 Z M1571.42285,770 L1571.42285,766.99707 L1574.42578,766.99707 L1574.42578,770 L1571.42285,770 Z M1581.44238,770 L1578.99609,770 L1578.99609,748.525391 L1581.63281,748.525391 L1581.63281,756.186523 C1582.7461,754.790032 1584.16698,754.091797 1585.89551,754.091797 C1586.85254,754.091797 1587.7583,754.284666 1588.61279,754.67041 C1589.46729,755.056154 1590.17041,755.598141 1590.72217,756.296387 C1591.27393,756.994632 1591.70605,757.836909 1592.01855,758.823242 C1592.33106,759.809575 1592.4873,760.864252 1592.4873,761.987305 C1592.4873,764.653334 1591.82813,766.71386 1590.50977,768.168945 C1589.1914,769.624031 1587.60938,770.351562 1585.76367,770.351562 C1583.92773,770.351562 1582.48731,769.584969 1581.44238,768.051758 L1581.44238,770 Z M1581.41309,762.104492 C1581.41309,763.969736 1581.66699,765.317379 1582.1748,766.147461 C1583.00489,767.50489 1584.12792,768.183594 1585.54395,768.183594 C1586.69629,768.183594 1587.69238,767.68311 1588.53223,766.682129 C1589.37207,765.681147 1589.79199,764.189463 1589.79199,762.207031 C1589.79199,760.175771 1589.38916,758.676763 1588.5835,757.709961 C1587.77783,756.743159 1586.80372,756.259766 1585.66113,756.259766 C1584.50878,756.259766 1583.5127,756.760249 1582.67285,757.76123 C1581.833,758.762212 1581.41309,760.209951 1581.41309,762.104492 Z M1606.34473,764.990234 L1609.06934,765.327148 C1608.63965,766.918953 1607.84376,768.154292 1606.68164,769.033203 C1605.51953,769.912114 1604.03517,770.351562 1602.22852,770.351562 C1599.95311,770.351562 1598.14893,769.650886 1596.81592,768.249512 C1595.4829,766.848138 1594.81641,764.882825 1594.81641,762.353516 C1594.81641,759.736315 1595.49023,757.705085 1596.83789,756.259766 C1598.18555,754.814446 1599.93358,754.091797 1602.08203,754.091797 C1604.16212,754.091797 1605.86132,754.799798 1607.17969,756.21582 C1608.49805,757.631843 1609.15723,759.624011 1609.15723,762.192383 C1609.15723,762.348634 1609.15234,762.583006 1609.14258,762.895508 L1597.54102,762.895508 C1597.63867,764.604501 1598.12207,765.913081 1598.99121,766.821289 C1599.86036,767.729497 1600.94433,768.183594 1602.24316,768.183594 C1603.20997,768.183594 1604.03515,767.92969 1604.71875,767.421875 C1605.40235,766.91406 1605.94433,766.103521 1606.34473,764.990234 Z M1597.6875,760.727539 L1606.37402,760.727539 C1606.25684,759.418939 1605.92481,758.437503 1605.37793,757.783203 C1604.53808,756.767573 1603.44923,756.259766 1602.11133,756.259766 C1600.90038,756.259766 1599.88233,756.665035 1599.05713,757.475586 C1598.23193,758.286137 1597.77539,759.37011 1597.6875,760.727539 Z" id="api.sambego.be" fill="#000000" fill-rule="nonzero"></path>
            <path d="M721.044922,554.081055 C720.068354,554.911137 719.128422,555.497069 718.225098,555.838867 C717.321773,556.180666 716.352544,556.351562 715.317383,556.351562 C713.60839,556.351562 712.294926,555.934086 711.376953,555.099121 C710.45898,554.264156 710,553.197272 710,551.898438 C710,551.136715 710.173338,550.440921 710.52002,549.811035 C710.866701,549.181149 711.320798,548.675783 711.882324,548.294922 C712.44385,547.914061 713.076168,547.625978 713.779297,547.430664 C714.296878,547.293945 715.07812,547.16211 716.123047,547.035156 C718.251964,546.781249 719.819331,546.478517 720.825195,546.126953 C720.834961,545.765623 720.839844,545.536133 720.839844,545.438477 C720.839844,544.364252 720.590823,543.607424 720.092773,543.167969 C719.418942,542.572263 718.417975,542.274414 717.089844,542.274414 C715.849603,542.274414 714.934085,542.491697 714.343262,542.92627 C713.752438,543.360842 713.315431,544.129877 713.032227,545.233398 L710.454102,544.881836 C710.688478,543.778315 711.074216,542.88721 711.611328,542.208496 C712.14844,541.529782 712.9248,541.007326 713.94043,540.641113 C714.95606,540.274901 716.132806,540.091797 717.470703,540.091797 C718.798835,540.091797 719.877926,540.248045 720.708008,540.560547 C721.53809,540.873048 722.148436,541.266111 722.539062,541.739746 C722.929689,542.213381 723.203124,542.81152 723.359375,543.53418 C723.447266,543.983401 723.491211,544.793939 723.491211,545.96582 L723.491211,549.481445 C723.491211,551.932629 723.547363,553.482907 723.659668,554.132324 C723.771973,554.781742 723.994139,555.404294 724.326172,556 L721.572266,556 C721.298827,555.453122 721.123047,554.81348 721.044922,554.081055 Z M720.825195,548.192383 C719.868159,548.58301 718.432627,548.915038 716.518555,549.188477 C715.434565,549.344727 714.667971,549.520507 714.21875,549.71582 C713.769529,549.911134 713.422853,550.196775 713.178711,550.572754 C712.934569,550.948732 712.8125,551.366209 712.8125,551.825195 C712.8125,552.528324 713.078611,553.114255 713.61084,553.583008 C714.143069,554.05176 714.92187,554.286133 715.947266,554.286133 C716.962896,554.286133 717.866207,554.063967 718.657227,553.619629 C719.448246,553.175291 720.029295,552.567387 720.400391,551.795898 C720.683595,551.200192 720.825195,550.321295 720.825195,549.15918 L720.825195,548.192383 Z M727.578125,561.961914 L727.578125,540.443359 L729.980469,540.443359 L729.980469,542.464844 C730.546878,541.673824 731.18652,541.080568 731.899414,540.685059 C732.612308,540.289549 733.476557,540.091797 734.492188,540.091797 C735.820319,540.091797 736.992182,540.43359 738.007812,541.117188 C739.023443,541.800785 739.790036,542.76513 740.307617,544.010254 C740.825198,545.255377 741.083984,546.62011 741.083984,548.104492 C741.083984,549.696297 740.798343,551.129388 740.227051,552.403809 C739.655759,553.678229 738.825689,554.654782 737.736816,555.333496 C736.647944,556.01221 735.502936,556.351562 734.301758,556.351562 C733.422847,556.351562 732.634281,556.166017 731.936035,555.794922 C731.237789,555.423826 730.664065,554.955081 730.214844,554.388672 L730.214844,561.961914 L727.578125,561.961914 Z M729.96582,548.30957 C729.96582,550.311533 730.37109,551.791011 731.181641,552.748047 C731.992192,553.705083 732.973627,554.183594 734.125977,554.183594 C735.297857,554.183594 736.301265,553.687993 737.13623,552.696777 C737.971196,551.705561 738.388672,550.169932 738.388672,548.089844 C738.388672,546.107412 737.980961,544.623052 737.165527,543.636719 C736.350094,542.650386 735.375982,542.157227 734.243164,542.157227 C733.120112,542.157227 732.126469,542.682124 731.262207,543.731934 C730.397945,544.781744 729.96582,546.307607 729.96582,548.30957 Z M744.262695,561.961914 L744.262695,540.443359 L746.665039,540.443359 L746.665039,542.464844 C747.231448,541.673824 747.87109,541.080568 748.583984,540.685059 C749.296879,540.289549 750.161128,540.091797 751.176758,540.091797 C752.504889,540.091797 753.676753,540.43359 754.692383,541.117188 C755.708013,541.800785 756.474607,542.76513 756.992188,544.010254 C757.509768,545.255377 757.768555,546.62011 757.768555,548.104492 C757.768555,549.696297 757.482913,551.129388 756.911621,552.403809 C756.340329,553.678229 755.510259,554.654782 754.421387,555.333496 C753.332514,556.01221 752.187506,556.351562 750.986328,556.351562 C750.107417,556.351562 749.318851,556.166017 748.620605,555.794922 C747.92236,555.423826 747.348635,554.955081 746.899414,554.388672 L746.899414,561.961914 L744.262695,561.961914 Z M746.650391,548.30957 C746.650391,550.311533 747.05566,551.791011 747.866211,552.748047 C748.676762,553.705083 749.658197,554.183594 750.810547,554.183594 C751.982428,554.183594 752.985836,553.687993 753.820801,552.696777 C754.655766,551.705561 755.073242,550.169932 755.073242,548.089844 C755.073242,546.107412 754.665531,544.623052 753.850098,543.636719 C753.034664,542.650386 752.060553,542.157227 750.927734,542.157227 C749.804682,542.157227 748.811039,542.682124 747.946777,543.731934 C747.082515,544.781744 746.650391,546.307607 746.650391,548.30957 Z M761.694336,556 L761.694336,552.99707 L764.697266,552.99707 L764.697266,556 L761.694336,556 Z M768.227539,551.356445 L770.834961,550.946289 C770.981446,551.991216 771.389157,552.791989 772.058105,553.348633 C772.727054,553.905276 773.662103,554.183594 774.863281,554.183594 C776.074225,554.183594 776.972653,553.937014 777.558594,553.443848 C778.144534,552.950681 778.4375,552.372074 778.4375,551.708008 C778.4375,551.112302 778.178714,550.643556 777.661133,550.301758 C777.299803,550.067382 776.401374,549.769533 774.96582,549.408203 C773.032217,548.919919 771.691898,548.49756 770.944824,548.141113 C770.19775,547.784666 769.63135,547.291507 769.245605,546.661621 C768.859861,546.031735 768.666992,545.335941 768.666992,544.574219 C768.666992,543.880856 768.825682,543.238772 769.143066,542.647949 C769.460451,542.057126 769.892575,541.566408 770.439453,541.175781 C770.849611,540.873045 771.408688,540.6167 772.116699,540.406738 C772.824711,540.196776 773.58398,540.091797 774.394531,540.091797 C775.61524,540.091797 776.687007,540.267576 777.609863,540.619141 C778.532719,540.970705 779.213865,541.446774 779.65332,542.047363 C780.092776,542.647952 780.395507,543.451167 780.561523,544.457031 L777.983398,544.808594 C777.86621,544.007808 777.526858,543.382815 776.965332,542.933594 C776.403806,542.484373 775.610357,542.259766 774.584961,542.259766 C773.374017,542.259766 772.509768,542.459959 771.992188,542.860352 C771.474607,543.260744 771.21582,543.72949 771.21582,544.266602 C771.21582,544.6084 771.323241,544.916014 771.538086,545.189453 C771.752931,545.472658 772.089841,545.70703 772.548828,545.892578 C772.812501,545.990235 773.588861,546.214842 774.87793,546.566406 C776.743173,547.064456 778.04443,547.472166 778.781738,547.789551 C779.519047,548.106935 780.097654,548.568356 780.517578,549.173828 C780.937502,549.7793 781.147461,550.531246 781.147461,551.429688 C781.147461,552.308598 780.891116,553.136227 780.378418,553.912598 C779.86572,554.688969 779.125981,555.289549 778.15918,555.714355 C777.192378,556.139162 776.098639,556.351562 774.87793,556.351562 C772.856435,556.351562 771.315923,555.931645 770.256348,555.091797 C769.196772,554.251949 768.520509,553.006844 768.227539,551.356445 Z M794.433594,554.081055 C793.457026,554.911137 792.517094,555.497069 791.61377,555.838867 C790.710445,556.180666 789.741216,556.351562 788.706055,556.351562 C786.997062,556.351562 785.683598,555.934086 784.765625,555.099121 C783.847652,554.264156 783.388672,553.197272 783.388672,551.898438 C783.388672,551.136715 783.56201,550.440921 783.908691,549.811035 C784.255373,549.181149 784.70947,548.675783 785.270996,548.294922 C785.832522,547.914061 786.46484,547.625978 787.167969,547.430664 C787.685549,547.293945 788.466792,547.16211 789.511719,547.035156 C791.640636,546.781249 793.208003,546.478517 794.213867,546.126953 C794.223633,545.765623 794.228516,545.536133 794.228516,545.438477 C794.228516,544.364252 793.979495,543.607424 793.481445,543.167969 C792.807614,542.572263 791.806647,542.274414 790.478516,542.274414 C789.238275,542.274414 788.322757,542.491697 787.731934,542.92627 C787.14111,543.360842 786.704103,544.129877 786.420898,545.233398 L783.842773,544.881836 C784.07715,543.778315 784.462888,542.88721 785,542.208496 C785.537112,541.529782 786.313471,541.007326 787.329102,540.641113 C788.344732,540.274901 789.521478,540.091797 790.859375,540.091797 C792.187507,540.091797 793.266597,540.248045 794.09668,540.560547 C794.926762,540.873048 795.537107,541.266111 795.927734,541.739746 C796.318361,542.213381 796.591796,542.81152 796.748047,543.53418 C796.835938,543.983401 796.879883,544.793939 796.879883,545.96582 L796.879883,549.481445 C796.879883,551.932629 796.936035,553.482907 797.04834,554.132324 C797.160645,554.781742 797.382811,555.404294 797.714844,556 L794.960938,556 C794.687499,555.453122 794.511719,554.81348 794.433594,554.081055 Z M794.213867,548.192383 C793.256831,548.58301 791.821299,548.915038 789.907227,549.188477 C788.823237,549.344727 788.056643,549.520507 787.607422,549.71582 C787.158201,549.911134 786.811525,550.196775 786.567383,550.572754 C786.323241,550.948732 786.201172,551.366209 786.201172,551.825195 C786.201172,552.528324 786.467282,553.114255 786.999512,553.583008 C787.531741,554.05176 788.310542,554.286133 789.335938,554.286133 C790.351568,554.286133 791.254879,554.063967 792.045898,553.619629 C792.836918,553.175291 793.417967,552.567387 793.789062,551.795898 C794.072267,551.200192 794.213867,550.321295 794.213867,549.15918 L794.213867,548.192383 Z M800.966797,556 L800.966797,540.443359 L803.325195,540.443359 L803.325195,542.625977 C803.813479,541.864254 804.462887,541.251467 805.273438,540.787598 C806.083988,540.323728 807.006831,540.091797 808.041992,540.091797 C809.194342,540.091797 810.139156,540.331052 810.876465,540.80957 C811.613773,541.288088 812.133788,541.957027 812.436523,542.816406 C813.666998,540.999991 815.268545,540.091797 817.241211,540.091797 C818.784187,540.091797 819.970699,540.519039 820.800781,541.373535 C821.630864,542.228032 822.045898,543.543936 822.045898,545.321289 L822.045898,556 L819.423828,556 L819.423828,546.200195 C819.423828,545.145503 819.33838,544.386233 819.16748,543.922363 C818.996581,543.458494 818.686526,543.084962 818.237305,542.801758 C817.788084,542.518553 817.260745,542.376953 816.655273,542.376953 C815.561518,542.376953 814.653324,542.740719 813.930664,543.468262 C813.208004,544.195804 812.84668,545.360344 812.84668,546.961914 L812.84668,556 L810.209961,556 L810.209961,545.892578 C810.209961,544.720697 809.995119,543.8418 809.56543,543.255859 C809.13574,542.669919 808.432622,542.376953 807.456055,542.376953 C806.713863,542.376953 806.027835,542.572264 805.397949,542.962891 C804.768063,543.353518 804.311525,543.924801 804.02832,544.676758 C803.745116,545.428715 803.603516,546.512688 803.603516,547.928711 L803.603516,556 L800.966797,556 Z M828.388672,556 L825.942383,556 L825.942383,534.525391 L828.579102,534.525391 L828.579102,542.186523 C829.692388,540.790032 831.113273,540.091797 832.841797,540.091797 C833.798833,540.091797 834.704586,540.284666 835.559082,540.67041 C836.413578,541.056154 837.116696,541.598141 837.668457,542.296387 C838.220218,542.994632 838.652342,543.836909 838.964844,544.823242 C839.277345,545.809575 839.433594,546.864252 839.433594,547.987305 C839.433594,550.653334 838.774421,552.71386 837.456055,554.168945 C836.137689,555.624031 834.555673,556.351562 832.709961,556.351562 C830.874014,556.351562 829.433599,555.584969 828.388672,554.051758 L828.388672,556 Z M828.359375,548.104492 C828.359375,549.969736 828.613279,551.317379 829.121094,552.147461 C829.951176,553.50489 831.074212,554.183594 832.490234,554.183594 C833.642584,554.183594 834.638668,553.68311 835.478516,552.682129 C836.318364,551.681147 836.738281,550.189463 836.738281,548.207031 C836.738281,546.175771 836.335453,544.676763 835.529785,543.709961 C834.724117,542.743159 833.750006,542.259766 832.607422,542.259766 C831.455072,542.259766 830.458989,542.760249 829.619141,543.76123 C828.779293,544.762212 828.359375,546.209951 828.359375,548.104492 Z M853.291016,550.990234 L856.015625,551.327148 C855.585935,552.918953 854.790045,554.154292 853.62793,555.033203 C852.465815,555.912114 850.981454,556.351562 849.174805,556.351562 C846.899403,556.351562 845.095222,555.650886 843.762207,554.249512 C842.429193,552.848138 841.762695,550.882825 841.762695,548.353516 C841.762695,545.736315 842.436517,543.705085 843.78418,542.259766 C845.131843,540.814446 846.879872,540.091797 849.02832,540.091797 C851.108409,540.091797 852.807611,540.799798 854.125977,542.21582 C855.444343,543.631843 856.103516,545.624011 856.103516,548.192383 C856.103516,548.348634 856.098633,548.583006 856.088867,548.895508 L844.487305,548.895508 C844.584961,550.604501 845.068355,551.913081 845.9375,552.821289 C846.806645,553.729497 847.890619,554.183594 849.189453,554.183594 C850.156255,554.183594 850.981442,553.92969 851.665039,553.421875 C852.348636,552.91406 852.890623,552.103521 853.291016,550.990234 Z M844.633789,546.727539 L853.320312,546.727539 C853.203124,545.418939 852.871096,544.437503 852.324219,543.783203 C851.484371,542.767573 850.395515,542.259766 849.057617,542.259766 C847.846674,542.259766 846.828617,542.665035 846.003418,543.475586 C845.178219,544.286137 844.72168,545.37011 844.633789,546.727539 Z M858.842773,557.289062 L861.40625,557.669922 C861.513672,558.460941 861.811521,559.037108 862.299805,559.398438 C862.954105,559.886721 863.847651,560.130859 864.980469,560.130859 C866.201178,560.130859 867.143551,559.886721 867.807617,559.398438 C868.471683,558.910154 868.920897,558.226567 869.155273,557.347656 C869.291993,556.810544 869.355469,555.682626 869.345703,553.963867 C868.193354,555.321296 866.757821,556 865.039062,556 C862.90038,556 861.245123,555.228523 860.073242,553.685547 C858.901361,552.14257 858.31543,550.292003 858.31543,548.133789 C858.31543,546.649407 858.583982,545.279791 859.121094,544.024902 C859.658206,542.770013 860.437007,541.800785 861.45752,541.117188 C862.478032,540.43359 863.676751,540.091797 865.053711,540.091797 C866.889658,540.091797 868.403314,540.833977 869.594727,542.318359 L869.594727,540.443359 L872.026367,540.443359 L872.026367,553.890625 C872.026367,556.312512 871.779788,558.028804 871.286621,559.039551 C870.793455,560.050298 870.012212,560.84863 868.942871,561.43457 C867.87353,562.020511 866.557625,562.313477 864.995117,562.313477 C863.139639,562.313477 861.640631,561.896 860.498047,561.061035 C859.355463,560.22607 858.803711,558.968758 858.842773,557.289062 Z M861.025391,547.943359 C861.025391,549.984385 861.43066,551.473628 862.241211,552.411133 C863.051762,553.348637 864.067377,553.817383 865.288086,553.817383 C866.499029,553.817383 867.514644,553.351079 868.334961,552.418457 C869.155278,551.485835 869.56543,550.023447 869.56543,548.03125 C869.56543,546.126944 869.143071,544.691411 868.29834,543.724609 C867.453609,542.757808 866.435553,542.274414 865.244141,542.274414 C864.07226,542.274414 863.076176,542.750484 862.255859,543.702637 C861.435543,544.65479 861.025391,546.06835 861.025391,547.943359 Z M875.029297,548.22168 C875.029297,545.340806 875.83007,543.207038 877.431641,541.820312 C878.769538,540.667963 880.400381,540.091797 882.324219,540.091797 C884.462901,540.091797 886.210931,540.792473 887.568359,542.193848 C888.925788,543.595222 889.604492,545.531238 889.604492,548.001953 C889.604492,550.003916 889.304202,551.578608 888.703613,552.726074 C888.103024,553.873541 887.22901,554.764645 886.081543,555.399414 C884.934076,556.034183 883.681647,556.351562 882.324219,556.351562 C880.146473,556.351562 878.386237,555.653327 877.043457,554.256836 C875.700677,552.860345 875.029297,550.848646 875.029297,548.22168 Z M877.739258,548.22168 C877.739258,550.213877 878.173824,551.705561 879.042969,552.696777 C879.912114,553.687993 881.005853,554.183594 882.324219,554.183594 C883.632819,554.183594 884.721675,553.685552 885.59082,552.689453 C886.459965,551.693354 886.894531,550.174815 886.894531,548.133789 C886.894531,546.209951 886.457524,544.752446 885.583496,543.76123 C884.709468,542.770015 883.623053,542.274414 882.324219,542.274414 C881.005853,542.274414 879.912114,542.767573 879.042969,543.753906 C878.173824,544.740239 877.739258,546.229482 877.739258,548.22168 Z M893.442383,556 L893.442383,552.99707 L896.445312,552.99707 L896.445312,556 L893.442383,556 Z M903.461914,556 L901.015625,556 L901.015625,534.525391 L903.652344,534.525391 L903.652344,542.186523 C904.765631,540.790032 906.186515,540.091797 907.915039,540.091797 C908.872075,540.091797 909.777828,540.284666 910.632324,540.67041 C911.486821,541.056154 912.189939,541.598141 912.741699,542.296387 C913.29346,542.994632 913.725584,543.836909 914.038086,544.823242 C914.350588,545.809575 914.506836,546.864252 914.506836,547.987305 C914.506836,550.653334 913.847663,552.71386 912.529297,554.168945 C911.210931,555.624031 909.628915,556.351562 907.783203,556.351562 C905.947256,556.351562 904.506841,555.584969 903.461914,554.051758 L903.461914,556 Z M903.432617,548.104492 C903.432617,549.969736 903.686521,551.317379 904.194336,552.147461 C905.024418,553.50489 906.147454,554.183594 907.563477,554.183594 C908.715826,554.183594 909.71191,553.68311 910.551758,552.682129 C911.391606,551.681147 911.811523,550.189463 911.811523,548.207031 C911.811523,546.175771 911.408695,544.676763 910.603027,543.709961 C909.797359,542.743159 908.823248,542.259766 907.680664,542.259766 C906.528315,542.259766 905.532231,542.760249 904.692383,543.76123 C903.852535,544.762212 903.432617,546.209951 903.432617,548.104492 Z M928.364258,550.990234 L931.088867,551.327148 C930.659178,552.918953 929.863287,554.154292 928.701172,555.033203 C927.539057,555.912114 926.054697,556.351562 924.248047,556.351562 C921.972645,556.351562 920.168464,555.650886 918.835449,554.249512 C917.502435,552.848138 916.835938,550.882825 916.835938,548.353516 C916.835938,545.736315 917.509759,543.705085 918.857422,542.259766 C920.205085,540.814446 921.953114,540.091797 924.101562,540.091797 C926.181651,540.091797 927.880853,540.799798 929.199219,542.21582 C930.517585,543.631843 931.176758,545.624011 931.176758,548.192383 C931.176758,548.348634 931.171875,548.583006 931.162109,548.895508 L919.560547,548.895508 C919.658204,550.604501 920.141597,551.913081 921.010742,552.821289 C921.879887,553.729497 922.963861,554.183594 924.262695,554.183594 C925.229497,554.183594 926.054684,553.92969 926.738281,553.421875 C927.421878,552.91406 927.963865,552.103521 928.364258,550.990234 Z M919.707031,546.727539 L928.393555,546.727539 C928.276367,545.418939 927.944339,544.437503 927.397461,543.783203 C926.557613,542.767573 925.468757,542.259766 924.130859,542.259766 C922.919916,542.259766 921.90186,542.665035 921.07666,543.475586 C920.251461,544.286137 919.794922,545.37011 919.707031,546.727539 Z" id="app.sambego.be" fill="#000000" fill-rule="nonzero"></path>
            <path d="M1395.12891,331.606445 C1394.15234,332.436528 1393.21241,333.022459 1392.30908,333.364258 C1391.40576,333.706056 1390.43653,333.876953 1389.40137,333.876953 C1387.69237,333.876953 1386.37891,333.459477 1385.46094,332.624512 C1384.54296,331.789547 1384.08398,330.722663 1384.08398,329.423828 C1384.08398,328.662106 1384.25732,327.966312 1384.604,327.336426 C1384.95069,326.70654 1385.40478,326.201174 1385.96631,325.820312 C1386.52783,325.439451 1387.16015,325.151368 1387.86328,324.956055 C1388.38086,324.819335 1389.1621,324.687501 1390.20703,324.560547 C1392.33595,324.306639 1393.90332,324.003908 1394.90918,323.652344 C1394.91895,323.291014 1394.92383,323.061524 1394.92383,322.963867 C1394.92383,321.889643 1394.67481,321.132815 1394.17676,320.693359 C1393.50293,320.097653 1392.50196,319.799805 1391.17383,319.799805 C1389.93359,319.799805 1389.01807,320.017088 1388.42725,320.45166 C1387.83642,320.886233 1387.39942,321.655268 1387.11621,322.758789 L1384.53809,322.407227 C1384.77246,321.303705 1385.1582,320.412601 1385.69531,319.733887 C1386.23242,319.055172 1387.00878,318.532717 1388.02441,318.166504 C1389.04004,317.800291 1390.21679,317.617188 1391.55469,317.617188 C1392.88282,317.617188 1393.96191,317.773436 1394.79199,318.085938 C1395.62207,318.398439 1396.23242,318.791502 1396.62305,319.265137 C1397.01367,319.738772 1397.28711,320.33691 1397.44336,321.05957 C1397.53125,321.508791 1397.5752,322.31933 1397.5752,323.491211 L1397.5752,327.006836 C1397.5752,329.45802 1397.63135,331.008298 1397.74365,331.657715 C1397.85596,332.307132 1398.07812,332.929685 1398.41016,333.525391 L1395.65625,333.525391 C1395.38281,332.978513 1395.20703,332.338871 1395.12891,331.606445 Z M1394.90918,325.717773 C1393.95214,326.1084 1392.51661,326.440428 1390.60254,326.713867 C1389.51855,326.870118 1388.75196,327.045897 1388.30273,327.241211 C1387.85351,327.436524 1387.50684,327.722166 1387.2627,328.098145 C1387.01855,328.474123 1386.89648,328.891599 1386.89648,329.350586 C1386.89648,330.053714 1387.16259,330.639646 1387.69482,331.108398 C1388.22705,331.577151 1389.00585,331.811523 1390.03125,331.811523 C1391.04688,331.811523 1391.95019,331.589358 1392.74121,331.14502 C1393.53223,330.700681 1394.11328,330.092777 1394.48438,329.321289 C1394.76758,328.725583 1394.90918,327.846685 1394.90918,326.68457 L1394.90918,325.717773 Z M1411.81348,327.827148 L1414.40625,328.164062 C1414.12305,329.951181 1413.39796,331.350093 1412.23096,332.36084 C1411.06396,333.371587 1409.63087,333.876953 1407.93164,333.876953 C1405.80272,333.876953 1404.09132,333.181159 1402.79736,331.789551 C1401.50341,330.397942 1400.85645,328.403333 1400.85645,325.805664 C1400.85645,324.125968 1401.13476,322.656256 1401.69141,321.396484 C1402.24805,320.136712 1403.09521,319.191898 1404.23291,318.562012 C1405.37061,317.932126 1406.60839,317.617188 1407.94629,317.617188 C1409.63575,317.617188 1411.01757,318.044429 1412.0918,318.898926 C1413.16602,319.753422 1413.85449,320.966789 1414.15723,322.539062 L1411.59375,322.93457 C1411.34961,321.889643 1410.91748,321.103518 1410.29736,320.576172 C1409.67724,320.048825 1408.92774,319.785156 1408.04883,319.785156 C1406.7207,319.785156 1405.64161,320.261226 1404.81152,321.213379 C1403.98144,322.165532 1403.56641,323.671865 1403.56641,325.732422 C1403.56641,327.822276 1403.96679,329.340816 1404.76758,330.288086 C1405.56836,331.235356 1406.61327,331.708984 1407.90234,331.708984 C1408.93751,331.708984 1409.80175,331.391605 1410.49512,330.756836 C1411.18848,330.122067 1411.62793,329.145514 1411.81348,327.827148 Z M1426.81348,327.827148 L1429.40625,328.164062 C1429.12305,329.951181 1428.39796,331.350093 1427.23096,332.36084 C1426.06396,333.371587 1424.63087,333.876953 1422.93164,333.876953 C1420.80272,333.876953 1419.09132,333.181159 1417.79736,331.789551 C1416.50341,330.397942 1415.85645,328.403333 1415.85645,325.805664 C1415.85645,324.125968 1416.13476,322.656256 1416.69141,321.396484 C1417.24805,320.136712 1418.09521,319.191898 1419.23291,318.562012 C1420.37061,317.932126 1421.60839,317.617188 1422.94629,317.617188 C1424.63575,317.617188 1426.01757,318.044429 1427.0918,318.898926 C1428.16602,319.753422 1428.85449,320.966789 1429.15723,322.539062 L1426.59375,322.93457 C1426.34961,321.889643 1425.91748,321.103518 1425.29736,320.576172 C1424.67724,320.048825 1423.92774,319.785156 1423.04883,319.785156 C1421.7207,319.785156 1420.64161,320.261226 1419.81152,321.213379 C1418.98144,322.165532 1418.56641,323.671865 1418.56641,325.732422 C1418.56641,327.822276 1418.96679,329.340816 1419.76758,330.288086 C1420.56836,331.235356 1421.61327,331.708984 1422.90234,331.708984 C1423.93751,331.708984 1424.80175,331.391605 1425.49512,330.756836 C1426.18848,330.122067 1426.62793,329.145514 1426.81348,327.827148 Z M1430.68066,325.74707 C1430.68066,322.866197 1431.48144,320.732429 1433.08301,319.345703 C1434.42091,318.193354 1436.05175,317.617188 1437.97559,317.617188 C1440.11427,317.617188 1441.8623,318.317864 1443.21973,319.719238 C1444.57716,321.120612 1445.25586,323.056628 1445.25586,325.527344 C1445.25586,327.529307 1444.95557,329.103998 1444.35498,330.251465 C1443.75439,331.398932 1442.88038,332.290036 1441.73291,332.924805 C1440.58544,333.559573 1439.33301,333.876953 1437.97559,333.876953 C1435.79784,333.876953 1434.0376,333.178718 1432.69482,331.782227 C1431.35204,330.385735 1430.68066,328.374037 1430.68066,325.74707 Z M1433.39062,325.74707 C1433.39062,327.739268 1433.82519,329.230952 1434.69434,330.222168 C1435.56348,331.213384 1436.65722,331.708984 1437.97559,331.708984 C1439.28419,331.708984 1440.37304,331.210942 1441.24219,330.214844 C1442.11133,329.218745 1442.5459,327.700206 1442.5459,325.65918 C1442.5459,323.735342 1442.10889,322.277837 1441.23486,321.286621 C1440.36084,320.295405 1439.27442,319.799805 1437.97559,319.799805 C1436.65722,319.799805 1435.56348,320.292964 1434.69434,321.279297 C1433.82519,322.26563 1433.39062,323.754873 1433.39062,325.74707 Z M1458.54199,333.525391 L1458.54199,331.240234 C1457.33105,332.998056 1455.68556,333.876953 1453.60547,333.876953 C1452.6875,333.876953 1451.83057,333.701174 1451.03467,333.349609 C1450.23877,332.998045 1449.64795,332.556155 1449.26221,332.023926 C1448.87646,331.491697 1448.60547,330.839848 1448.44922,330.068359 C1448.3418,329.550779 1448.28809,328.730474 1448.28809,327.607422 L1448.28809,317.96875 L1450.9248,317.96875 L1450.9248,326.59668 C1450.9248,327.97364 1450.97852,328.901365 1451.08594,329.379883 C1451.25195,330.073246 1451.60351,330.617674 1452.14062,331.013184 C1452.67774,331.408693 1453.34179,331.606445 1454.13281,331.606445 C1454.92383,331.606445 1455.66601,331.403811 1456.35938,330.998535 C1457.05274,330.59326 1457.54346,330.041507 1457.83154,329.343262 C1458.11963,328.645016 1458.26367,327.631843 1458.26367,326.303711 L1458.26367,317.96875 L1460.90039,317.96875 L1460.90039,333.525391 L1458.54199,333.525391 Z M1465.03125,333.525391 L1465.03125,317.96875 L1467.4043,317.96875 L1467.4043,320.180664 C1468.54688,318.471671 1470.19725,317.617188 1472.35547,317.617188 C1473.29297,317.617188 1474.15478,317.785643 1474.94092,318.122559 C1475.72705,318.459474 1476.31543,318.901364 1476.70605,319.448242 C1477.09668,319.99512 1477.37012,320.644527 1477.52637,321.396484 C1477.62402,321.884768 1477.67285,322.739252 1477.67285,323.959961 L1477.67285,333.525391 L1475.03613,333.525391 L1475.03613,324.0625 C1475.03613,322.988276 1474.93359,322.185061 1474.72852,321.652832 C1474.52344,321.120603 1474.15967,320.695802 1473.63721,320.378418 C1473.11474,320.061034 1472.50196,319.902344 1471.79883,319.902344 C1470.67578,319.902344 1469.70655,320.258785 1468.89111,320.97168 C1468.07568,321.684574 1467.66797,323.037099 1467.66797,325.029297 L1467.66797,333.525391 L1465.03125,333.525391 Z M1487.47266,331.166992 L1487.85352,333.496094 C1487.11132,333.652345 1486.44727,333.730469 1485.86133,333.730469 C1484.90429,333.730469 1484.16211,333.579103 1483.63477,333.276367 C1483.10742,332.973631 1482.73633,332.575686 1482.52148,332.08252 C1482.30664,331.589353 1482.19922,330.551766 1482.19922,328.969727 L1482.19922,320.019531 L1480.26562,320.019531 L1480.26562,317.96875 L1482.19922,317.96875 L1482.19922,314.116211 L1484.82129,312.53418 L1484.82129,317.96875 L1487.47266,317.96875 L1487.47266,320.019531 L1484.82129,320.019531 L1484.82129,329.116211 C1484.82129,329.868168 1484.86768,330.351561 1484.96045,330.566406 C1485.05322,330.781251 1485.20459,330.952148 1485.41455,331.079102 C1485.62451,331.206055 1485.9248,331.269531 1486.31543,331.269531 C1486.6084,331.269531 1486.99414,331.235352 1487.47266,331.166992 Z M1490.79785,333.525391 L1490.79785,330.522461 L1493.80078,330.522461 L1493.80078,333.525391 L1490.79785,333.525391 Z M1497.33105,328.881836 L1499.93848,328.47168 C1500.08496,329.516607 1500.49267,330.31738 1501.16162,330.874023 C1501.83057,331.430667 1502.76562,331.708984 1503.9668,331.708984 C1505.17774,331.708984 1506.07617,331.462405 1506.66211,330.969238 C1507.24805,330.476072 1507.54102,329.897464 1507.54102,329.233398 C1507.54102,328.637692 1507.28223,328.168947 1506.76465,327.827148 C1506.40332,327.592772 1505.50489,327.294924 1504.06934,326.933594 C1502.13573,326.44531 1500.79541,326.022951 1500.04834,325.666504 C1499.30127,325.310057 1498.73487,324.816898 1498.34912,324.187012 C1497.96338,323.557126 1497.77051,322.861332 1497.77051,322.099609 C1497.77051,321.406247 1497.9292,320.764163 1498.24658,320.17334 C1498.56397,319.582517 1498.99609,319.091799 1499.54297,318.701172 C1499.95313,318.398436 1500.5122,318.142091 1501.22021,317.932129 C1501.92823,317.722167 1502.6875,317.617188 1503.49805,317.617188 C1504.71876,317.617188 1505.79052,317.792967 1506.71338,318.144531 C1507.63624,318.496096 1508.31738,318.972165 1508.75684,319.572754 C1509.19629,320.173343 1509.49902,320.976557 1509.66504,321.982422 L1507.08691,322.333984 C1506.96973,321.533199 1506.63037,320.908205 1506.06885,320.458984 C1505.50732,320.009763 1504.71387,319.785156 1503.68848,319.785156 C1502.47753,319.785156 1501.61328,319.98535 1501.0957,320.385742 C1500.57812,320.786135 1500.31934,321.25488 1500.31934,321.791992 C1500.31934,322.133791 1500.42676,322.441405 1500.6416,322.714844 C1500.85645,322.998048 1501.19336,323.232421 1501.65234,323.417969 C1501.91602,323.515625 1502.69238,323.740233 1503.98145,324.091797 C1505.84669,324.589846 1507.14795,324.997557 1507.88525,325.314941 C1508.62256,325.632326 1509.20117,326.093747 1509.62109,326.699219 C1510.04102,327.304691 1510.25098,328.056636 1510.25098,328.955078 C1510.25098,329.833989 1509.99463,330.661617 1509.48193,331.437988 C1508.96924,332.214359 1508.2295,332.814939 1507.2627,333.239746 C1506.29589,333.664553 1505.20215,333.876953 1503.98145,333.876953 C1501.95995,333.876953 1500.41944,333.457035 1499.35986,332.617188 C1498.30029,331.77734 1497.62402,330.532235 1497.33105,328.881836 Z M1523.53711,331.606445 C1522.56054,332.436528 1521.62061,333.022459 1520.71729,333.364258 C1519.81396,333.706056 1518.84473,333.876953 1517.80957,333.876953 C1516.10058,333.876953 1514.78711,333.459477 1513.86914,332.624512 C1512.95117,331.789547 1512.49219,330.722663 1512.49219,329.423828 C1512.49219,328.662106 1512.66553,327.966312 1513.01221,327.336426 C1513.35889,326.70654 1513.81299,326.201174 1514.37451,325.820312 C1514.93604,325.439451 1515.56836,325.151368 1516.27148,324.956055 C1516.78907,324.819335 1517.57031,324.687501 1518.61523,324.560547 C1520.74415,324.306639 1522.31152,324.003908 1523.31738,323.652344 C1523.32715,323.291014 1523.33203,323.061524 1523.33203,322.963867 C1523.33203,321.889643 1523.08301,321.132815 1522.58496,320.693359 C1521.91113,320.097653 1520.91016,319.799805 1519.58203,319.799805 C1518.34179,319.799805 1517.42627,320.017088 1516.83545,320.45166 C1516.24463,320.886233 1515.80762,321.655268 1515.52441,322.758789 L1512.94629,322.407227 C1513.18067,321.303705 1513.5664,320.412601 1514.10352,319.733887 C1514.64063,319.055172 1515.41699,318.532717 1516.43262,318.166504 C1517.44825,317.800291 1518.62499,317.617188 1519.96289,317.617188 C1521.29102,317.617188 1522.37011,317.773436 1523.2002,318.085938 C1524.03028,318.398439 1524.64062,318.791502 1525.03125,319.265137 C1525.42188,319.738772 1525.69531,320.33691 1525.85156,321.05957 C1525.93945,321.508791 1525.9834,322.31933 1525.9834,323.491211 L1525.9834,327.006836 C1525.9834,329.45802 1526.03955,331.008298 1526.15186,331.657715 C1526.26416,332.307132 1526.48633,332.929685 1526.81836,333.525391 L1524.06445,333.525391 C1523.79101,332.978513 1523.61523,332.338871 1523.53711,331.606445 Z M1523.31738,325.717773 C1522.36035,326.1084 1520.92481,326.440428 1519.01074,326.713867 C1517.92675,326.870118 1517.16016,327.045897 1516.71094,327.241211 C1516.26172,327.436524 1515.91504,327.722166 1515.6709,328.098145 C1515.42676,328.474123 1515.30469,328.891599 1515.30469,329.350586 C1515.30469,330.053714 1515.5708,330.639646 1516.10303,331.108398 C1516.63526,331.577151 1517.41406,331.811523 1518.43945,331.811523 C1519.45508,331.811523 1520.35839,331.589358 1521.14941,331.14502 C1521.94043,330.700681 1522.52148,330.092777 1522.89258,329.321289 C1523.17578,328.725583 1523.31738,327.846685 1523.31738,326.68457 L1523.31738,325.717773 Z M1530.07031,333.525391 L1530.07031,317.96875 L1532.42871,317.96875 L1532.42871,320.151367 C1532.91699,319.389645 1533.5664,318.776858 1534.37695,318.312988 C1535.1875,317.849119 1536.11035,317.617188 1537.14551,317.617188 C1538.29786,317.617188 1539.24267,317.856443 1539.97998,318.334961 C1540.71729,318.813479 1541.2373,319.482418 1541.54004,320.341797 C1542.77051,318.525382 1544.37206,317.617188 1546.34473,317.617188 C1547.8877,317.617188 1549.07421,318.044429 1549.9043,318.898926 C1550.73438,319.753422 1551.14941,321.069327 1551.14941,322.84668 L1551.14941,333.525391 L1548.52734,333.525391 L1548.52734,323.725586 C1548.52734,322.670893 1548.4419,321.911623 1548.271,321.447754 C1548.1001,320.983884 1547.79004,320.610353 1547.34082,320.327148 C1546.8916,320.043944 1546.36426,319.902344 1545.75879,319.902344 C1544.66503,319.902344 1543.75684,320.26611 1543.03418,320.993652 C1542.31152,321.721195 1541.9502,322.885734 1541.9502,324.487305 L1541.9502,333.525391 L1539.31348,333.525391 L1539.31348,323.417969 C1539.31348,322.246088 1539.09863,321.36719 1538.66895,320.78125 C1538.23926,320.19531 1537.53614,319.902344 1536.55957,319.902344 C1535.81738,319.902344 1535.13135,320.097654 1534.50146,320.488281 C1533.87158,320.878908 1533.41504,321.450192 1533.13184,322.202148 C1532.84863,322.954105 1532.70703,324.038079 1532.70703,325.454102 L1532.70703,333.525391 L1530.07031,333.525391 Z M1557.49219,333.525391 L1555.0459,333.525391 L1555.0459,312.050781 L1557.68262,312.050781 L1557.68262,319.711914 C1558.7959,318.315423 1560.21679,317.617188 1561.94531,317.617188 C1562.90235,317.617188 1563.8081,317.810057 1564.6626,318.195801 C1565.51709,318.581545 1566.22021,319.123532 1566.77197,319.821777 C1567.32373,320.520023 1567.75586,321.3623 1568.06836,322.348633 C1568.38086,323.334966 1568.53711,324.389643 1568.53711,325.512695 C1568.53711,328.178724 1567.87794,330.239251 1566.55957,331.694336 C1565.2412,333.149421 1563.65919,333.876953 1561.81348,333.876953 C1559.97753,333.876953 1558.53711,333.110359 1557.49219,331.577148 L1557.49219,333.525391 Z M1557.46289,325.629883 C1557.46289,327.495127 1557.71679,328.842769 1558.22461,329.672852 C1559.05469,331.03028 1560.17773,331.708984 1561.59375,331.708984 C1562.7461,331.708984 1563.74218,331.208501 1564.58203,330.20752 C1565.42188,329.206538 1565.8418,327.714854 1565.8418,325.732422 C1565.8418,323.701162 1565.43897,322.202153 1564.6333,321.235352 C1563.82763,320.26855 1562.85352,319.785156 1561.71094,319.785156 C1560.55859,319.785156 1559.5625,320.28564 1558.72266,321.286621 C1557.88281,322.287603 1557.46289,323.735342 1557.46289,325.629883 Z M1582.39453,328.515625 L1585.11914,328.852539 C1584.68945,330.444344 1583.89356,331.679683 1582.73145,332.558594 C1581.56933,333.437504 1580.08497,333.876953 1578.27832,333.876953 C1576.00292,333.876953 1574.19874,333.176277 1572.86572,331.774902 C1571.53271,330.373528 1570.86621,328.408216 1570.86621,325.878906 C1570.86621,323.261706 1571.54003,321.230476 1572.8877,319.785156 C1574.23536,318.339837 1575.98339,317.617188 1578.13184,317.617188 C1580.21192,317.617188 1581.91113,318.325188 1583.22949,319.741211 C1584.54786,321.157234 1585.20703,323.149401 1585.20703,325.717773 C1585.20703,325.874024 1585.20215,326.108397 1585.19238,326.420898 L1573.59082,326.420898 C1573.68848,328.129891 1574.17187,329.438472 1575.04102,330.34668 C1575.91016,331.254887 1576.99413,331.708984 1578.29297,331.708984 C1579.25977,331.708984 1580.08496,331.455081 1580.76855,330.947266 C1581.45215,330.439451 1581.99414,329.628912 1582.39453,328.515625 Z M1573.7373,324.25293 L1582.42383,324.25293 C1582.30664,322.944329 1581.97461,321.962894 1581.42773,321.308594 C1580.58789,320.292964 1579.49903,319.785156 1578.16113,319.785156 C1576.95019,319.785156 1575.93213,320.190426 1575.10693,321.000977 C1574.28173,321.811527 1573.8252,322.895501 1573.7373,324.25293 Z M1587.94629,334.814453 L1590.50977,335.195312 C1590.61719,335.986332 1590.91504,336.562498 1591.40332,336.923828 C1592.05762,337.412112 1592.95117,337.65625 1594.08398,337.65625 C1595.30469,337.65625 1596.24707,337.412112 1596.91113,336.923828 C1597.5752,336.435544 1598.02441,335.751958 1598.25879,334.873047 C1598.39551,334.335935 1598.45898,333.208016 1598.44922,331.489258 C1597.29687,332.846686 1595.86134,333.525391 1594.14258,333.525391 C1592.0039,333.525391 1590.34864,332.753914 1589.17676,331.210938 C1588.00488,329.667961 1587.41895,327.817394 1587.41895,325.65918 C1587.41895,324.174797 1587.6875,322.805182 1588.22461,321.550293 C1588.76172,320.295404 1589.54052,319.326175 1590.56104,318.642578 C1591.58155,317.958981 1592.78027,317.617188 1594.15723,317.617188 C1595.99317,317.617188 1597.50683,318.359368 1598.69824,319.84375 L1598.69824,317.96875 L1601.12988,317.96875 L1601.12988,331.416016 C1601.12988,333.837903 1600.8833,335.554194 1600.39014,336.564941 C1599.89697,337.575689 1599.11573,338.374021 1598.04639,338.959961 C1596.97705,339.545901 1595.66114,339.838867 1594.09863,339.838867 C1592.24315,339.838867 1590.74415,339.421391 1589.60156,338.586426 C1588.45898,337.751461 1587.90723,336.494149 1587.94629,334.814453 Z M1590.12891,325.46875 C1590.12891,327.509776 1590.53418,328.999019 1591.34473,329.936523 C1592.15528,330.874028 1593.17089,331.342773 1594.3916,331.342773 C1595.60255,331.342773 1596.61816,330.87647 1597.43848,329.943848 C1598.25879,329.011226 1598.66895,327.548838 1598.66895,325.556641 C1598.66895,323.652334 1598.24659,322.216802 1597.40186,321.25 C1596.55712,320.283198 1595.53907,319.799805 1594.34766,319.799805 C1593.17578,319.799805 1592.17969,320.275874 1591.35938,321.228027 C1590.53906,322.180181 1590.12891,323.593741 1590.12891,325.46875 Z M1604.13281,325.74707 C1604.13281,322.866197 1604.93359,320.732429 1606.53516,319.345703 C1607.87305,318.193354 1609.5039,317.617188 1611.42773,317.617188 C1613.56642,317.617188 1615.31445,318.317864 1616.67188,319.719238 C1618.0293,321.120612 1618.70801,323.056628 1618.70801,325.527344 C1618.70801,327.529307 1618.40772,329.103998 1617.80713,330.251465 C1617.20654,331.398932 1616.33253,332.290036 1615.18506,332.924805 C1614.03759,333.559573 1612.78516,333.876953 1611.42773,333.876953 C1609.24999,333.876953 1607.48975,333.178718 1606.14697,331.782227 C1604.80419,330.385735 1604.13281,328.374037 1604.13281,325.74707 Z M1606.84277,325.74707 C1606.84277,327.739268 1607.27734,329.230952 1608.14648,330.222168 C1609.01563,331.213384 1610.10937,331.708984 1611.42773,331.708984 C1612.73633,331.708984 1613.82519,331.210942 1614.69434,330.214844 C1615.56348,329.218745 1615.99805,327.700206 1615.99805,325.65918 C1615.99805,323.735342 1615.56104,322.277837 1614.68701,321.286621 C1613.81298,320.295405 1612.72657,319.799805 1611.42773,319.799805 C1610.10937,319.799805 1609.01563,320.292964 1608.14648,321.279297 C1607.27734,322.26563 1606.84277,323.754873 1606.84277,325.74707 Z M1622.5459,333.525391 L1622.5459,330.522461 L1625.54883,330.522461 L1625.54883,333.525391 L1622.5459,333.525391 Z M1632.56543,333.525391 L1630.11914,333.525391 L1630.11914,312.050781 L1632.75586,312.050781 L1632.75586,319.711914 C1633.86915,318.315423 1635.29003,317.617188 1637.01855,317.617188 C1637.97559,317.617188 1638.88134,317.810057 1639.73584,318.195801 C1640.59034,318.581545 1641.29345,319.123532 1641.84521,319.821777 C1642.39698,320.520023 1642.8291,321.3623 1643.1416,322.348633 C1643.4541,323.334966 1643.61035,324.389643 1643.61035,325.512695 C1643.61035,328.178724 1642.95118,330.239251 1641.63281,331.694336 C1640.31445,333.149421 1638.73243,333.876953 1636.88672,333.876953 C1635.05077,333.876953 1633.61036,333.110359 1632.56543,331.577148 L1632.56543,333.525391 Z M1632.53613,325.629883 C1632.53613,327.495127 1632.79004,328.842769 1633.29785,329.672852 C1634.12793,331.03028 1635.25097,331.708984 1636.66699,331.708984 C1637.81934,331.708984 1638.81543,331.208501 1639.65527,330.20752 C1640.49512,329.206538 1640.91504,327.714854 1640.91504,325.732422 C1640.91504,323.701162 1640.51221,322.202153 1639.70654,321.235352 C1638.90087,320.26855 1637.92676,319.785156 1636.78418,319.785156 C1635.63183,319.785156 1634.63575,320.28564 1633.7959,321.286621 C1632.95605,322.287603 1632.53613,323.735342 1632.53613,325.629883 Z M1657.46777,328.515625 L1660.19238,328.852539 C1659.76269,330.444344 1658.9668,331.679683 1657.80469,332.558594 C1656.64257,333.437504 1655.15821,333.876953 1653.35156,333.876953 C1651.07616,333.876953 1649.27198,333.176277 1647.93896,331.774902 C1646.60595,330.373528 1645.93945,328.408216 1645.93945,325.878906 C1645.93945,323.261706 1646.61327,321.230476 1647.96094,319.785156 C1649.3086,318.339837 1651.05663,317.617188 1653.20508,317.617188 C1655.28517,317.617188 1656.98437,318.325188 1658.30273,319.741211 C1659.6211,321.157234 1660.28027,323.149401 1660.28027,325.717773 C1660.28027,325.874024 1660.27539,326.108397 1660.26562,326.420898 L1648.66406,326.420898 C1648.76172,328.129891 1649.24511,329.438472 1650.11426,330.34668 C1650.9834,331.254887 1652.06738,331.708984 1653.36621,331.708984 C1654.33301,331.708984 1655.1582,331.455081 1655.8418,330.947266 C1656.52539,330.439451 1657.06738,329.628912 1657.46777,328.515625 Z M1648.81055,324.25293 L1657.49707,324.25293 C1657.37988,322.944329 1657.04785,321.962894 1656.50098,321.308594 C1655.66113,320.292964 1654.57227,319.785156 1653.23438,319.785156 C1652.02343,319.785156 1651.00538,320.190426 1650.18018,321.000977 C1649.35498,321.811527 1648.89844,322.895501 1648.81055,324.25293 Z" id="account.sambego.be" fill="#000000" fill-rule="nonzero"></path>
            <g id="Id-Token" transform="translate(1148.500000, 100.000000)">
                <polygon id="Path" stroke="#000000" stroke-width="7" fill="#FFFFFF" stroke-linecap="round" stroke-linejoin="round" points="85.8869565 0.243478261 0.886956522 61.9608696 33.3347826 161.891304 138.43913 161.891304 170.886957 61.9608696"></polygon>
                <polygon id="Path" fill="#EC5F67" points="85.8869565 21.3086957 20.6217391 68.6869565 45.5304348 145.482609 126.243478 145.482609 151.152174 68.6869565"></polygon>
                <circle id="Oval" fill="#FFFFFF" cx="85.8130435" cy="71.0521739" r="16.926087"></circle>
                <path d="M56.6173913,107.786957 C60.3598519,94.7694795 72.2682763,85.802302 85.8130435,85.802302 C99.3578107,85.802302 111.266235,94.7694795 115.008696,107.786957 C117.078261,119.095652 102.886957,121.165217 85.8130435,121.165217 C68.7391304,121.165217 53.5869565,119.908696 56.6173913,107.786957 Z" id="Path" fill="#FFFFFF"></path>
            </g>
            <g id="Refresh-Token" transform="translate(1034.500000, 126.000000)">
                <polygon id="Path" fill="#FFFFFF" points="85.3916667 5.9875 5.5625 64 36.0208333 157.854167 134.7625 157.854167 165.291667 64"></polygon>
                <path d="M143.758333,137.666667 L142.695833,137.666667 C141.792306,137.391593 141.039896,136.760191 140.612177,135.91812 C140.184458,135.07605 140.118373,134.096038 140.429167,133.204167 L162.670833,64.5666667 L132.354167,42.5375 C131.329261,41.7909638 130.780481,40.5543552 130.914548,39.2934927 C131.048614,38.0326303 131.845159,36.9390689 133.004131,36.4247427 C134.163103,35.9104165 135.508428,36.0534637 136.533333,36.8 L168.975,60.3875 C170.184688,61.2832298 170.69605,62.8457256 170.25,64.2833333 L147.158333,135.116667 C146.717593,136.627778 145.332407,137.666667 143.758333,137.666667 Z" id="Path" fill="#000000"></path>
                <path d="M126.758333,162.458333 L35.0291667,162.458333 C33.396986,162.565291 31.9038703,161.540604 31.4166667,159.979167 L18.1,118.6125 C17.4951136,116.754407 18.5094218,114.757487 20.3666667,114.15 C21.2585377,113.839207 22.2385495,113.905292 23.0806204,114.33301 C23.9226913,114.760729 24.5540934,115.51314 24.8291667,116.416667 L37.65,155.375 L126.758333,155.375 C128.714342,155.375 130.3,156.960658 130.3,158.916667 C130.262316,160.856852 128.698518,162.420649 126.758333,162.458333 Z" id="Path" fill="#000000"></path>
                <path d="M12.3625,92.6875 C10.8340488,92.6661456 9.49176427,91.666572 9.03333333,90.2083333 L0.604166667,64.2125 C0.0845183402,62.7751752 0.6102884,61.1686555 1.87916667,60.3166667 L83.3375,1.1 C84.5967593,0.155555556 86.3282407,0.155555556 87.5875,1.1 L111.245833,19.1625 C112.784708,20.382104 113.096307,22.5944548 111.954167,24.1916667 C110.759007,25.7334313 108.542128,26.0184586 106.995833,24.8291667 L85.3208333,8.39583333 L8.1125,64.4958333 L15.7625,88.0833333 C16.3673864,89.9414268 15.3530782,91.9383462 13.4958333,92.5458333 C13.1296662,92.6609056 12.745726,92.7088981 12.3625,92.6875 Z" id="Path" fill="#000000"></path>
                <polygon id="Path" fill="#EC5F67" points="85.3916667 37.5083333 35.5958333 73.7041667 54.5791667 132.354167 116.204167 132.354167 135.258333 73.7041667"></polygon>
                <path d="M144.041667,139.933333 C142.830746,139.890492 141.718351,139.254838 141.066667,138.233333 L133.345833,126.120833 C132.412737,124.485075 132.9229,122.405148 134.506992,121.386803 C136.091084,120.368458 138.195093,120.767846 139.295833,122.295833 L145.175,131.504167 L154.3125,125.625 C155.981099,124.625347 158.141638,125.126341 159.2,126.758333 C160.253333,128.401905 159.778116,130.587903 158.1375,131.645833 L145.954167,139.366667 C145.384123,139.734884 144.720291,139.931575 144.041667,139.933333 Z" id="Path" fill="#000000"></path>
                <path d="M96.5833333,28.6541667 C94.6273249,28.8106473 92.9148141,27.3518418 92.7583335,25.3958333 C92.6018528,23.4398249 94.0606582,21.7273141 96.0166667,21.5708333 L106.7125,19.8708333 L105.0125,9.175 C104.753044,7.2321136 106.060653,5.42636797 107.9875,5.06666667 C109.914588,4.81040838 111.698896,6.12516111 112.025,8.04166667 L114.291667,22.2083333 C114.547925,24.1354216 113.233172,25.9197289 111.316667,26.2458333 L97.15,28.5125 L96.5833333,28.6541667 Z" id="Path" fill="#000000"></path>
                <path d="M14.1333333,131.575 C13.541075,131.569419 12.9585406,131.423785 12.4333333,131.15 C10.7402608,130.188556 10.1137186,128.058313 11.0166667,126.333333 L18.1,113.654167 C18.5653555,112.837016 19.3256289,112.228798 20.225,111.954167 C21.088722,111.607427 22.0529446,111.607427 22.9166667,111.954167 L35.525,119.0375 C36.3678437,119.472255 36.9960813,120.232961 37.2636782,121.142791 C37.5312751,122.05262 37.4149225,123.032323 36.9416667,123.854167 C36.5063982,124.677629 35.7584244,125.291591 34.8659173,125.558011 C33.9734102,125.824431 33.0112744,125.720949 32.1958333,125.270833 L22.6333333,120.1 L17.25,129.6625 C16.6459947,130.828488 15.446437,131.56458 14.1333333,131.575 Z" id="Path" fill="#000000"></path>
            </g>
            <g id="Access-Token" transform="translate(1098.500000, 204.000000)">
                <polygon id="Path" fill="#FFFFFF" points="89.2944251 3.92421603 4.14634146 65.8231707 36.6506969 165.9277 141.938153 165.9277 174.442509 65.8231707"></polygon>
                <path d="M141.938153,169.555749 L36.6506969,169.555749 C34.8716359,169.673142 33.2709451,168.48047 32.8745645,166.74216 L0.666376307,66.9337979 C0.280027564,65.4985692 0.808158578,63.9728574 1.99912892,63.0836237 L87.1472125,1.2587108 C88.4401925,0.283807232 90.2226995,0.283807232 91.5156794,1.2587108 L176.663763,63.0836237 C177.922153,64.0575364 178.451771,65.7052379 177.996516,67.2299652 L145.418118,166.74216 C145.094893,168.400415 143.627328,169.586957 141.938153,169.555749 Z M39.3902439,162.151568 L139.272648,162.151568 L170.074042,67.2299652 L89.2944251,8.51480836 L8.51480836,67.2299652 L39.3902439,162.151568 Z" id="Shape" fill="#000000" fill-rule="nonzero"></path>
                <polygon id="Path" fill="#EC5F67" points="89.2944251 25.0261324 23.9155052 72.5609756 48.8675958 149.416376 129.721254 149.416376 154.673345 72.5609756"></polygon>
                <path d="M80.261324,88.4799652 C70.9434698,84.2302008 65.8480034,74.0601629 68.0224648,64.0524348 C70.1969263,54.0447067 79.0531896,46.906076 89.2944251,46.906076 C99.5356606,46.906076 108.391924,54.0447067 110.566385,64.0524348 C112.740847,74.0601629 107.64538,84.2302008 98.3275261,88.4799652 L98.3275261,97.4390244 L95.3658537,103.510453 L98.3275261,108.175087 L95.6620209,111.13676 L98.9939024,116.541812 L94.2552265,120.910279 L98.3275261,129.721254 L87.369338,136.162892 L79.9651568,128.758711 L79.9651568,88.4799652 L80.261324,88.4799652 Z" id="Path" fill="#FFFFFF"></path>
                <path d="M87.369338,140.16115 C86.3928403,140.147241 85.4613933,139.748049 84.7778746,139.050523 L77.3736934,131.646341 C76.6429475,130.955052 76.2393737,129.986475 76.2630662,128.980836 L76.2630662,90.7012195 C66.2504686,84.9204436 61.368909,73.1353163 64.3612588,61.9677148 C67.3536086,50.8001132 77.4737269,43.0346734 89.0352787,43.0346734 C100.596831,43.0346734 110.716949,50.8001132 113.709299,61.9677148 C116.701648,73.1353163 111.820089,84.9204436 101.807491,90.7012195 L101.807491,97.4390244 C101.836994,97.9822074 101.708402,98.5222962 101.437282,98.9939024 L99.3641115,103.288328 L101.215157,106.175958 C102.180935,107.551844 102.025138,109.421412 100.844948,110.618467 L100.030488,111.506969 L101.881533,114.616725 C102.812603,116.090507 102.563876,118.018147 101.289199,119.207317 L98.5496516,121.79878 L101.511324,128.462544 C102.271369,130.19021 101.639018,132.213733 100.030488,133.20122 L89.0722997,139.642857 C88.5462348,139.930671 87.9665479,140.107098 87.369338,140.16115 Z M83.8893728,127.796167 L87.9616725,131.794425 L93.662892,128.462544 L90.9233449,122.317073 C90.2667527,120.880575 90.5938317,119.185711 91.7378049,118.09669 L94.2552265,115.801394 L92.478223,112.987805 C91.6412805,111.568626 91.8210789,109.770642 92.9224739,108.545296 L93.7369338,107.656794 L92.2560976,105.43554 C91.6635005,104.298786 91.6635005,102.944246 92.2560976,101.807491 L94.847561,96.4764808 L94.847561,89.0722997 C94.6720152,87.4818214 95.5381799,85.9585662 96.9947735,85.2961672 C104.721115,81.8075057 108.964011,73.3987433 107.17971,65.1111992 C105.395409,56.823655 98.0680399,50.9059604 89.5905923,50.9059604 C81.1131448,50.9059604 73.7857757,56.823655 72.0014748,65.1111992 C70.2171738,73.3987433 74.4600693,81.8075057 82.1864111,85.2961672 C83.7309115,85.9825281 84.6144743,87.6277831 84.3336237,89.2944251 L83.8893728,127.796167 Z" id="Shape" fill="#000000" fill-rule="nonzero"></path>
                <circle id="Oval" fill="#000000" cx="89.2944251" cy="62.2691638" r="4.66463415"></circle>
            </g>
            <g id="Cookie" transform="translate(902.000000, 373.000000)">
                <path d="M106.5,25.1458333 C106.253753,26.4070323 106.111607,27.686341 106.075,28.9708333 C106.075,41.2154465 116.00122,51.1416667 128.245833,51.1416667 C132.165447,51.1206478 136.007006,50.0440326 139.366667,48.025 C143.124488,56.8523529 151.801946,62.5722205 161.395833,62.5458333 C169.912318,95.060301 156.79892,129.390496 128.774389,147.94708 C100.749859,166.503664 64.0244339,165.174496 37.4146681,144.640586 C10.8049024,124.106675 0.207521935,88.918338 11.0521761,57.1045895 C21.8968303,25.290841 51.7803429,3.90160999 85.3916667,3.89583333 C87.6583333,18.1333333 95.1666667,24.3666667 106.5,25.1458333 Z" id="Path" fill="#FFFFFF"></path>
                <path d="M85.3916667,164.333333 C55.5249726,165.211291 27.5434875,149.779026 12.3509295,124.050123 C-2.84162837,98.3212211 -2.84162837,66.3662789 12.3509295,40.6373767 C27.5434875,14.9084745 55.5249726,-0.523790946 85.3916667,0.354166667 C87.1421085,0.304039641 88.6443227,1.59165182 88.8625,3.32916667 C90.8458333,15.4416667 95.9458333,20.8958333 106.7125,21.6041667 C107.723445,21.6682856 108.658548,22.162217 109.281393,22.9610823 C109.904237,23.7599476 110.1552,24.7872764 109.970833,25.7833333 C109.748231,26.8315991 109.629601,27.899271 109.616667,28.9708333 C109.549005,35.6751996 113.116466,41.890736 118.939591,45.2140349 C124.762717,48.5373337 131.928719,48.4474603 137.666667,44.9791667 C138.562218,44.4514873 139.644367,44.3438615 140.626309,44.6848136 C141.608251,45.0257657 142.39084,45.7808699 142.766667,46.75 C146.007423,54.1908779 153.350684,59.0029392 161.466667,59.0041667 C163.077961,58.961404 164.497849,60.0559011 164.866667,61.625 C166.621213,68.3548947 167.502063,75.282667 167.4875,82.2375 C167.448444,127.56159 130.715756,164.294278 85.3916667,164.333333 Z M82.4875,7.4375 C51.1640991,8.92258016 24.1071733,29.8235894 14.7591934,59.7564506 C5.41121347,89.6893118 15.764789,122.273555 40.6760379,141.320617 C65.5872868,160.36768 99.7461427,161.817501 126.181741,144.94978 C152.61734,128.082058 165.694685,96.4923052 158.916667,65.875 C150.186951,65.031268 142.340075,60.1923614 137.666667,52.7708333 C134.662001,54.0350112 131.434778,54.6852725 128.175,54.6833333 C121.324581,54.7209991 114.740792,52.0309076 109.876848,47.2068316 C105.012904,42.3827556 102.268717,35.8213307 102.25,28.9708333 C102.215088,28.7360128 102.215088,28.4973206 102.25,28.2625 C91.7811365,26.4567012 83.7430928,17.9865047 82.4875,7.4375 Z" id="Shape" fill="#000000" fill-rule="nonzero"></path>
                <path d="M95.875,35.4166667 C94.175,48.5916667 110.041667,68.5666667 133.558333,61.7666667 C136.179167,68.85 139.933333,71.8958333 151.691667,74.2333333 C156.295833,112.270833 121.5875,147.6875 85.3208333,147.6875 C67.859699,147.840174 51.0693317,140.971218 38.7219733,128.62386 C26.3746149,116.276502 19.5056589,99.4861343 19.6583333,82.025 C20.5083333,47.6 47.9916667,19.9041667 76.325,18.7 C77.399616,28.5632722 85.9645085,35.886876 95.875,35.4166667 Z" id="Path" fill="#EC5F67"></path>
                <g id="Group" style="mix-blend-mode: darken;" transform="translate(16.166667, 16.166667)" fill="#000000">
                    <path d="M50.6666667,11.4583333 C50.0957555,11.4618437 49.5339431,11.315284 49.0375,11.0333333 L41.1041667,6.925 C39.3941608,6.01583579 38.7315316,3.90173325 39.6166667,2.17916667 C40.0535719,1.33864946 40.8089827,0.70818899 41.7140928,0.42866969 C42.619203,0.14915038 43.5985669,0.2438716 44.4333333,0.69166667 L52.0125,5.08333333 C52.8482165,5.50609906 53.4776108,6.24866087 53.7577239,7.14235518 C54.0378371,8.0360495 53.944892,9.0050162 53.5,9.8291667 C52.8775637,10.8015862 51.8202041,11.409568 50.6666667,11.4583333 Z" id="Path"></path>
                    <path d="M56.1916667,106.375 C54.7278916,106.438118 53.3763606,105.593411 52.7916667,104.25 C52.2221831,102.37662 53.217939,100.385108 55.0583333,99.716667 L62.9916667,97.1666667 C63.883792,96.8510603 64.865118,96.9056001 65.7167757,97.3181218 C66.5684333,97.7306435 67.2195844,98.466835 67.525,99.3625 C68.0944836,101.23588 67.0987276,103.227392 65.2583333,103.895833 L57.325,106.516667 L56.1916667,106.375 Z" id="Path"></path>
                    <path d="M80.9833333,38.6583333 C79.6896129,38.6468326 78.5008173,37.9443625 77.8666667,36.8166667 C77.4134822,35.9905511 77.3081757,35.0179019 77.5740481,34.1139357 C77.8399205,33.2099695 78.455052,32.4492138 79.2833333,32 L88.1375,27.1125 C88.9636155,26.6593156 89.9362648,26.5540091 90.8402309,26.8198815 C91.7441971,27.0857539 92.5049528,27.7008854 92.9541667,28.5291667 C93.8571147,30.2541461 93.2305725,32.3843894 91.5375,33.3458333 L82.6833333,38.1625 C82.1765279,38.4886723 81.5860219,38.6609032 80.9833333,38.6583333 Z" id="Path"></path>
                    <path d="M45.5666667,49.7083333 C44.6826418,49.6836366 43.8333253,49.358898 43.1583333,48.7875 L38.2708333,44.325 C37.6045462,43.6721746 37.2290773,42.7786353 37.2290773,41.8458333 C37.2290773,40.9130313 37.6045462,40.0194921 38.2708333,39.3666667 C38.93584,38.6961844 39.8410754,38.3190476 40.7854167,38.3190476 C41.7297579,38.3190476 42.6349933,38.6961844 43.3,39.3666667 L48.1166667,43.8291667 C48.7829538,44.4819921 49.1584227,45.3755313 49.1584227,46.3083333 C49.1584227,47.2411353 48.7829538,48.1346746 48.1166667,48.7875 C47.41845,49.4138611 46.5039801,49.7440864 45.5666667,49.7083333 Z" id="Path"></path>
                    <path d="M20.775,63.45 C19.5786046,63.4218983 18.4810775,62.7794434 17.8708333,61.75 C16.7677272,60.1390848 17.1441659,57.9431921 18.7208333,56.7916667 L24.5291667,52.825 C26.1198837,51.9956907 28.0794554,52.4867162 29.0911552,53.9681338 C30.1028551,55.4495514 29.8471385,57.4534567 28.4958333,58.6333333 L22.7583333,62.6708333 C22.2004418,63.1408335 21.5036212,63.4145845 20.775,63.45 Z" id="Path"></path>
                    <path d="M14.1166667,26.6875 C13.0414201,26.6724134 12.0287917,26.1790816 11.3541667,25.3416667 L8.1666667,20.95 C7.3695177,19.9630538 7.1594513,18.625804 7.6155974,17.4419797 C8.0717434,16.2581555 9.1248025,15.4076077 10.3780974,15.2107297 C11.6313924,15.0138516 12.8945178,15.5005537 13.6916667,16.4875 L17.2333333,20.95 C18.438764,22.4777685 18.1857165,24.691934 16.6666667,25.9083333 C15.9471224,26.4837223 15.0349254,26.7624492 14.1166667,26.6875 Z" id="Path"></path>
                    <path d="M3.91666667,94.4041667 C2.0407264,94.4075462 0.48755355,92.9475638 0.375,91.075 C0.29285281,89.1313364 1.76462489,87.4716785 3.70416667,87.3208333 L11.2833333,86.8958333 C12.2386818,86.755452 13.2093275,87.0193979 13.9620272,87.6242458 C14.7147268,88.2290937 15.1814338,89.1201634 15.25,90.0833333 C15.3080813,91.0230578 14.9895949,91.9472336 14.36491,92.6516655 C13.7402251,93.3560974 12.8607608,93.7828021 11.9208333,93.8375 L4.4125,94.2625 L3.91666667,94.4041667 Z" id="Path"></path>
                    <path d="M36.5,132.016667 C34.5439915,132.016667 32.9583333,130.431008 32.9583333,128.475 L32.9583333,125.5 C32.9583333,123.543992 34.5439915,121.958333 36.5,121.958333 C38.4560085,121.958333 40.0416667,123.543992 40.0416667,125.5 L40.0416667,128.545833 C40.0030932,130.474125 38.428677,132.017052 36.5,132.016667 Z" id="Path"></path>
                    <path d="M134.533333,85.975 C133.941075,85.969419 133.358541,85.8237854 132.833333,85.55 L127.095833,82.5041667 C125.402761,81.5427227 124.776219,79.4124794 125.679167,77.6875 C126.099503,76.8492473 126.847384,76.2218167 127.745941,75.9535907 C128.644498,75.6853646 129.61394,75.8001617 130.425,76.2708333 L136.233333,79.3166667 C137.926406,80.2781106 138.552948,82.4083539 137.65,84.1333333 C137.038877,85.2833011 135.835455,85.9944141 134.533333,85.975 Z" id="Path"></path>
                    <path d="M107.970833,53.25 C106.510644,53.2726093 105.199113,52.3602401 104.7125,50.9833333 C103.978897,49.1838263 104.832318,47.1292939 106.625,46.3791667 L113.283333,43.7583333 C114.156818,43.409907 115.133014,43.4231821 115.996701,43.795232 C116.860389,44.1672818 117.540646,44.8675561 117.8875,45.7416667 C118.235926,46.6151515 118.222651,47.5913475 117.850601,48.4550347 C117.478552,49.3187218 116.778277,49.9989798 115.904167,50.3458333 L109.316667,52.9666667 C108.895525,53.1624849 108.435179,53.2593998 107.970833,53.25 Z" id="Path"></path>
                    <path d="M74.75,77.1208333 C73.8286667,77.1119909 72.9441039,76.7581658 72.2708333,76.1291667 L68.3041667,72.0916667 C67.4184456,71.2059457 67.0725322,69.9149793 67.3967285,68.7050619 C67.7209249,67.4951446 68.6659779,66.5500915 69.8758953,66.2258952 C71.0858126,65.9016988 72.3767791,66.2476123 73.2625,67.1333333 L77.3,71.1 C78.658465,72.5011802 78.658465,74.7279865 77.3,76.1291667 C76.6013407,76.7628183 75.6931944,77.1159863 74.75,77.1208333 Z" id="Path"></path>
                    <path d="M41.6,83.3541667 L40.8916667,83.3541667 C38.9688813,82.9619063 37.7109036,81.1063892 38.0583333,79.175 L38.5541667,76.9791667 C38.9258083,75.0231582 40.8127415,73.7387751 42.76875,74.1104167 C44.7247585,74.4820583 46.0091416,76.3689915 45.6375,78.325 L45.2125,80.5916667 C44.8117361,82.2500142 43.3054177,83.4019048 41.6,83.3541667 Z" id="Path"></path>
                    <path d="M91.6083333,114.308333 L91.0416667,114.308333 C89.0936526,113.982424 87.7685013,112.152453 88.0666667,110.2 L89.8375,99.575 C90.1969783,97.6556982 92.0165566,96.3694446 93.9458333,96.6708333 C95.854968,96.9962653 97.148672,98.79483 96.85,100.708333 L95.079167,111.333333 C94.830838,113.05445 93.3471809,114.326156 91.6083333,114.308333 Z" id="Path"></path>
                </g>
            </g>
        </g>
    </g>
</svg>